M48
; DRILL file {KiCad 5.1.10-88a1d61d58~90~ubuntu21.04.1} date Tue Jul 27 13:19:25 2021
; FORMAT={-:-/ absolute / metric / decimal}
; #@! TF.CreationDate,2021-07-27T13:19:25+03:00
; #@! TF.GenerationSoftware,Kicad,Pcbnew,5.1.10-88a1d61d58~90~ubuntu21.04.1
FMAT,2
METRIC
T1C0.400
T2C0.762
T3C0.800
T4C0.950
T5C1.000
T6C2.300
T7C0.900
T8C3.200
%
G90
G05
T1
X68.62Y-41.16
X68.83Y-44.77
X68.9Y-36.44
X69.13Y-68.69
X71.86Y-68.78
X75.04Y-68.78
X76.91Y-44.45
X78.0Y-53.84
X78.08Y-43.11
X78.44Y-92.09
X78.68Y-39.24
X79.44Y-88.48
X79.64Y-72.12
X79.905Y-57.735
X80.55Y-75.13
X80.705Y-56.77
X80.75Y-50.04
X80.76Y-58.46
X80.82Y-55.38
X81.41Y-44.44
X82.41Y-72.15
X82.65Y-73.78
X82.71Y-77.44
X82.765Y-65.075
X83.607Y-61.967
X84.12Y-36.4
X84.14Y-47.1
X84.428Y-44.678
X84.58Y-62.63
X84.58Y-75.71
X85.07Y-96.63
X85.3Y-73.46
X85.86Y-36.4
X85.91Y-81.4
X85.97Y-78.72
X86.1Y-71.35
X86.55Y-60.79
X86.73Y-37.97
X87.525Y-62.035
X87.64Y-64.37
X87.9Y-53.41
X88.13Y-50.95
X88.24Y-36.4
X88.553Y-83.807
X88.85Y-52.43
X90.05Y-73.5
X90.08Y-75.71
X90.15Y-81.92
X90.22Y-78.59
X90.42Y-43.03
X91.3Y-64.88
X91.33Y-63.16
X91.54Y-57.84
X91.54Y-60.65
X91.66Y-41.6
X92.41Y-78.51
X92.43Y-44.01
X92.43Y-75.67
X93.51Y-41.8
X94.09Y-64.94
X94.39Y-37.85
X94.78Y-43.26
X94.81Y-110.015
X95.35Y-115.03
X95.79Y-77.7
X95.79Y-81.06
X95.94Y-37.84
X96.115Y-53.345
X96.51Y-64.94
X96.81Y-58.22
X96.81Y-60.31
X97.16Y-56.39
X97.16Y-83.99
X97.32Y-74.94
X97.49Y-63.1
X97.5Y-51.06
X97.74Y-111.93
X98.255Y-122.325
X99.18Y-86.08
X99.3Y-43.62
X99.32Y-37.84
X99.59Y-81.53
X99.88Y-74.96
X100.02Y-78.83
X100.26Y-114.8
X100.85Y-110.05
X101.76Y-83.52
X102.06Y-88.92
X102.09Y-49.7
X102.44Y-53.31
X102.48Y-74.86
X102.5Y-78.81
X103.42Y-43.16
X103.53Y-37.9
X104.49Y-86.23
X105.95Y-78.94
X106.03Y-74.88
X106.07Y-82.54
X107.4Y-37.88
X107.43Y-50.91
X107.55Y-52.13
X107.85Y-86.16
X108.44Y-43.76
X109.04Y-55.44
X109.04Y-58.05
X109.13Y-63.03
X109.14Y-60.75
X110.11Y-72.2
X110.24Y-78.88
X110.36Y-83.08
X110.82Y-37.88
X111.51Y-76.79
X111.58Y-57.79
X111.68Y-55.46
X111.68Y-60.51
X111.98Y-86.1
X112.81Y-89.84
X112.84Y-91.08
X112.88Y-72.27
X114.05Y-52.96
X114.85Y-83.05
X114.88Y-79.97
X114.96Y-76.55
X115.96Y-72.24
X116.19Y-38.15
X117.47Y-76.61
X117.47Y-79.95
T2
X79.905Y-67.339
X79.905Y-69.879
X79.905Y-102.299
X79.905Y-104.839
X82.445Y-67.339
X82.445Y-69.879
X82.445Y-102.299
X82.445Y-104.839
X84.985Y-67.339
X84.985Y-69.879
X84.985Y-102.299
X84.985Y-104.839
X87.525Y-67.339
X87.525Y-69.879
X87.525Y-102.299
X87.525Y-104.839
X90.065Y-67.339
X90.065Y-69.879
X90.065Y-102.299
X90.065Y-104.839
X92.605Y-67.339
X92.605Y-69.879
X92.605Y-102.299
X92.605Y-104.839
X95.145Y-67.339
X95.145Y-69.879
X95.145Y-102.299
X95.145Y-104.839
X97.685Y-67.339
X97.685Y-69.879
X97.685Y-102.299
X97.685Y-104.839
X100.225Y-67.339
X100.225Y-69.879
X100.225Y-104.839
X102.765Y-67.339
X102.765Y-69.879
X102.765Y-104.839
X105.305Y-67.339
X105.305Y-69.879
X105.305Y-104.839
X107.845Y-67.339
X107.845Y-69.879
X107.845Y-104.839
T3
X101.894Y-96.662
X101.894Y-99.202
X109.514Y-96.662
X109.514Y-99.202
T4
X82.29Y-110.0
X84.79Y-110.0
X86.79Y-110.0
X89.29Y-110.0
X106.31Y-110.0
X108.81Y-110.0
X110.81Y-110.0
X113.31Y-110.0
X121.94Y-61.66
X121.94Y-64.16
X121.94Y-66.66
X121.94Y-72.78
X121.94Y-75.28
X121.94Y-77.78
X121.94Y-80.28
X121.94Y-86.42
X121.94Y-88.92
X121.94Y-91.42
X121.94Y-93.92
X121.94Y-100.05
X121.94Y-102.55
X121.94Y-105.05
T5
X71.48Y-51.56
X71.48Y-54.1
X71.48Y-56.64
X71.48Y-59.18
X74.02Y-51.56
X74.02Y-54.1
X74.02Y-56.64
X74.02Y-59.18
X121.94Y-53.05
X121.94Y-55.55
T6
X79.22Y-112.71
X92.36Y-112.71
X103.24Y-112.71
X116.38Y-112.71
T7
X73.738Y-88.064
X73.738Y-92.464
T8
X73.0Y-40.0
X73.0Y-116.95
X121.0Y-40.0
X121.0Y-117.0
T0
M30
