G04 #@! TF.GenerationSoftware,KiCad,Pcbnew,5.1.10-88a1d61d58~90~ubuntu21.04.1*
G04 #@! TF.CreationDate,2021-10-21T13:00:22+03:00*
G04 #@! TF.ProjectId,klipper_nano,6b6c6970-7065-4725-9f6e-616e6f2e6b69,rev?*
G04 #@! TF.SameCoordinates,Original*
G04 #@! TF.FileFunction,Soldermask,Bot*
G04 #@! TF.FilePolarity,Negative*
%FSLAX46Y46*%
G04 Gerber Fmt 4.6, Leading zero omitted, Abs format (unit mm)*
G04 Created by KiCad (PCBNEW 5.1.10-88a1d61d58~90~ubuntu21.04.1) date 2021-10-21 13:00:22*
%MOMM*%
%LPD*%
G01*
G04 APERTURE LIST*
%ADD10O,1.802000X1.802000*%
%ADD11C,1.702000*%
%ADD12C,3.102000*%
%ADD13O,2.052000X1.802000*%
%ADD14C,1.002000*%
%ADD15O,2.102000X1.802000*%
%ADD16C,1.626000*%
%ADD17C,3.302000*%
%ADD18O,1.702000X1.702000*%
%ADD19C,0.100000*%
G04 APERTURE END LIST*
D10*
X71080000Y-63180000D03*
X71080000Y-60640000D03*
X71080000Y-58100000D03*
G36*
G01*
X70179000Y-56410000D02*
X70179000Y-54710000D01*
G75*
G02*
X70230000Y-54659000I51000J0D01*
G01*
X71930000Y-54659000D01*
G75*
G02*
X71981000Y-54710000I0J-51000D01*
G01*
X71981000Y-56410000D01*
G75*
G02*
X71930000Y-56461000I-51000J0D01*
G01*
X70230000Y-56461000D01*
G75*
G02*
X70179000Y-56410000I0J51000D01*
G01*
G37*
X71020000Y-51780000D03*
G36*
G01*
X70119000Y-50090000D02*
X70119000Y-48390000D01*
G75*
G02*
X70170000Y-48339000I51000J0D01*
G01*
X71870000Y-48339000D01*
G75*
G02*
X71921000Y-48390000I0J-51000D01*
G01*
X71921000Y-50090000D01*
G75*
G02*
X71870000Y-50141000I-51000J0D01*
G01*
X70170000Y-50141000D01*
G75*
G02*
X70119000Y-50090000I0J51000D01*
G01*
G37*
D11*
X113310000Y-110000000D03*
X110810000Y-110000000D03*
X108810000Y-110000000D03*
G36*
G01*
X105459000Y-110750000D02*
X105459000Y-109250000D01*
G75*
G02*
X105510000Y-109199000I51000J0D01*
G01*
X107110000Y-109199000D01*
G75*
G02*
X107161000Y-109250000I0J-51000D01*
G01*
X107161000Y-110750000D01*
G75*
G02*
X107110000Y-110801000I-51000J0D01*
G01*
X105510000Y-110801000D01*
G75*
G02*
X105459000Y-110750000I0J51000D01*
G01*
G37*
D12*
X116380000Y-112710000D03*
X103240000Y-112710000D03*
D13*
X121940000Y-66660000D03*
X121940000Y-64160000D03*
G36*
G01*
X121179000Y-60759000D02*
X122701000Y-60759000D01*
G75*
G02*
X122966000Y-61024000I0J-265000D01*
G01*
X122966000Y-62296000D01*
G75*
G02*
X122701000Y-62561000I-265000J0D01*
G01*
X121179000Y-62561000D01*
G75*
G02*
X120914000Y-62296000I0J265000D01*
G01*
X120914000Y-61024000D01*
G75*
G02*
X121179000Y-60759000I265000J0D01*
G01*
G37*
D14*
X73738000Y-92464000D03*
X73738000Y-88064000D03*
D11*
X89290000Y-110000000D03*
X86790000Y-110000000D03*
X84790000Y-110000000D03*
G36*
G01*
X81439000Y-110750000D02*
X81439000Y-109250000D01*
G75*
G02*
X81490000Y-109199000I51000J0D01*
G01*
X83090000Y-109199000D01*
G75*
G02*
X83141000Y-109250000I0J-51000D01*
G01*
X83141000Y-110750000D01*
G75*
G02*
X83090000Y-110801000I-51000J0D01*
G01*
X81490000Y-110801000D01*
G75*
G02*
X81439000Y-110750000I0J51000D01*
G01*
G37*
D12*
X92360000Y-112710000D03*
X79220000Y-112710000D03*
D15*
X121940000Y-55550000D03*
G36*
G01*
X121154000Y-52149000D02*
X122726000Y-52149000D01*
G75*
G02*
X122991000Y-52414000I0J-265000D01*
G01*
X122991000Y-53686000D01*
G75*
G02*
X122726000Y-53951000I-265000J0D01*
G01*
X121154000Y-53951000D01*
G75*
G02*
X120889000Y-53686000I0J265000D01*
G01*
X120889000Y-52414000D01*
G75*
G02*
X121154000Y-52149000I265000J0D01*
G01*
G37*
D16*
X107844999Y-69878999D03*
X105304999Y-69878999D03*
X102764999Y-69878999D03*
X100224999Y-69878999D03*
X97684999Y-69878999D03*
X95144999Y-69878999D03*
X92604999Y-69878999D03*
X90064999Y-69878999D03*
X87524999Y-69878999D03*
X84984999Y-69878999D03*
X82444999Y-69878999D03*
X79904999Y-69878999D03*
X107844999Y-67338999D03*
X105304999Y-67338999D03*
X102764999Y-67338999D03*
X100224999Y-67338999D03*
X97684999Y-67338999D03*
X95144999Y-67338999D03*
X92604999Y-67338999D03*
X90064999Y-67338999D03*
X87524999Y-67338999D03*
X84984999Y-67338999D03*
X82444999Y-67338999D03*
X79904999Y-67338999D03*
X97684999Y-102298999D03*
X95144999Y-102298999D03*
X92604999Y-102298999D03*
X90064999Y-102298999D03*
X87524999Y-102298999D03*
X84984999Y-102298999D03*
X82444999Y-102298999D03*
X79904999Y-102298999D03*
X107844999Y-104838999D03*
X105304999Y-104838999D03*
X102764999Y-104838999D03*
X100224999Y-104838999D03*
X97684999Y-104838999D03*
X95144999Y-104838999D03*
X92604999Y-104838999D03*
X90064999Y-104838999D03*
X87524999Y-104838999D03*
X84984999Y-104838999D03*
X82444999Y-104838999D03*
X79904999Y-104838999D03*
D13*
X121940000Y-80280000D03*
X121940000Y-77780000D03*
X121940000Y-75280000D03*
G36*
G01*
X121179000Y-71879000D02*
X122701000Y-71879000D01*
G75*
G02*
X122966000Y-72144000I0J-265000D01*
G01*
X122966000Y-73416000D01*
G75*
G02*
X122701000Y-73681000I-265000J0D01*
G01*
X121179000Y-73681000D01*
G75*
G02*
X120914000Y-73416000I0J265000D01*
G01*
X120914000Y-72144000D01*
G75*
G02*
X121179000Y-71879000I265000J0D01*
G01*
G37*
D17*
X73000000Y-40000000D03*
X73000000Y-116950000D03*
X121000000Y-40000000D03*
X121000000Y-117000000D03*
D18*
X109514000Y-96662000D03*
X101894000Y-99202000D03*
X109514000Y-99202000D03*
G36*
G01*
X101043000Y-97462000D02*
X101043000Y-95862000D01*
G75*
G02*
X101094000Y-95811000I51000J0D01*
G01*
X102694000Y-95811000D01*
G75*
G02*
X102745000Y-95862000I0J-51000D01*
G01*
X102745000Y-97462000D01*
G75*
G02*
X102694000Y-97513000I-51000J0D01*
G01*
X101094000Y-97513000D01*
G75*
G02*
X101043000Y-97462000I0J51000D01*
G01*
G37*
D13*
X121940000Y-105050000D03*
X121940000Y-102550000D03*
G36*
G01*
X121179000Y-99149000D02*
X122701000Y-99149000D01*
G75*
G02*
X122966000Y-99414000I0J-265000D01*
G01*
X122966000Y-100686000D01*
G75*
G02*
X122701000Y-100951000I-265000J0D01*
G01*
X121179000Y-100951000D01*
G75*
G02*
X120914000Y-100686000I0J265000D01*
G01*
X120914000Y-99414000D01*
G75*
G02*
X121179000Y-99149000I265000J0D01*
G01*
G37*
X121940000Y-93920000D03*
X121940000Y-91420000D03*
X121940000Y-88920000D03*
G36*
G01*
X121179000Y-85519000D02*
X122701000Y-85519000D01*
G75*
G02*
X122966000Y-85784000I0J-265000D01*
G01*
X122966000Y-87056000D01*
G75*
G02*
X122701000Y-87321000I-265000J0D01*
G01*
X121179000Y-87321000D01*
G75*
G02*
X120914000Y-87056000I0J265000D01*
G01*
X120914000Y-85784000D01*
G75*
G02*
X121179000Y-85519000I265000J0D01*
G01*
G37*
D19*
G36*
X122967165Y-100684374D02*
G01*
X122968000Y-100686000D01*
X122968000Y-100768097D01*
X122967990Y-100768293D01*
X122964001Y-100808796D01*
X122963925Y-100809181D01*
X122953899Y-100842233D01*
X122953749Y-100842595D01*
X122937472Y-100873046D01*
X122937254Y-100873372D01*
X122915345Y-100900068D01*
X122915068Y-100900345D01*
X122888372Y-100922254D01*
X122888046Y-100922472D01*
X122857595Y-100938749D01*
X122857233Y-100938899D01*
X122824181Y-100948925D01*
X122823796Y-100949001D01*
X122783293Y-100952990D01*
X122783097Y-100953000D01*
X122701000Y-100953000D01*
X122699268Y-100952000D01*
X122699268Y-100950000D01*
X122700804Y-100949010D01*
X122752304Y-100943938D01*
X122801642Y-100928971D01*
X122847110Y-100904668D01*
X122886962Y-100871962D01*
X122919668Y-100832110D01*
X122943971Y-100786642D01*
X122958938Y-100737304D01*
X122964010Y-100685804D01*
X122965175Y-100684178D01*
X122967165Y-100684374D01*
G37*
G36*
X120915990Y-100685804D02*
G01*
X120921062Y-100737304D01*
X120936029Y-100786642D01*
X120960332Y-100832110D01*
X120993038Y-100871962D01*
X121032890Y-100904668D01*
X121078358Y-100928971D01*
X121127696Y-100943938D01*
X121179196Y-100949010D01*
X121180822Y-100950175D01*
X121180626Y-100952165D01*
X121179000Y-100953000D01*
X121096903Y-100953000D01*
X121096707Y-100952990D01*
X121056204Y-100949001D01*
X121055819Y-100948925D01*
X121022767Y-100938899D01*
X121022405Y-100938749D01*
X120991954Y-100922472D01*
X120991628Y-100922254D01*
X120964932Y-100900345D01*
X120964655Y-100900068D01*
X120942746Y-100873372D01*
X120942528Y-100873046D01*
X120926251Y-100842595D01*
X120926101Y-100842233D01*
X120916075Y-100809181D01*
X120915999Y-100808796D01*
X120912010Y-100768293D01*
X120912000Y-100768097D01*
X120912000Y-100686000D01*
X120913000Y-100684268D01*
X120915000Y-100684268D01*
X120915990Y-100685804D01*
G37*
G36*
X121180732Y-99148000D02*
G01*
X121180732Y-99150000D01*
X121179196Y-99150990D01*
X121127696Y-99156062D01*
X121078358Y-99171029D01*
X121032890Y-99195332D01*
X120993038Y-99228038D01*
X120960332Y-99267890D01*
X120936029Y-99313358D01*
X120921062Y-99362696D01*
X120915990Y-99414196D01*
X120914825Y-99415822D01*
X120912835Y-99415626D01*
X120912000Y-99414000D01*
X120912000Y-99331903D01*
X120912010Y-99331707D01*
X120915999Y-99291204D01*
X120916075Y-99290819D01*
X120926101Y-99257767D01*
X120926251Y-99257405D01*
X120942528Y-99226954D01*
X120942746Y-99226628D01*
X120964655Y-99199932D01*
X120964932Y-99199655D01*
X120991628Y-99177746D01*
X120991954Y-99177528D01*
X121022405Y-99161251D01*
X121022767Y-99161101D01*
X121055819Y-99151075D01*
X121056204Y-99150999D01*
X121096707Y-99147010D01*
X121096903Y-99147000D01*
X121179000Y-99147000D01*
X121180732Y-99148000D01*
G37*
G36*
X122783293Y-99147010D02*
G01*
X122823796Y-99150999D01*
X122824181Y-99151075D01*
X122857233Y-99161101D01*
X122857595Y-99161251D01*
X122888046Y-99177528D01*
X122888372Y-99177746D01*
X122915068Y-99199655D01*
X122915345Y-99199932D01*
X122937254Y-99226628D01*
X122937472Y-99226954D01*
X122953749Y-99257405D01*
X122953899Y-99257767D01*
X122963925Y-99290819D01*
X122964001Y-99291204D01*
X122967990Y-99331707D01*
X122968000Y-99331903D01*
X122968000Y-99414000D01*
X122967000Y-99415732D01*
X122965000Y-99415732D01*
X122964010Y-99414196D01*
X122958938Y-99362696D01*
X122943971Y-99313358D01*
X122919668Y-99267890D01*
X122886962Y-99228038D01*
X122847110Y-99195332D01*
X122801642Y-99171029D01*
X122752304Y-99156062D01*
X122700804Y-99150990D01*
X122699178Y-99149825D01*
X122699374Y-99147835D01*
X122701000Y-99147000D01*
X122783097Y-99147000D01*
X122783293Y-99147010D01*
G37*
G36*
X122967165Y-87054374D02*
G01*
X122968000Y-87056000D01*
X122968000Y-87138097D01*
X122967990Y-87138293D01*
X122964001Y-87178796D01*
X122963925Y-87179181D01*
X122953899Y-87212233D01*
X122953749Y-87212595D01*
X122937472Y-87243046D01*
X122937254Y-87243372D01*
X122915345Y-87270068D01*
X122915068Y-87270345D01*
X122888372Y-87292254D01*
X122888046Y-87292472D01*
X122857595Y-87308749D01*
X122857233Y-87308899D01*
X122824181Y-87318925D01*
X122823796Y-87319001D01*
X122783293Y-87322990D01*
X122783097Y-87323000D01*
X122701000Y-87323000D01*
X122699268Y-87322000D01*
X122699268Y-87320000D01*
X122700804Y-87319010D01*
X122752304Y-87313938D01*
X122801642Y-87298971D01*
X122847110Y-87274668D01*
X122886962Y-87241962D01*
X122919668Y-87202110D01*
X122943971Y-87156642D01*
X122958938Y-87107304D01*
X122964010Y-87055804D01*
X122965175Y-87054178D01*
X122967165Y-87054374D01*
G37*
G36*
X120915990Y-87055804D02*
G01*
X120921062Y-87107304D01*
X120936029Y-87156642D01*
X120960332Y-87202110D01*
X120993038Y-87241962D01*
X121032890Y-87274668D01*
X121078358Y-87298971D01*
X121127696Y-87313938D01*
X121179196Y-87319010D01*
X121180822Y-87320175D01*
X121180626Y-87322165D01*
X121179000Y-87323000D01*
X121096903Y-87323000D01*
X121096707Y-87322990D01*
X121056204Y-87319001D01*
X121055819Y-87318925D01*
X121022767Y-87308899D01*
X121022405Y-87308749D01*
X120991954Y-87292472D01*
X120991628Y-87292254D01*
X120964932Y-87270345D01*
X120964655Y-87270068D01*
X120942746Y-87243372D01*
X120942528Y-87243046D01*
X120926251Y-87212595D01*
X120926101Y-87212233D01*
X120916075Y-87179181D01*
X120915999Y-87178796D01*
X120912010Y-87138293D01*
X120912000Y-87138097D01*
X120912000Y-87056000D01*
X120913000Y-87054268D01*
X120915000Y-87054268D01*
X120915990Y-87055804D01*
G37*
G36*
X121180732Y-85518000D02*
G01*
X121180732Y-85520000D01*
X121179196Y-85520990D01*
X121127696Y-85526062D01*
X121078358Y-85541029D01*
X121032890Y-85565332D01*
X120993038Y-85598038D01*
X120960332Y-85637890D01*
X120936029Y-85683358D01*
X120921062Y-85732696D01*
X120915990Y-85784196D01*
X120914825Y-85785822D01*
X120912835Y-85785626D01*
X120912000Y-85784000D01*
X120912000Y-85701903D01*
X120912010Y-85701707D01*
X120915999Y-85661204D01*
X120916075Y-85660819D01*
X120926101Y-85627767D01*
X120926251Y-85627405D01*
X120942528Y-85596954D01*
X120942746Y-85596628D01*
X120964655Y-85569932D01*
X120964932Y-85569655D01*
X120991628Y-85547746D01*
X120991954Y-85547528D01*
X121022405Y-85531251D01*
X121022767Y-85531101D01*
X121055819Y-85521075D01*
X121056204Y-85520999D01*
X121096707Y-85517010D01*
X121096903Y-85517000D01*
X121179000Y-85517000D01*
X121180732Y-85518000D01*
G37*
G36*
X122783293Y-85517010D02*
G01*
X122823796Y-85520999D01*
X122824181Y-85521075D01*
X122857233Y-85531101D01*
X122857595Y-85531251D01*
X122888046Y-85547528D01*
X122888372Y-85547746D01*
X122915068Y-85569655D01*
X122915345Y-85569932D01*
X122937254Y-85596628D01*
X122937472Y-85596954D01*
X122953749Y-85627405D01*
X122953899Y-85627767D01*
X122963925Y-85660819D01*
X122964001Y-85661204D01*
X122967990Y-85701707D01*
X122968000Y-85701903D01*
X122968000Y-85784000D01*
X122967000Y-85785732D01*
X122965000Y-85785732D01*
X122964010Y-85784196D01*
X122958938Y-85732696D01*
X122943971Y-85683358D01*
X122919668Y-85637890D01*
X122886962Y-85598038D01*
X122847110Y-85565332D01*
X122801642Y-85541029D01*
X122752304Y-85526062D01*
X122700804Y-85520990D01*
X122699178Y-85519825D01*
X122699374Y-85517835D01*
X122701000Y-85517000D01*
X122783097Y-85517000D01*
X122783293Y-85517010D01*
G37*
G36*
X122967165Y-73414374D02*
G01*
X122968000Y-73416000D01*
X122968000Y-73498097D01*
X122967990Y-73498293D01*
X122964001Y-73538796D01*
X122963925Y-73539181D01*
X122953899Y-73572233D01*
X122953749Y-73572595D01*
X122937472Y-73603046D01*
X122937254Y-73603372D01*
X122915345Y-73630068D01*
X122915068Y-73630345D01*
X122888372Y-73652254D01*
X122888046Y-73652472D01*
X122857595Y-73668749D01*
X122857233Y-73668899D01*
X122824181Y-73678925D01*
X122823796Y-73679001D01*
X122783293Y-73682990D01*
X122783097Y-73683000D01*
X122701000Y-73683000D01*
X122699268Y-73682000D01*
X122699268Y-73680000D01*
X122700804Y-73679010D01*
X122752304Y-73673938D01*
X122801642Y-73658971D01*
X122847110Y-73634668D01*
X122886962Y-73601962D01*
X122919668Y-73562110D01*
X122943971Y-73516642D01*
X122958938Y-73467304D01*
X122964010Y-73415804D01*
X122965175Y-73414178D01*
X122967165Y-73414374D01*
G37*
G36*
X120915990Y-73415804D02*
G01*
X120921062Y-73467304D01*
X120936029Y-73516642D01*
X120960332Y-73562110D01*
X120993038Y-73601962D01*
X121032890Y-73634668D01*
X121078358Y-73658971D01*
X121127696Y-73673938D01*
X121179196Y-73679010D01*
X121180822Y-73680175D01*
X121180626Y-73682165D01*
X121179000Y-73683000D01*
X121096903Y-73683000D01*
X121096707Y-73682990D01*
X121056204Y-73679001D01*
X121055819Y-73678925D01*
X121022767Y-73668899D01*
X121022405Y-73668749D01*
X120991954Y-73652472D01*
X120991628Y-73652254D01*
X120964932Y-73630345D01*
X120964655Y-73630068D01*
X120942746Y-73603372D01*
X120942528Y-73603046D01*
X120926251Y-73572595D01*
X120926101Y-73572233D01*
X120916075Y-73539181D01*
X120915999Y-73538796D01*
X120912010Y-73498293D01*
X120912000Y-73498097D01*
X120912000Y-73416000D01*
X120913000Y-73414268D01*
X120915000Y-73414268D01*
X120915990Y-73415804D01*
G37*
G36*
X121180732Y-71878000D02*
G01*
X121180732Y-71880000D01*
X121179196Y-71880990D01*
X121127696Y-71886062D01*
X121078358Y-71901029D01*
X121032890Y-71925332D01*
X120993038Y-71958038D01*
X120960332Y-71997890D01*
X120936029Y-72043358D01*
X120921062Y-72092696D01*
X120915990Y-72144196D01*
X120914825Y-72145822D01*
X120912835Y-72145626D01*
X120912000Y-72144000D01*
X120912000Y-72061903D01*
X120912010Y-72061707D01*
X120915999Y-72021204D01*
X120916075Y-72020819D01*
X120926101Y-71987767D01*
X120926251Y-71987405D01*
X120942528Y-71956954D01*
X120942746Y-71956628D01*
X120964655Y-71929932D01*
X120964932Y-71929655D01*
X120991628Y-71907746D01*
X120991954Y-71907528D01*
X121022405Y-71891251D01*
X121022767Y-71891101D01*
X121055819Y-71881075D01*
X121056204Y-71880999D01*
X121096707Y-71877010D01*
X121096903Y-71877000D01*
X121179000Y-71877000D01*
X121180732Y-71878000D01*
G37*
G36*
X122783293Y-71877010D02*
G01*
X122823796Y-71880999D01*
X122824181Y-71881075D01*
X122857233Y-71891101D01*
X122857595Y-71891251D01*
X122888046Y-71907528D01*
X122888372Y-71907746D01*
X122915068Y-71929655D01*
X122915345Y-71929932D01*
X122937254Y-71956628D01*
X122937472Y-71956954D01*
X122953749Y-71987405D01*
X122953899Y-71987767D01*
X122963925Y-72020819D01*
X122964001Y-72021204D01*
X122967990Y-72061707D01*
X122968000Y-72061903D01*
X122968000Y-72144000D01*
X122967000Y-72145732D01*
X122965000Y-72145732D01*
X122964010Y-72144196D01*
X122958938Y-72092696D01*
X122943971Y-72043358D01*
X122919668Y-71997890D01*
X122886962Y-71958038D01*
X122847110Y-71925332D01*
X122801642Y-71901029D01*
X122752304Y-71886062D01*
X122700804Y-71880990D01*
X122699178Y-71879825D01*
X122699374Y-71877835D01*
X122701000Y-71877000D01*
X122783097Y-71877000D01*
X122783293Y-71877010D01*
G37*
G36*
X120915990Y-62295804D02*
G01*
X120921062Y-62347304D01*
X120936029Y-62396642D01*
X120960332Y-62442110D01*
X120993038Y-62481962D01*
X121032890Y-62514668D01*
X121078358Y-62538971D01*
X121127696Y-62553938D01*
X121179196Y-62559010D01*
X121180822Y-62560175D01*
X121180626Y-62562165D01*
X121179000Y-62563000D01*
X121096903Y-62563000D01*
X121096707Y-62562990D01*
X121056204Y-62559001D01*
X121055819Y-62558925D01*
X121022767Y-62548899D01*
X121022405Y-62548749D01*
X120991954Y-62532472D01*
X120991628Y-62532254D01*
X120964932Y-62510345D01*
X120964655Y-62510068D01*
X120942746Y-62483372D01*
X120942528Y-62483046D01*
X120926251Y-62452595D01*
X120926101Y-62452233D01*
X120916075Y-62419181D01*
X120915999Y-62418796D01*
X120912010Y-62378293D01*
X120912000Y-62378097D01*
X120912000Y-62296000D01*
X120913000Y-62294268D01*
X120915000Y-62294268D01*
X120915990Y-62295804D01*
G37*
G36*
X122967165Y-62294374D02*
G01*
X122968000Y-62296000D01*
X122968000Y-62378097D01*
X122967990Y-62378293D01*
X122964001Y-62418796D01*
X122963925Y-62419181D01*
X122953899Y-62452233D01*
X122953749Y-62452595D01*
X122937472Y-62483046D01*
X122937254Y-62483372D01*
X122915345Y-62510068D01*
X122915068Y-62510345D01*
X122888372Y-62532254D01*
X122888046Y-62532472D01*
X122857595Y-62548749D01*
X122857233Y-62548899D01*
X122824181Y-62558925D01*
X122823796Y-62559001D01*
X122783293Y-62562990D01*
X122783097Y-62563000D01*
X122701000Y-62563000D01*
X122699268Y-62562000D01*
X122699268Y-62560000D01*
X122700804Y-62559010D01*
X122752304Y-62553938D01*
X122801642Y-62538971D01*
X122847110Y-62514668D01*
X122886962Y-62481962D01*
X122919668Y-62442110D01*
X122943971Y-62396642D01*
X122958938Y-62347304D01*
X122964010Y-62295804D01*
X122965175Y-62294178D01*
X122967165Y-62294374D01*
G37*
G36*
X121180732Y-60758000D02*
G01*
X121180732Y-60760000D01*
X121179196Y-60760990D01*
X121127696Y-60766062D01*
X121078358Y-60781029D01*
X121032890Y-60805332D01*
X120993038Y-60838038D01*
X120960332Y-60877890D01*
X120936029Y-60923358D01*
X120921062Y-60972696D01*
X120915990Y-61024196D01*
X120914825Y-61025822D01*
X120912835Y-61025626D01*
X120912000Y-61024000D01*
X120912000Y-60941903D01*
X120912010Y-60941707D01*
X120915999Y-60901204D01*
X120916075Y-60900819D01*
X120926101Y-60867767D01*
X120926251Y-60867405D01*
X120942528Y-60836954D01*
X120942746Y-60836628D01*
X120964655Y-60809932D01*
X120964932Y-60809655D01*
X120991628Y-60787746D01*
X120991954Y-60787528D01*
X121022405Y-60771251D01*
X121022767Y-60771101D01*
X121055819Y-60761075D01*
X121056204Y-60760999D01*
X121096707Y-60757010D01*
X121096903Y-60757000D01*
X121179000Y-60757000D01*
X121180732Y-60758000D01*
G37*
G36*
X122783293Y-60757010D02*
G01*
X122823796Y-60760999D01*
X122824181Y-60761075D01*
X122857233Y-60771101D01*
X122857595Y-60771251D01*
X122888046Y-60787528D01*
X122888372Y-60787746D01*
X122915068Y-60809655D01*
X122915345Y-60809932D01*
X122937254Y-60836628D01*
X122937472Y-60836954D01*
X122953749Y-60867405D01*
X122953899Y-60867767D01*
X122963925Y-60900819D01*
X122964001Y-60901204D01*
X122967990Y-60941707D01*
X122968000Y-60941903D01*
X122968000Y-61024000D01*
X122967000Y-61025732D01*
X122965000Y-61025732D01*
X122964010Y-61024196D01*
X122958938Y-60972696D01*
X122943971Y-60923358D01*
X122919668Y-60877890D01*
X122886962Y-60838038D01*
X122847110Y-60805332D01*
X122801642Y-60781029D01*
X122752304Y-60766062D01*
X122700804Y-60760990D01*
X122699178Y-60759825D01*
X122699374Y-60757835D01*
X122701000Y-60757000D01*
X122783097Y-60757000D01*
X122783293Y-60757010D01*
G37*
G36*
X120890990Y-53685804D02*
G01*
X120896062Y-53737304D01*
X120911029Y-53786642D01*
X120935332Y-53832110D01*
X120968038Y-53871962D01*
X121007890Y-53904668D01*
X121053358Y-53928971D01*
X121102696Y-53943938D01*
X121154196Y-53949010D01*
X121155822Y-53950175D01*
X121155626Y-53952165D01*
X121154000Y-53953000D01*
X121071903Y-53953000D01*
X121071707Y-53952990D01*
X121031204Y-53949001D01*
X121030819Y-53948925D01*
X120997767Y-53938899D01*
X120997405Y-53938749D01*
X120966954Y-53922472D01*
X120966628Y-53922254D01*
X120939932Y-53900345D01*
X120939655Y-53900068D01*
X120917746Y-53873372D01*
X120917528Y-53873046D01*
X120901251Y-53842595D01*
X120901101Y-53842233D01*
X120891075Y-53809181D01*
X120890999Y-53808796D01*
X120887010Y-53768293D01*
X120887000Y-53768097D01*
X120887000Y-53686000D01*
X120888000Y-53684268D01*
X120890000Y-53684268D01*
X120890990Y-53685804D01*
G37*
G36*
X122992165Y-53684374D02*
G01*
X122993000Y-53686000D01*
X122993000Y-53768097D01*
X122992990Y-53768293D01*
X122989001Y-53808796D01*
X122988925Y-53809181D01*
X122978899Y-53842233D01*
X122978749Y-53842595D01*
X122962472Y-53873046D01*
X122962254Y-53873372D01*
X122940345Y-53900068D01*
X122940068Y-53900345D01*
X122913372Y-53922254D01*
X122913046Y-53922472D01*
X122882595Y-53938749D01*
X122882233Y-53938899D01*
X122849181Y-53948925D01*
X122848796Y-53949001D01*
X122808293Y-53952990D01*
X122808097Y-53953000D01*
X122726000Y-53953000D01*
X122724268Y-53952000D01*
X122724268Y-53950000D01*
X122725804Y-53949010D01*
X122777304Y-53943938D01*
X122826642Y-53928971D01*
X122872110Y-53904668D01*
X122911962Y-53871962D01*
X122944668Y-53832110D01*
X122968971Y-53786642D01*
X122983938Y-53737304D01*
X122989010Y-53685804D01*
X122990175Y-53684178D01*
X122992165Y-53684374D01*
G37*
G36*
X121155732Y-52148000D02*
G01*
X121155732Y-52150000D01*
X121154196Y-52150990D01*
X121102696Y-52156062D01*
X121053358Y-52171029D01*
X121007890Y-52195332D01*
X120968038Y-52228038D01*
X120935332Y-52267890D01*
X120911029Y-52313358D01*
X120896062Y-52362696D01*
X120890990Y-52414196D01*
X120889825Y-52415822D01*
X120887835Y-52415626D01*
X120887000Y-52414000D01*
X120887000Y-52331903D01*
X120887010Y-52331707D01*
X120890999Y-52291204D01*
X120891075Y-52290819D01*
X120901101Y-52257767D01*
X120901251Y-52257405D01*
X120917528Y-52226954D01*
X120917746Y-52226628D01*
X120939655Y-52199932D01*
X120939932Y-52199655D01*
X120966628Y-52177746D01*
X120966954Y-52177528D01*
X120997405Y-52161251D01*
X120997767Y-52161101D01*
X121030819Y-52151075D01*
X121031204Y-52150999D01*
X121071707Y-52147010D01*
X121071903Y-52147000D01*
X121154000Y-52147000D01*
X121155732Y-52148000D01*
G37*
G36*
X122808293Y-52147010D02*
G01*
X122848796Y-52150999D01*
X122849181Y-52151075D01*
X122882233Y-52161101D01*
X122882595Y-52161251D01*
X122913046Y-52177528D01*
X122913372Y-52177746D01*
X122940068Y-52199655D01*
X122940345Y-52199932D01*
X122962254Y-52226628D01*
X122962472Y-52226954D01*
X122978749Y-52257405D01*
X122978899Y-52257767D01*
X122988925Y-52290819D01*
X122989001Y-52291204D01*
X122992990Y-52331707D01*
X122993000Y-52331903D01*
X122993000Y-52414000D01*
X122992000Y-52415732D01*
X122990000Y-52415732D01*
X122989010Y-52414196D01*
X122983938Y-52362696D01*
X122968971Y-52313358D01*
X122944668Y-52267890D01*
X122911962Y-52228038D01*
X122872110Y-52195332D01*
X122826642Y-52171029D01*
X122777304Y-52156062D01*
X122725804Y-52150990D01*
X122724178Y-52149825D01*
X122724374Y-52147835D01*
X122726000Y-52147000D01*
X122808097Y-52147000D01*
X122808293Y-52147010D01*
G37*
M02*
