G04 #@! TF.GenerationSoftware,KiCad,Pcbnew,5.1.10-88a1d61d58~90~ubuntu21.04.1*
G04 #@! TF.CreationDate,2021-07-27T13:19:27+03:00*
G04 #@! TF.ProjectId,klipper_nano,6b6c6970-7065-4725-9f6e-616e6f2e6b69,rev?*
G04 #@! TF.SameCoordinates,Original*
G04 #@! TF.FileFunction,Paste,Top*
G04 #@! TF.FilePolarity,Positive*
%FSLAX46Y46*%
G04 Gerber Fmt 4.6, Leading zero omitted, Abs format (unit mm)*
G04 Created by KiCad (PCBNEW 5.1.10-88a1d61d58~90~ubuntu21.04.1) date 2021-07-27 13:19:27*
%MOMM*%
%LPD*%
G01*
G04 APERTURE LIST*
%ADD10R,0.650000X1.060000*%
%ADD11R,2.500000X0.500000*%
%ADD12R,2.500000X2.000000*%
%ADD13R,0.600000X1.800000*%
%ADD14R,0.400000X1.200000*%
G04 APERTURE END LIST*
D10*
X97730000Y-115510000D03*
X98680000Y-115510000D03*
X96780000Y-115510000D03*
X96780000Y-113310000D03*
X97730000Y-113310000D03*
X98680000Y-113310000D03*
G36*
G01*
X98369999Y-109507500D02*
X99270001Y-109507500D01*
G75*
G02*
X99520000Y-109757499I0J-249999D01*
G01*
X99520000Y-110282501D01*
G75*
G02*
X99270001Y-110532500I-249999J0D01*
G01*
X98369999Y-110532500D01*
G75*
G02*
X98120000Y-110282501I0J249999D01*
G01*
X98120000Y-109757499D01*
G75*
G02*
X98369999Y-109507500I249999J0D01*
G01*
G37*
G36*
G01*
X98369999Y-107682500D02*
X99270001Y-107682500D01*
G75*
G02*
X99520000Y-107932499I0J-249999D01*
G01*
X99520000Y-108457501D01*
G75*
G02*
X99270001Y-108707500I-249999J0D01*
G01*
X98369999Y-108707500D01*
G75*
G02*
X98120000Y-108457501I0J249999D01*
G01*
X98120000Y-107932499D01*
G75*
G02*
X98369999Y-107682500I249999J0D01*
G01*
G37*
G36*
G01*
X100399999Y-109537500D02*
X101300001Y-109537500D01*
G75*
G02*
X101550000Y-109787499I0J-249999D01*
G01*
X101550000Y-110312501D01*
G75*
G02*
X101300001Y-110562500I-249999J0D01*
G01*
X100399999Y-110562500D01*
G75*
G02*
X100150000Y-110312501I0J249999D01*
G01*
X100150000Y-109787499D01*
G75*
G02*
X100399999Y-109537500I249999J0D01*
G01*
G37*
G36*
G01*
X100399999Y-107712500D02*
X101300001Y-107712500D01*
G75*
G02*
X101550000Y-107962499I0J-249999D01*
G01*
X101550000Y-108487501D01*
G75*
G02*
X101300001Y-108737500I-249999J0D01*
G01*
X100399999Y-108737500D01*
G75*
G02*
X100150000Y-108487501I0J249999D01*
G01*
X100150000Y-107962499D01*
G75*
G02*
X100399999Y-107712500I249999J0D01*
G01*
G37*
G36*
G01*
X94359999Y-109502500D02*
X95260001Y-109502500D01*
G75*
G02*
X95510000Y-109752499I0J-249999D01*
G01*
X95510000Y-110277501D01*
G75*
G02*
X95260001Y-110527500I-249999J0D01*
G01*
X94359999Y-110527500D01*
G75*
G02*
X94110000Y-110277501I0J249999D01*
G01*
X94110000Y-109752499D01*
G75*
G02*
X94359999Y-109502500I249999J0D01*
G01*
G37*
G36*
G01*
X94359999Y-107677500D02*
X95260001Y-107677500D01*
G75*
G02*
X95510000Y-107927499I0J-249999D01*
G01*
X95510000Y-108452501D01*
G75*
G02*
X95260001Y-108702500I-249999J0D01*
G01*
X94359999Y-108702500D01*
G75*
G02*
X94110000Y-108452501I0J249999D01*
G01*
X94110000Y-107927499D01*
G75*
G02*
X94359999Y-107677500I249999J0D01*
G01*
G37*
G36*
G01*
X96359999Y-109522500D02*
X97260001Y-109522500D01*
G75*
G02*
X97510000Y-109772499I0J-249999D01*
G01*
X97510000Y-110297501D01*
G75*
G02*
X97260001Y-110547500I-249999J0D01*
G01*
X96359999Y-110547500D01*
G75*
G02*
X96110000Y-110297501I0J249999D01*
G01*
X96110000Y-109772499D01*
G75*
G02*
X96359999Y-109522500I249999J0D01*
G01*
G37*
G36*
G01*
X96359999Y-107697500D02*
X97260001Y-107697500D01*
G75*
G02*
X97510000Y-107947499I0J-249999D01*
G01*
X97510000Y-108472501D01*
G75*
G02*
X97260001Y-108722500I-249999J0D01*
G01*
X96359999Y-108722500D01*
G75*
G02*
X96110000Y-108472501I0J249999D01*
G01*
X96110000Y-107947499D01*
G75*
G02*
X96359999Y-107697500I249999J0D01*
G01*
G37*
G36*
G01*
X117315000Y-89690000D02*
X116365000Y-89690000D01*
G75*
G02*
X116115000Y-89440000I0J250000D01*
G01*
X116115000Y-88940000D01*
G75*
G02*
X116365000Y-88690000I250000J0D01*
G01*
X117315000Y-88690000D01*
G75*
G02*
X117565000Y-88940000I0J-250000D01*
G01*
X117565000Y-89440000D01*
G75*
G02*
X117315000Y-89690000I-250000J0D01*
G01*
G37*
G36*
G01*
X117315000Y-91590000D02*
X116365000Y-91590000D01*
G75*
G02*
X116115000Y-91340000I0J250000D01*
G01*
X116115000Y-90840000D01*
G75*
G02*
X116365000Y-90590000I250000J0D01*
G01*
X117315000Y-90590000D01*
G75*
G02*
X117565000Y-90840000I0J-250000D01*
G01*
X117565000Y-91340000D01*
G75*
G02*
X117315000Y-91590000I-250000J0D01*
G01*
G37*
G36*
G01*
X113510000Y-88625000D02*
X113510000Y-88325000D01*
G75*
G02*
X113660000Y-88175000I150000J0D01*
G01*
X115310000Y-88175000D01*
G75*
G02*
X115460000Y-88325000I0J-150000D01*
G01*
X115460000Y-88625000D01*
G75*
G02*
X115310000Y-88775000I-150000J0D01*
G01*
X113660000Y-88775000D01*
G75*
G02*
X113510000Y-88625000I0J150000D01*
G01*
G37*
G36*
G01*
X113510000Y-89895000D02*
X113510000Y-89595000D01*
G75*
G02*
X113660000Y-89445000I150000J0D01*
G01*
X115310000Y-89445000D01*
G75*
G02*
X115460000Y-89595000I0J-150000D01*
G01*
X115460000Y-89895000D01*
G75*
G02*
X115310000Y-90045000I-150000J0D01*
G01*
X113660000Y-90045000D01*
G75*
G02*
X113510000Y-89895000I0J150000D01*
G01*
G37*
G36*
G01*
X113510000Y-91165000D02*
X113510000Y-90865000D01*
G75*
G02*
X113660000Y-90715000I150000J0D01*
G01*
X115310000Y-90715000D01*
G75*
G02*
X115460000Y-90865000I0J-150000D01*
G01*
X115460000Y-91165000D01*
G75*
G02*
X115310000Y-91315000I-150000J0D01*
G01*
X113660000Y-91315000D01*
G75*
G02*
X113510000Y-91165000I0J150000D01*
G01*
G37*
G36*
G01*
X113510000Y-92435000D02*
X113510000Y-92135000D01*
G75*
G02*
X113660000Y-91985000I150000J0D01*
G01*
X115310000Y-91985000D01*
G75*
G02*
X115460000Y-92135000I0J-150000D01*
G01*
X115460000Y-92435000D01*
G75*
G02*
X115310000Y-92585000I-150000J0D01*
G01*
X113660000Y-92585000D01*
G75*
G02*
X113510000Y-92435000I0J150000D01*
G01*
G37*
G36*
G01*
X108560000Y-92435000D02*
X108560000Y-92135000D01*
G75*
G02*
X108710000Y-91985000I150000J0D01*
G01*
X110360000Y-91985000D01*
G75*
G02*
X110510000Y-92135000I0J-150000D01*
G01*
X110510000Y-92435000D01*
G75*
G02*
X110360000Y-92585000I-150000J0D01*
G01*
X108710000Y-92585000D01*
G75*
G02*
X108560000Y-92435000I0J150000D01*
G01*
G37*
G36*
G01*
X108560000Y-91165000D02*
X108560000Y-90865000D01*
G75*
G02*
X108710000Y-90715000I150000J0D01*
G01*
X110360000Y-90715000D01*
G75*
G02*
X110510000Y-90865000I0J-150000D01*
G01*
X110510000Y-91165000D01*
G75*
G02*
X110360000Y-91315000I-150000J0D01*
G01*
X108710000Y-91315000D01*
G75*
G02*
X108560000Y-91165000I0J150000D01*
G01*
G37*
G36*
G01*
X108560000Y-89895000D02*
X108560000Y-89595000D01*
G75*
G02*
X108710000Y-89445000I150000J0D01*
G01*
X110360000Y-89445000D01*
G75*
G02*
X110510000Y-89595000I0J-150000D01*
G01*
X110510000Y-89895000D01*
G75*
G02*
X110360000Y-90045000I-150000J0D01*
G01*
X108710000Y-90045000D01*
G75*
G02*
X108560000Y-89895000I0J150000D01*
G01*
G37*
G36*
G01*
X108560000Y-88625000D02*
X108560000Y-88325000D01*
G75*
G02*
X108710000Y-88175000I150000J0D01*
G01*
X110360000Y-88175000D01*
G75*
G02*
X110510000Y-88325000I0J-150000D01*
G01*
X110510000Y-88625000D01*
G75*
G02*
X110360000Y-88775000I-150000J0D01*
G01*
X108710000Y-88775000D01*
G75*
G02*
X108560000Y-88625000I0J150000D01*
G01*
G37*
G36*
G01*
X109550000Y-86095000D02*
X109550000Y-87045000D01*
G75*
G02*
X109300000Y-87295000I-250000J0D01*
G01*
X108800000Y-87295000D01*
G75*
G02*
X108550000Y-87045000I0J250000D01*
G01*
X108550000Y-86095000D01*
G75*
G02*
X108800000Y-85845000I250000J0D01*
G01*
X109300000Y-85845000D01*
G75*
G02*
X109550000Y-86095000I0J-250000D01*
G01*
G37*
G36*
G01*
X111450000Y-86095000D02*
X111450000Y-87045000D01*
G75*
G02*
X111200000Y-87295000I-250000J0D01*
G01*
X110700000Y-87295000D01*
G75*
G02*
X110450000Y-87045000I0J250000D01*
G01*
X110450000Y-86095000D01*
G75*
G02*
X110700000Y-85845000I250000J0D01*
G01*
X111200000Y-85845000D01*
G75*
G02*
X111450000Y-86095000I0J-250000D01*
G01*
G37*
G36*
G01*
X113209998Y-104247500D02*
X114110002Y-104247500D01*
G75*
G02*
X114360000Y-104497498I0J-249998D01*
G01*
X114360000Y-105022502D01*
G75*
G02*
X114110002Y-105272500I-249998J0D01*
G01*
X113209998Y-105272500D01*
G75*
G02*
X112960000Y-105022502I0J249998D01*
G01*
X112960000Y-104497498D01*
G75*
G02*
X113209998Y-104247500I249998J0D01*
G01*
G37*
G36*
G01*
X113209998Y-102422500D02*
X114110002Y-102422500D01*
G75*
G02*
X114360000Y-102672498I0J-249998D01*
G01*
X114360000Y-103197502D01*
G75*
G02*
X114110002Y-103447500I-249998J0D01*
G01*
X113209998Y-103447500D01*
G75*
G02*
X112960000Y-103197502I0J249998D01*
G01*
X112960000Y-102672498D01*
G75*
G02*
X113209998Y-102422500I249998J0D01*
G01*
G37*
D11*
X76338000Y-91864000D03*
X76338000Y-91064000D03*
X76338000Y-90264000D03*
X76338000Y-89464000D03*
X76338000Y-88664000D03*
D12*
X76338000Y-94664000D03*
X76338000Y-85864000D03*
X70838000Y-94664000D03*
X70838000Y-85864000D03*
G36*
G01*
X87380000Y-53165000D02*
X87380000Y-53465000D01*
G75*
G02*
X87230000Y-53615000I-150000J0D01*
G01*
X85580000Y-53615000D01*
G75*
G02*
X85430000Y-53465000I0J150000D01*
G01*
X85430000Y-53165000D01*
G75*
G02*
X85580000Y-53015000I150000J0D01*
G01*
X87230000Y-53015000D01*
G75*
G02*
X87380000Y-53165000I0J-150000D01*
G01*
G37*
G36*
G01*
X87380000Y-51895000D02*
X87380000Y-52195000D01*
G75*
G02*
X87230000Y-52345000I-150000J0D01*
G01*
X85580000Y-52345000D01*
G75*
G02*
X85430000Y-52195000I0J150000D01*
G01*
X85430000Y-51895000D01*
G75*
G02*
X85580000Y-51745000I150000J0D01*
G01*
X87230000Y-51745000D01*
G75*
G02*
X87380000Y-51895000I0J-150000D01*
G01*
G37*
G36*
G01*
X87380000Y-50625000D02*
X87380000Y-50925000D01*
G75*
G02*
X87230000Y-51075000I-150000J0D01*
G01*
X85580000Y-51075000D01*
G75*
G02*
X85430000Y-50925000I0J150000D01*
G01*
X85430000Y-50625000D01*
G75*
G02*
X85580000Y-50475000I150000J0D01*
G01*
X87230000Y-50475000D01*
G75*
G02*
X87380000Y-50625000I0J-150000D01*
G01*
G37*
G36*
G01*
X87380000Y-49355000D02*
X87380000Y-49655000D01*
G75*
G02*
X87230000Y-49805000I-150000J0D01*
G01*
X85580000Y-49805000D01*
G75*
G02*
X85430000Y-49655000I0J150000D01*
G01*
X85430000Y-49355000D01*
G75*
G02*
X85580000Y-49205000I150000J0D01*
G01*
X87230000Y-49205000D01*
G75*
G02*
X87380000Y-49355000I0J-150000D01*
G01*
G37*
G36*
G01*
X87380000Y-48085000D02*
X87380000Y-48385000D01*
G75*
G02*
X87230000Y-48535000I-150000J0D01*
G01*
X85580000Y-48535000D01*
G75*
G02*
X85430000Y-48385000I0J150000D01*
G01*
X85430000Y-48085000D01*
G75*
G02*
X85580000Y-47935000I150000J0D01*
G01*
X87230000Y-47935000D01*
G75*
G02*
X87380000Y-48085000I0J-150000D01*
G01*
G37*
G36*
G01*
X87380000Y-46815000D02*
X87380000Y-47115000D01*
G75*
G02*
X87230000Y-47265000I-150000J0D01*
G01*
X85580000Y-47265000D01*
G75*
G02*
X85430000Y-47115000I0J150000D01*
G01*
X85430000Y-46815000D01*
G75*
G02*
X85580000Y-46665000I150000J0D01*
G01*
X87230000Y-46665000D01*
G75*
G02*
X87380000Y-46815000I0J-150000D01*
G01*
G37*
G36*
G01*
X87380000Y-45545000D02*
X87380000Y-45845000D01*
G75*
G02*
X87230000Y-45995000I-150000J0D01*
G01*
X85580000Y-45995000D01*
G75*
G02*
X85430000Y-45845000I0J150000D01*
G01*
X85430000Y-45545000D01*
G75*
G02*
X85580000Y-45395000I150000J0D01*
G01*
X87230000Y-45395000D01*
G75*
G02*
X87380000Y-45545000I0J-150000D01*
G01*
G37*
G36*
G01*
X87380000Y-44275000D02*
X87380000Y-44575000D01*
G75*
G02*
X87230000Y-44725000I-150000J0D01*
G01*
X85580000Y-44725000D01*
G75*
G02*
X85430000Y-44575000I0J150000D01*
G01*
X85430000Y-44275000D01*
G75*
G02*
X85580000Y-44125000I150000J0D01*
G01*
X87230000Y-44125000D01*
G75*
G02*
X87380000Y-44275000I0J-150000D01*
G01*
G37*
G36*
G01*
X92330000Y-44275000D02*
X92330000Y-44575000D01*
G75*
G02*
X92180000Y-44725000I-150000J0D01*
G01*
X90530000Y-44725000D01*
G75*
G02*
X90380000Y-44575000I0J150000D01*
G01*
X90380000Y-44275000D01*
G75*
G02*
X90530000Y-44125000I150000J0D01*
G01*
X92180000Y-44125000D01*
G75*
G02*
X92330000Y-44275000I0J-150000D01*
G01*
G37*
G36*
G01*
X92330000Y-45545000D02*
X92330000Y-45845000D01*
G75*
G02*
X92180000Y-45995000I-150000J0D01*
G01*
X90530000Y-45995000D01*
G75*
G02*
X90380000Y-45845000I0J150000D01*
G01*
X90380000Y-45545000D01*
G75*
G02*
X90530000Y-45395000I150000J0D01*
G01*
X92180000Y-45395000D01*
G75*
G02*
X92330000Y-45545000I0J-150000D01*
G01*
G37*
G36*
G01*
X92330000Y-46815000D02*
X92330000Y-47115000D01*
G75*
G02*
X92180000Y-47265000I-150000J0D01*
G01*
X90530000Y-47265000D01*
G75*
G02*
X90380000Y-47115000I0J150000D01*
G01*
X90380000Y-46815000D01*
G75*
G02*
X90530000Y-46665000I150000J0D01*
G01*
X92180000Y-46665000D01*
G75*
G02*
X92330000Y-46815000I0J-150000D01*
G01*
G37*
G36*
G01*
X92330000Y-48085000D02*
X92330000Y-48385000D01*
G75*
G02*
X92180000Y-48535000I-150000J0D01*
G01*
X90530000Y-48535000D01*
G75*
G02*
X90380000Y-48385000I0J150000D01*
G01*
X90380000Y-48085000D01*
G75*
G02*
X90530000Y-47935000I150000J0D01*
G01*
X92180000Y-47935000D01*
G75*
G02*
X92330000Y-48085000I0J-150000D01*
G01*
G37*
G36*
G01*
X92330000Y-49355000D02*
X92330000Y-49655000D01*
G75*
G02*
X92180000Y-49805000I-150000J0D01*
G01*
X90530000Y-49805000D01*
G75*
G02*
X90380000Y-49655000I0J150000D01*
G01*
X90380000Y-49355000D01*
G75*
G02*
X90530000Y-49205000I150000J0D01*
G01*
X92180000Y-49205000D01*
G75*
G02*
X92330000Y-49355000I0J-150000D01*
G01*
G37*
G36*
G01*
X92330000Y-50625000D02*
X92330000Y-50925000D01*
G75*
G02*
X92180000Y-51075000I-150000J0D01*
G01*
X90530000Y-51075000D01*
G75*
G02*
X90380000Y-50925000I0J150000D01*
G01*
X90380000Y-50625000D01*
G75*
G02*
X90530000Y-50475000I150000J0D01*
G01*
X92180000Y-50475000D01*
G75*
G02*
X92330000Y-50625000I0J-150000D01*
G01*
G37*
G36*
G01*
X92330000Y-51895000D02*
X92330000Y-52195000D01*
G75*
G02*
X92180000Y-52345000I-150000J0D01*
G01*
X90530000Y-52345000D01*
G75*
G02*
X90380000Y-52195000I0J150000D01*
G01*
X90380000Y-51895000D01*
G75*
G02*
X90530000Y-51745000I150000J0D01*
G01*
X92180000Y-51745000D01*
G75*
G02*
X92330000Y-51895000I0J-150000D01*
G01*
G37*
G36*
G01*
X92330000Y-53165000D02*
X92330000Y-53465000D01*
G75*
G02*
X92180000Y-53615000I-150000J0D01*
G01*
X90530000Y-53615000D01*
G75*
G02*
X90380000Y-53465000I0J150000D01*
G01*
X90380000Y-53165000D01*
G75*
G02*
X90530000Y-53015000I150000J0D01*
G01*
X92180000Y-53015000D01*
G75*
G02*
X92330000Y-53165000I0J-150000D01*
G01*
G37*
G36*
G01*
X95310000Y-53195000D02*
X95310000Y-53495000D01*
G75*
G02*
X95160000Y-53645000I-150000J0D01*
G01*
X93510000Y-53645000D01*
G75*
G02*
X93360000Y-53495000I0J150000D01*
G01*
X93360000Y-53195000D01*
G75*
G02*
X93510000Y-53045000I150000J0D01*
G01*
X95160000Y-53045000D01*
G75*
G02*
X95310000Y-53195000I0J-150000D01*
G01*
G37*
G36*
G01*
X95310000Y-51925000D02*
X95310000Y-52225000D01*
G75*
G02*
X95160000Y-52375000I-150000J0D01*
G01*
X93510000Y-52375000D01*
G75*
G02*
X93360000Y-52225000I0J150000D01*
G01*
X93360000Y-51925000D01*
G75*
G02*
X93510000Y-51775000I150000J0D01*
G01*
X95160000Y-51775000D01*
G75*
G02*
X95310000Y-51925000I0J-150000D01*
G01*
G37*
G36*
G01*
X95310000Y-50655000D02*
X95310000Y-50955000D01*
G75*
G02*
X95160000Y-51105000I-150000J0D01*
G01*
X93510000Y-51105000D01*
G75*
G02*
X93360000Y-50955000I0J150000D01*
G01*
X93360000Y-50655000D01*
G75*
G02*
X93510000Y-50505000I150000J0D01*
G01*
X95160000Y-50505000D01*
G75*
G02*
X95310000Y-50655000I0J-150000D01*
G01*
G37*
G36*
G01*
X95310000Y-49385000D02*
X95310000Y-49685000D01*
G75*
G02*
X95160000Y-49835000I-150000J0D01*
G01*
X93510000Y-49835000D01*
G75*
G02*
X93360000Y-49685000I0J150000D01*
G01*
X93360000Y-49385000D01*
G75*
G02*
X93510000Y-49235000I150000J0D01*
G01*
X95160000Y-49235000D01*
G75*
G02*
X95310000Y-49385000I0J-150000D01*
G01*
G37*
G36*
G01*
X95310000Y-48115000D02*
X95310000Y-48415000D01*
G75*
G02*
X95160000Y-48565000I-150000J0D01*
G01*
X93510000Y-48565000D01*
G75*
G02*
X93360000Y-48415000I0J150000D01*
G01*
X93360000Y-48115000D01*
G75*
G02*
X93510000Y-47965000I150000J0D01*
G01*
X95160000Y-47965000D01*
G75*
G02*
X95310000Y-48115000I0J-150000D01*
G01*
G37*
G36*
G01*
X95310000Y-46845000D02*
X95310000Y-47145000D01*
G75*
G02*
X95160000Y-47295000I-150000J0D01*
G01*
X93510000Y-47295000D01*
G75*
G02*
X93360000Y-47145000I0J150000D01*
G01*
X93360000Y-46845000D01*
G75*
G02*
X93510000Y-46695000I150000J0D01*
G01*
X95160000Y-46695000D01*
G75*
G02*
X95310000Y-46845000I0J-150000D01*
G01*
G37*
G36*
G01*
X95310000Y-45575000D02*
X95310000Y-45875000D01*
G75*
G02*
X95160000Y-46025000I-150000J0D01*
G01*
X93510000Y-46025000D01*
G75*
G02*
X93360000Y-45875000I0J150000D01*
G01*
X93360000Y-45575000D01*
G75*
G02*
X93510000Y-45425000I150000J0D01*
G01*
X95160000Y-45425000D01*
G75*
G02*
X95310000Y-45575000I0J-150000D01*
G01*
G37*
G36*
G01*
X95310000Y-44305000D02*
X95310000Y-44605000D01*
G75*
G02*
X95160000Y-44755000I-150000J0D01*
G01*
X93510000Y-44755000D01*
G75*
G02*
X93360000Y-44605000I0J150000D01*
G01*
X93360000Y-44305000D01*
G75*
G02*
X93510000Y-44155000I150000J0D01*
G01*
X95160000Y-44155000D01*
G75*
G02*
X95310000Y-44305000I0J-150000D01*
G01*
G37*
G36*
G01*
X100260000Y-44305000D02*
X100260000Y-44605000D01*
G75*
G02*
X100110000Y-44755000I-150000J0D01*
G01*
X98460000Y-44755000D01*
G75*
G02*
X98310000Y-44605000I0J150000D01*
G01*
X98310000Y-44305000D01*
G75*
G02*
X98460000Y-44155000I150000J0D01*
G01*
X100110000Y-44155000D01*
G75*
G02*
X100260000Y-44305000I0J-150000D01*
G01*
G37*
G36*
G01*
X100260000Y-45575000D02*
X100260000Y-45875000D01*
G75*
G02*
X100110000Y-46025000I-150000J0D01*
G01*
X98460000Y-46025000D01*
G75*
G02*
X98310000Y-45875000I0J150000D01*
G01*
X98310000Y-45575000D01*
G75*
G02*
X98460000Y-45425000I150000J0D01*
G01*
X100110000Y-45425000D01*
G75*
G02*
X100260000Y-45575000I0J-150000D01*
G01*
G37*
G36*
G01*
X100260000Y-46845000D02*
X100260000Y-47145000D01*
G75*
G02*
X100110000Y-47295000I-150000J0D01*
G01*
X98460000Y-47295000D01*
G75*
G02*
X98310000Y-47145000I0J150000D01*
G01*
X98310000Y-46845000D01*
G75*
G02*
X98460000Y-46695000I150000J0D01*
G01*
X100110000Y-46695000D01*
G75*
G02*
X100260000Y-46845000I0J-150000D01*
G01*
G37*
G36*
G01*
X100260000Y-48115000D02*
X100260000Y-48415000D01*
G75*
G02*
X100110000Y-48565000I-150000J0D01*
G01*
X98460000Y-48565000D01*
G75*
G02*
X98310000Y-48415000I0J150000D01*
G01*
X98310000Y-48115000D01*
G75*
G02*
X98460000Y-47965000I150000J0D01*
G01*
X100110000Y-47965000D01*
G75*
G02*
X100260000Y-48115000I0J-150000D01*
G01*
G37*
G36*
G01*
X100260000Y-49385000D02*
X100260000Y-49685000D01*
G75*
G02*
X100110000Y-49835000I-150000J0D01*
G01*
X98460000Y-49835000D01*
G75*
G02*
X98310000Y-49685000I0J150000D01*
G01*
X98310000Y-49385000D01*
G75*
G02*
X98460000Y-49235000I150000J0D01*
G01*
X100110000Y-49235000D01*
G75*
G02*
X100260000Y-49385000I0J-150000D01*
G01*
G37*
G36*
G01*
X100260000Y-50655000D02*
X100260000Y-50955000D01*
G75*
G02*
X100110000Y-51105000I-150000J0D01*
G01*
X98460000Y-51105000D01*
G75*
G02*
X98310000Y-50955000I0J150000D01*
G01*
X98310000Y-50655000D01*
G75*
G02*
X98460000Y-50505000I150000J0D01*
G01*
X100110000Y-50505000D01*
G75*
G02*
X100260000Y-50655000I0J-150000D01*
G01*
G37*
G36*
G01*
X100260000Y-51925000D02*
X100260000Y-52225000D01*
G75*
G02*
X100110000Y-52375000I-150000J0D01*
G01*
X98460000Y-52375000D01*
G75*
G02*
X98310000Y-52225000I0J150000D01*
G01*
X98310000Y-51925000D01*
G75*
G02*
X98460000Y-51775000I150000J0D01*
G01*
X100110000Y-51775000D01*
G75*
G02*
X100260000Y-51925000I0J-150000D01*
G01*
G37*
G36*
G01*
X100260000Y-53195000D02*
X100260000Y-53495000D01*
G75*
G02*
X100110000Y-53645000I-150000J0D01*
G01*
X98460000Y-53645000D01*
G75*
G02*
X98310000Y-53495000I0J150000D01*
G01*
X98310000Y-53195000D01*
G75*
G02*
X98460000Y-53045000I150000J0D01*
G01*
X100110000Y-53045000D01*
G75*
G02*
X100260000Y-53195000I0J-150000D01*
G01*
G37*
G36*
G01*
X105320000Y-53205000D02*
X105320000Y-53505000D01*
G75*
G02*
X105170000Y-53655000I-150000J0D01*
G01*
X103520000Y-53655000D01*
G75*
G02*
X103370000Y-53505000I0J150000D01*
G01*
X103370000Y-53205000D01*
G75*
G02*
X103520000Y-53055000I150000J0D01*
G01*
X105170000Y-53055000D01*
G75*
G02*
X105320000Y-53205000I0J-150000D01*
G01*
G37*
G36*
G01*
X105320000Y-51935000D02*
X105320000Y-52235000D01*
G75*
G02*
X105170000Y-52385000I-150000J0D01*
G01*
X103520000Y-52385000D01*
G75*
G02*
X103370000Y-52235000I0J150000D01*
G01*
X103370000Y-51935000D01*
G75*
G02*
X103520000Y-51785000I150000J0D01*
G01*
X105170000Y-51785000D01*
G75*
G02*
X105320000Y-51935000I0J-150000D01*
G01*
G37*
G36*
G01*
X105320000Y-50665000D02*
X105320000Y-50965000D01*
G75*
G02*
X105170000Y-51115000I-150000J0D01*
G01*
X103520000Y-51115000D01*
G75*
G02*
X103370000Y-50965000I0J150000D01*
G01*
X103370000Y-50665000D01*
G75*
G02*
X103520000Y-50515000I150000J0D01*
G01*
X105170000Y-50515000D01*
G75*
G02*
X105320000Y-50665000I0J-150000D01*
G01*
G37*
G36*
G01*
X105320000Y-49395000D02*
X105320000Y-49695000D01*
G75*
G02*
X105170000Y-49845000I-150000J0D01*
G01*
X103520000Y-49845000D01*
G75*
G02*
X103370000Y-49695000I0J150000D01*
G01*
X103370000Y-49395000D01*
G75*
G02*
X103520000Y-49245000I150000J0D01*
G01*
X105170000Y-49245000D01*
G75*
G02*
X105320000Y-49395000I0J-150000D01*
G01*
G37*
G36*
G01*
X105320000Y-48125000D02*
X105320000Y-48425000D01*
G75*
G02*
X105170000Y-48575000I-150000J0D01*
G01*
X103520000Y-48575000D01*
G75*
G02*
X103370000Y-48425000I0J150000D01*
G01*
X103370000Y-48125000D01*
G75*
G02*
X103520000Y-47975000I150000J0D01*
G01*
X105170000Y-47975000D01*
G75*
G02*
X105320000Y-48125000I0J-150000D01*
G01*
G37*
G36*
G01*
X105320000Y-46855000D02*
X105320000Y-47155000D01*
G75*
G02*
X105170000Y-47305000I-150000J0D01*
G01*
X103520000Y-47305000D01*
G75*
G02*
X103370000Y-47155000I0J150000D01*
G01*
X103370000Y-46855000D01*
G75*
G02*
X103520000Y-46705000I150000J0D01*
G01*
X105170000Y-46705000D01*
G75*
G02*
X105320000Y-46855000I0J-150000D01*
G01*
G37*
G36*
G01*
X105320000Y-45585000D02*
X105320000Y-45885000D01*
G75*
G02*
X105170000Y-46035000I-150000J0D01*
G01*
X103520000Y-46035000D01*
G75*
G02*
X103370000Y-45885000I0J150000D01*
G01*
X103370000Y-45585000D01*
G75*
G02*
X103520000Y-45435000I150000J0D01*
G01*
X105170000Y-45435000D01*
G75*
G02*
X105320000Y-45585000I0J-150000D01*
G01*
G37*
G36*
G01*
X105320000Y-44315000D02*
X105320000Y-44615000D01*
G75*
G02*
X105170000Y-44765000I-150000J0D01*
G01*
X103520000Y-44765000D01*
G75*
G02*
X103370000Y-44615000I0J150000D01*
G01*
X103370000Y-44315000D01*
G75*
G02*
X103520000Y-44165000I150000J0D01*
G01*
X105170000Y-44165000D01*
G75*
G02*
X105320000Y-44315000I0J-150000D01*
G01*
G37*
G36*
G01*
X110270000Y-44315000D02*
X110270000Y-44615000D01*
G75*
G02*
X110120000Y-44765000I-150000J0D01*
G01*
X108470000Y-44765000D01*
G75*
G02*
X108320000Y-44615000I0J150000D01*
G01*
X108320000Y-44315000D01*
G75*
G02*
X108470000Y-44165000I150000J0D01*
G01*
X110120000Y-44165000D01*
G75*
G02*
X110270000Y-44315000I0J-150000D01*
G01*
G37*
G36*
G01*
X110270000Y-45585000D02*
X110270000Y-45885000D01*
G75*
G02*
X110120000Y-46035000I-150000J0D01*
G01*
X108470000Y-46035000D01*
G75*
G02*
X108320000Y-45885000I0J150000D01*
G01*
X108320000Y-45585000D01*
G75*
G02*
X108470000Y-45435000I150000J0D01*
G01*
X110120000Y-45435000D01*
G75*
G02*
X110270000Y-45585000I0J-150000D01*
G01*
G37*
G36*
G01*
X110270000Y-46855000D02*
X110270000Y-47155000D01*
G75*
G02*
X110120000Y-47305000I-150000J0D01*
G01*
X108470000Y-47305000D01*
G75*
G02*
X108320000Y-47155000I0J150000D01*
G01*
X108320000Y-46855000D01*
G75*
G02*
X108470000Y-46705000I150000J0D01*
G01*
X110120000Y-46705000D01*
G75*
G02*
X110270000Y-46855000I0J-150000D01*
G01*
G37*
G36*
G01*
X110270000Y-48125000D02*
X110270000Y-48425000D01*
G75*
G02*
X110120000Y-48575000I-150000J0D01*
G01*
X108470000Y-48575000D01*
G75*
G02*
X108320000Y-48425000I0J150000D01*
G01*
X108320000Y-48125000D01*
G75*
G02*
X108470000Y-47975000I150000J0D01*
G01*
X110120000Y-47975000D01*
G75*
G02*
X110270000Y-48125000I0J-150000D01*
G01*
G37*
G36*
G01*
X110270000Y-49395000D02*
X110270000Y-49695000D01*
G75*
G02*
X110120000Y-49845000I-150000J0D01*
G01*
X108470000Y-49845000D01*
G75*
G02*
X108320000Y-49695000I0J150000D01*
G01*
X108320000Y-49395000D01*
G75*
G02*
X108470000Y-49245000I150000J0D01*
G01*
X110120000Y-49245000D01*
G75*
G02*
X110270000Y-49395000I0J-150000D01*
G01*
G37*
G36*
G01*
X110270000Y-50665000D02*
X110270000Y-50965000D01*
G75*
G02*
X110120000Y-51115000I-150000J0D01*
G01*
X108470000Y-51115000D01*
G75*
G02*
X108320000Y-50965000I0J150000D01*
G01*
X108320000Y-50665000D01*
G75*
G02*
X108470000Y-50515000I150000J0D01*
G01*
X110120000Y-50515000D01*
G75*
G02*
X110270000Y-50665000I0J-150000D01*
G01*
G37*
G36*
G01*
X110270000Y-51935000D02*
X110270000Y-52235000D01*
G75*
G02*
X110120000Y-52385000I-150000J0D01*
G01*
X108470000Y-52385000D01*
G75*
G02*
X108320000Y-52235000I0J150000D01*
G01*
X108320000Y-51935000D01*
G75*
G02*
X108470000Y-51785000I150000J0D01*
G01*
X110120000Y-51785000D01*
G75*
G02*
X110270000Y-51935000I0J-150000D01*
G01*
G37*
G36*
G01*
X110270000Y-53205000D02*
X110270000Y-53505000D01*
G75*
G02*
X110120000Y-53655000I-150000J0D01*
G01*
X108470000Y-53655000D01*
G75*
G02*
X108320000Y-53505000I0J150000D01*
G01*
X108320000Y-53205000D01*
G75*
G02*
X108470000Y-53055000I150000J0D01*
G01*
X110120000Y-53055000D01*
G75*
G02*
X110270000Y-53205000I0J-150000D01*
G01*
G37*
G36*
G01*
X103290000Y-55330000D02*
X103290000Y-55030000D01*
G75*
G02*
X103440000Y-54880000I150000J0D01*
G01*
X105090000Y-54880000D01*
G75*
G02*
X105240000Y-55030000I0J-150000D01*
G01*
X105240000Y-55330000D01*
G75*
G02*
X105090000Y-55480000I-150000J0D01*
G01*
X103440000Y-55480000D01*
G75*
G02*
X103290000Y-55330000I0J150000D01*
G01*
G37*
G36*
G01*
X103290000Y-56600000D02*
X103290000Y-56300000D01*
G75*
G02*
X103440000Y-56150000I150000J0D01*
G01*
X105090000Y-56150000D01*
G75*
G02*
X105240000Y-56300000I0J-150000D01*
G01*
X105240000Y-56600000D01*
G75*
G02*
X105090000Y-56750000I-150000J0D01*
G01*
X103440000Y-56750000D01*
G75*
G02*
X103290000Y-56600000I0J150000D01*
G01*
G37*
G36*
G01*
X103290000Y-57870000D02*
X103290000Y-57570000D01*
G75*
G02*
X103440000Y-57420000I150000J0D01*
G01*
X105090000Y-57420000D01*
G75*
G02*
X105240000Y-57570000I0J-150000D01*
G01*
X105240000Y-57870000D01*
G75*
G02*
X105090000Y-58020000I-150000J0D01*
G01*
X103440000Y-58020000D01*
G75*
G02*
X103290000Y-57870000I0J150000D01*
G01*
G37*
G36*
G01*
X103290000Y-59140000D02*
X103290000Y-58840000D01*
G75*
G02*
X103440000Y-58690000I150000J0D01*
G01*
X105090000Y-58690000D01*
G75*
G02*
X105240000Y-58840000I0J-150000D01*
G01*
X105240000Y-59140000D01*
G75*
G02*
X105090000Y-59290000I-150000J0D01*
G01*
X103440000Y-59290000D01*
G75*
G02*
X103290000Y-59140000I0J150000D01*
G01*
G37*
G36*
G01*
X103290000Y-60410000D02*
X103290000Y-60110000D01*
G75*
G02*
X103440000Y-59960000I150000J0D01*
G01*
X105090000Y-59960000D01*
G75*
G02*
X105240000Y-60110000I0J-150000D01*
G01*
X105240000Y-60410000D01*
G75*
G02*
X105090000Y-60560000I-150000J0D01*
G01*
X103440000Y-60560000D01*
G75*
G02*
X103290000Y-60410000I0J150000D01*
G01*
G37*
G36*
G01*
X103290000Y-61680000D02*
X103290000Y-61380000D01*
G75*
G02*
X103440000Y-61230000I150000J0D01*
G01*
X105090000Y-61230000D01*
G75*
G02*
X105240000Y-61380000I0J-150000D01*
G01*
X105240000Y-61680000D01*
G75*
G02*
X105090000Y-61830000I-150000J0D01*
G01*
X103440000Y-61830000D01*
G75*
G02*
X103290000Y-61680000I0J150000D01*
G01*
G37*
G36*
G01*
X103290000Y-62950000D02*
X103290000Y-62650000D01*
G75*
G02*
X103440000Y-62500000I150000J0D01*
G01*
X105090000Y-62500000D01*
G75*
G02*
X105240000Y-62650000I0J-150000D01*
G01*
X105240000Y-62950000D01*
G75*
G02*
X105090000Y-63100000I-150000J0D01*
G01*
X103440000Y-63100000D01*
G75*
G02*
X103290000Y-62950000I0J150000D01*
G01*
G37*
G36*
G01*
X98340000Y-62950000D02*
X98340000Y-62650000D01*
G75*
G02*
X98490000Y-62500000I150000J0D01*
G01*
X100140000Y-62500000D01*
G75*
G02*
X100290000Y-62650000I0J-150000D01*
G01*
X100290000Y-62950000D01*
G75*
G02*
X100140000Y-63100000I-150000J0D01*
G01*
X98490000Y-63100000D01*
G75*
G02*
X98340000Y-62950000I0J150000D01*
G01*
G37*
G36*
G01*
X98340000Y-61680000D02*
X98340000Y-61380000D01*
G75*
G02*
X98490000Y-61230000I150000J0D01*
G01*
X100140000Y-61230000D01*
G75*
G02*
X100290000Y-61380000I0J-150000D01*
G01*
X100290000Y-61680000D01*
G75*
G02*
X100140000Y-61830000I-150000J0D01*
G01*
X98490000Y-61830000D01*
G75*
G02*
X98340000Y-61680000I0J150000D01*
G01*
G37*
G36*
G01*
X98340000Y-60410000D02*
X98340000Y-60110000D01*
G75*
G02*
X98490000Y-59960000I150000J0D01*
G01*
X100140000Y-59960000D01*
G75*
G02*
X100290000Y-60110000I0J-150000D01*
G01*
X100290000Y-60410000D01*
G75*
G02*
X100140000Y-60560000I-150000J0D01*
G01*
X98490000Y-60560000D01*
G75*
G02*
X98340000Y-60410000I0J150000D01*
G01*
G37*
G36*
G01*
X98340000Y-59140000D02*
X98340000Y-58840000D01*
G75*
G02*
X98490000Y-58690000I150000J0D01*
G01*
X100140000Y-58690000D01*
G75*
G02*
X100290000Y-58840000I0J-150000D01*
G01*
X100290000Y-59140000D01*
G75*
G02*
X100140000Y-59290000I-150000J0D01*
G01*
X98490000Y-59290000D01*
G75*
G02*
X98340000Y-59140000I0J150000D01*
G01*
G37*
G36*
G01*
X98340000Y-57870000D02*
X98340000Y-57570000D01*
G75*
G02*
X98490000Y-57420000I150000J0D01*
G01*
X100140000Y-57420000D01*
G75*
G02*
X100290000Y-57570000I0J-150000D01*
G01*
X100290000Y-57870000D01*
G75*
G02*
X100140000Y-58020000I-150000J0D01*
G01*
X98490000Y-58020000D01*
G75*
G02*
X98340000Y-57870000I0J150000D01*
G01*
G37*
G36*
G01*
X98340000Y-56600000D02*
X98340000Y-56300000D01*
G75*
G02*
X98490000Y-56150000I150000J0D01*
G01*
X100140000Y-56150000D01*
G75*
G02*
X100290000Y-56300000I0J-150000D01*
G01*
X100290000Y-56600000D01*
G75*
G02*
X100140000Y-56750000I-150000J0D01*
G01*
X98490000Y-56750000D01*
G75*
G02*
X98340000Y-56600000I0J150000D01*
G01*
G37*
G36*
G01*
X98340000Y-55330000D02*
X98340000Y-55030000D01*
G75*
G02*
X98490000Y-54880000I150000J0D01*
G01*
X100140000Y-54880000D01*
G75*
G02*
X100290000Y-55030000I0J-150000D01*
G01*
X100290000Y-55330000D01*
G75*
G02*
X100140000Y-55480000I-150000J0D01*
G01*
X98490000Y-55480000D01*
G75*
G02*
X98340000Y-55330000I0J150000D01*
G01*
G37*
D13*
X81428000Y-39686000D03*
X82428000Y-39686000D03*
X83428000Y-39686000D03*
X84428000Y-39686000D03*
X85428000Y-39686000D03*
X86428000Y-39686000D03*
X87428000Y-39686000D03*
X88428000Y-39686000D03*
X89428000Y-39686000D03*
X90428000Y-39686000D03*
X91428000Y-39686000D03*
X92428000Y-39686000D03*
X93428000Y-39686000D03*
X94428000Y-39686000D03*
X95428000Y-39686000D03*
X96428000Y-39686000D03*
X97428000Y-39686000D03*
X98428000Y-39686000D03*
X99428000Y-39686000D03*
X100428000Y-39686000D03*
X101428000Y-39686000D03*
X102428000Y-39686000D03*
X103428000Y-39686000D03*
X104428000Y-39686000D03*
X105428000Y-39686000D03*
X106428000Y-39686000D03*
X107428000Y-39686000D03*
X108428000Y-39686000D03*
X109428000Y-39686000D03*
X110428000Y-39686000D03*
X111428000Y-39686000D03*
X112428000Y-39686000D03*
G36*
G01*
X98342500Y-96211998D02*
X98342500Y-97112002D01*
G75*
G02*
X98092502Y-97362000I-249998J0D01*
G01*
X97567498Y-97362000D01*
G75*
G02*
X97317500Y-97112002I0J249998D01*
G01*
X97317500Y-96211998D01*
G75*
G02*
X97567498Y-95962000I249998J0D01*
G01*
X98092502Y-95962000D01*
G75*
G02*
X98342500Y-96211998I0J-249998D01*
G01*
G37*
G36*
G01*
X100167500Y-96211998D02*
X100167500Y-97112002D01*
G75*
G02*
X99917502Y-97362000I-249998J0D01*
G01*
X99392498Y-97362000D01*
G75*
G02*
X99142500Y-97112002I0J249998D01*
G01*
X99142500Y-96211998D01*
G75*
G02*
X99392498Y-95962000I249998J0D01*
G01*
X99917502Y-95962000D01*
G75*
G02*
X100167500Y-96211998I0J-249998D01*
G01*
G37*
G36*
G01*
X115209000Y-104314000D02*
X116159000Y-104314000D01*
G75*
G02*
X116409000Y-104564000I0J-250000D01*
G01*
X116409000Y-105064000D01*
G75*
G02*
X116159000Y-105314000I-250000J0D01*
G01*
X115209000Y-105314000D01*
G75*
G02*
X114959000Y-105064000I0J250000D01*
G01*
X114959000Y-104564000D01*
G75*
G02*
X115209000Y-104314000I250000J0D01*
G01*
G37*
G36*
G01*
X115209000Y-102414000D02*
X116159000Y-102414000D01*
G75*
G02*
X116409000Y-102664000I0J-250000D01*
G01*
X116409000Y-103164000D01*
G75*
G02*
X116159000Y-103414000I-250000J0D01*
G01*
X115209000Y-103414000D01*
G75*
G02*
X114959000Y-103164000I0J250000D01*
G01*
X114959000Y-102664000D01*
G75*
G02*
X115209000Y-102414000I250000J0D01*
G01*
G37*
D14*
X89530500Y-92636000D03*
X88895500Y-92636000D03*
X88260500Y-92636000D03*
X87625500Y-92636000D03*
X86990500Y-92636000D03*
X86355500Y-92636000D03*
X85720500Y-92636000D03*
X85085500Y-92636000D03*
X85085500Y-87436000D03*
X85720500Y-87436000D03*
X86355500Y-87436000D03*
X86990500Y-87436000D03*
X87625500Y-87436000D03*
X88260500Y-87436000D03*
X88895500Y-87436000D03*
X89530500Y-87436000D03*
G36*
G01*
X81995500Y-88649750D02*
X81995500Y-89562250D01*
G75*
G02*
X81751750Y-89806000I-243750J0D01*
G01*
X81264250Y-89806000D01*
G75*
G02*
X81020500Y-89562250I0J243750D01*
G01*
X81020500Y-88649750D01*
G75*
G02*
X81264250Y-88406000I243750J0D01*
G01*
X81751750Y-88406000D01*
G75*
G02*
X81995500Y-88649750I0J-243750D01*
G01*
G37*
G36*
G01*
X83870500Y-88649750D02*
X83870500Y-89562250D01*
G75*
G02*
X83626750Y-89806000I-243750J0D01*
G01*
X83139250Y-89806000D01*
G75*
G02*
X82895500Y-89562250I0J243750D01*
G01*
X82895500Y-88649750D01*
G75*
G02*
X83139250Y-88406000I243750J0D01*
G01*
X83626750Y-88406000D01*
G75*
G02*
X83870500Y-88649750I0J-243750D01*
G01*
G37*
G36*
G01*
X81975500Y-90619750D02*
X81975500Y-91532250D01*
G75*
G02*
X81731750Y-91776000I-243750J0D01*
G01*
X81244250Y-91776000D01*
G75*
G02*
X81000500Y-91532250I0J243750D01*
G01*
X81000500Y-90619750D01*
G75*
G02*
X81244250Y-90376000I243750J0D01*
G01*
X81731750Y-90376000D01*
G75*
G02*
X81975500Y-90619750I0J-243750D01*
G01*
G37*
G36*
G01*
X83850500Y-90619750D02*
X83850500Y-91532250D01*
G75*
G02*
X83606750Y-91776000I-243750J0D01*
G01*
X83119250Y-91776000D01*
G75*
G02*
X82875500Y-91532250I0J243750D01*
G01*
X82875500Y-90619750D01*
G75*
G02*
X83119250Y-90376000I243750J0D01*
G01*
X83606750Y-90376000D01*
G75*
G02*
X83850500Y-90619750I0J-243750D01*
G01*
G37*
G36*
G01*
X88065500Y-85982250D02*
X88065500Y-85069750D01*
G75*
G02*
X88309250Y-84826000I243750J0D01*
G01*
X88796750Y-84826000D01*
G75*
G02*
X89040500Y-85069750I0J-243750D01*
G01*
X89040500Y-85982250D01*
G75*
G02*
X88796750Y-86226000I-243750J0D01*
G01*
X88309250Y-86226000D01*
G75*
G02*
X88065500Y-85982250I0J243750D01*
G01*
G37*
G36*
G01*
X86190500Y-85982250D02*
X86190500Y-85069750D01*
G75*
G02*
X86434250Y-84826000I243750J0D01*
G01*
X86921750Y-84826000D01*
G75*
G02*
X87165500Y-85069750I0J-243750D01*
G01*
X87165500Y-85982250D01*
G75*
G02*
X86921750Y-86226000I-243750J0D01*
G01*
X86434250Y-86226000D01*
G75*
G02*
X86190500Y-85982250I0J243750D01*
G01*
G37*
G36*
G01*
X87540500Y-95102250D02*
X87540500Y-94189750D01*
G75*
G02*
X87784250Y-93946000I243750J0D01*
G01*
X88271750Y-93946000D01*
G75*
G02*
X88515500Y-94189750I0J-243750D01*
G01*
X88515500Y-95102250D01*
G75*
G02*
X88271750Y-95346000I-243750J0D01*
G01*
X87784250Y-95346000D01*
G75*
G02*
X87540500Y-95102250I0J243750D01*
G01*
G37*
G36*
G01*
X85665500Y-95102250D02*
X85665500Y-94189750D01*
G75*
G02*
X85909250Y-93946000I243750J0D01*
G01*
X86396750Y-93946000D01*
G75*
G02*
X86640500Y-94189750I0J-243750D01*
G01*
X86640500Y-95102250D01*
G75*
G02*
X86396750Y-95346000I-243750J0D01*
G01*
X85909250Y-95346000D01*
G75*
G02*
X85665500Y-95102250I0J243750D01*
G01*
G37*
G36*
G01*
X87541500Y-97358250D02*
X87541500Y-96445750D01*
G75*
G02*
X87785250Y-96202000I243750J0D01*
G01*
X88272750Y-96202000D01*
G75*
G02*
X88516500Y-96445750I0J-243750D01*
G01*
X88516500Y-97358250D01*
G75*
G02*
X88272750Y-97602000I-243750J0D01*
G01*
X87785250Y-97602000D01*
G75*
G02*
X87541500Y-97358250I0J243750D01*
G01*
G37*
G36*
G01*
X85666500Y-97358250D02*
X85666500Y-96445750D01*
G75*
G02*
X85910250Y-96202000I243750J0D01*
G01*
X86397750Y-96202000D01*
G75*
G02*
X86641500Y-96445750I0J-243750D01*
G01*
X86641500Y-97358250D01*
G75*
G02*
X86397750Y-97602000I-243750J0D01*
G01*
X85910250Y-97602000D01*
G75*
G02*
X85666500Y-97358250I0J243750D01*
G01*
G37*
G36*
G01*
X82895500Y-87582250D02*
X82895500Y-86669750D01*
G75*
G02*
X83139250Y-86426000I243750J0D01*
G01*
X83626750Y-86426000D01*
G75*
G02*
X83870500Y-86669750I0J-243750D01*
G01*
X83870500Y-87582250D01*
G75*
G02*
X83626750Y-87826000I-243750J0D01*
G01*
X83139250Y-87826000D01*
G75*
G02*
X82895500Y-87582250I0J243750D01*
G01*
G37*
G36*
G01*
X81020500Y-87582250D02*
X81020500Y-86669750D01*
G75*
G02*
X81264250Y-86426000I243750J0D01*
G01*
X81751750Y-86426000D01*
G75*
G02*
X81995500Y-86669750I0J-243750D01*
G01*
X81995500Y-87582250D01*
G75*
G02*
X81751750Y-87826000I-243750J0D01*
G01*
X81264250Y-87826000D01*
G75*
G02*
X81020500Y-87582250I0J243750D01*
G01*
G37*
G36*
G01*
X81995500Y-92599750D02*
X81995500Y-93512250D01*
G75*
G02*
X81751750Y-93756000I-243750J0D01*
G01*
X81264250Y-93756000D01*
G75*
G02*
X81020500Y-93512250I0J243750D01*
G01*
X81020500Y-92599750D01*
G75*
G02*
X81264250Y-92356000I243750J0D01*
G01*
X81751750Y-92356000D01*
G75*
G02*
X81995500Y-92599750I0J-243750D01*
G01*
G37*
G36*
G01*
X83870500Y-92599750D02*
X83870500Y-93512250D01*
G75*
G02*
X83626750Y-93756000I-243750J0D01*
G01*
X83139250Y-93756000D01*
G75*
G02*
X82895500Y-93512250I0J243750D01*
G01*
X82895500Y-92599750D01*
G75*
G02*
X83139250Y-92356000I243750J0D01*
G01*
X83626750Y-92356000D01*
G75*
G02*
X83870500Y-92599750I0J-243750D01*
G01*
G37*
M02*
