G04 #@! TF.GenerationSoftware,KiCad,Pcbnew,5.1.10-88a1d61d58~90~ubuntu21.04.1*
G04 #@! TF.CreationDate,2021-10-21T13:00:22+03:00*
G04 #@! TF.ProjectId,klipper_nano,6b6c6970-7065-4725-9f6e-616e6f2e6b69,rev?*
G04 #@! TF.SameCoordinates,Original*
G04 #@! TF.FileFunction,Legend,Top*
G04 #@! TF.FilePolarity,Positive*
%FSLAX46Y46*%
G04 Gerber Fmt 4.6, Leading zero omitted, Abs format (unit mm)*
G04 Created by KiCad (PCBNEW 5.1.10-88a1d61d58~90~ubuntu21.04.1) date 2021-10-21 13:00:22*
%MOMM*%
%LPD*%
G01*
G04 APERTURE LIST*
%ADD10C,0.150000*%
%ADD11C,0.120000*%
G04 APERTURE END LIST*
D10*
X74273333Y-64217142D02*
X74225714Y-64264761D01*
X74082857Y-64312380D01*
X73987619Y-64312380D01*
X73844761Y-64264761D01*
X73749523Y-64169523D01*
X73701904Y-64074285D01*
X73654285Y-63883809D01*
X73654285Y-63740952D01*
X73701904Y-63550476D01*
X73749523Y-63455238D01*
X73844761Y-63360000D01*
X73987619Y-63312380D01*
X74082857Y-63312380D01*
X74225714Y-63360000D01*
X74273333Y-63407619D01*
X74654285Y-64264761D02*
X74797142Y-64312380D01*
X75035238Y-64312380D01*
X75130476Y-64264761D01*
X75178095Y-64217142D01*
X75225714Y-64121904D01*
X75225714Y-64026666D01*
X75178095Y-63931428D01*
X75130476Y-63883809D01*
X75035238Y-63836190D01*
X74844761Y-63788571D01*
X74749523Y-63740952D01*
X74701904Y-63693333D01*
X74654285Y-63598095D01*
X74654285Y-63502857D01*
X74701904Y-63407619D01*
X74749523Y-63360000D01*
X74844761Y-63312380D01*
X75082857Y-63312380D01*
X75225714Y-63360000D01*
X73338571Y-61242380D02*
X73338571Y-60242380D01*
X73671904Y-60956666D01*
X74005238Y-60242380D01*
X74005238Y-61242380D01*
X74671904Y-60242380D02*
X74862380Y-60242380D01*
X74957619Y-60290000D01*
X75052857Y-60385238D01*
X75100476Y-60575714D01*
X75100476Y-60909047D01*
X75052857Y-61099523D01*
X74957619Y-61194761D01*
X74862380Y-61242380D01*
X74671904Y-61242380D01*
X74576666Y-61194761D01*
X74481428Y-61099523D01*
X74433809Y-60909047D01*
X74433809Y-60575714D01*
X74481428Y-60385238D01*
X74576666Y-60290000D01*
X74671904Y-60242380D01*
X75481428Y-61194761D02*
X75624285Y-61242380D01*
X75862380Y-61242380D01*
X75957619Y-61194761D01*
X76005238Y-61147142D01*
X76052857Y-61051904D01*
X76052857Y-60956666D01*
X76005238Y-60861428D01*
X75957619Y-60813809D01*
X75862380Y-60766190D01*
X75671904Y-60718571D01*
X75576666Y-60670952D01*
X75529047Y-60623333D01*
X75481428Y-60528095D01*
X75481428Y-60432857D01*
X75529047Y-60337619D01*
X75576666Y-60290000D01*
X75671904Y-60242380D01*
X75910000Y-60242380D01*
X76052857Y-60290000D01*
X76481428Y-61242380D02*
X76481428Y-60242380D01*
X73338571Y-58702380D02*
X73338571Y-57702380D01*
X73671904Y-58416666D01*
X74005238Y-57702380D01*
X74005238Y-58702380D01*
X74481428Y-58702380D02*
X74481428Y-57702380D01*
X74910000Y-58654761D02*
X75052857Y-58702380D01*
X75290952Y-58702380D01*
X75386190Y-58654761D01*
X75433809Y-58607142D01*
X75481428Y-58511904D01*
X75481428Y-58416666D01*
X75433809Y-58321428D01*
X75386190Y-58273809D01*
X75290952Y-58226190D01*
X75100476Y-58178571D01*
X75005238Y-58130952D01*
X74957619Y-58083333D01*
X74910000Y-57988095D01*
X74910000Y-57892857D01*
X74957619Y-57797619D01*
X75005238Y-57750000D01*
X75100476Y-57702380D01*
X75338571Y-57702380D01*
X75481428Y-57750000D01*
X76100476Y-57702380D02*
X76290952Y-57702380D01*
X76386190Y-57750000D01*
X76481428Y-57845238D01*
X76529047Y-58035714D01*
X76529047Y-58369047D01*
X76481428Y-58559523D01*
X76386190Y-58654761D01*
X76290952Y-58702380D01*
X76100476Y-58702380D01*
X76005238Y-58654761D01*
X75910000Y-58559523D01*
X75862380Y-58369047D01*
X75862380Y-58035714D01*
X75910000Y-57845238D01*
X76005238Y-57750000D01*
X76100476Y-57702380D01*
X74024761Y-56007142D02*
X73977142Y-56054761D01*
X73834285Y-56102380D01*
X73739047Y-56102380D01*
X73596190Y-56054761D01*
X73500952Y-55959523D01*
X73453333Y-55864285D01*
X73405714Y-55673809D01*
X73405714Y-55530952D01*
X73453333Y-55340476D01*
X73500952Y-55245238D01*
X73596190Y-55150000D01*
X73739047Y-55102380D01*
X73834285Y-55102380D01*
X73977142Y-55150000D01*
X74024761Y-55197619D01*
X74929523Y-56102380D02*
X74453333Y-56102380D01*
X74453333Y-55102380D01*
X75262857Y-56102380D02*
X75262857Y-55102380D01*
X75834285Y-56102380D02*
X75405714Y-55530952D01*
X75834285Y-55102380D02*
X75262857Y-55673809D01*
X67940000Y-49631904D02*
X67892380Y-49727142D01*
X67892380Y-49870000D01*
X67940000Y-50012857D01*
X68035238Y-50108095D01*
X68130476Y-50155714D01*
X68320952Y-50203333D01*
X68463809Y-50203333D01*
X68654285Y-50155714D01*
X68749523Y-50108095D01*
X68844761Y-50012857D01*
X68892380Y-49870000D01*
X68892380Y-49774761D01*
X68844761Y-49631904D01*
X68797142Y-49584285D01*
X68463809Y-49584285D01*
X68463809Y-49774761D01*
X68892380Y-49155714D02*
X67892380Y-49155714D01*
X68892380Y-48584285D01*
X67892380Y-48584285D01*
X68892380Y-48108095D02*
X67892380Y-48108095D01*
X67892380Y-47870000D01*
X67940000Y-47727142D01*
X68035238Y-47631904D01*
X68130476Y-47584285D01*
X68320952Y-47536666D01*
X68463809Y-47536666D01*
X68654285Y-47584285D01*
X68749523Y-47631904D01*
X68844761Y-47727142D01*
X68892380Y-47870000D01*
X68892380Y-48108095D01*
X67892380Y-53248095D02*
X67892380Y-52629047D01*
X68273333Y-52962380D01*
X68273333Y-52819523D01*
X68320952Y-52724285D01*
X68368571Y-52676666D01*
X68463809Y-52629047D01*
X68701904Y-52629047D01*
X68797142Y-52676666D01*
X68844761Y-52724285D01*
X68892380Y-52819523D01*
X68892380Y-53105238D01*
X68844761Y-53200476D01*
X68797142Y-53248095D01*
X67892380Y-52343333D02*
X68892380Y-52010000D01*
X67892380Y-51676666D01*
X67892380Y-51438571D02*
X67892380Y-50819523D01*
X68273333Y-51152857D01*
X68273333Y-51010000D01*
X68320952Y-50914761D01*
X68368571Y-50867142D01*
X68463809Y-50819523D01*
X68701904Y-50819523D01*
X68797142Y-50867142D01*
X68844761Y-50914761D01*
X68892380Y-51010000D01*
X68892380Y-51295714D01*
X68844761Y-51390952D01*
X68797142Y-51438571D01*
X126402380Y-68137142D02*
X125402380Y-68137142D01*
X125402380Y-67756190D01*
X125450000Y-67660952D01*
X125497619Y-67613333D01*
X125592857Y-67565714D01*
X125735714Y-67565714D01*
X125830952Y-67613333D01*
X125878571Y-67660952D01*
X125926190Y-67756190D01*
X125926190Y-68137142D01*
X125402380Y-66946666D02*
X125402380Y-66756190D01*
X125450000Y-66660952D01*
X125545238Y-66565714D01*
X125735714Y-66518095D01*
X126069047Y-66518095D01*
X126259523Y-66565714D01*
X126354761Y-66660952D01*
X126402380Y-66756190D01*
X126402380Y-66946666D01*
X126354761Y-67041904D01*
X126259523Y-67137142D01*
X126069047Y-67184761D01*
X125735714Y-67184761D01*
X125545238Y-67137142D01*
X125450000Y-67041904D01*
X125402380Y-66946666D01*
X125402380Y-66184761D02*
X126402380Y-65946666D01*
X125688095Y-65756190D01*
X126402380Y-65565714D01*
X125402380Y-65327619D01*
X125878571Y-64946666D02*
X125878571Y-64613333D01*
X126402380Y-64470476D02*
X126402380Y-64946666D01*
X125402380Y-64946666D01*
X125402380Y-64470476D01*
X126402380Y-63470476D02*
X125926190Y-63803809D01*
X126402380Y-64041904D02*
X125402380Y-64041904D01*
X125402380Y-63660952D01*
X125450000Y-63565714D01*
X125497619Y-63518095D01*
X125592857Y-63470476D01*
X125735714Y-63470476D01*
X125830952Y-63518095D01*
X125878571Y-63565714D01*
X125926190Y-63660952D01*
X125926190Y-64041904D01*
X126021428Y-63041904D02*
X126021428Y-62280000D01*
X125402380Y-61613333D02*
X125402380Y-61422857D01*
X125450000Y-61327619D01*
X125545238Y-61232380D01*
X125735714Y-61184761D01*
X126069047Y-61184761D01*
X126259523Y-61232380D01*
X126354761Y-61327619D01*
X126402380Y-61422857D01*
X126402380Y-61613333D01*
X126354761Y-61708571D01*
X126259523Y-61803809D01*
X126069047Y-61851428D01*
X125735714Y-61851428D01*
X125545238Y-61803809D01*
X125450000Y-61708571D01*
X125402380Y-61613333D01*
X125402380Y-60756190D02*
X126211904Y-60756190D01*
X126307142Y-60708571D01*
X126354761Y-60660952D01*
X126402380Y-60565714D01*
X126402380Y-60375238D01*
X126354761Y-60280000D01*
X126307142Y-60232380D01*
X126211904Y-60184761D01*
X125402380Y-60184761D01*
X125402380Y-59851428D02*
X125402380Y-59280000D01*
X126402380Y-59565714D02*
X125402380Y-59565714D01*
X126402380Y-57830476D02*
X125402380Y-57830476D01*
X125402380Y-57449523D01*
X125450000Y-57354285D01*
X125497619Y-57306666D01*
X125592857Y-57259047D01*
X125735714Y-57259047D01*
X125830952Y-57306666D01*
X125878571Y-57354285D01*
X125926190Y-57449523D01*
X125926190Y-57830476D01*
X125402380Y-56640000D02*
X125402380Y-56449523D01*
X125450000Y-56354285D01*
X125545238Y-56259047D01*
X125735714Y-56211428D01*
X126069047Y-56211428D01*
X126259523Y-56259047D01*
X126354761Y-56354285D01*
X126402380Y-56449523D01*
X126402380Y-56640000D01*
X126354761Y-56735238D01*
X126259523Y-56830476D01*
X126069047Y-56878095D01*
X125735714Y-56878095D01*
X125545238Y-56830476D01*
X125450000Y-56735238D01*
X125402380Y-56640000D01*
X125402380Y-55878095D02*
X126402380Y-55640000D01*
X125688095Y-55449523D01*
X126402380Y-55259047D01*
X125402380Y-55020952D01*
X125878571Y-54640000D02*
X125878571Y-54306666D01*
X126402380Y-54163809D02*
X126402380Y-54640000D01*
X125402380Y-54640000D01*
X125402380Y-54163809D01*
X126402380Y-53163809D02*
X125926190Y-53497142D01*
X126402380Y-53735238D02*
X125402380Y-53735238D01*
X125402380Y-53354285D01*
X125450000Y-53259047D01*
X125497619Y-53211428D01*
X125592857Y-53163809D01*
X125735714Y-53163809D01*
X125830952Y-53211428D01*
X125878571Y-53259047D01*
X125926190Y-53354285D01*
X125926190Y-53735238D01*
X126021428Y-52735238D02*
X126021428Y-51973333D01*
X126402380Y-51497142D02*
X125402380Y-51497142D01*
X126402380Y-51020952D02*
X125402380Y-51020952D01*
X126402380Y-50449523D01*
X125402380Y-50449523D01*
X125372380Y-103500000D02*
X125372380Y-103309523D01*
X125420000Y-103214285D01*
X125515238Y-103119047D01*
X125705714Y-103071428D01*
X126039047Y-103071428D01*
X126229523Y-103119047D01*
X126324761Y-103214285D01*
X126372380Y-103309523D01*
X126372380Y-103500000D01*
X126324761Y-103595238D01*
X126229523Y-103690476D01*
X126039047Y-103738095D01*
X125705714Y-103738095D01*
X125515238Y-103690476D01*
X125420000Y-103595238D01*
X125372380Y-103500000D01*
X125372380Y-102642857D02*
X126181904Y-102642857D01*
X126277142Y-102595238D01*
X126324761Y-102547619D01*
X126372380Y-102452380D01*
X126372380Y-102261904D01*
X126324761Y-102166666D01*
X126277142Y-102119047D01*
X126181904Y-102071428D01*
X125372380Y-102071428D01*
X125372380Y-101738095D02*
X125372380Y-101166666D01*
X126372380Y-101452380D02*
X125372380Y-101452380D01*
X115397142Y-93640000D02*
X115301904Y-93592380D01*
X115159047Y-93592380D01*
X115016190Y-93640000D01*
X114920952Y-93735238D01*
X114873333Y-93830476D01*
X114825714Y-94020952D01*
X114825714Y-94163809D01*
X114873333Y-94354285D01*
X114920952Y-94449523D01*
X115016190Y-94544761D01*
X115159047Y-94592380D01*
X115254285Y-94592380D01*
X115397142Y-94544761D01*
X115444761Y-94497142D01*
X115444761Y-94163809D01*
X115254285Y-94163809D01*
X115873333Y-94592380D02*
X115873333Y-93592380D01*
X116444761Y-94592380D01*
X116444761Y-93592380D01*
X116920952Y-94592380D02*
X116920952Y-93592380D01*
X117159047Y-93592380D01*
X117301904Y-93640000D01*
X117397142Y-93735238D01*
X117444761Y-93830476D01*
X117492380Y-94020952D01*
X117492380Y-94163809D01*
X117444761Y-94354285D01*
X117397142Y-94449523D01*
X117301904Y-94544761D01*
X117159047Y-94592380D01*
X116920952Y-94592380D01*
X118063809Y-93592380D02*
X118063809Y-93830476D01*
X117825714Y-93735238D02*
X118063809Y-93830476D01*
X118301904Y-93735238D01*
X117920952Y-94020952D02*
X118063809Y-93830476D01*
X118206666Y-94020952D01*
X114975714Y-85522380D02*
X115309047Y-86522380D01*
X115642380Y-85522380D01*
X115975714Y-86522380D02*
X115975714Y-85522380D01*
X116213809Y-85522380D01*
X116356666Y-85570000D01*
X116451904Y-85665238D01*
X116499523Y-85760476D01*
X116547142Y-85950952D01*
X116547142Y-86093809D01*
X116499523Y-86284285D01*
X116451904Y-86379523D01*
X116356666Y-86474761D01*
X116213809Y-86522380D01*
X115975714Y-86522380D01*
X116975714Y-86522380D02*
X116975714Y-85522380D01*
X117213809Y-85522380D01*
X117356666Y-85570000D01*
X117451904Y-85665238D01*
X117499523Y-85760476D01*
X117547142Y-85950952D01*
X117547142Y-86093809D01*
X117499523Y-86284285D01*
X117451904Y-86379523D01*
X117356666Y-86474761D01*
X117213809Y-86522380D01*
X116975714Y-86522380D01*
X118118571Y-85522380D02*
X118118571Y-85760476D01*
X117880476Y-85665238D02*
X118118571Y-85760476D01*
X118356666Y-85665238D01*
X117975714Y-85950952D02*
X118118571Y-85760476D01*
X118261428Y-85950952D01*
X125462380Y-92141428D02*
X126271904Y-92141428D01*
X126367142Y-92093809D01*
X126414761Y-92046190D01*
X126462380Y-91950952D01*
X126462380Y-91760476D01*
X126414761Y-91665238D01*
X126367142Y-91617619D01*
X126271904Y-91570000D01*
X125462380Y-91570000D01*
X126176666Y-91141428D02*
X126176666Y-90665238D01*
X126462380Y-91236666D02*
X125462380Y-90903333D01*
X126462380Y-90570000D01*
X126462380Y-89665238D02*
X125986190Y-89998571D01*
X126462380Y-90236666D02*
X125462380Y-90236666D01*
X125462380Y-89855714D01*
X125510000Y-89760476D01*
X125557619Y-89712857D01*
X125652857Y-89665238D01*
X125795714Y-89665238D01*
X125890952Y-89712857D01*
X125938571Y-89760476D01*
X125986190Y-89855714D01*
X125986190Y-90236666D01*
X125462380Y-89379523D02*
X125462380Y-88808095D01*
X126462380Y-89093809D02*
X125462380Y-89093809D01*
X125557619Y-88522380D02*
X125510000Y-88474761D01*
X125462380Y-88379523D01*
X125462380Y-88141428D01*
X125510000Y-88046190D01*
X125557619Y-87998571D01*
X125652857Y-87950952D01*
X125748095Y-87950952D01*
X125890952Y-87998571D01*
X126462380Y-88570000D01*
X126462380Y-87950952D01*
X115368095Y-80600000D02*
X115272857Y-80552380D01*
X115130000Y-80552380D01*
X114987142Y-80600000D01*
X114891904Y-80695238D01*
X114844285Y-80790476D01*
X114796666Y-80980952D01*
X114796666Y-81123809D01*
X114844285Y-81314285D01*
X114891904Y-81409523D01*
X114987142Y-81504761D01*
X115130000Y-81552380D01*
X115225238Y-81552380D01*
X115368095Y-81504761D01*
X115415714Y-81457142D01*
X115415714Y-81123809D01*
X115225238Y-81123809D01*
X115844285Y-81552380D02*
X115844285Y-80552380D01*
X116415714Y-81552380D01*
X116415714Y-80552380D01*
X116891904Y-81552380D02*
X116891904Y-80552380D01*
X117130000Y-80552380D01*
X117272857Y-80600000D01*
X117368095Y-80695238D01*
X117415714Y-80790476D01*
X117463333Y-80980952D01*
X117463333Y-81123809D01*
X117415714Y-81314285D01*
X117368095Y-81409523D01*
X117272857Y-81504761D01*
X117130000Y-81552380D01*
X116891904Y-81552380D01*
X115278095Y-77402380D02*
X115849523Y-77402380D01*
X115563809Y-78402380D02*
X115563809Y-77402380D01*
X116087619Y-77402380D02*
X116754285Y-78402380D01*
X116754285Y-77402380D02*
X116087619Y-78402380D01*
X115783333Y-75572380D02*
X115450000Y-75096190D01*
X115211904Y-75572380D02*
X115211904Y-74572380D01*
X115592857Y-74572380D01*
X115688095Y-74620000D01*
X115735714Y-74667619D01*
X115783333Y-74762857D01*
X115783333Y-74905714D01*
X115735714Y-75000952D01*
X115688095Y-75048571D01*
X115592857Y-75096190D01*
X115211904Y-75096190D01*
X116116666Y-74572380D02*
X116783333Y-75572380D01*
X116783333Y-74572380D02*
X116116666Y-75572380D01*
X115031904Y-71972380D02*
X115650952Y-71972380D01*
X115317619Y-72353333D01*
X115460476Y-72353333D01*
X115555714Y-72400952D01*
X115603333Y-72448571D01*
X115650952Y-72543809D01*
X115650952Y-72781904D01*
X115603333Y-72877142D01*
X115555714Y-72924761D01*
X115460476Y-72972380D01*
X115174761Y-72972380D01*
X115079523Y-72924761D01*
X115031904Y-72877142D01*
X115936666Y-71972380D02*
X116270000Y-72972380D01*
X116603333Y-71972380D01*
X116841428Y-71972380D02*
X117460476Y-71972380D01*
X117127142Y-72353333D01*
X117270000Y-72353333D01*
X117365238Y-72400952D01*
X117412857Y-72448571D01*
X117460476Y-72543809D01*
X117460476Y-72781904D01*
X117412857Y-72877142D01*
X117365238Y-72924761D01*
X117270000Y-72972380D01*
X116984285Y-72972380D01*
X116889047Y-72924761D01*
X116841428Y-72877142D01*
X125382380Y-78451428D02*
X126191904Y-78451428D01*
X126287142Y-78403809D01*
X126334761Y-78356190D01*
X126382380Y-78260952D01*
X126382380Y-78070476D01*
X126334761Y-77975238D01*
X126287142Y-77927619D01*
X126191904Y-77880000D01*
X125382380Y-77880000D01*
X126096666Y-77451428D02*
X126096666Y-76975238D01*
X126382380Y-77546666D02*
X125382380Y-77213333D01*
X126382380Y-76880000D01*
X126382380Y-75975238D02*
X125906190Y-76308571D01*
X126382380Y-76546666D02*
X125382380Y-76546666D01*
X125382380Y-76165714D01*
X125430000Y-76070476D01*
X125477619Y-76022857D01*
X125572857Y-75975238D01*
X125715714Y-75975238D01*
X125810952Y-76022857D01*
X125858571Y-76070476D01*
X125906190Y-76165714D01*
X125906190Y-76546666D01*
X125382380Y-75689523D02*
X125382380Y-75118095D01*
X126382380Y-75403809D02*
X125382380Y-75403809D01*
X126382380Y-74260952D02*
X126382380Y-74832380D01*
X126382380Y-74546666D02*
X125382380Y-74546666D01*
X125525238Y-74641904D01*
X125620476Y-74737142D01*
X125668095Y-74832380D01*
X116059523Y-66682380D02*
X115583333Y-66682380D01*
X115535714Y-67158571D01*
X115583333Y-67110952D01*
X115678571Y-67063333D01*
X115916666Y-67063333D01*
X116011904Y-67110952D01*
X116059523Y-67158571D01*
X116107142Y-67253809D01*
X116107142Y-67491904D01*
X116059523Y-67587142D01*
X116011904Y-67634761D01*
X115916666Y-67682380D01*
X115678571Y-67682380D01*
X115583333Y-67634761D01*
X115535714Y-67587142D01*
X116392857Y-66682380D02*
X116726190Y-67682380D01*
X117059523Y-66682380D01*
X115348095Y-63720000D02*
X115252857Y-63672380D01*
X115110000Y-63672380D01*
X114967142Y-63720000D01*
X114871904Y-63815238D01*
X114824285Y-63910476D01*
X114776666Y-64100952D01*
X114776666Y-64243809D01*
X114824285Y-64434285D01*
X114871904Y-64529523D01*
X114967142Y-64624761D01*
X115110000Y-64672380D01*
X115205238Y-64672380D01*
X115348095Y-64624761D01*
X115395714Y-64577142D01*
X115395714Y-64243809D01*
X115205238Y-64243809D01*
X115824285Y-64672380D02*
X115824285Y-63672380D01*
X116395714Y-64672380D01*
X116395714Y-63672380D01*
X116871904Y-64672380D02*
X116871904Y-63672380D01*
X117110000Y-63672380D01*
X117252857Y-63720000D01*
X117348095Y-63815238D01*
X117395714Y-63910476D01*
X117443333Y-64100952D01*
X117443333Y-64243809D01*
X117395714Y-64434285D01*
X117348095Y-64529523D01*
X117252857Y-64624761D01*
X117110000Y-64672380D01*
X116871904Y-64672380D01*
X114781904Y-61152380D02*
X115400952Y-61152380D01*
X115067619Y-61533333D01*
X115210476Y-61533333D01*
X115305714Y-61580952D01*
X115353333Y-61628571D01*
X115400952Y-61723809D01*
X115400952Y-61961904D01*
X115353333Y-62057142D01*
X115305714Y-62104761D01*
X115210476Y-62152380D01*
X114924761Y-62152380D01*
X114829523Y-62104761D01*
X114781904Y-62057142D01*
X115686666Y-61152380D02*
X116020000Y-62152380D01*
X116353333Y-61152380D01*
X116591428Y-61152380D02*
X117210476Y-61152380D01*
X116877142Y-61533333D01*
X117020000Y-61533333D01*
X117115238Y-61580952D01*
X117162857Y-61628571D01*
X117210476Y-61723809D01*
X117210476Y-61961904D01*
X117162857Y-62057142D01*
X117115238Y-62104761D01*
X117020000Y-62152380D01*
X116734285Y-62152380D01*
X116639047Y-62104761D01*
X116591428Y-62057142D01*
X115488095Y-55630000D02*
X115392857Y-55582380D01*
X115250000Y-55582380D01*
X115107142Y-55630000D01*
X115011904Y-55725238D01*
X114964285Y-55820476D01*
X114916666Y-56010952D01*
X114916666Y-56153809D01*
X114964285Y-56344285D01*
X115011904Y-56439523D01*
X115107142Y-56534761D01*
X115250000Y-56582380D01*
X115345238Y-56582380D01*
X115488095Y-56534761D01*
X115535714Y-56487142D01*
X115535714Y-56153809D01*
X115345238Y-56153809D01*
X115964285Y-56582380D02*
X115964285Y-55582380D01*
X116535714Y-56582380D01*
X116535714Y-55582380D01*
X117011904Y-56582380D02*
X117011904Y-55582380D01*
X117250000Y-55582380D01*
X117392857Y-55630000D01*
X117488095Y-55725238D01*
X117535714Y-55820476D01*
X117583333Y-56010952D01*
X117583333Y-56153809D01*
X117535714Y-56344285D01*
X117488095Y-56439523D01*
X117392857Y-56534761D01*
X117250000Y-56582380D01*
X117011904Y-56582380D01*
X116419523Y-52482380D02*
X115943333Y-52482380D01*
X115895714Y-52958571D01*
X115943333Y-52910952D01*
X116038571Y-52863333D01*
X116276666Y-52863333D01*
X116371904Y-52910952D01*
X116419523Y-52958571D01*
X116467142Y-53053809D01*
X116467142Y-53291904D01*
X116419523Y-53387142D01*
X116371904Y-53434761D01*
X116276666Y-53482380D01*
X116038571Y-53482380D01*
X115943333Y-53434761D01*
X115895714Y-53387142D01*
X116752857Y-52482380D02*
X117086190Y-53482380D01*
X117419523Y-52482380D01*
D11*
X83108748Y-53985000D02*
X83631252Y-53985000D01*
X83108748Y-52515000D02*
X83631252Y-52515000D01*
X92468748Y-55905000D02*
X92991252Y-55905000D01*
X92468748Y-54435000D02*
X92991252Y-54435000D01*
X101345000Y-52348748D02*
X101345000Y-52871252D01*
X102815000Y-52348748D02*
X102815000Y-52871252D01*
X107295000Y-57241252D02*
X107295000Y-56718748D01*
X105825000Y-57241252D02*
X105825000Y-56718748D01*
X75610436Y-51435000D02*
X76064564Y-51435000D01*
X75610436Y-49965000D02*
X76064564Y-49965000D01*
X79649564Y-46465000D02*
X79195436Y-46465000D01*
X79649564Y-47935000D02*
X79195436Y-47935000D01*
X75616436Y-53441000D02*
X76070564Y-53441000D01*
X75616436Y-51971000D02*
X76070564Y-51971000D01*
X80990000Y-43710000D02*
X80990000Y-45170000D01*
X77830000Y-43710000D02*
X77830000Y-45870000D01*
X77830000Y-43710000D02*
X78760000Y-43710000D01*
X80990000Y-43710000D02*
X80060000Y-43710000D01*
X77470000Y-47200000D02*
X77470000Y-48660000D01*
X74310000Y-47200000D02*
X74310000Y-49360000D01*
X74310000Y-47200000D02*
X75240000Y-47200000D01*
X77470000Y-47200000D02*
X76540000Y-47200000D01*
X69750000Y-54230000D02*
X71080000Y-54230000D01*
X69750000Y-55560000D02*
X69750000Y-54230000D01*
X69750000Y-56830000D02*
X72410000Y-56830000D01*
X72410000Y-56830000D02*
X72410000Y-64510000D01*
X69750000Y-56830000D02*
X69750000Y-64510000D01*
X69750000Y-64510000D02*
X72410000Y-64510000D01*
X69690000Y-47910000D02*
X71020000Y-47910000D01*
X69690000Y-49240000D02*
X69690000Y-47910000D01*
X69690000Y-50510000D02*
X72350000Y-50510000D01*
X72350000Y-50510000D02*
X72350000Y-53110000D01*
X69690000Y-50510000D02*
X69690000Y-53110000D01*
X69690000Y-53110000D02*
X72350000Y-53110000D01*
X82765000Y-64062936D02*
X82765000Y-64517064D01*
X81295000Y-64062936D02*
X81295000Y-64517064D01*
X85155000Y-64042936D02*
X85155000Y-64497064D01*
X83685000Y-64042936D02*
X83685000Y-64497064D01*
X80031000Y-63908936D02*
X80031000Y-64363064D01*
X78561000Y-63908936D02*
X78561000Y-64363064D01*
X111174564Y-105315000D02*
X110720436Y-105315000D01*
X111174564Y-103845000D02*
X110720436Y-103845000D01*
X117535000Y-98870436D02*
X117535000Y-99324564D01*
X116065000Y-98870436D02*
X116065000Y-99324564D01*
X105410000Y-107400000D02*
X107210000Y-107400000D01*
X117120000Y-122580000D02*
X116470000Y-122580000D01*
X102500000Y-122580000D02*
X102500000Y-123100000D01*
X116470000Y-114470000D02*
X116470000Y-122580000D01*
X102500000Y-123100000D02*
X117120000Y-123100000D01*
X117120000Y-123100000D02*
X117120000Y-122580000D01*
X116470000Y-107620000D02*
X116470000Y-110950000D01*
X103150000Y-107620000D02*
X103150000Y-110950000D01*
X103150000Y-107620000D02*
X116470000Y-107620000D01*
X103150000Y-122580000D02*
X102500000Y-122580000D01*
X103150000Y-122580000D02*
X103150000Y-114470000D01*
X99340000Y-115310000D02*
X99340000Y-112860000D01*
X96120000Y-113510000D02*
X96120000Y-115310000D01*
X98085000Y-108880436D02*
X98085000Y-109334564D01*
X99555000Y-108880436D02*
X99555000Y-109334564D01*
X100115000Y-108910436D02*
X100115000Y-109364564D01*
X101585000Y-108910436D02*
X101585000Y-109364564D01*
X94075000Y-108875436D02*
X94075000Y-109329564D01*
X95545000Y-108875436D02*
X95545000Y-109329564D01*
X96075000Y-108895436D02*
X96075000Y-109349564D01*
X97545000Y-108895436D02*
X97545000Y-109349564D01*
X116105000Y-90401252D02*
X116105000Y-89878748D01*
X117575000Y-90401252D02*
X117575000Y-89878748D01*
X112010000Y-92940000D02*
X113960000Y-92940000D01*
X112010000Y-92940000D02*
X110060000Y-92940000D01*
X112010000Y-87820000D02*
X113960000Y-87820000D01*
X112010000Y-87820000D02*
X108560000Y-87820000D01*
X110261252Y-87305000D02*
X109738748Y-87305000D01*
X110261252Y-85835000D02*
X109738748Y-85835000D01*
X114395000Y-103620436D02*
X114395000Y-104074564D01*
X112925000Y-103620436D02*
X112925000Y-104074564D01*
X124400000Y-59100000D02*
X118430000Y-59100000D01*
X118430000Y-59100000D02*
X118430000Y-69220000D01*
X118430000Y-69220000D02*
X124400000Y-69220000D01*
X124400000Y-69220000D02*
X124400000Y-59100000D01*
X124390000Y-62410000D02*
X123640000Y-62410000D01*
X123640000Y-62410000D02*
X123640000Y-65910000D01*
X123640000Y-65910000D02*
X124390000Y-65910000D01*
X124390000Y-65910000D02*
X124390000Y-62410000D01*
X124390000Y-59110000D02*
X123640000Y-59110000D01*
X123640000Y-59110000D02*
X123640000Y-60910000D01*
X123640000Y-60910000D02*
X124390000Y-60910000D01*
X124390000Y-60910000D02*
X124390000Y-59110000D01*
X124390000Y-67410000D02*
X123640000Y-67410000D01*
X123640000Y-67410000D02*
X123640000Y-69210000D01*
X123640000Y-69210000D02*
X124390000Y-69210000D01*
X124390000Y-69210000D02*
X124390000Y-67410000D01*
X122140000Y-59110000D02*
X122140000Y-59860000D01*
X122140000Y-59860000D02*
X119190000Y-59860000D01*
X119190000Y-59860000D02*
X119190000Y-64160000D01*
X122140000Y-69210000D02*
X122140000Y-68460000D01*
X122140000Y-68460000D02*
X119190000Y-68460000D01*
X119190000Y-68460000D02*
X119190000Y-64160000D01*
X124690000Y-60060000D02*
X124690000Y-58810000D01*
X124690000Y-58810000D02*
X123440000Y-58810000D01*
X67728000Y-94224000D02*
X69388000Y-94224000D01*
X67728000Y-86304000D02*
X67728000Y-94224000D01*
X69388000Y-86304000D02*
X67728000Y-86304000D01*
X77198000Y-92314000D02*
X77198000Y-93464000D01*
X77788000Y-88214000D02*
X77788000Y-88914000D01*
X77198000Y-88214000D02*
X77788000Y-88214000D01*
X77198000Y-87064000D02*
X77198000Y-88214000D01*
X74888000Y-94224000D02*
X72288000Y-94224000D01*
X72288000Y-86304000D02*
X74888000Y-86304000D01*
X81390000Y-107400000D02*
X83190000Y-107400000D01*
X93100000Y-122580000D02*
X92450000Y-122580000D01*
X78480000Y-122580000D02*
X78480000Y-123100000D01*
X92450000Y-114470000D02*
X92450000Y-122580000D01*
X78480000Y-123100000D02*
X93100000Y-123100000D01*
X93100000Y-123100000D02*
X93100000Y-122580000D01*
X92450000Y-107620000D02*
X92450000Y-110950000D01*
X79130000Y-107620000D02*
X79130000Y-110950000D01*
X79130000Y-107620000D02*
X92450000Y-107620000D01*
X79130000Y-122580000D02*
X78480000Y-122580000D01*
X79130000Y-122580000D02*
X79130000Y-114470000D01*
X88880000Y-43810000D02*
X86930000Y-43810000D01*
X88880000Y-43810000D02*
X90830000Y-43810000D01*
X88880000Y-53930000D02*
X86930000Y-53930000D01*
X88880000Y-53930000D02*
X92330000Y-53930000D01*
X96810000Y-43840000D02*
X94860000Y-43840000D01*
X96810000Y-43840000D02*
X98760000Y-43840000D01*
X96810000Y-53960000D02*
X94860000Y-53960000D01*
X96810000Y-53960000D02*
X100260000Y-53960000D01*
X106820000Y-43850000D02*
X104870000Y-43850000D01*
X106820000Y-43850000D02*
X108770000Y-43850000D01*
X106820000Y-53970000D02*
X104870000Y-53970000D01*
X106820000Y-53970000D02*
X110270000Y-53970000D01*
X101790000Y-63425000D02*
X103740000Y-63425000D01*
X101790000Y-63425000D02*
X99840000Y-63425000D01*
X101790000Y-54555000D02*
X103740000Y-54555000D01*
X101790000Y-54555000D02*
X98340000Y-54555000D01*
D10*
X117208000Y-42126000D02*
X117208000Y-34996000D01*
X117208000Y-34996000D02*
X77148000Y-34996000D01*
X77148000Y-34996000D02*
X77148000Y-42186000D01*
X77148000Y-42186000D02*
X117208000Y-42186000D01*
X117208000Y-42186000D02*
X117208000Y-42106000D01*
D11*
X124400000Y-50490000D02*
X118430000Y-50490000D01*
X118430000Y-50490000D02*
X118430000Y-58110000D01*
X118430000Y-58110000D02*
X124400000Y-58110000D01*
X124400000Y-58110000D02*
X124400000Y-50490000D01*
X124390000Y-53800000D02*
X123640000Y-53800000D01*
X123640000Y-53800000D02*
X123640000Y-54800000D01*
X123640000Y-54800000D02*
X124390000Y-54800000D01*
X124390000Y-54800000D02*
X124390000Y-53800000D01*
X124390000Y-50500000D02*
X123640000Y-50500000D01*
X123640000Y-50500000D02*
X123640000Y-52300000D01*
X123640000Y-52300000D02*
X124390000Y-52300000D01*
X124390000Y-52300000D02*
X124390000Y-50500000D01*
X124390000Y-56300000D02*
X123640000Y-56300000D01*
X123640000Y-56300000D02*
X123640000Y-58100000D01*
X123640000Y-58100000D02*
X124390000Y-58100000D01*
X124390000Y-58100000D02*
X124390000Y-56300000D01*
X122140000Y-50500000D02*
X122140000Y-51250000D01*
X122140000Y-51250000D02*
X119190000Y-51250000D01*
X119190000Y-51250000D02*
X119190000Y-54300000D01*
X122140000Y-58100000D02*
X122140000Y-57350000D01*
X122140000Y-57350000D02*
X119190000Y-57350000D01*
X119190000Y-57350000D02*
X119190000Y-54300000D01*
X124690000Y-51450000D02*
X124690000Y-50200000D01*
X124690000Y-50200000D02*
X123440000Y-50200000D01*
X124690000Y-69930000D02*
X123440000Y-69930000D01*
X124690000Y-71180000D02*
X124690000Y-69930000D01*
X119190000Y-82080000D02*
X119190000Y-76530000D01*
X122140000Y-82080000D02*
X119190000Y-82080000D01*
X122140000Y-82830000D02*
X122140000Y-82080000D01*
X119190000Y-70980000D02*
X119190000Y-76530000D01*
X122140000Y-70980000D02*
X119190000Y-70980000D01*
X122140000Y-70230000D02*
X122140000Y-70980000D01*
X124390000Y-82830000D02*
X124390000Y-81030000D01*
X123640000Y-82830000D02*
X124390000Y-82830000D01*
X123640000Y-81030000D02*
X123640000Y-82830000D01*
X124390000Y-81030000D02*
X123640000Y-81030000D01*
X124390000Y-72030000D02*
X124390000Y-70230000D01*
X123640000Y-72030000D02*
X124390000Y-72030000D01*
X123640000Y-70230000D02*
X123640000Y-72030000D01*
X124390000Y-70230000D02*
X123640000Y-70230000D01*
X124390000Y-79530000D02*
X124390000Y-73530000D01*
X123640000Y-79530000D02*
X124390000Y-79530000D01*
X123640000Y-73530000D02*
X123640000Y-79530000D01*
X124390000Y-73530000D02*
X123640000Y-73530000D01*
X124400000Y-82840000D02*
X124400000Y-70220000D01*
X118430000Y-82840000D02*
X124400000Y-82840000D01*
X118430000Y-70220000D02*
X118430000Y-82840000D01*
X124400000Y-70220000D02*
X118430000Y-70220000D01*
X104704000Y-95332000D02*
X103054000Y-95332000D01*
X103054000Y-95332000D02*
X103054000Y-100532000D01*
X103054000Y-100532000D02*
X108354000Y-100532000D01*
X108354000Y-100532000D02*
X108354000Y-95332000D01*
X108354000Y-95332000D02*
X106704000Y-95332000D01*
X106704000Y-95332000D02*
G75*
G02*
X104704000Y-95332000I-1000000J0D01*
G01*
X98969564Y-97397000D02*
X98515436Y-97397000D01*
X98969564Y-95927000D02*
X98515436Y-95927000D01*
X124400000Y-97490000D02*
X118430000Y-97490000D01*
X118430000Y-97490000D02*
X118430000Y-107610000D01*
X118430000Y-107610000D02*
X124400000Y-107610000D01*
X124400000Y-107610000D02*
X124400000Y-97490000D01*
X124390000Y-100800000D02*
X123640000Y-100800000D01*
X123640000Y-100800000D02*
X123640000Y-104300000D01*
X123640000Y-104300000D02*
X124390000Y-104300000D01*
X124390000Y-104300000D02*
X124390000Y-100800000D01*
X124390000Y-97500000D02*
X123640000Y-97500000D01*
X123640000Y-97500000D02*
X123640000Y-99300000D01*
X123640000Y-99300000D02*
X124390000Y-99300000D01*
X124390000Y-99300000D02*
X124390000Y-97500000D01*
X124390000Y-105800000D02*
X123640000Y-105800000D01*
X123640000Y-105800000D02*
X123640000Y-107600000D01*
X123640000Y-107600000D02*
X124390000Y-107600000D01*
X124390000Y-107600000D02*
X124390000Y-105800000D01*
X122140000Y-97500000D02*
X122140000Y-98250000D01*
X122140000Y-98250000D02*
X119190000Y-98250000D01*
X119190000Y-98250000D02*
X119190000Y-102550000D01*
X122140000Y-107600000D02*
X122140000Y-106850000D01*
X122140000Y-106850000D02*
X119190000Y-106850000D01*
X119190000Y-106850000D02*
X119190000Y-102550000D01*
X124690000Y-98450000D02*
X124690000Y-97200000D01*
X124690000Y-97200000D02*
X123440000Y-97200000D01*
X116419000Y-103602748D02*
X116419000Y-104125252D01*
X114949000Y-103602748D02*
X114949000Y-104125252D01*
X124690000Y-83570000D02*
X123440000Y-83570000D01*
X124690000Y-84820000D02*
X124690000Y-83570000D01*
X119190000Y-95720000D02*
X119190000Y-90170000D01*
X122140000Y-95720000D02*
X119190000Y-95720000D01*
X122140000Y-96470000D02*
X122140000Y-95720000D01*
X119190000Y-84620000D02*
X119190000Y-90170000D01*
X122140000Y-84620000D02*
X119190000Y-84620000D01*
X122140000Y-83870000D02*
X122140000Y-84620000D01*
X124390000Y-96470000D02*
X124390000Y-94670000D01*
X123640000Y-96470000D02*
X124390000Y-96470000D01*
X123640000Y-94670000D02*
X123640000Y-96470000D01*
X124390000Y-94670000D02*
X123640000Y-94670000D01*
X124390000Y-85670000D02*
X124390000Y-83870000D01*
X123640000Y-85670000D02*
X124390000Y-85670000D01*
X123640000Y-83870000D02*
X123640000Y-85670000D01*
X124390000Y-83870000D02*
X123640000Y-83870000D01*
X124390000Y-93170000D02*
X124390000Y-87170000D01*
X123640000Y-93170000D02*
X124390000Y-93170000D01*
X123640000Y-87170000D02*
X123640000Y-93170000D01*
X124390000Y-87170000D02*
X123640000Y-87170000D01*
X124400000Y-96480000D02*
X124400000Y-83860000D01*
X118430000Y-96480000D02*
X124400000Y-96480000D01*
X118430000Y-83860000D02*
X118430000Y-96480000D01*
X124400000Y-83860000D02*
X118430000Y-83860000D01*
D10*
X89190000Y-93935000D02*
X85190000Y-93935000D01*
X90465000Y-99335000D02*
X85190000Y-99335000D01*
D11*
X85470000Y-92301078D02*
X85470000Y-91783922D01*
X86890000Y-92301078D02*
X86890000Y-91783922D01*
X87470000Y-92311078D02*
X87470000Y-91793922D01*
X88890000Y-92311078D02*
X88890000Y-91793922D01*
X92460000Y-96713922D02*
X92460000Y-97231078D01*
X91040000Y-96713922D02*
X91040000Y-97231078D01*
X81470000Y-96443922D02*
X81470000Y-96961078D01*
X80050000Y-96443922D02*
X80050000Y-96961078D01*
X83430000Y-96443922D02*
X83430000Y-96961078D01*
X82010000Y-96443922D02*
X82010000Y-96961078D01*
X84880000Y-91823922D02*
X84880000Y-92341078D01*
X83460000Y-91823922D02*
X83460000Y-92341078D01*
X91161078Y-91700000D02*
X90643922Y-91700000D01*
X91161078Y-90280000D02*
X90643922Y-90280000D01*
D10*
X82617142Y-55357142D02*
X82569523Y-55404761D01*
X82426666Y-55452380D01*
X82331428Y-55452380D01*
X82188571Y-55404761D01*
X82093333Y-55309523D01*
X82045714Y-55214285D01*
X81998095Y-55023809D01*
X81998095Y-54880952D01*
X82045714Y-54690476D01*
X82093333Y-54595238D01*
X82188571Y-54500000D01*
X82331428Y-54452380D01*
X82426666Y-54452380D01*
X82569523Y-54500000D01*
X82617142Y-54547619D01*
X83569523Y-55452380D02*
X82998095Y-55452380D01*
X83283809Y-55452380D02*
X83283809Y-54452380D01*
X83188571Y-54595238D01*
X83093333Y-54690476D01*
X82998095Y-54738095D01*
X83950476Y-54547619D02*
X83998095Y-54500000D01*
X84093333Y-54452380D01*
X84331428Y-54452380D01*
X84426666Y-54500000D01*
X84474285Y-54547619D01*
X84521904Y-54642857D01*
X84521904Y-54738095D01*
X84474285Y-54880952D01*
X83902857Y-55452380D01*
X84521904Y-55452380D01*
X92137142Y-57417142D02*
X92089523Y-57464761D01*
X91946666Y-57512380D01*
X91851428Y-57512380D01*
X91708571Y-57464761D01*
X91613333Y-57369523D01*
X91565714Y-57274285D01*
X91518095Y-57083809D01*
X91518095Y-56940952D01*
X91565714Y-56750476D01*
X91613333Y-56655238D01*
X91708571Y-56560000D01*
X91851428Y-56512380D01*
X91946666Y-56512380D01*
X92089523Y-56560000D01*
X92137142Y-56607619D01*
X93089523Y-57512380D02*
X92518095Y-57512380D01*
X92803809Y-57512380D02*
X92803809Y-56512380D01*
X92708571Y-56655238D01*
X92613333Y-56750476D01*
X92518095Y-56798095D01*
X94041904Y-57512380D02*
X93470476Y-57512380D01*
X93756190Y-57512380D02*
X93756190Y-56512380D01*
X93660952Y-56655238D01*
X93565714Y-56750476D01*
X93470476Y-56798095D01*
X101977142Y-50072857D02*
X102024761Y-50120476D01*
X102072380Y-50263333D01*
X102072380Y-50358571D01*
X102024761Y-50501428D01*
X101929523Y-50596666D01*
X101834285Y-50644285D01*
X101643809Y-50691904D01*
X101500952Y-50691904D01*
X101310476Y-50644285D01*
X101215238Y-50596666D01*
X101120000Y-50501428D01*
X101072380Y-50358571D01*
X101072380Y-50263333D01*
X101120000Y-50120476D01*
X101167619Y-50072857D01*
X102072380Y-49120476D02*
X102072380Y-49691904D01*
X102072380Y-49406190D02*
X101072380Y-49406190D01*
X101215238Y-49501428D01*
X101310476Y-49596666D01*
X101358095Y-49691904D01*
X101072380Y-48501428D02*
X101072380Y-48406190D01*
X101120000Y-48310952D01*
X101167619Y-48263333D01*
X101262857Y-48215714D01*
X101453333Y-48168095D01*
X101691428Y-48168095D01*
X101881904Y-48215714D01*
X101977142Y-48263333D01*
X102024761Y-48310952D01*
X102072380Y-48406190D01*
X102072380Y-48501428D01*
X102024761Y-48596666D01*
X101977142Y-48644285D01*
X101881904Y-48691904D01*
X101691428Y-48739523D01*
X101453333Y-48739523D01*
X101262857Y-48691904D01*
X101167619Y-48644285D01*
X101120000Y-48596666D01*
X101072380Y-48501428D01*
X108677142Y-56996666D02*
X108724761Y-57044285D01*
X108772380Y-57187142D01*
X108772380Y-57282380D01*
X108724761Y-57425238D01*
X108629523Y-57520476D01*
X108534285Y-57568095D01*
X108343809Y-57615714D01*
X108200952Y-57615714D01*
X108010476Y-57568095D01*
X107915238Y-57520476D01*
X107820000Y-57425238D01*
X107772380Y-57282380D01*
X107772380Y-57187142D01*
X107820000Y-57044285D01*
X107867619Y-56996666D01*
X108772380Y-56520476D02*
X108772380Y-56330000D01*
X108724761Y-56234761D01*
X108677142Y-56187142D01*
X108534285Y-56091904D01*
X108343809Y-56044285D01*
X107962857Y-56044285D01*
X107867619Y-56091904D01*
X107820000Y-56139523D01*
X107772380Y-56234761D01*
X107772380Y-56425238D01*
X107820000Y-56520476D01*
X107867619Y-56568095D01*
X107962857Y-56615714D01*
X108200952Y-56615714D01*
X108296190Y-56568095D01*
X108343809Y-56520476D01*
X108391428Y-56425238D01*
X108391428Y-56234761D01*
X108343809Y-56139523D01*
X108296190Y-56091904D01*
X108200952Y-56044285D01*
X79247142Y-51352380D02*
X78913809Y-50876190D01*
X78675714Y-51352380D02*
X78675714Y-50352380D01*
X79056666Y-50352380D01*
X79151904Y-50400000D01*
X79199523Y-50447619D01*
X79247142Y-50542857D01*
X79247142Y-50685714D01*
X79199523Y-50780952D01*
X79151904Y-50828571D01*
X79056666Y-50876190D01*
X78675714Y-50876190D01*
X80199523Y-51352380D02*
X79628095Y-51352380D01*
X79913809Y-51352380D02*
X79913809Y-50352380D01*
X79818571Y-50495238D01*
X79723333Y-50590476D01*
X79628095Y-50638095D01*
X81056666Y-50352380D02*
X80866190Y-50352380D01*
X80770952Y-50400000D01*
X80723333Y-50447619D01*
X80628095Y-50590476D01*
X80580476Y-50780952D01*
X80580476Y-51161904D01*
X80628095Y-51257142D01*
X80675714Y-51304761D01*
X80770952Y-51352380D01*
X80961428Y-51352380D01*
X81056666Y-51304761D01*
X81104285Y-51257142D01*
X81151904Y-51161904D01*
X81151904Y-50923809D01*
X81104285Y-50828571D01*
X81056666Y-50780952D01*
X80961428Y-50733333D01*
X80770952Y-50733333D01*
X80675714Y-50780952D01*
X80628095Y-50828571D01*
X80580476Y-50923809D01*
X78779642Y-49302380D02*
X78446309Y-48826190D01*
X78208214Y-49302380D02*
X78208214Y-48302380D01*
X78589166Y-48302380D01*
X78684404Y-48350000D01*
X78732023Y-48397619D01*
X78779642Y-48492857D01*
X78779642Y-48635714D01*
X78732023Y-48730952D01*
X78684404Y-48778571D01*
X78589166Y-48826190D01*
X78208214Y-48826190D01*
X79732023Y-49302380D02*
X79160595Y-49302380D01*
X79446309Y-49302380D02*
X79446309Y-48302380D01*
X79351071Y-48445238D01*
X79255833Y-48540476D01*
X79160595Y-48588095D01*
X80636785Y-48302380D02*
X80160595Y-48302380D01*
X80112976Y-48778571D01*
X80160595Y-48730952D01*
X80255833Y-48683333D01*
X80493928Y-48683333D01*
X80589166Y-48730952D01*
X80636785Y-48778571D01*
X80684404Y-48873809D01*
X80684404Y-49111904D01*
X80636785Y-49207142D01*
X80589166Y-49254761D01*
X80493928Y-49302380D01*
X80255833Y-49302380D01*
X80160595Y-49254761D01*
X80112976Y-49207142D01*
X78597142Y-53312380D02*
X78263809Y-52836190D01*
X78025714Y-53312380D02*
X78025714Y-52312380D01*
X78406666Y-52312380D01*
X78501904Y-52360000D01*
X78549523Y-52407619D01*
X78597142Y-52502857D01*
X78597142Y-52645714D01*
X78549523Y-52740952D01*
X78501904Y-52788571D01*
X78406666Y-52836190D01*
X78025714Y-52836190D01*
X79549523Y-53312380D02*
X78978095Y-53312380D01*
X79263809Y-53312380D02*
X79263809Y-52312380D01*
X79168571Y-52455238D01*
X79073333Y-52550476D01*
X78978095Y-52598095D01*
X80406666Y-52645714D02*
X80406666Y-53312380D01*
X80168571Y-52264761D02*
X79930476Y-52979047D01*
X80549523Y-52979047D01*
X77457619Y-44565238D02*
X77410000Y-44660476D01*
X77314761Y-44755714D01*
X77171904Y-44898571D01*
X77124285Y-44993809D01*
X77124285Y-45089047D01*
X77362380Y-45041428D02*
X77314761Y-45136666D01*
X77219523Y-45231904D01*
X77029047Y-45279523D01*
X76695714Y-45279523D01*
X76505238Y-45231904D01*
X76410000Y-45136666D01*
X76362380Y-45041428D01*
X76362380Y-44850952D01*
X76410000Y-44755714D01*
X76505238Y-44660476D01*
X76695714Y-44612857D01*
X77029047Y-44612857D01*
X77219523Y-44660476D01*
X77314761Y-44755714D01*
X77362380Y-44850952D01*
X77362380Y-45041428D01*
X76457619Y-44231904D02*
X76410000Y-44184285D01*
X76362380Y-44089047D01*
X76362380Y-43850952D01*
X76410000Y-43755714D01*
X76457619Y-43708095D01*
X76552857Y-43660476D01*
X76648095Y-43660476D01*
X76790952Y-43708095D01*
X77362380Y-44279523D01*
X77362380Y-43660476D01*
X74904761Y-45907619D02*
X74809523Y-45860000D01*
X74714285Y-45764761D01*
X74571428Y-45621904D01*
X74476190Y-45574285D01*
X74380952Y-45574285D01*
X74428571Y-45812380D02*
X74333333Y-45764761D01*
X74238095Y-45669523D01*
X74190476Y-45479047D01*
X74190476Y-45145714D01*
X74238095Y-44955238D01*
X74333333Y-44860000D01*
X74428571Y-44812380D01*
X74619047Y-44812380D01*
X74714285Y-44860000D01*
X74809523Y-44955238D01*
X74857142Y-45145714D01*
X74857142Y-45479047D01*
X74809523Y-45669523D01*
X74714285Y-45764761D01*
X74619047Y-45812380D01*
X74428571Y-45812380D01*
X75809523Y-45812380D02*
X75238095Y-45812380D01*
X75523809Y-45812380D02*
X75523809Y-44812380D01*
X75428571Y-44955238D01*
X75333333Y-45050476D01*
X75238095Y-45098095D01*
X70240476Y-65622380D02*
X70240476Y-66336666D01*
X70192857Y-66479523D01*
X70097619Y-66574761D01*
X69954761Y-66622380D01*
X69859523Y-66622380D01*
X71240476Y-66622380D02*
X70669047Y-66622380D01*
X70954761Y-66622380D02*
X70954761Y-65622380D01*
X70859523Y-65765238D01*
X70764285Y-65860476D01*
X70669047Y-65908095D01*
X72192857Y-66622380D02*
X71621428Y-66622380D01*
X71907142Y-66622380D02*
X71907142Y-65622380D01*
X71811904Y-65765238D01*
X71716666Y-65860476D01*
X71621428Y-65908095D01*
X70210476Y-46362380D02*
X70210476Y-47076666D01*
X70162857Y-47219523D01*
X70067619Y-47314761D01*
X69924761Y-47362380D01*
X69829523Y-47362380D01*
X71210476Y-47362380D02*
X70639047Y-47362380D01*
X70924761Y-47362380D02*
X70924761Y-46362380D01*
X70829523Y-46505238D01*
X70734285Y-46600476D01*
X70639047Y-46648095D01*
X71829523Y-46362380D02*
X71924761Y-46362380D01*
X72020000Y-46410000D01*
X72067619Y-46457619D01*
X72115238Y-46552857D01*
X72162857Y-46743333D01*
X72162857Y-46981428D01*
X72115238Y-47171904D01*
X72067619Y-47267142D01*
X72020000Y-47314761D01*
X71924761Y-47362380D01*
X71829523Y-47362380D01*
X71734285Y-47314761D01*
X71686666Y-47267142D01*
X71639047Y-47171904D01*
X71591428Y-46981428D01*
X71591428Y-46743333D01*
X71639047Y-46552857D01*
X71686666Y-46457619D01*
X71734285Y-46410000D01*
X71829523Y-46362380D01*
X82472380Y-61432857D02*
X81996190Y-61766190D01*
X82472380Y-62004285D02*
X81472380Y-62004285D01*
X81472380Y-61623333D01*
X81520000Y-61528095D01*
X81567619Y-61480476D01*
X81662857Y-61432857D01*
X81805714Y-61432857D01*
X81900952Y-61480476D01*
X81948571Y-61528095D01*
X81996190Y-61623333D01*
X81996190Y-62004285D01*
X82472380Y-60480476D02*
X82472380Y-61051904D01*
X82472380Y-60766190D02*
X81472380Y-60766190D01*
X81615238Y-60861428D01*
X81710476Y-60956666D01*
X81758095Y-61051904D01*
X81472380Y-60147142D02*
X81472380Y-59528095D01*
X81853333Y-59861428D01*
X81853333Y-59718571D01*
X81900952Y-59623333D01*
X81948571Y-59575714D01*
X82043809Y-59528095D01*
X82281904Y-59528095D01*
X82377142Y-59575714D01*
X82424761Y-59623333D01*
X82472380Y-59718571D01*
X82472380Y-60004285D01*
X82424761Y-60099523D01*
X82377142Y-60147142D01*
X86522380Y-64912857D02*
X86046190Y-65246190D01*
X86522380Y-65484285D02*
X85522380Y-65484285D01*
X85522380Y-65103333D01*
X85570000Y-65008095D01*
X85617619Y-64960476D01*
X85712857Y-64912857D01*
X85855714Y-64912857D01*
X85950952Y-64960476D01*
X85998571Y-65008095D01*
X86046190Y-65103333D01*
X86046190Y-65484285D01*
X86522380Y-63960476D02*
X86522380Y-64531904D01*
X86522380Y-64246190D02*
X85522380Y-64246190D01*
X85665238Y-64341428D01*
X85760476Y-64436666D01*
X85808095Y-64531904D01*
X85617619Y-63579523D02*
X85570000Y-63531904D01*
X85522380Y-63436666D01*
X85522380Y-63198571D01*
X85570000Y-63103333D01*
X85617619Y-63055714D01*
X85712857Y-63008095D01*
X85808095Y-63008095D01*
X85950952Y-63055714D01*
X86522380Y-63627142D01*
X86522380Y-63008095D01*
X79622380Y-61332857D02*
X79146190Y-61666190D01*
X79622380Y-61904285D02*
X78622380Y-61904285D01*
X78622380Y-61523333D01*
X78670000Y-61428095D01*
X78717619Y-61380476D01*
X78812857Y-61332857D01*
X78955714Y-61332857D01*
X79050952Y-61380476D01*
X79098571Y-61428095D01*
X79146190Y-61523333D01*
X79146190Y-61904285D01*
X79622380Y-60380476D02*
X79622380Y-60951904D01*
X79622380Y-60666190D02*
X78622380Y-60666190D01*
X78765238Y-60761428D01*
X78860476Y-60856666D01*
X78908095Y-60951904D01*
X79622380Y-59428095D02*
X79622380Y-59999523D01*
X79622380Y-59713809D02*
X78622380Y-59713809D01*
X78765238Y-59809047D01*
X78860476Y-59904285D01*
X78908095Y-59999523D01*
X110304642Y-106682380D02*
X109971309Y-106206190D01*
X109733214Y-106682380D02*
X109733214Y-105682380D01*
X110114166Y-105682380D01*
X110209404Y-105730000D01*
X110257023Y-105777619D01*
X110304642Y-105872857D01*
X110304642Y-106015714D01*
X110257023Y-106110952D01*
X110209404Y-106158571D01*
X110114166Y-106206190D01*
X109733214Y-106206190D01*
X111257023Y-106682380D02*
X110685595Y-106682380D01*
X110971309Y-106682380D02*
X110971309Y-105682380D01*
X110876071Y-105825238D01*
X110780833Y-105920476D01*
X110685595Y-105968095D01*
X111876071Y-105682380D02*
X111971309Y-105682380D01*
X112066547Y-105730000D01*
X112114166Y-105777619D01*
X112161785Y-105872857D01*
X112209404Y-106063333D01*
X112209404Y-106301428D01*
X112161785Y-106491904D01*
X112114166Y-106587142D01*
X112066547Y-106634761D01*
X111971309Y-106682380D01*
X111876071Y-106682380D01*
X111780833Y-106634761D01*
X111733214Y-106587142D01*
X111685595Y-106491904D01*
X111637976Y-106301428D01*
X111637976Y-106063333D01*
X111685595Y-105872857D01*
X111733214Y-105777619D01*
X111780833Y-105730000D01*
X111876071Y-105682380D01*
X116692380Y-96386666D02*
X116216190Y-96720000D01*
X116692380Y-96958095D02*
X115692380Y-96958095D01*
X115692380Y-96577142D01*
X115740000Y-96481904D01*
X115787619Y-96434285D01*
X115882857Y-96386666D01*
X116025714Y-96386666D01*
X116120952Y-96434285D01*
X116168571Y-96481904D01*
X116216190Y-96577142D01*
X116216190Y-96958095D01*
X116692380Y-95910476D02*
X116692380Y-95720000D01*
X116644761Y-95624761D01*
X116597142Y-95577142D01*
X116454285Y-95481904D01*
X116263809Y-95434285D01*
X115882857Y-95434285D01*
X115787619Y-95481904D01*
X115740000Y-95529523D01*
X115692380Y-95624761D01*
X115692380Y-95815238D01*
X115740000Y-95910476D01*
X115787619Y-95958095D01*
X115882857Y-96005714D01*
X116120952Y-96005714D01*
X116216190Y-95958095D01*
X116263809Y-95910476D01*
X116311428Y-95815238D01*
X116311428Y-95624761D01*
X116263809Y-95529523D01*
X116216190Y-95481904D01*
X116120952Y-95434285D01*
X101366666Y-118872380D02*
X101366666Y-119586666D01*
X101319047Y-119729523D01*
X101223809Y-119824761D01*
X101080952Y-119872380D01*
X100985714Y-119872380D01*
X102271428Y-119205714D02*
X102271428Y-119872380D01*
X102033333Y-118824761D02*
X101795238Y-119539047D01*
X102414285Y-119539047D01*
X98412380Y-118161904D02*
X99221904Y-118161904D01*
X99317142Y-118114285D01*
X99364761Y-118066666D01*
X99412380Y-117971428D01*
X99412380Y-117780952D01*
X99364761Y-117685714D01*
X99317142Y-117638095D01*
X99221904Y-117590476D01*
X98412380Y-117590476D01*
X98840952Y-116971428D02*
X98793333Y-117066666D01*
X98745714Y-117114285D01*
X98650476Y-117161904D01*
X98602857Y-117161904D01*
X98507619Y-117114285D01*
X98460000Y-117066666D01*
X98412380Y-116971428D01*
X98412380Y-116780952D01*
X98460000Y-116685714D01*
X98507619Y-116638095D01*
X98602857Y-116590476D01*
X98650476Y-116590476D01*
X98745714Y-116638095D01*
X98793333Y-116685714D01*
X98840952Y-116780952D01*
X98840952Y-116971428D01*
X98888571Y-117066666D01*
X98936190Y-117114285D01*
X99031428Y-117161904D01*
X99221904Y-117161904D01*
X99317142Y-117114285D01*
X99364761Y-117066666D01*
X99412380Y-116971428D01*
X99412380Y-116780952D01*
X99364761Y-116685714D01*
X99317142Y-116638095D01*
X99221904Y-116590476D01*
X99031428Y-116590476D01*
X98936190Y-116638095D01*
X98888571Y-116685714D01*
X98840952Y-116780952D01*
X99432380Y-106716666D02*
X98956190Y-107050000D01*
X99432380Y-107288095D02*
X98432380Y-107288095D01*
X98432380Y-106907142D01*
X98480000Y-106811904D01*
X98527619Y-106764285D01*
X98622857Y-106716666D01*
X98765714Y-106716666D01*
X98860952Y-106764285D01*
X98908571Y-106811904D01*
X98956190Y-106907142D01*
X98956190Y-107288095D01*
X98860952Y-106145238D02*
X98813333Y-106240476D01*
X98765714Y-106288095D01*
X98670476Y-106335714D01*
X98622857Y-106335714D01*
X98527619Y-106288095D01*
X98480000Y-106240476D01*
X98432380Y-106145238D01*
X98432380Y-105954761D01*
X98480000Y-105859523D01*
X98527619Y-105811904D01*
X98622857Y-105764285D01*
X98670476Y-105764285D01*
X98765714Y-105811904D01*
X98813333Y-105859523D01*
X98860952Y-105954761D01*
X98860952Y-106145238D01*
X98908571Y-106240476D01*
X98956190Y-106288095D01*
X99051428Y-106335714D01*
X99241904Y-106335714D01*
X99337142Y-106288095D01*
X99384761Y-106240476D01*
X99432380Y-106145238D01*
X99432380Y-105954761D01*
X99384761Y-105859523D01*
X99337142Y-105811904D01*
X99241904Y-105764285D01*
X99051428Y-105764285D01*
X98956190Y-105811904D01*
X98908571Y-105859523D01*
X98860952Y-105954761D01*
X101462380Y-106896666D02*
X100986190Y-107230000D01*
X101462380Y-107468095D02*
X100462380Y-107468095D01*
X100462380Y-107087142D01*
X100510000Y-106991904D01*
X100557619Y-106944285D01*
X100652857Y-106896666D01*
X100795714Y-106896666D01*
X100890952Y-106944285D01*
X100938571Y-106991904D01*
X100986190Y-107087142D01*
X100986190Y-107468095D01*
X100462380Y-106563333D02*
X100462380Y-105896666D01*
X101462380Y-106325238D01*
X95302380Y-106796666D02*
X94826190Y-107130000D01*
X95302380Y-107368095D02*
X94302380Y-107368095D01*
X94302380Y-106987142D01*
X94350000Y-106891904D01*
X94397619Y-106844285D01*
X94492857Y-106796666D01*
X94635714Y-106796666D01*
X94730952Y-106844285D01*
X94778571Y-106891904D01*
X94826190Y-106987142D01*
X94826190Y-107368095D01*
X94302380Y-105939523D02*
X94302380Y-106130000D01*
X94350000Y-106225238D01*
X94397619Y-106272857D01*
X94540476Y-106368095D01*
X94730952Y-106415714D01*
X95111904Y-106415714D01*
X95207142Y-106368095D01*
X95254761Y-106320476D01*
X95302380Y-106225238D01*
X95302380Y-106034761D01*
X95254761Y-105939523D01*
X95207142Y-105891904D01*
X95111904Y-105844285D01*
X94873809Y-105844285D01*
X94778571Y-105891904D01*
X94730952Y-105939523D01*
X94683333Y-106034761D01*
X94683333Y-106225238D01*
X94730952Y-106320476D01*
X94778571Y-106368095D01*
X94873809Y-106415714D01*
X97352380Y-106736666D02*
X96876190Y-107070000D01*
X97352380Y-107308095D02*
X96352380Y-107308095D01*
X96352380Y-106927142D01*
X96400000Y-106831904D01*
X96447619Y-106784285D01*
X96542857Y-106736666D01*
X96685714Y-106736666D01*
X96780952Y-106784285D01*
X96828571Y-106831904D01*
X96876190Y-106927142D01*
X96876190Y-107308095D01*
X96352380Y-105831904D02*
X96352380Y-106308095D01*
X96828571Y-106355714D01*
X96780952Y-106308095D01*
X96733333Y-106212857D01*
X96733333Y-105974761D01*
X96780952Y-105879523D01*
X96828571Y-105831904D01*
X96923809Y-105784285D01*
X97161904Y-105784285D01*
X97257142Y-105831904D01*
X97304761Y-105879523D01*
X97352380Y-105974761D01*
X97352380Y-106212857D01*
X97304761Y-106308095D01*
X97257142Y-106355714D01*
X117277142Y-87696666D02*
X117324761Y-87744285D01*
X117372380Y-87887142D01*
X117372380Y-87982380D01*
X117324761Y-88125238D01*
X117229523Y-88220476D01*
X117134285Y-88268095D01*
X116943809Y-88315714D01*
X116800952Y-88315714D01*
X116610476Y-88268095D01*
X116515238Y-88220476D01*
X116420000Y-88125238D01*
X116372380Y-87982380D01*
X116372380Y-87887142D01*
X116420000Y-87744285D01*
X116467619Y-87696666D01*
X116800952Y-87125238D02*
X116753333Y-87220476D01*
X116705714Y-87268095D01*
X116610476Y-87315714D01*
X116562857Y-87315714D01*
X116467619Y-87268095D01*
X116420000Y-87220476D01*
X116372380Y-87125238D01*
X116372380Y-86934761D01*
X116420000Y-86839523D01*
X116467619Y-86791904D01*
X116562857Y-86744285D01*
X116610476Y-86744285D01*
X116705714Y-86791904D01*
X116753333Y-86839523D01*
X116800952Y-86934761D01*
X116800952Y-87125238D01*
X116848571Y-87220476D01*
X116896190Y-87268095D01*
X116991428Y-87315714D01*
X117181904Y-87315714D01*
X117277142Y-87268095D01*
X117324761Y-87220476D01*
X117372380Y-87125238D01*
X117372380Y-86934761D01*
X117324761Y-86839523D01*
X117277142Y-86791904D01*
X117181904Y-86744285D01*
X116991428Y-86744285D01*
X116896190Y-86791904D01*
X116848571Y-86839523D01*
X116800952Y-86934761D01*
X111118095Y-88262380D02*
X111118095Y-89071904D01*
X111165714Y-89167142D01*
X111213333Y-89214761D01*
X111308571Y-89262380D01*
X111499047Y-89262380D01*
X111594285Y-89214761D01*
X111641904Y-89167142D01*
X111689523Y-89071904D01*
X111689523Y-88262380D01*
X112070476Y-88262380D02*
X112737142Y-88262380D01*
X112308571Y-89262380D01*
X110043333Y-84977142D02*
X109995714Y-85024761D01*
X109852857Y-85072380D01*
X109757619Y-85072380D01*
X109614761Y-85024761D01*
X109519523Y-84929523D01*
X109471904Y-84834285D01*
X109424285Y-84643809D01*
X109424285Y-84500952D01*
X109471904Y-84310476D01*
X109519523Y-84215238D01*
X109614761Y-84120000D01*
X109757619Y-84072380D01*
X109852857Y-84072380D01*
X109995714Y-84120000D01*
X110043333Y-84167619D01*
X110376666Y-84072380D02*
X111043333Y-84072380D01*
X110614761Y-85072380D01*
X114122380Y-101196666D02*
X113646190Y-101530000D01*
X114122380Y-101768095D02*
X113122380Y-101768095D01*
X113122380Y-101387142D01*
X113170000Y-101291904D01*
X113217619Y-101244285D01*
X113312857Y-101196666D01*
X113455714Y-101196666D01*
X113550952Y-101244285D01*
X113598571Y-101291904D01*
X113646190Y-101387142D01*
X113646190Y-101768095D01*
X113455714Y-100339523D02*
X114122380Y-100339523D01*
X113074761Y-100577619D02*
X113789047Y-100815714D01*
X113789047Y-100196666D01*
X119112380Y-68013333D02*
X119826666Y-68013333D01*
X119969523Y-68060952D01*
X120064761Y-68156190D01*
X120112380Y-68299047D01*
X120112380Y-68394285D01*
X119112380Y-67108571D02*
X119112380Y-67299047D01*
X119160000Y-67394285D01*
X119207619Y-67441904D01*
X119350476Y-67537142D01*
X119540952Y-67584761D01*
X119921904Y-67584761D01*
X120017142Y-67537142D01*
X120064761Y-67489523D01*
X120112380Y-67394285D01*
X120112380Y-67203809D01*
X120064761Y-67108571D01*
X120017142Y-67060952D01*
X119921904Y-67013333D01*
X119683809Y-67013333D01*
X119588571Y-67060952D01*
X119540952Y-67108571D01*
X119493333Y-67203809D01*
X119493333Y-67394285D01*
X119540952Y-67489523D01*
X119588571Y-67537142D01*
X119683809Y-67584761D01*
X71812380Y-90393333D02*
X72526666Y-90393333D01*
X72669523Y-90440952D01*
X72764761Y-90536190D01*
X72812380Y-90679047D01*
X72812380Y-90774285D01*
X71812380Y-90012380D02*
X71812380Y-89345714D01*
X72812380Y-89774285D01*
X93736666Y-118602380D02*
X93736666Y-119316666D01*
X93689047Y-119459523D01*
X93593809Y-119554761D01*
X93450952Y-119602380D01*
X93355714Y-119602380D01*
X94689047Y-118602380D02*
X94212857Y-118602380D01*
X94165238Y-119078571D01*
X94212857Y-119030952D01*
X94308095Y-118983333D01*
X94546190Y-118983333D01*
X94641428Y-119030952D01*
X94689047Y-119078571D01*
X94736666Y-119173809D01*
X94736666Y-119411904D01*
X94689047Y-119507142D01*
X94641428Y-119554761D01*
X94546190Y-119602380D01*
X94308095Y-119602380D01*
X94212857Y-119554761D01*
X94165238Y-119507142D01*
X88118095Y-54222380D02*
X88118095Y-55031904D01*
X88165714Y-55127142D01*
X88213333Y-55174761D01*
X88308571Y-55222380D01*
X88499047Y-55222380D01*
X88594285Y-55174761D01*
X88641904Y-55127142D01*
X88689523Y-55031904D01*
X88689523Y-54222380D01*
X89594285Y-54222380D02*
X89403809Y-54222380D01*
X89308571Y-54270000D01*
X89260952Y-54317619D01*
X89165714Y-54460476D01*
X89118095Y-54650952D01*
X89118095Y-55031904D01*
X89165714Y-55127142D01*
X89213333Y-55174761D01*
X89308571Y-55222380D01*
X89499047Y-55222380D01*
X89594285Y-55174761D01*
X89641904Y-55127142D01*
X89689523Y-55031904D01*
X89689523Y-54793809D01*
X89641904Y-54698571D01*
X89594285Y-54650952D01*
X89499047Y-54603333D01*
X89308571Y-54603333D01*
X89213333Y-54650952D01*
X89165714Y-54698571D01*
X89118095Y-54793809D01*
X96048095Y-54252380D02*
X96048095Y-55061904D01*
X96095714Y-55157142D01*
X96143333Y-55204761D01*
X96238571Y-55252380D01*
X96429047Y-55252380D01*
X96524285Y-55204761D01*
X96571904Y-55157142D01*
X96619523Y-55061904D01*
X96619523Y-54252380D01*
X97571904Y-54252380D02*
X97095714Y-54252380D01*
X97048095Y-54728571D01*
X97095714Y-54680952D01*
X97190952Y-54633333D01*
X97429047Y-54633333D01*
X97524285Y-54680952D01*
X97571904Y-54728571D01*
X97619523Y-54823809D01*
X97619523Y-55061904D01*
X97571904Y-55157142D01*
X97524285Y-55204761D01*
X97429047Y-55252380D01*
X97190952Y-55252380D01*
X97095714Y-55204761D01*
X97048095Y-55157142D01*
X106058095Y-54262380D02*
X106058095Y-55071904D01*
X106105714Y-55167142D01*
X106153333Y-55214761D01*
X106248571Y-55262380D01*
X106439047Y-55262380D01*
X106534285Y-55214761D01*
X106581904Y-55167142D01*
X106629523Y-55071904D01*
X106629523Y-54262380D01*
X107534285Y-54595714D02*
X107534285Y-55262380D01*
X107296190Y-54214761D02*
X107058095Y-54929047D01*
X107677142Y-54929047D01*
X99218095Y-64532380D02*
X99218095Y-65341904D01*
X99265714Y-65437142D01*
X99313333Y-65484761D01*
X99408571Y-65532380D01*
X99599047Y-65532380D01*
X99694285Y-65484761D01*
X99741904Y-65437142D01*
X99789523Y-65341904D01*
X99789523Y-64532380D01*
X100170476Y-64532380D02*
X100789523Y-64532380D01*
X100456190Y-64913333D01*
X100599047Y-64913333D01*
X100694285Y-64960952D01*
X100741904Y-65008571D01*
X100789523Y-65103809D01*
X100789523Y-65341904D01*
X100741904Y-65437142D01*
X100694285Y-65484761D01*
X100599047Y-65532380D01*
X100313333Y-65532380D01*
X100218095Y-65484761D01*
X100170476Y-65437142D01*
X110860380Y-44939333D02*
X111574666Y-44939333D01*
X111717523Y-44986952D01*
X111812761Y-45082190D01*
X111860380Y-45225047D01*
X111860380Y-45320285D01*
X110860380Y-44558380D02*
X110860380Y-43939333D01*
X111241333Y-44272666D01*
X111241333Y-44129809D01*
X111288952Y-44034571D01*
X111336571Y-43986952D01*
X111431809Y-43939333D01*
X111669904Y-43939333D01*
X111765142Y-43986952D01*
X111812761Y-44034571D01*
X111860380Y-44129809D01*
X111860380Y-44415523D01*
X111812761Y-44510761D01*
X111765142Y-44558380D01*
X118972380Y-57283333D02*
X119686666Y-57283333D01*
X119829523Y-57330952D01*
X119924761Y-57426190D01*
X119972380Y-57569047D01*
X119972380Y-57664285D01*
X119067619Y-56854761D02*
X119020000Y-56807142D01*
X118972380Y-56711904D01*
X118972380Y-56473809D01*
X119020000Y-56378571D01*
X119067619Y-56330952D01*
X119162857Y-56283333D01*
X119258095Y-56283333D01*
X119400952Y-56330952D01*
X119972380Y-56902380D01*
X119972380Y-56283333D01*
X76488095Y-104292380D02*
X76488095Y-103292380D01*
X77059523Y-104292380D01*
X77059523Y-103292380D01*
X78059523Y-104292380D02*
X77488095Y-104292380D01*
X77773809Y-104292380D02*
X77773809Y-103292380D01*
X77678571Y-103435238D01*
X77583333Y-103530476D01*
X77488095Y-103578095D01*
X119312380Y-81793333D02*
X120026666Y-81793333D01*
X120169523Y-81840952D01*
X120264761Y-81936190D01*
X120312380Y-82079047D01*
X120312380Y-82174285D01*
X120312380Y-80793333D02*
X120312380Y-81364761D01*
X120312380Y-81079047D02*
X119312380Y-81079047D01*
X119455238Y-81174285D01*
X119550476Y-81269523D01*
X119598095Y-81364761D01*
X72238095Y-36252380D02*
X72238095Y-35252380D01*
X72238095Y-35728571D02*
X72809523Y-35728571D01*
X72809523Y-36252380D02*
X72809523Y-35252380D01*
X73714285Y-35585714D02*
X73714285Y-36252380D01*
X73476190Y-35204761D02*
X73238095Y-35919047D01*
X73857142Y-35919047D01*
X72238095Y-113252380D02*
X72238095Y-112252380D01*
X72238095Y-112728571D02*
X72809523Y-112728571D01*
X72809523Y-113252380D02*
X72809523Y-112252380D01*
X73190476Y-112252380D02*
X73809523Y-112252380D01*
X73476190Y-112633333D01*
X73619047Y-112633333D01*
X73714285Y-112680952D01*
X73761904Y-112728571D01*
X73809523Y-112823809D01*
X73809523Y-113061904D01*
X73761904Y-113157142D01*
X73714285Y-113204761D01*
X73619047Y-113252380D01*
X73333333Y-113252380D01*
X73238095Y-113204761D01*
X73190476Y-113157142D01*
X120238095Y-36252380D02*
X120238095Y-35252380D01*
X120238095Y-35728571D02*
X120809523Y-35728571D01*
X120809523Y-36252380D02*
X120809523Y-35252380D01*
X121238095Y-35347619D02*
X121285714Y-35300000D01*
X121380952Y-35252380D01*
X121619047Y-35252380D01*
X121714285Y-35300000D01*
X121761904Y-35347619D01*
X121809523Y-35442857D01*
X121809523Y-35538095D01*
X121761904Y-35680952D01*
X121190476Y-36252380D01*
X121809523Y-36252380D01*
X120238095Y-113252380D02*
X120238095Y-112252380D01*
X120238095Y-112728571D02*
X120809523Y-112728571D01*
X120809523Y-113252380D02*
X120809523Y-112252380D01*
X121809523Y-113252380D02*
X121238095Y-113252380D01*
X121523809Y-113252380D02*
X121523809Y-112252380D01*
X121428571Y-112395238D01*
X121333333Y-112490476D01*
X121238095Y-112538095D01*
X104942095Y-93784380D02*
X104942095Y-94593904D01*
X104989714Y-94689142D01*
X105037333Y-94736761D01*
X105132571Y-94784380D01*
X105323047Y-94784380D01*
X105418285Y-94736761D01*
X105465904Y-94689142D01*
X105513523Y-94593904D01*
X105513523Y-93784380D01*
X105942095Y-93879619D02*
X105989714Y-93832000D01*
X106084952Y-93784380D01*
X106323047Y-93784380D01*
X106418285Y-93832000D01*
X106465904Y-93879619D01*
X106513523Y-93974857D01*
X106513523Y-94070095D01*
X106465904Y-94212952D01*
X105894476Y-94784380D01*
X106513523Y-94784380D01*
X98575833Y-98764380D02*
X98242500Y-98288190D01*
X98004404Y-98764380D02*
X98004404Y-97764380D01*
X98385357Y-97764380D01*
X98480595Y-97812000D01*
X98528214Y-97859619D01*
X98575833Y-97954857D01*
X98575833Y-98097714D01*
X98528214Y-98192952D01*
X98480595Y-98240571D01*
X98385357Y-98288190D01*
X98004404Y-98288190D01*
X98909166Y-97764380D02*
X99528214Y-97764380D01*
X99194880Y-98145333D01*
X99337738Y-98145333D01*
X99432976Y-98192952D01*
X99480595Y-98240571D01*
X99528214Y-98335809D01*
X99528214Y-98573904D01*
X99480595Y-98669142D01*
X99432976Y-98716761D01*
X99337738Y-98764380D01*
X99052023Y-98764380D01*
X98956785Y-98716761D01*
X98909166Y-98669142D01*
X119902380Y-107543333D02*
X120616666Y-107543333D01*
X120759523Y-107590952D01*
X120854761Y-107686190D01*
X120902380Y-107829047D01*
X120902380Y-107924285D01*
X120902380Y-107019523D02*
X120902380Y-106829047D01*
X120854761Y-106733809D01*
X120807142Y-106686190D01*
X120664285Y-106590952D01*
X120473809Y-106543333D01*
X120092857Y-106543333D01*
X119997619Y-106590952D01*
X119950000Y-106638571D01*
X119902380Y-106733809D01*
X119902380Y-106924285D01*
X119950000Y-107019523D01*
X119997619Y-107067142D01*
X120092857Y-107114761D01*
X120330952Y-107114761D01*
X120426190Y-107067142D01*
X120473809Y-107019523D01*
X120521428Y-106924285D01*
X120521428Y-106733809D01*
X120473809Y-106638571D01*
X120426190Y-106590952D01*
X120330952Y-106543333D01*
X115413333Y-106837142D02*
X115365714Y-106884761D01*
X115222857Y-106932380D01*
X115127619Y-106932380D01*
X114984761Y-106884761D01*
X114889523Y-106789523D01*
X114841904Y-106694285D01*
X114794285Y-106503809D01*
X114794285Y-106360952D01*
X114841904Y-106170476D01*
X114889523Y-106075238D01*
X114984761Y-105980000D01*
X115127619Y-105932380D01*
X115222857Y-105932380D01*
X115365714Y-105980000D01*
X115413333Y-106027619D01*
X116270476Y-105932380D02*
X116080000Y-105932380D01*
X115984761Y-105980000D01*
X115937142Y-106027619D01*
X115841904Y-106170476D01*
X115794285Y-106360952D01*
X115794285Y-106741904D01*
X115841904Y-106837142D01*
X115889523Y-106884761D01*
X115984761Y-106932380D01*
X116175238Y-106932380D01*
X116270476Y-106884761D01*
X116318095Y-106837142D01*
X116365714Y-106741904D01*
X116365714Y-106503809D01*
X116318095Y-106408571D01*
X116270476Y-106360952D01*
X116175238Y-106313333D01*
X115984761Y-106313333D01*
X115889523Y-106360952D01*
X115841904Y-106408571D01*
X115794285Y-106503809D01*
X119812380Y-95613333D02*
X120526666Y-95613333D01*
X120669523Y-95660952D01*
X120764761Y-95756190D01*
X120812380Y-95899047D01*
X120812380Y-95994285D01*
X120240952Y-94994285D02*
X120193333Y-95089523D01*
X120145714Y-95137142D01*
X120050476Y-95184761D01*
X120002857Y-95184761D01*
X119907619Y-95137142D01*
X119860000Y-95089523D01*
X119812380Y-94994285D01*
X119812380Y-94803809D01*
X119860000Y-94708571D01*
X119907619Y-94660952D01*
X120002857Y-94613333D01*
X120050476Y-94613333D01*
X120145714Y-94660952D01*
X120193333Y-94708571D01*
X120240952Y-94803809D01*
X120240952Y-94994285D01*
X120288571Y-95089523D01*
X120336190Y-95137142D01*
X120431428Y-95184761D01*
X120621904Y-95184761D01*
X120717142Y-95137142D01*
X120764761Y-95089523D01*
X120812380Y-94994285D01*
X120812380Y-94803809D01*
X120764761Y-94708571D01*
X120717142Y-94660952D01*
X120621904Y-94613333D01*
X120431428Y-94613333D01*
X120336190Y-94660952D01*
X120288571Y-94708571D01*
X120240952Y-94803809D01*
X86428095Y-99562380D02*
X86428095Y-100371904D01*
X86475714Y-100467142D01*
X86523333Y-100514761D01*
X86618571Y-100562380D01*
X86809047Y-100562380D01*
X86904285Y-100514761D01*
X86951904Y-100467142D01*
X86999523Y-100371904D01*
X86999523Y-99562380D01*
X87999523Y-100562380D02*
X87428095Y-100562380D01*
X87713809Y-100562380D02*
X87713809Y-99562380D01*
X87618571Y-99705238D01*
X87523333Y-99800476D01*
X87428095Y-99848095D01*
X86712380Y-89536666D02*
X86236190Y-89870000D01*
X86712380Y-90108095D02*
X85712380Y-90108095D01*
X85712380Y-89727142D01*
X85760000Y-89631904D01*
X85807619Y-89584285D01*
X85902857Y-89536666D01*
X86045714Y-89536666D01*
X86140952Y-89584285D01*
X86188571Y-89631904D01*
X86236190Y-89727142D01*
X86236190Y-90108095D01*
X85807619Y-89155714D02*
X85760000Y-89108095D01*
X85712380Y-89012857D01*
X85712380Y-88774761D01*
X85760000Y-88679523D01*
X85807619Y-88631904D01*
X85902857Y-88584285D01*
X85998095Y-88584285D01*
X86140952Y-88631904D01*
X86712380Y-89203333D01*
X86712380Y-88584285D01*
X88672380Y-89456666D02*
X88196190Y-89790000D01*
X88672380Y-90028095D02*
X87672380Y-90028095D01*
X87672380Y-89647142D01*
X87720000Y-89551904D01*
X87767619Y-89504285D01*
X87862857Y-89456666D01*
X88005714Y-89456666D01*
X88100952Y-89504285D01*
X88148571Y-89551904D01*
X88196190Y-89647142D01*
X88196190Y-90028095D01*
X88672380Y-88504285D02*
X88672380Y-89075714D01*
X88672380Y-88790000D02*
X87672380Y-88790000D01*
X87815238Y-88885238D01*
X87910476Y-88980476D01*
X87958095Y-89075714D01*
X93757142Y-97139166D02*
X93804761Y-97186785D01*
X93852380Y-97329642D01*
X93852380Y-97424880D01*
X93804761Y-97567738D01*
X93709523Y-97662976D01*
X93614285Y-97710595D01*
X93423809Y-97758214D01*
X93280952Y-97758214D01*
X93090476Y-97710595D01*
X92995238Y-97662976D01*
X92900000Y-97567738D01*
X92852380Y-97424880D01*
X92852380Y-97329642D01*
X92900000Y-97186785D01*
X92947619Y-97139166D01*
X92852380Y-96234404D02*
X92852380Y-96710595D01*
X93328571Y-96758214D01*
X93280952Y-96710595D01*
X93233333Y-96615357D01*
X93233333Y-96377261D01*
X93280952Y-96282023D01*
X93328571Y-96234404D01*
X93423809Y-96186785D01*
X93661904Y-96186785D01*
X93757142Y-96234404D01*
X93804761Y-96282023D01*
X93852380Y-96377261D01*
X93852380Y-96615357D01*
X93804761Y-96710595D01*
X93757142Y-96758214D01*
X80917142Y-99556666D02*
X80964761Y-99604285D01*
X81012380Y-99747142D01*
X81012380Y-99842380D01*
X80964761Y-99985238D01*
X80869523Y-100080476D01*
X80774285Y-100128095D01*
X80583809Y-100175714D01*
X80440952Y-100175714D01*
X80250476Y-100128095D01*
X80155238Y-100080476D01*
X80060000Y-99985238D01*
X80012380Y-99842380D01*
X80012380Y-99747142D01*
X80060000Y-99604285D01*
X80107619Y-99556666D01*
X80345714Y-98699523D02*
X81012380Y-98699523D01*
X79964761Y-98937619D02*
X80679047Y-99175714D01*
X80679047Y-98556666D01*
X83067142Y-99596666D02*
X83114761Y-99644285D01*
X83162380Y-99787142D01*
X83162380Y-99882380D01*
X83114761Y-100025238D01*
X83019523Y-100120476D01*
X82924285Y-100168095D01*
X82733809Y-100215714D01*
X82590952Y-100215714D01*
X82400476Y-100168095D01*
X82305238Y-100120476D01*
X82210000Y-100025238D01*
X82162380Y-99882380D01*
X82162380Y-99787142D01*
X82210000Y-99644285D01*
X82257619Y-99596666D01*
X82162380Y-99263333D02*
X82162380Y-98644285D01*
X82543333Y-98977619D01*
X82543333Y-98834761D01*
X82590952Y-98739523D01*
X82638571Y-98691904D01*
X82733809Y-98644285D01*
X82971904Y-98644285D01*
X83067142Y-98691904D01*
X83114761Y-98739523D01*
X83162380Y-98834761D01*
X83162380Y-99120476D01*
X83114761Y-99215714D01*
X83067142Y-99263333D01*
X82757142Y-92156666D02*
X82804761Y-92204285D01*
X82852380Y-92347142D01*
X82852380Y-92442380D01*
X82804761Y-92585238D01*
X82709523Y-92680476D01*
X82614285Y-92728095D01*
X82423809Y-92775714D01*
X82280952Y-92775714D01*
X82090476Y-92728095D01*
X81995238Y-92680476D01*
X81900000Y-92585238D01*
X81852380Y-92442380D01*
X81852380Y-92347142D01*
X81900000Y-92204285D01*
X81947619Y-92156666D01*
X81947619Y-91775714D02*
X81900000Y-91728095D01*
X81852380Y-91632857D01*
X81852380Y-91394761D01*
X81900000Y-91299523D01*
X81947619Y-91251904D01*
X82042857Y-91204285D01*
X82138095Y-91204285D01*
X82280952Y-91251904D01*
X82852380Y-91823333D01*
X82852380Y-91204285D01*
X93493333Y-91297142D02*
X93445714Y-91344761D01*
X93302857Y-91392380D01*
X93207619Y-91392380D01*
X93064761Y-91344761D01*
X92969523Y-91249523D01*
X92921904Y-91154285D01*
X92874285Y-90963809D01*
X92874285Y-90820952D01*
X92921904Y-90630476D01*
X92969523Y-90535238D01*
X93064761Y-90440000D01*
X93207619Y-90392380D01*
X93302857Y-90392380D01*
X93445714Y-90440000D01*
X93493333Y-90487619D01*
X94445714Y-91392380D02*
X93874285Y-91392380D01*
X94160000Y-91392380D02*
X94160000Y-90392380D01*
X94064761Y-90535238D01*
X93969523Y-90630476D01*
X93874285Y-90678095D01*
M02*
