G04 #@! TF.GenerationSoftware,KiCad,Pcbnew,5.1.10-88a1d61d58~90~ubuntu21.04.1*
G04 #@! TF.CreationDate,2021-10-21T13:00:22+03:00*
G04 #@! TF.ProjectId,klipper_nano,6b6c6970-7065-4725-9f6e-616e6f2e6b69,rev?*
G04 #@! TF.SameCoordinates,Original*
G04 #@! TF.FileFunction,Paste,Top*
G04 #@! TF.FilePolarity,Positive*
%FSLAX46Y46*%
G04 Gerber Fmt 4.6, Leading zero omitted, Abs format (unit mm)*
G04 Created by KiCad (PCBNEW 5.1.10-88a1d61d58~90~ubuntu21.04.1) date 2021-10-21 13:00:22*
%MOMM*%
%LPD*%
G01*
G04 APERTURE LIST*
%ADD10R,0.800000X0.900000*%
%ADD11R,0.650000X1.060000*%
%ADD12R,2.500000X0.500000*%
%ADD13R,2.500000X2.000000*%
%ADD14R,0.600000X1.800000*%
%ADD15R,1.200000X0.400000*%
G04 APERTURE END LIST*
G36*
G01*
X83820000Y-53725000D02*
X83820000Y-52775000D01*
G75*
G02*
X84070000Y-52525000I250000J0D01*
G01*
X84570000Y-52525000D01*
G75*
G02*
X84820000Y-52775000I0J-250000D01*
G01*
X84820000Y-53725000D01*
G75*
G02*
X84570000Y-53975000I-250000J0D01*
G01*
X84070000Y-53975000D01*
G75*
G02*
X83820000Y-53725000I0J250000D01*
G01*
G37*
G36*
G01*
X81920000Y-53725000D02*
X81920000Y-52775000D01*
G75*
G02*
X82170000Y-52525000I250000J0D01*
G01*
X82670000Y-52525000D01*
G75*
G02*
X82920000Y-52775000I0J-250000D01*
G01*
X82920000Y-53725000D01*
G75*
G02*
X82670000Y-53975000I-250000J0D01*
G01*
X82170000Y-53975000D01*
G75*
G02*
X81920000Y-53725000I0J250000D01*
G01*
G37*
G36*
G01*
X93180000Y-55645000D02*
X93180000Y-54695000D01*
G75*
G02*
X93430000Y-54445000I250000J0D01*
G01*
X93930000Y-54445000D01*
G75*
G02*
X94180000Y-54695000I0J-250000D01*
G01*
X94180000Y-55645000D01*
G75*
G02*
X93930000Y-55895000I-250000J0D01*
G01*
X93430000Y-55895000D01*
G75*
G02*
X93180000Y-55645000I0J250000D01*
G01*
G37*
G36*
G01*
X91280000Y-55645000D02*
X91280000Y-54695000D01*
G75*
G02*
X91530000Y-54445000I250000J0D01*
G01*
X92030000Y-54445000D01*
G75*
G02*
X92280000Y-54695000I0J-250000D01*
G01*
X92280000Y-55645000D01*
G75*
G02*
X92030000Y-55895000I-250000J0D01*
G01*
X91530000Y-55895000D01*
G75*
G02*
X91280000Y-55645000I0J250000D01*
G01*
G37*
G36*
G01*
X101605000Y-53060000D02*
X102555000Y-53060000D01*
G75*
G02*
X102805000Y-53310000I0J-250000D01*
G01*
X102805000Y-53810000D01*
G75*
G02*
X102555000Y-54060000I-250000J0D01*
G01*
X101605000Y-54060000D01*
G75*
G02*
X101355000Y-53810000I0J250000D01*
G01*
X101355000Y-53310000D01*
G75*
G02*
X101605000Y-53060000I250000J0D01*
G01*
G37*
G36*
G01*
X101605000Y-51160000D02*
X102555000Y-51160000D01*
G75*
G02*
X102805000Y-51410000I0J-250000D01*
G01*
X102805000Y-51910000D01*
G75*
G02*
X102555000Y-52160000I-250000J0D01*
G01*
X101605000Y-52160000D01*
G75*
G02*
X101355000Y-51910000I0J250000D01*
G01*
X101355000Y-51410000D01*
G75*
G02*
X101605000Y-51160000I250000J0D01*
G01*
G37*
G36*
G01*
X107035000Y-56530000D02*
X106085000Y-56530000D01*
G75*
G02*
X105835000Y-56280000I0J250000D01*
G01*
X105835000Y-55780000D01*
G75*
G02*
X106085000Y-55530000I250000J0D01*
G01*
X107035000Y-55530000D01*
G75*
G02*
X107285000Y-55780000I0J-250000D01*
G01*
X107285000Y-56280000D01*
G75*
G02*
X107035000Y-56530000I-250000J0D01*
G01*
G37*
G36*
G01*
X107035000Y-58430000D02*
X106085000Y-58430000D01*
G75*
G02*
X105835000Y-58180000I0J250000D01*
G01*
X105835000Y-57680000D01*
G75*
G02*
X106085000Y-57430000I250000J0D01*
G01*
X107035000Y-57430000D01*
G75*
G02*
X107285000Y-57680000I0J-250000D01*
G01*
X107285000Y-58180000D01*
G75*
G02*
X107035000Y-58430000I-250000J0D01*
G01*
G37*
G36*
G01*
X76237500Y-51150001D02*
X76237500Y-50249999D01*
G75*
G02*
X76487499Y-50000000I249999J0D01*
G01*
X77012501Y-50000000D01*
G75*
G02*
X77262500Y-50249999I0J-249999D01*
G01*
X77262500Y-51150001D01*
G75*
G02*
X77012501Y-51400000I-249999J0D01*
G01*
X76487499Y-51400000D01*
G75*
G02*
X76237500Y-51150001I0J249999D01*
G01*
G37*
G36*
G01*
X74412500Y-51150001D02*
X74412500Y-50249999D01*
G75*
G02*
X74662499Y-50000000I249999J0D01*
G01*
X75187501Y-50000000D01*
G75*
G02*
X75437500Y-50249999I0J-249999D01*
G01*
X75437500Y-51150001D01*
G75*
G02*
X75187501Y-51400000I-249999J0D01*
G01*
X74662499Y-51400000D01*
G75*
G02*
X74412500Y-51150001I0J249999D01*
G01*
G37*
G36*
G01*
X79022500Y-46749999D02*
X79022500Y-47650001D01*
G75*
G02*
X78772501Y-47900000I-249999J0D01*
G01*
X78247499Y-47900000D01*
G75*
G02*
X77997500Y-47650001I0J249999D01*
G01*
X77997500Y-46749999D01*
G75*
G02*
X78247499Y-46500000I249999J0D01*
G01*
X78772501Y-46500000D01*
G75*
G02*
X79022500Y-46749999I0J-249999D01*
G01*
G37*
G36*
G01*
X80847500Y-46749999D02*
X80847500Y-47650001D01*
G75*
G02*
X80597501Y-47900000I-249999J0D01*
G01*
X80072499Y-47900000D01*
G75*
G02*
X79822500Y-47650001I0J249999D01*
G01*
X79822500Y-46749999D01*
G75*
G02*
X80072499Y-46500000I249999J0D01*
G01*
X80597501Y-46500000D01*
G75*
G02*
X80847500Y-46749999I0J-249999D01*
G01*
G37*
G36*
G01*
X76243500Y-53156001D02*
X76243500Y-52255999D01*
G75*
G02*
X76493499Y-52006000I249999J0D01*
G01*
X77018501Y-52006000D01*
G75*
G02*
X77268500Y-52255999I0J-249999D01*
G01*
X77268500Y-53156001D01*
G75*
G02*
X77018501Y-53406000I-249999J0D01*
G01*
X76493499Y-53406000D01*
G75*
G02*
X76243500Y-53156001I0J249999D01*
G01*
G37*
G36*
G01*
X74418500Y-53156001D02*
X74418500Y-52255999D01*
G75*
G02*
X74668499Y-52006000I249999J0D01*
G01*
X75193501Y-52006000D01*
G75*
G02*
X75443500Y-52255999I0J-249999D01*
G01*
X75443500Y-53156001D01*
G75*
G02*
X75193501Y-53406000I-249999J0D01*
G01*
X74668499Y-53406000D01*
G75*
G02*
X74418500Y-53156001I0J249999D01*
G01*
G37*
D10*
X79410000Y-43470000D03*
X80360000Y-45470000D03*
X78460000Y-45470000D03*
X75890000Y-46960000D03*
X76840000Y-48960000D03*
X74940000Y-48960000D03*
G36*
G01*
X81579999Y-64690000D02*
X82480001Y-64690000D01*
G75*
G02*
X82730000Y-64939999I0J-249999D01*
G01*
X82730000Y-65465001D01*
G75*
G02*
X82480001Y-65715000I-249999J0D01*
G01*
X81579999Y-65715000D01*
G75*
G02*
X81330000Y-65465001I0J249999D01*
G01*
X81330000Y-64939999D01*
G75*
G02*
X81579999Y-64690000I249999J0D01*
G01*
G37*
G36*
G01*
X81579999Y-62865000D02*
X82480001Y-62865000D01*
G75*
G02*
X82730000Y-63114999I0J-249999D01*
G01*
X82730000Y-63640001D01*
G75*
G02*
X82480001Y-63890000I-249999J0D01*
G01*
X81579999Y-63890000D01*
G75*
G02*
X81330000Y-63640001I0J249999D01*
G01*
X81330000Y-63114999D01*
G75*
G02*
X81579999Y-62865000I249999J0D01*
G01*
G37*
G36*
G01*
X83969999Y-64670000D02*
X84870001Y-64670000D01*
G75*
G02*
X85120000Y-64919999I0J-249999D01*
G01*
X85120000Y-65445001D01*
G75*
G02*
X84870001Y-65695000I-249999J0D01*
G01*
X83969999Y-65695000D01*
G75*
G02*
X83720000Y-65445001I0J249999D01*
G01*
X83720000Y-64919999D01*
G75*
G02*
X83969999Y-64670000I249999J0D01*
G01*
G37*
G36*
G01*
X83969999Y-62845000D02*
X84870001Y-62845000D01*
G75*
G02*
X85120000Y-63094999I0J-249999D01*
G01*
X85120000Y-63620001D01*
G75*
G02*
X84870001Y-63870000I-249999J0D01*
G01*
X83969999Y-63870000D01*
G75*
G02*
X83720000Y-63620001I0J249999D01*
G01*
X83720000Y-63094999D01*
G75*
G02*
X83969999Y-62845000I249999J0D01*
G01*
G37*
G36*
G01*
X78845999Y-64536000D02*
X79746001Y-64536000D01*
G75*
G02*
X79996000Y-64785999I0J-249999D01*
G01*
X79996000Y-65311001D01*
G75*
G02*
X79746001Y-65561000I-249999J0D01*
G01*
X78845999Y-65561000D01*
G75*
G02*
X78596000Y-65311001I0J249999D01*
G01*
X78596000Y-64785999D01*
G75*
G02*
X78845999Y-64536000I249999J0D01*
G01*
G37*
G36*
G01*
X78845999Y-62711000D02*
X79746001Y-62711000D01*
G75*
G02*
X79996000Y-62960999I0J-249999D01*
G01*
X79996000Y-63486001D01*
G75*
G02*
X79746001Y-63736000I-249999J0D01*
G01*
X78845999Y-63736000D01*
G75*
G02*
X78596000Y-63486001I0J249999D01*
G01*
X78596000Y-62960999D01*
G75*
G02*
X78845999Y-62711000I249999J0D01*
G01*
G37*
G36*
G01*
X110547500Y-104129999D02*
X110547500Y-105030001D01*
G75*
G02*
X110297501Y-105280000I-249999J0D01*
G01*
X109772499Y-105280000D01*
G75*
G02*
X109522500Y-105030001I0J249999D01*
G01*
X109522500Y-104129999D01*
G75*
G02*
X109772499Y-103880000I249999J0D01*
G01*
X110297501Y-103880000D01*
G75*
G02*
X110547500Y-104129999I0J-249999D01*
G01*
G37*
G36*
G01*
X112372500Y-104129999D02*
X112372500Y-105030001D01*
G75*
G02*
X112122501Y-105280000I-249999J0D01*
G01*
X111597499Y-105280000D01*
G75*
G02*
X111347500Y-105030001I0J249999D01*
G01*
X111347500Y-104129999D01*
G75*
G02*
X111597499Y-103880000I249999J0D01*
G01*
X112122501Y-103880000D01*
G75*
G02*
X112372500Y-104129999I0J-249999D01*
G01*
G37*
G36*
G01*
X116349999Y-99497500D02*
X117250001Y-99497500D01*
G75*
G02*
X117500000Y-99747499I0J-249999D01*
G01*
X117500000Y-100272501D01*
G75*
G02*
X117250001Y-100522500I-249999J0D01*
G01*
X116349999Y-100522500D01*
G75*
G02*
X116100000Y-100272501I0J249999D01*
G01*
X116100000Y-99747499D01*
G75*
G02*
X116349999Y-99497500I249999J0D01*
G01*
G37*
G36*
G01*
X116349999Y-97672500D02*
X117250001Y-97672500D01*
G75*
G02*
X117500000Y-97922499I0J-249999D01*
G01*
X117500000Y-98447501D01*
G75*
G02*
X117250001Y-98697500I-249999J0D01*
G01*
X116349999Y-98697500D01*
G75*
G02*
X116100000Y-98447501I0J249999D01*
G01*
X116100000Y-97922499D01*
G75*
G02*
X116349999Y-97672500I249999J0D01*
G01*
G37*
D11*
X97730000Y-115510000D03*
X98680000Y-115510000D03*
X96780000Y-115510000D03*
X96780000Y-113310000D03*
X97730000Y-113310000D03*
X98680000Y-113310000D03*
G36*
G01*
X98369999Y-109507500D02*
X99270001Y-109507500D01*
G75*
G02*
X99520000Y-109757499I0J-249999D01*
G01*
X99520000Y-110282501D01*
G75*
G02*
X99270001Y-110532500I-249999J0D01*
G01*
X98369999Y-110532500D01*
G75*
G02*
X98120000Y-110282501I0J249999D01*
G01*
X98120000Y-109757499D01*
G75*
G02*
X98369999Y-109507500I249999J0D01*
G01*
G37*
G36*
G01*
X98369999Y-107682500D02*
X99270001Y-107682500D01*
G75*
G02*
X99520000Y-107932499I0J-249999D01*
G01*
X99520000Y-108457501D01*
G75*
G02*
X99270001Y-108707500I-249999J0D01*
G01*
X98369999Y-108707500D01*
G75*
G02*
X98120000Y-108457501I0J249999D01*
G01*
X98120000Y-107932499D01*
G75*
G02*
X98369999Y-107682500I249999J0D01*
G01*
G37*
G36*
G01*
X100399999Y-109537500D02*
X101300001Y-109537500D01*
G75*
G02*
X101550000Y-109787499I0J-249999D01*
G01*
X101550000Y-110312501D01*
G75*
G02*
X101300001Y-110562500I-249999J0D01*
G01*
X100399999Y-110562500D01*
G75*
G02*
X100150000Y-110312501I0J249999D01*
G01*
X100150000Y-109787499D01*
G75*
G02*
X100399999Y-109537500I249999J0D01*
G01*
G37*
G36*
G01*
X100399999Y-107712500D02*
X101300001Y-107712500D01*
G75*
G02*
X101550000Y-107962499I0J-249999D01*
G01*
X101550000Y-108487501D01*
G75*
G02*
X101300001Y-108737500I-249999J0D01*
G01*
X100399999Y-108737500D01*
G75*
G02*
X100150000Y-108487501I0J249999D01*
G01*
X100150000Y-107962499D01*
G75*
G02*
X100399999Y-107712500I249999J0D01*
G01*
G37*
G36*
G01*
X94359999Y-109502500D02*
X95260001Y-109502500D01*
G75*
G02*
X95510000Y-109752499I0J-249999D01*
G01*
X95510000Y-110277501D01*
G75*
G02*
X95260001Y-110527500I-249999J0D01*
G01*
X94359999Y-110527500D01*
G75*
G02*
X94110000Y-110277501I0J249999D01*
G01*
X94110000Y-109752499D01*
G75*
G02*
X94359999Y-109502500I249999J0D01*
G01*
G37*
G36*
G01*
X94359999Y-107677500D02*
X95260001Y-107677500D01*
G75*
G02*
X95510000Y-107927499I0J-249999D01*
G01*
X95510000Y-108452501D01*
G75*
G02*
X95260001Y-108702500I-249999J0D01*
G01*
X94359999Y-108702500D01*
G75*
G02*
X94110000Y-108452501I0J249999D01*
G01*
X94110000Y-107927499D01*
G75*
G02*
X94359999Y-107677500I249999J0D01*
G01*
G37*
G36*
G01*
X96359999Y-109522500D02*
X97260001Y-109522500D01*
G75*
G02*
X97510000Y-109772499I0J-249999D01*
G01*
X97510000Y-110297501D01*
G75*
G02*
X97260001Y-110547500I-249999J0D01*
G01*
X96359999Y-110547500D01*
G75*
G02*
X96110000Y-110297501I0J249999D01*
G01*
X96110000Y-109772499D01*
G75*
G02*
X96359999Y-109522500I249999J0D01*
G01*
G37*
G36*
G01*
X96359999Y-107697500D02*
X97260001Y-107697500D01*
G75*
G02*
X97510000Y-107947499I0J-249999D01*
G01*
X97510000Y-108472501D01*
G75*
G02*
X97260001Y-108722500I-249999J0D01*
G01*
X96359999Y-108722500D01*
G75*
G02*
X96110000Y-108472501I0J249999D01*
G01*
X96110000Y-107947499D01*
G75*
G02*
X96359999Y-107697500I249999J0D01*
G01*
G37*
G36*
G01*
X117315000Y-89690000D02*
X116365000Y-89690000D01*
G75*
G02*
X116115000Y-89440000I0J250000D01*
G01*
X116115000Y-88940000D01*
G75*
G02*
X116365000Y-88690000I250000J0D01*
G01*
X117315000Y-88690000D01*
G75*
G02*
X117565000Y-88940000I0J-250000D01*
G01*
X117565000Y-89440000D01*
G75*
G02*
X117315000Y-89690000I-250000J0D01*
G01*
G37*
G36*
G01*
X117315000Y-91590000D02*
X116365000Y-91590000D01*
G75*
G02*
X116115000Y-91340000I0J250000D01*
G01*
X116115000Y-90840000D01*
G75*
G02*
X116365000Y-90590000I250000J0D01*
G01*
X117315000Y-90590000D01*
G75*
G02*
X117565000Y-90840000I0J-250000D01*
G01*
X117565000Y-91340000D01*
G75*
G02*
X117315000Y-91590000I-250000J0D01*
G01*
G37*
G36*
G01*
X113510000Y-88625000D02*
X113510000Y-88325000D01*
G75*
G02*
X113660000Y-88175000I150000J0D01*
G01*
X115310000Y-88175000D01*
G75*
G02*
X115460000Y-88325000I0J-150000D01*
G01*
X115460000Y-88625000D01*
G75*
G02*
X115310000Y-88775000I-150000J0D01*
G01*
X113660000Y-88775000D01*
G75*
G02*
X113510000Y-88625000I0J150000D01*
G01*
G37*
G36*
G01*
X113510000Y-89895000D02*
X113510000Y-89595000D01*
G75*
G02*
X113660000Y-89445000I150000J0D01*
G01*
X115310000Y-89445000D01*
G75*
G02*
X115460000Y-89595000I0J-150000D01*
G01*
X115460000Y-89895000D01*
G75*
G02*
X115310000Y-90045000I-150000J0D01*
G01*
X113660000Y-90045000D01*
G75*
G02*
X113510000Y-89895000I0J150000D01*
G01*
G37*
G36*
G01*
X113510000Y-91165000D02*
X113510000Y-90865000D01*
G75*
G02*
X113660000Y-90715000I150000J0D01*
G01*
X115310000Y-90715000D01*
G75*
G02*
X115460000Y-90865000I0J-150000D01*
G01*
X115460000Y-91165000D01*
G75*
G02*
X115310000Y-91315000I-150000J0D01*
G01*
X113660000Y-91315000D01*
G75*
G02*
X113510000Y-91165000I0J150000D01*
G01*
G37*
G36*
G01*
X113510000Y-92435000D02*
X113510000Y-92135000D01*
G75*
G02*
X113660000Y-91985000I150000J0D01*
G01*
X115310000Y-91985000D01*
G75*
G02*
X115460000Y-92135000I0J-150000D01*
G01*
X115460000Y-92435000D01*
G75*
G02*
X115310000Y-92585000I-150000J0D01*
G01*
X113660000Y-92585000D01*
G75*
G02*
X113510000Y-92435000I0J150000D01*
G01*
G37*
G36*
G01*
X108560000Y-92435000D02*
X108560000Y-92135000D01*
G75*
G02*
X108710000Y-91985000I150000J0D01*
G01*
X110360000Y-91985000D01*
G75*
G02*
X110510000Y-92135000I0J-150000D01*
G01*
X110510000Y-92435000D01*
G75*
G02*
X110360000Y-92585000I-150000J0D01*
G01*
X108710000Y-92585000D01*
G75*
G02*
X108560000Y-92435000I0J150000D01*
G01*
G37*
G36*
G01*
X108560000Y-91165000D02*
X108560000Y-90865000D01*
G75*
G02*
X108710000Y-90715000I150000J0D01*
G01*
X110360000Y-90715000D01*
G75*
G02*
X110510000Y-90865000I0J-150000D01*
G01*
X110510000Y-91165000D01*
G75*
G02*
X110360000Y-91315000I-150000J0D01*
G01*
X108710000Y-91315000D01*
G75*
G02*
X108560000Y-91165000I0J150000D01*
G01*
G37*
G36*
G01*
X108560000Y-89895000D02*
X108560000Y-89595000D01*
G75*
G02*
X108710000Y-89445000I150000J0D01*
G01*
X110360000Y-89445000D01*
G75*
G02*
X110510000Y-89595000I0J-150000D01*
G01*
X110510000Y-89895000D01*
G75*
G02*
X110360000Y-90045000I-150000J0D01*
G01*
X108710000Y-90045000D01*
G75*
G02*
X108560000Y-89895000I0J150000D01*
G01*
G37*
G36*
G01*
X108560000Y-88625000D02*
X108560000Y-88325000D01*
G75*
G02*
X108710000Y-88175000I150000J0D01*
G01*
X110360000Y-88175000D01*
G75*
G02*
X110510000Y-88325000I0J-150000D01*
G01*
X110510000Y-88625000D01*
G75*
G02*
X110360000Y-88775000I-150000J0D01*
G01*
X108710000Y-88775000D01*
G75*
G02*
X108560000Y-88625000I0J150000D01*
G01*
G37*
G36*
G01*
X109550000Y-86095000D02*
X109550000Y-87045000D01*
G75*
G02*
X109300000Y-87295000I-250000J0D01*
G01*
X108800000Y-87295000D01*
G75*
G02*
X108550000Y-87045000I0J250000D01*
G01*
X108550000Y-86095000D01*
G75*
G02*
X108800000Y-85845000I250000J0D01*
G01*
X109300000Y-85845000D01*
G75*
G02*
X109550000Y-86095000I0J-250000D01*
G01*
G37*
G36*
G01*
X111450000Y-86095000D02*
X111450000Y-87045000D01*
G75*
G02*
X111200000Y-87295000I-250000J0D01*
G01*
X110700000Y-87295000D01*
G75*
G02*
X110450000Y-87045000I0J250000D01*
G01*
X110450000Y-86095000D01*
G75*
G02*
X110700000Y-85845000I250000J0D01*
G01*
X111200000Y-85845000D01*
G75*
G02*
X111450000Y-86095000I0J-250000D01*
G01*
G37*
G36*
G01*
X113209998Y-104247500D02*
X114110002Y-104247500D01*
G75*
G02*
X114360000Y-104497498I0J-249998D01*
G01*
X114360000Y-105022502D01*
G75*
G02*
X114110002Y-105272500I-249998J0D01*
G01*
X113209998Y-105272500D01*
G75*
G02*
X112960000Y-105022502I0J249998D01*
G01*
X112960000Y-104497498D01*
G75*
G02*
X113209998Y-104247500I249998J0D01*
G01*
G37*
G36*
G01*
X113209998Y-102422500D02*
X114110002Y-102422500D01*
G75*
G02*
X114360000Y-102672498I0J-249998D01*
G01*
X114360000Y-103197502D01*
G75*
G02*
X114110002Y-103447500I-249998J0D01*
G01*
X113209998Y-103447500D01*
G75*
G02*
X112960000Y-103197502I0J249998D01*
G01*
X112960000Y-102672498D01*
G75*
G02*
X113209998Y-102422500I249998J0D01*
G01*
G37*
D12*
X76338000Y-91864000D03*
X76338000Y-91064000D03*
X76338000Y-90264000D03*
X76338000Y-89464000D03*
X76338000Y-88664000D03*
D13*
X76338000Y-94664000D03*
X76338000Y-85864000D03*
X70838000Y-94664000D03*
X70838000Y-85864000D03*
G36*
G01*
X87380000Y-53165000D02*
X87380000Y-53465000D01*
G75*
G02*
X87230000Y-53615000I-150000J0D01*
G01*
X85580000Y-53615000D01*
G75*
G02*
X85430000Y-53465000I0J150000D01*
G01*
X85430000Y-53165000D01*
G75*
G02*
X85580000Y-53015000I150000J0D01*
G01*
X87230000Y-53015000D01*
G75*
G02*
X87380000Y-53165000I0J-150000D01*
G01*
G37*
G36*
G01*
X87380000Y-51895000D02*
X87380000Y-52195000D01*
G75*
G02*
X87230000Y-52345000I-150000J0D01*
G01*
X85580000Y-52345000D01*
G75*
G02*
X85430000Y-52195000I0J150000D01*
G01*
X85430000Y-51895000D01*
G75*
G02*
X85580000Y-51745000I150000J0D01*
G01*
X87230000Y-51745000D01*
G75*
G02*
X87380000Y-51895000I0J-150000D01*
G01*
G37*
G36*
G01*
X87380000Y-50625000D02*
X87380000Y-50925000D01*
G75*
G02*
X87230000Y-51075000I-150000J0D01*
G01*
X85580000Y-51075000D01*
G75*
G02*
X85430000Y-50925000I0J150000D01*
G01*
X85430000Y-50625000D01*
G75*
G02*
X85580000Y-50475000I150000J0D01*
G01*
X87230000Y-50475000D01*
G75*
G02*
X87380000Y-50625000I0J-150000D01*
G01*
G37*
G36*
G01*
X87380000Y-49355000D02*
X87380000Y-49655000D01*
G75*
G02*
X87230000Y-49805000I-150000J0D01*
G01*
X85580000Y-49805000D01*
G75*
G02*
X85430000Y-49655000I0J150000D01*
G01*
X85430000Y-49355000D01*
G75*
G02*
X85580000Y-49205000I150000J0D01*
G01*
X87230000Y-49205000D01*
G75*
G02*
X87380000Y-49355000I0J-150000D01*
G01*
G37*
G36*
G01*
X87380000Y-48085000D02*
X87380000Y-48385000D01*
G75*
G02*
X87230000Y-48535000I-150000J0D01*
G01*
X85580000Y-48535000D01*
G75*
G02*
X85430000Y-48385000I0J150000D01*
G01*
X85430000Y-48085000D01*
G75*
G02*
X85580000Y-47935000I150000J0D01*
G01*
X87230000Y-47935000D01*
G75*
G02*
X87380000Y-48085000I0J-150000D01*
G01*
G37*
G36*
G01*
X87380000Y-46815000D02*
X87380000Y-47115000D01*
G75*
G02*
X87230000Y-47265000I-150000J0D01*
G01*
X85580000Y-47265000D01*
G75*
G02*
X85430000Y-47115000I0J150000D01*
G01*
X85430000Y-46815000D01*
G75*
G02*
X85580000Y-46665000I150000J0D01*
G01*
X87230000Y-46665000D01*
G75*
G02*
X87380000Y-46815000I0J-150000D01*
G01*
G37*
G36*
G01*
X87380000Y-45545000D02*
X87380000Y-45845000D01*
G75*
G02*
X87230000Y-45995000I-150000J0D01*
G01*
X85580000Y-45995000D01*
G75*
G02*
X85430000Y-45845000I0J150000D01*
G01*
X85430000Y-45545000D01*
G75*
G02*
X85580000Y-45395000I150000J0D01*
G01*
X87230000Y-45395000D01*
G75*
G02*
X87380000Y-45545000I0J-150000D01*
G01*
G37*
G36*
G01*
X87380000Y-44275000D02*
X87380000Y-44575000D01*
G75*
G02*
X87230000Y-44725000I-150000J0D01*
G01*
X85580000Y-44725000D01*
G75*
G02*
X85430000Y-44575000I0J150000D01*
G01*
X85430000Y-44275000D01*
G75*
G02*
X85580000Y-44125000I150000J0D01*
G01*
X87230000Y-44125000D01*
G75*
G02*
X87380000Y-44275000I0J-150000D01*
G01*
G37*
G36*
G01*
X92330000Y-44275000D02*
X92330000Y-44575000D01*
G75*
G02*
X92180000Y-44725000I-150000J0D01*
G01*
X90530000Y-44725000D01*
G75*
G02*
X90380000Y-44575000I0J150000D01*
G01*
X90380000Y-44275000D01*
G75*
G02*
X90530000Y-44125000I150000J0D01*
G01*
X92180000Y-44125000D01*
G75*
G02*
X92330000Y-44275000I0J-150000D01*
G01*
G37*
G36*
G01*
X92330000Y-45545000D02*
X92330000Y-45845000D01*
G75*
G02*
X92180000Y-45995000I-150000J0D01*
G01*
X90530000Y-45995000D01*
G75*
G02*
X90380000Y-45845000I0J150000D01*
G01*
X90380000Y-45545000D01*
G75*
G02*
X90530000Y-45395000I150000J0D01*
G01*
X92180000Y-45395000D01*
G75*
G02*
X92330000Y-45545000I0J-150000D01*
G01*
G37*
G36*
G01*
X92330000Y-46815000D02*
X92330000Y-47115000D01*
G75*
G02*
X92180000Y-47265000I-150000J0D01*
G01*
X90530000Y-47265000D01*
G75*
G02*
X90380000Y-47115000I0J150000D01*
G01*
X90380000Y-46815000D01*
G75*
G02*
X90530000Y-46665000I150000J0D01*
G01*
X92180000Y-46665000D01*
G75*
G02*
X92330000Y-46815000I0J-150000D01*
G01*
G37*
G36*
G01*
X92330000Y-48085000D02*
X92330000Y-48385000D01*
G75*
G02*
X92180000Y-48535000I-150000J0D01*
G01*
X90530000Y-48535000D01*
G75*
G02*
X90380000Y-48385000I0J150000D01*
G01*
X90380000Y-48085000D01*
G75*
G02*
X90530000Y-47935000I150000J0D01*
G01*
X92180000Y-47935000D01*
G75*
G02*
X92330000Y-48085000I0J-150000D01*
G01*
G37*
G36*
G01*
X92330000Y-49355000D02*
X92330000Y-49655000D01*
G75*
G02*
X92180000Y-49805000I-150000J0D01*
G01*
X90530000Y-49805000D01*
G75*
G02*
X90380000Y-49655000I0J150000D01*
G01*
X90380000Y-49355000D01*
G75*
G02*
X90530000Y-49205000I150000J0D01*
G01*
X92180000Y-49205000D01*
G75*
G02*
X92330000Y-49355000I0J-150000D01*
G01*
G37*
G36*
G01*
X92330000Y-50625000D02*
X92330000Y-50925000D01*
G75*
G02*
X92180000Y-51075000I-150000J0D01*
G01*
X90530000Y-51075000D01*
G75*
G02*
X90380000Y-50925000I0J150000D01*
G01*
X90380000Y-50625000D01*
G75*
G02*
X90530000Y-50475000I150000J0D01*
G01*
X92180000Y-50475000D01*
G75*
G02*
X92330000Y-50625000I0J-150000D01*
G01*
G37*
G36*
G01*
X92330000Y-51895000D02*
X92330000Y-52195000D01*
G75*
G02*
X92180000Y-52345000I-150000J0D01*
G01*
X90530000Y-52345000D01*
G75*
G02*
X90380000Y-52195000I0J150000D01*
G01*
X90380000Y-51895000D01*
G75*
G02*
X90530000Y-51745000I150000J0D01*
G01*
X92180000Y-51745000D01*
G75*
G02*
X92330000Y-51895000I0J-150000D01*
G01*
G37*
G36*
G01*
X92330000Y-53165000D02*
X92330000Y-53465000D01*
G75*
G02*
X92180000Y-53615000I-150000J0D01*
G01*
X90530000Y-53615000D01*
G75*
G02*
X90380000Y-53465000I0J150000D01*
G01*
X90380000Y-53165000D01*
G75*
G02*
X90530000Y-53015000I150000J0D01*
G01*
X92180000Y-53015000D01*
G75*
G02*
X92330000Y-53165000I0J-150000D01*
G01*
G37*
G36*
G01*
X95310000Y-53195000D02*
X95310000Y-53495000D01*
G75*
G02*
X95160000Y-53645000I-150000J0D01*
G01*
X93510000Y-53645000D01*
G75*
G02*
X93360000Y-53495000I0J150000D01*
G01*
X93360000Y-53195000D01*
G75*
G02*
X93510000Y-53045000I150000J0D01*
G01*
X95160000Y-53045000D01*
G75*
G02*
X95310000Y-53195000I0J-150000D01*
G01*
G37*
G36*
G01*
X95310000Y-51925000D02*
X95310000Y-52225000D01*
G75*
G02*
X95160000Y-52375000I-150000J0D01*
G01*
X93510000Y-52375000D01*
G75*
G02*
X93360000Y-52225000I0J150000D01*
G01*
X93360000Y-51925000D01*
G75*
G02*
X93510000Y-51775000I150000J0D01*
G01*
X95160000Y-51775000D01*
G75*
G02*
X95310000Y-51925000I0J-150000D01*
G01*
G37*
G36*
G01*
X95310000Y-50655000D02*
X95310000Y-50955000D01*
G75*
G02*
X95160000Y-51105000I-150000J0D01*
G01*
X93510000Y-51105000D01*
G75*
G02*
X93360000Y-50955000I0J150000D01*
G01*
X93360000Y-50655000D01*
G75*
G02*
X93510000Y-50505000I150000J0D01*
G01*
X95160000Y-50505000D01*
G75*
G02*
X95310000Y-50655000I0J-150000D01*
G01*
G37*
G36*
G01*
X95310000Y-49385000D02*
X95310000Y-49685000D01*
G75*
G02*
X95160000Y-49835000I-150000J0D01*
G01*
X93510000Y-49835000D01*
G75*
G02*
X93360000Y-49685000I0J150000D01*
G01*
X93360000Y-49385000D01*
G75*
G02*
X93510000Y-49235000I150000J0D01*
G01*
X95160000Y-49235000D01*
G75*
G02*
X95310000Y-49385000I0J-150000D01*
G01*
G37*
G36*
G01*
X95310000Y-48115000D02*
X95310000Y-48415000D01*
G75*
G02*
X95160000Y-48565000I-150000J0D01*
G01*
X93510000Y-48565000D01*
G75*
G02*
X93360000Y-48415000I0J150000D01*
G01*
X93360000Y-48115000D01*
G75*
G02*
X93510000Y-47965000I150000J0D01*
G01*
X95160000Y-47965000D01*
G75*
G02*
X95310000Y-48115000I0J-150000D01*
G01*
G37*
G36*
G01*
X95310000Y-46845000D02*
X95310000Y-47145000D01*
G75*
G02*
X95160000Y-47295000I-150000J0D01*
G01*
X93510000Y-47295000D01*
G75*
G02*
X93360000Y-47145000I0J150000D01*
G01*
X93360000Y-46845000D01*
G75*
G02*
X93510000Y-46695000I150000J0D01*
G01*
X95160000Y-46695000D01*
G75*
G02*
X95310000Y-46845000I0J-150000D01*
G01*
G37*
G36*
G01*
X95310000Y-45575000D02*
X95310000Y-45875000D01*
G75*
G02*
X95160000Y-46025000I-150000J0D01*
G01*
X93510000Y-46025000D01*
G75*
G02*
X93360000Y-45875000I0J150000D01*
G01*
X93360000Y-45575000D01*
G75*
G02*
X93510000Y-45425000I150000J0D01*
G01*
X95160000Y-45425000D01*
G75*
G02*
X95310000Y-45575000I0J-150000D01*
G01*
G37*
G36*
G01*
X95310000Y-44305000D02*
X95310000Y-44605000D01*
G75*
G02*
X95160000Y-44755000I-150000J0D01*
G01*
X93510000Y-44755000D01*
G75*
G02*
X93360000Y-44605000I0J150000D01*
G01*
X93360000Y-44305000D01*
G75*
G02*
X93510000Y-44155000I150000J0D01*
G01*
X95160000Y-44155000D01*
G75*
G02*
X95310000Y-44305000I0J-150000D01*
G01*
G37*
G36*
G01*
X100260000Y-44305000D02*
X100260000Y-44605000D01*
G75*
G02*
X100110000Y-44755000I-150000J0D01*
G01*
X98460000Y-44755000D01*
G75*
G02*
X98310000Y-44605000I0J150000D01*
G01*
X98310000Y-44305000D01*
G75*
G02*
X98460000Y-44155000I150000J0D01*
G01*
X100110000Y-44155000D01*
G75*
G02*
X100260000Y-44305000I0J-150000D01*
G01*
G37*
G36*
G01*
X100260000Y-45575000D02*
X100260000Y-45875000D01*
G75*
G02*
X100110000Y-46025000I-150000J0D01*
G01*
X98460000Y-46025000D01*
G75*
G02*
X98310000Y-45875000I0J150000D01*
G01*
X98310000Y-45575000D01*
G75*
G02*
X98460000Y-45425000I150000J0D01*
G01*
X100110000Y-45425000D01*
G75*
G02*
X100260000Y-45575000I0J-150000D01*
G01*
G37*
G36*
G01*
X100260000Y-46845000D02*
X100260000Y-47145000D01*
G75*
G02*
X100110000Y-47295000I-150000J0D01*
G01*
X98460000Y-47295000D01*
G75*
G02*
X98310000Y-47145000I0J150000D01*
G01*
X98310000Y-46845000D01*
G75*
G02*
X98460000Y-46695000I150000J0D01*
G01*
X100110000Y-46695000D01*
G75*
G02*
X100260000Y-46845000I0J-150000D01*
G01*
G37*
G36*
G01*
X100260000Y-48115000D02*
X100260000Y-48415000D01*
G75*
G02*
X100110000Y-48565000I-150000J0D01*
G01*
X98460000Y-48565000D01*
G75*
G02*
X98310000Y-48415000I0J150000D01*
G01*
X98310000Y-48115000D01*
G75*
G02*
X98460000Y-47965000I150000J0D01*
G01*
X100110000Y-47965000D01*
G75*
G02*
X100260000Y-48115000I0J-150000D01*
G01*
G37*
G36*
G01*
X100260000Y-49385000D02*
X100260000Y-49685000D01*
G75*
G02*
X100110000Y-49835000I-150000J0D01*
G01*
X98460000Y-49835000D01*
G75*
G02*
X98310000Y-49685000I0J150000D01*
G01*
X98310000Y-49385000D01*
G75*
G02*
X98460000Y-49235000I150000J0D01*
G01*
X100110000Y-49235000D01*
G75*
G02*
X100260000Y-49385000I0J-150000D01*
G01*
G37*
G36*
G01*
X100260000Y-50655000D02*
X100260000Y-50955000D01*
G75*
G02*
X100110000Y-51105000I-150000J0D01*
G01*
X98460000Y-51105000D01*
G75*
G02*
X98310000Y-50955000I0J150000D01*
G01*
X98310000Y-50655000D01*
G75*
G02*
X98460000Y-50505000I150000J0D01*
G01*
X100110000Y-50505000D01*
G75*
G02*
X100260000Y-50655000I0J-150000D01*
G01*
G37*
G36*
G01*
X100260000Y-51925000D02*
X100260000Y-52225000D01*
G75*
G02*
X100110000Y-52375000I-150000J0D01*
G01*
X98460000Y-52375000D01*
G75*
G02*
X98310000Y-52225000I0J150000D01*
G01*
X98310000Y-51925000D01*
G75*
G02*
X98460000Y-51775000I150000J0D01*
G01*
X100110000Y-51775000D01*
G75*
G02*
X100260000Y-51925000I0J-150000D01*
G01*
G37*
G36*
G01*
X100260000Y-53195000D02*
X100260000Y-53495000D01*
G75*
G02*
X100110000Y-53645000I-150000J0D01*
G01*
X98460000Y-53645000D01*
G75*
G02*
X98310000Y-53495000I0J150000D01*
G01*
X98310000Y-53195000D01*
G75*
G02*
X98460000Y-53045000I150000J0D01*
G01*
X100110000Y-53045000D01*
G75*
G02*
X100260000Y-53195000I0J-150000D01*
G01*
G37*
G36*
G01*
X105320000Y-53205000D02*
X105320000Y-53505000D01*
G75*
G02*
X105170000Y-53655000I-150000J0D01*
G01*
X103520000Y-53655000D01*
G75*
G02*
X103370000Y-53505000I0J150000D01*
G01*
X103370000Y-53205000D01*
G75*
G02*
X103520000Y-53055000I150000J0D01*
G01*
X105170000Y-53055000D01*
G75*
G02*
X105320000Y-53205000I0J-150000D01*
G01*
G37*
G36*
G01*
X105320000Y-51935000D02*
X105320000Y-52235000D01*
G75*
G02*
X105170000Y-52385000I-150000J0D01*
G01*
X103520000Y-52385000D01*
G75*
G02*
X103370000Y-52235000I0J150000D01*
G01*
X103370000Y-51935000D01*
G75*
G02*
X103520000Y-51785000I150000J0D01*
G01*
X105170000Y-51785000D01*
G75*
G02*
X105320000Y-51935000I0J-150000D01*
G01*
G37*
G36*
G01*
X105320000Y-50665000D02*
X105320000Y-50965000D01*
G75*
G02*
X105170000Y-51115000I-150000J0D01*
G01*
X103520000Y-51115000D01*
G75*
G02*
X103370000Y-50965000I0J150000D01*
G01*
X103370000Y-50665000D01*
G75*
G02*
X103520000Y-50515000I150000J0D01*
G01*
X105170000Y-50515000D01*
G75*
G02*
X105320000Y-50665000I0J-150000D01*
G01*
G37*
G36*
G01*
X105320000Y-49395000D02*
X105320000Y-49695000D01*
G75*
G02*
X105170000Y-49845000I-150000J0D01*
G01*
X103520000Y-49845000D01*
G75*
G02*
X103370000Y-49695000I0J150000D01*
G01*
X103370000Y-49395000D01*
G75*
G02*
X103520000Y-49245000I150000J0D01*
G01*
X105170000Y-49245000D01*
G75*
G02*
X105320000Y-49395000I0J-150000D01*
G01*
G37*
G36*
G01*
X105320000Y-48125000D02*
X105320000Y-48425000D01*
G75*
G02*
X105170000Y-48575000I-150000J0D01*
G01*
X103520000Y-48575000D01*
G75*
G02*
X103370000Y-48425000I0J150000D01*
G01*
X103370000Y-48125000D01*
G75*
G02*
X103520000Y-47975000I150000J0D01*
G01*
X105170000Y-47975000D01*
G75*
G02*
X105320000Y-48125000I0J-150000D01*
G01*
G37*
G36*
G01*
X105320000Y-46855000D02*
X105320000Y-47155000D01*
G75*
G02*
X105170000Y-47305000I-150000J0D01*
G01*
X103520000Y-47305000D01*
G75*
G02*
X103370000Y-47155000I0J150000D01*
G01*
X103370000Y-46855000D01*
G75*
G02*
X103520000Y-46705000I150000J0D01*
G01*
X105170000Y-46705000D01*
G75*
G02*
X105320000Y-46855000I0J-150000D01*
G01*
G37*
G36*
G01*
X105320000Y-45585000D02*
X105320000Y-45885000D01*
G75*
G02*
X105170000Y-46035000I-150000J0D01*
G01*
X103520000Y-46035000D01*
G75*
G02*
X103370000Y-45885000I0J150000D01*
G01*
X103370000Y-45585000D01*
G75*
G02*
X103520000Y-45435000I150000J0D01*
G01*
X105170000Y-45435000D01*
G75*
G02*
X105320000Y-45585000I0J-150000D01*
G01*
G37*
G36*
G01*
X105320000Y-44315000D02*
X105320000Y-44615000D01*
G75*
G02*
X105170000Y-44765000I-150000J0D01*
G01*
X103520000Y-44765000D01*
G75*
G02*
X103370000Y-44615000I0J150000D01*
G01*
X103370000Y-44315000D01*
G75*
G02*
X103520000Y-44165000I150000J0D01*
G01*
X105170000Y-44165000D01*
G75*
G02*
X105320000Y-44315000I0J-150000D01*
G01*
G37*
G36*
G01*
X110270000Y-44315000D02*
X110270000Y-44615000D01*
G75*
G02*
X110120000Y-44765000I-150000J0D01*
G01*
X108470000Y-44765000D01*
G75*
G02*
X108320000Y-44615000I0J150000D01*
G01*
X108320000Y-44315000D01*
G75*
G02*
X108470000Y-44165000I150000J0D01*
G01*
X110120000Y-44165000D01*
G75*
G02*
X110270000Y-44315000I0J-150000D01*
G01*
G37*
G36*
G01*
X110270000Y-45585000D02*
X110270000Y-45885000D01*
G75*
G02*
X110120000Y-46035000I-150000J0D01*
G01*
X108470000Y-46035000D01*
G75*
G02*
X108320000Y-45885000I0J150000D01*
G01*
X108320000Y-45585000D01*
G75*
G02*
X108470000Y-45435000I150000J0D01*
G01*
X110120000Y-45435000D01*
G75*
G02*
X110270000Y-45585000I0J-150000D01*
G01*
G37*
G36*
G01*
X110270000Y-46855000D02*
X110270000Y-47155000D01*
G75*
G02*
X110120000Y-47305000I-150000J0D01*
G01*
X108470000Y-47305000D01*
G75*
G02*
X108320000Y-47155000I0J150000D01*
G01*
X108320000Y-46855000D01*
G75*
G02*
X108470000Y-46705000I150000J0D01*
G01*
X110120000Y-46705000D01*
G75*
G02*
X110270000Y-46855000I0J-150000D01*
G01*
G37*
G36*
G01*
X110270000Y-48125000D02*
X110270000Y-48425000D01*
G75*
G02*
X110120000Y-48575000I-150000J0D01*
G01*
X108470000Y-48575000D01*
G75*
G02*
X108320000Y-48425000I0J150000D01*
G01*
X108320000Y-48125000D01*
G75*
G02*
X108470000Y-47975000I150000J0D01*
G01*
X110120000Y-47975000D01*
G75*
G02*
X110270000Y-48125000I0J-150000D01*
G01*
G37*
G36*
G01*
X110270000Y-49395000D02*
X110270000Y-49695000D01*
G75*
G02*
X110120000Y-49845000I-150000J0D01*
G01*
X108470000Y-49845000D01*
G75*
G02*
X108320000Y-49695000I0J150000D01*
G01*
X108320000Y-49395000D01*
G75*
G02*
X108470000Y-49245000I150000J0D01*
G01*
X110120000Y-49245000D01*
G75*
G02*
X110270000Y-49395000I0J-150000D01*
G01*
G37*
G36*
G01*
X110270000Y-50665000D02*
X110270000Y-50965000D01*
G75*
G02*
X110120000Y-51115000I-150000J0D01*
G01*
X108470000Y-51115000D01*
G75*
G02*
X108320000Y-50965000I0J150000D01*
G01*
X108320000Y-50665000D01*
G75*
G02*
X108470000Y-50515000I150000J0D01*
G01*
X110120000Y-50515000D01*
G75*
G02*
X110270000Y-50665000I0J-150000D01*
G01*
G37*
G36*
G01*
X110270000Y-51935000D02*
X110270000Y-52235000D01*
G75*
G02*
X110120000Y-52385000I-150000J0D01*
G01*
X108470000Y-52385000D01*
G75*
G02*
X108320000Y-52235000I0J150000D01*
G01*
X108320000Y-51935000D01*
G75*
G02*
X108470000Y-51785000I150000J0D01*
G01*
X110120000Y-51785000D01*
G75*
G02*
X110270000Y-51935000I0J-150000D01*
G01*
G37*
G36*
G01*
X110270000Y-53205000D02*
X110270000Y-53505000D01*
G75*
G02*
X110120000Y-53655000I-150000J0D01*
G01*
X108470000Y-53655000D01*
G75*
G02*
X108320000Y-53505000I0J150000D01*
G01*
X108320000Y-53205000D01*
G75*
G02*
X108470000Y-53055000I150000J0D01*
G01*
X110120000Y-53055000D01*
G75*
G02*
X110270000Y-53205000I0J-150000D01*
G01*
G37*
G36*
G01*
X103290000Y-55330000D02*
X103290000Y-55030000D01*
G75*
G02*
X103440000Y-54880000I150000J0D01*
G01*
X105090000Y-54880000D01*
G75*
G02*
X105240000Y-55030000I0J-150000D01*
G01*
X105240000Y-55330000D01*
G75*
G02*
X105090000Y-55480000I-150000J0D01*
G01*
X103440000Y-55480000D01*
G75*
G02*
X103290000Y-55330000I0J150000D01*
G01*
G37*
G36*
G01*
X103290000Y-56600000D02*
X103290000Y-56300000D01*
G75*
G02*
X103440000Y-56150000I150000J0D01*
G01*
X105090000Y-56150000D01*
G75*
G02*
X105240000Y-56300000I0J-150000D01*
G01*
X105240000Y-56600000D01*
G75*
G02*
X105090000Y-56750000I-150000J0D01*
G01*
X103440000Y-56750000D01*
G75*
G02*
X103290000Y-56600000I0J150000D01*
G01*
G37*
G36*
G01*
X103290000Y-57870000D02*
X103290000Y-57570000D01*
G75*
G02*
X103440000Y-57420000I150000J0D01*
G01*
X105090000Y-57420000D01*
G75*
G02*
X105240000Y-57570000I0J-150000D01*
G01*
X105240000Y-57870000D01*
G75*
G02*
X105090000Y-58020000I-150000J0D01*
G01*
X103440000Y-58020000D01*
G75*
G02*
X103290000Y-57870000I0J150000D01*
G01*
G37*
G36*
G01*
X103290000Y-59140000D02*
X103290000Y-58840000D01*
G75*
G02*
X103440000Y-58690000I150000J0D01*
G01*
X105090000Y-58690000D01*
G75*
G02*
X105240000Y-58840000I0J-150000D01*
G01*
X105240000Y-59140000D01*
G75*
G02*
X105090000Y-59290000I-150000J0D01*
G01*
X103440000Y-59290000D01*
G75*
G02*
X103290000Y-59140000I0J150000D01*
G01*
G37*
G36*
G01*
X103290000Y-60410000D02*
X103290000Y-60110000D01*
G75*
G02*
X103440000Y-59960000I150000J0D01*
G01*
X105090000Y-59960000D01*
G75*
G02*
X105240000Y-60110000I0J-150000D01*
G01*
X105240000Y-60410000D01*
G75*
G02*
X105090000Y-60560000I-150000J0D01*
G01*
X103440000Y-60560000D01*
G75*
G02*
X103290000Y-60410000I0J150000D01*
G01*
G37*
G36*
G01*
X103290000Y-61680000D02*
X103290000Y-61380000D01*
G75*
G02*
X103440000Y-61230000I150000J0D01*
G01*
X105090000Y-61230000D01*
G75*
G02*
X105240000Y-61380000I0J-150000D01*
G01*
X105240000Y-61680000D01*
G75*
G02*
X105090000Y-61830000I-150000J0D01*
G01*
X103440000Y-61830000D01*
G75*
G02*
X103290000Y-61680000I0J150000D01*
G01*
G37*
G36*
G01*
X103290000Y-62950000D02*
X103290000Y-62650000D01*
G75*
G02*
X103440000Y-62500000I150000J0D01*
G01*
X105090000Y-62500000D01*
G75*
G02*
X105240000Y-62650000I0J-150000D01*
G01*
X105240000Y-62950000D01*
G75*
G02*
X105090000Y-63100000I-150000J0D01*
G01*
X103440000Y-63100000D01*
G75*
G02*
X103290000Y-62950000I0J150000D01*
G01*
G37*
G36*
G01*
X98340000Y-62950000D02*
X98340000Y-62650000D01*
G75*
G02*
X98490000Y-62500000I150000J0D01*
G01*
X100140000Y-62500000D01*
G75*
G02*
X100290000Y-62650000I0J-150000D01*
G01*
X100290000Y-62950000D01*
G75*
G02*
X100140000Y-63100000I-150000J0D01*
G01*
X98490000Y-63100000D01*
G75*
G02*
X98340000Y-62950000I0J150000D01*
G01*
G37*
G36*
G01*
X98340000Y-61680000D02*
X98340000Y-61380000D01*
G75*
G02*
X98490000Y-61230000I150000J0D01*
G01*
X100140000Y-61230000D01*
G75*
G02*
X100290000Y-61380000I0J-150000D01*
G01*
X100290000Y-61680000D01*
G75*
G02*
X100140000Y-61830000I-150000J0D01*
G01*
X98490000Y-61830000D01*
G75*
G02*
X98340000Y-61680000I0J150000D01*
G01*
G37*
G36*
G01*
X98340000Y-60410000D02*
X98340000Y-60110000D01*
G75*
G02*
X98490000Y-59960000I150000J0D01*
G01*
X100140000Y-59960000D01*
G75*
G02*
X100290000Y-60110000I0J-150000D01*
G01*
X100290000Y-60410000D01*
G75*
G02*
X100140000Y-60560000I-150000J0D01*
G01*
X98490000Y-60560000D01*
G75*
G02*
X98340000Y-60410000I0J150000D01*
G01*
G37*
G36*
G01*
X98340000Y-59140000D02*
X98340000Y-58840000D01*
G75*
G02*
X98490000Y-58690000I150000J0D01*
G01*
X100140000Y-58690000D01*
G75*
G02*
X100290000Y-58840000I0J-150000D01*
G01*
X100290000Y-59140000D01*
G75*
G02*
X100140000Y-59290000I-150000J0D01*
G01*
X98490000Y-59290000D01*
G75*
G02*
X98340000Y-59140000I0J150000D01*
G01*
G37*
G36*
G01*
X98340000Y-57870000D02*
X98340000Y-57570000D01*
G75*
G02*
X98490000Y-57420000I150000J0D01*
G01*
X100140000Y-57420000D01*
G75*
G02*
X100290000Y-57570000I0J-150000D01*
G01*
X100290000Y-57870000D01*
G75*
G02*
X100140000Y-58020000I-150000J0D01*
G01*
X98490000Y-58020000D01*
G75*
G02*
X98340000Y-57870000I0J150000D01*
G01*
G37*
G36*
G01*
X98340000Y-56600000D02*
X98340000Y-56300000D01*
G75*
G02*
X98490000Y-56150000I150000J0D01*
G01*
X100140000Y-56150000D01*
G75*
G02*
X100290000Y-56300000I0J-150000D01*
G01*
X100290000Y-56600000D01*
G75*
G02*
X100140000Y-56750000I-150000J0D01*
G01*
X98490000Y-56750000D01*
G75*
G02*
X98340000Y-56600000I0J150000D01*
G01*
G37*
G36*
G01*
X98340000Y-55330000D02*
X98340000Y-55030000D01*
G75*
G02*
X98490000Y-54880000I150000J0D01*
G01*
X100140000Y-54880000D01*
G75*
G02*
X100290000Y-55030000I0J-150000D01*
G01*
X100290000Y-55330000D01*
G75*
G02*
X100140000Y-55480000I-150000J0D01*
G01*
X98490000Y-55480000D01*
G75*
G02*
X98340000Y-55330000I0J150000D01*
G01*
G37*
D14*
X81428000Y-39686000D03*
X82428000Y-39686000D03*
X83428000Y-39686000D03*
X84428000Y-39686000D03*
X85428000Y-39686000D03*
X86428000Y-39686000D03*
X87428000Y-39686000D03*
X88428000Y-39686000D03*
X89428000Y-39686000D03*
X90428000Y-39686000D03*
X91428000Y-39686000D03*
X92428000Y-39686000D03*
X93428000Y-39686000D03*
X94428000Y-39686000D03*
X95428000Y-39686000D03*
X96428000Y-39686000D03*
X97428000Y-39686000D03*
X98428000Y-39686000D03*
X99428000Y-39686000D03*
X100428000Y-39686000D03*
X101428000Y-39686000D03*
X102428000Y-39686000D03*
X103428000Y-39686000D03*
X104428000Y-39686000D03*
X105428000Y-39686000D03*
X106428000Y-39686000D03*
X107428000Y-39686000D03*
X108428000Y-39686000D03*
X109428000Y-39686000D03*
X110428000Y-39686000D03*
X111428000Y-39686000D03*
X112428000Y-39686000D03*
G36*
G01*
X98342500Y-96211998D02*
X98342500Y-97112002D01*
G75*
G02*
X98092502Y-97362000I-249998J0D01*
G01*
X97567498Y-97362000D01*
G75*
G02*
X97317500Y-97112002I0J249998D01*
G01*
X97317500Y-96211998D01*
G75*
G02*
X97567498Y-95962000I249998J0D01*
G01*
X98092502Y-95962000D01*
G75*
G02*
X98342500Y-96211998I0J-249998D01*
G01*
G37*
G36*
G01*
X100167500Y-96211998D02*
X100167500Y-97112002D01*
G75*
G02*
X99917502Y-97362000I-249998J0D01*
G01*
X99392498Y-97362000D01*
G75*
G02*
X99142500Y-97112002I0J249998D01*
G01*
X99142500Y-96211998D01*
G75*
G02*
X99392498Y-95962000I249998J0D01*
G01*
X99917502Y-95962000D01*
G75*
G02*
X100167500Y-96211998I0J-249998D01*
G01*
G37*
G36*
G01*
X115209000Y-104314000D02*
X116159000Y-104314000D01*
G75*
G02*
X116409000Y-104564000I0J-250000D01*
G01*
X116409000Y-105064000D01*
G75*
G02*
X116159000Y-105314000I-250000J0D01*
G01*
X115209000Y-105314000D01*
G75*
G02*
X114959000Y-105064000I0J250000D01*
G01*
X114959000Y-104564000D01*
G75*
G02*
X115209000Y-104314000I250000J0D01*
G01*
G37*
G36*
G01*
X115209000Y-102414000D02*
X116159000Y-102414000D01*
G75*
G02*
X116409000Y-102664000I0J-250000D01*
G01*
X116409000Y-103164000D01*
G75*
G02*
X116159000Y-103414000I-250000J0D01*
G01*
X115209000Y-103414000D01*
G75*
G02*
X114959000Y-103164000I0J250000D01*
G01*
X114959000Y-102664000D01*
G75*
G02*
X115209000Y-102414000I250000J0D01*
G01*
G37*
D15*
X84590000Y-98832500D03*
X84590000Y-98197500D03*
X84590000Y-97562500D03*
X84590000Y-96927500D03*
X84590000Y-96292500D03*
X84590000Y-95657500D03*
X84590000Y-95022500D03*
X84590000Y-94387500D03*
X89790000Y-94387500D03*
X89790000Y-95022500D03*
X89790000Y-95657500D03*
X89790000Y-96292500D03*
X89790000Y-96927500D03*
X89790000Y-97562500D03*
X89790000Y-98197500D03*
X89790000Y-98832500D03*
G36*
G01*
X86636250Y-91592500D02*
X85723750Y-91592500D01*
G75*
G02*
X85480000Y-91348750I0J243750D01*
G01*
X85480000Y-90861250D01*
G75*
G02*
X85723750Y-90617500I243750J0D01*
G01*
X86636250Y-90617500D01*
G75*
G02*
X86880000Y-90861250I0J-243750D01*
G01*
X86880000Y-91348750D01*
G75*
G02*
X86636250Y-91592500I-243750J0D01*
G01*
G37*
G36*
G01*
X86636250Y-93467500D02*
X85723750Y-93467500D01*
G75*
G02*
X85480000Y-93223750I0J243750D01*
G01*
X85480000Y-92736250D01*
G75*
G02*
X85723750Y-92492500I243750J0D01*
G01*
X86636250Y-92492500D01*
G75*
G02*
X86880000Y-92736250I0J-243750D01*
G01*
X86880000Y-93223750D01*
G75*
G02*
X86636250Y-93467500I-243750J0D01*
G01*
G37*
G36*
G01*
X88636250Y-91602500D02*
X87723750Y-91602500D01*
G75*
G02*
X87480000Y-91358750I0J243750D01*
G01*
X87480000Y-90871250D01*
G75*
G02*
X87723750Y-90627500I243750J0D01*
G01*
X88636250Y-90627500D01*
G75*
G02*
X88880000Y-90871250I0J-243750D01*
G01*
X88880000Y-91358750D01*
G75*
G02*
X88636250Y-91602500I-243750J0D01*
G01*
G37*
G36*
G01*
X88636250Y-93477500D02*
X87723750Y-93477500D01*
G75*
G02*
X87480000Y-93233750I0J243750D01*
G01*
X87480000Y-92746250D01*
G75*
G02*
X87723750Y-92502500I243750J0D01*
G01*
X88636250Y-92502500D01*
G75*
G02*
X88880000Y-92746250I0J-243750D01*
G01*
X88880000Y-93233750D01*
G75*
G02*
X88636250Y-93477500I-243750J0D01*
G01*
G37*
G36*
G01*
X91293750Y-97422500D02*
X92206250Y-97422500D01*
G75*
G02*
X92450000Y-97666250I0J-243750D01*
G01*
X92450000Y-98153750D01*
G75*
G02*
X92206250Y-98397500I-243750J0D01*
G01*
X91293750Y-98397500D01*
G75*
G02*
X91050000Y-98153750I0J243750D01*
G01*
X91050000Y-97666250D01*
G75*
G02*
X91293750Y-97422500I243750J0D01*
G01*
G37*
G36*
G01*
X91293750Y-95547500D02*
X92206250Y-95547500D01*
G75*
G02*
X92450000Y-95791250I0J-243750D01*
G01*
X92450000Y-96278750D01*
G75*
G02*
X92206250Y-96522500I-243750J0D01*
G01*
X91293750Y-96522500D01*
G75*
G02*
X91050000Y-96278750I0J243750D01*
G01*
X91050000Y-95791250D01*
G75*
G02*
X91293750Y-95547500I243750J0D01*
G01*
G37*
G36*
G01*
X80303750Y-97152500D02*
X81216250Y-97152500D01*
G75*
G02*
X81460000Y-97396250I0J-243750D01*
G01*
X81460000Y-97883750D01*
G75*
G02*
X81216250Y-98127500I-243750J0D01*
G01*
X80303750Y-98127500D01*
G75*
G02*
X80060000Y-97883750I0J243750D01*
G01*
X80060000Y-97396250D01*
G75*
G02*
X80303750Y-97152500I243750J0D01*
G01*
G37*
G36*
G01*
X80303750Y-95277500D02*
X81216250Y-95277500D01*
G75*
G02*
X81460000Y-95521250I0J-243750D01*
G01*
X81460000Y-96008750D01*
G75*
G02*
X81216250Y-96252500I-243750J0D01*
G01*
X80303750Y-96252500D01*
G75*
G02*
X80060000Y-96008750I0J243750D01*
G01*
X80060000Y-95521250D01*
G75*
G02*
X80303750Y-95277500I243750J0D01*
G01*
G37*
G36*
G01*
X82263750Y-97152500D02*
X83176250Y-97152500D01*
G75*
G02*
X83420000Y-97396250I0J-243750D01*
G01*
X83420000Y-97883750D01*
G75*
G02*
X83176250Y-98127500I-243750J0D01*
G01*
X82263750Y-98127500D01*
G75*
G02*
X82020000Y-97883750I0J243750D01*
G01*
X82020000Y-97396250D01*
G75*
G02*
X82263750Y-97152500I243750J0D01*
G01*
G37*
G36*
G01*
X82263750Y-95277500D02*
X83176250Y-95277500D01*
G75*
G02*
X83420000Y-95521250I0J-243750D01*
G01*
X83420000Y-96008750D01*
G75*
G02*
X83176250Y-96252500I-243750J0D01*
G01*
X82263750Y-96252500D01*
G75*
G02*
X82020000Y-96008750I0J243750D01*
G01*
X82020000Y-95521250D01*
G75*
G02*
X82263750Y-95277500I243750J0D01*
G01*
G37*
G36*
G01*
X83713750Y-92532500D02*
X84626250Y-92532500D01*
G75*
G02*
X84870000Y-92776250I0J-243750D01*
G01*
X84870000Y-93263750D01*
G75*
G02*
X84626250Y-93507500I-243750J0D01*
G01*
X83713750Y-93507500D01*
G75*
G02*
X83470000Y-93263750I0J243750D01*
G01*
X83470000Y-92776250D01*
G75*
G02*
X83713750Y-92532500I243750J0D01*
G01*
G37*
G36*
G01*
X83713750Y-90657500D02*
X84626250Y-90657500D01*
G75*
G02*
X84870000Y-90901250I0J-243750D01*
G01*
X84870000Y-91388750D01*
G75*
G02*
X84626250Y-91632500I-243750J0D01*
G01*
X83713750Y-91632500D01*
G75*
G02*
X83470000Y-91388750I0J243750D01*
G01*
X83470000Y-90901250D01*
G75*
G02*
X83713750Y-90657500I243750J0D01*
G01*
G37*
G36*
G01*
X90452500Y-90533750D02*
X90452500Y-91446250D01*
G75*
G02*
X90208750Y-91690000I-243750J0D01*
G01*
X89721250Y-91690000D01*
G75*
G02*
X89477500Y-91446250I0J243750D01*
G01*
X89477500Y-90533750D01*
G75*
G02*
X89721250Y-90290000I243750J0D01*
G01*
X90208750Y-90290000D01*
G75*
G02*
X90452500Y-90533750I0J-243750D01*
G01*
G37*
G36*
G01*
X92327500Y-90533750D02*
X92327500Y-91446250D01*
G75*
G02*
X92083750Y-91690000I-243750J0D01*
G01*
X91596250Y-91690000D01*
G75*
G02*
X91352500Y-91446250I0J243750D01*
G01*
X91352500Y-90533750D01*
G75*
G02*
X91596250Y-90290000I243750J0D01*
G01*
X92083750Y-90290000D01*
G75*
G02*
X92327500Y-90533750I0J-243750D01*
G01*
G37*
M02*
