G04 #@! TF.GenerationSoftware,KiCad,Pcbnew,5.1.10-88a1d61d58~90~ubuntu21.04.1*
G04 #@! TF.CreationDate,2021-07-27T13:19:27+03:00*
G04 #@! TF.ProjectId,klipper_nano,6b6c6970-7065-4725-9f6e-616e6f2e6b69,rev?*
G04 #@! TF.SameCoordinates,Original*
G04 #@! TF.FileFunction,Copper,L2,Bot*
G04 #@! TF.FilePolarity,Positive*
%FSLAX46Y46*%
G04 Gerber Fmt 4.6, Leading zero omitted, Abs format (unit mm)*
G04 Created by KiCad (PCBNEW 5.1.10-88a1d61d58~90~ubuntu21.04.1) date 2021-07-27 13:19:27*
%MOMM*%
%LPD*%
G01*
G04 APERTURE LIST*
G04 #@! TA.AperFunction,ComponentPad*
%ADD10C,1.600000*%
G04 #@! TD*
G04 #@! TA.AperFunction,ComponentPad*
%ADD11R,1.600000X1.500000*%
G04 #@! TD*
G04 #@! TA.AperFunction,ComponentPad*
%ADD12C,3.000000*%
G04 #@! TD*
G04 #@! TA.AperFunction,ComponentPad*
%ADD13C,1.700000*%
G04 #@! TD*
G04 #@! TA.AperFunction,ComponentPad*
%ADD14O,1.950000X1.700000*%
G04 #@! TD*
G04 #@! TA.AperFunction,ComponentPad*
%ADD15O,2.000000X1.700000*%
G04 #@! TD*
G04 #@! TA.AperFunction,ComponentPad*
%ADD16C,1.524000*%
G04 #@! TD*
G04 #@! TA.AperFunction,ComponentPad*
%ADD17O,1.600000X1.600000*%
G04 #@! TD*
G04 #@! TA.AperFunction,ComponentPad*
%ADD18R,1.600000X1.600000*%
G04 #@! TD*
G04 #@! TA.AperFunction,ViaPad*
%ADD19C,0.800000*%
G04 #@! TD*
G04 #@! TA.AperFunction,Conductor*
%ADD20C,2.000000*%
G04 #@! TD*
G04 #@! TA.AperFunction,Conductor*
%ADD21C,0.400000*%
G04 #@! TD*
G04 #@! TA.AperFunction,Conductor*
%ADD22C,0.500000*%
G04 #@! TD*
G04 #@! TA.AperFunction,Conductor*
%ADD23C,0.300000*%
G04 #@! TD*
G04 #@! TA.AperFunction,Conductor*
%ADD24C,0.800000*%
G04 #@! TD*
G04 #@! TA.AperFunction,Conductor*
%ADD25C,0.254000*%
G04 #@! TD*
G04 #@! TA.AperFunction,Conductor*
%ADD26C,0.100000*%
G04 #@! TD*
G04 APERTURE END LIST*
D10*
X113310000Y-110000000D03*
X110810000Y-110000000D03*
X108810000Y-110000000D03*
D11*
X106310000Y-110000000D03*
D12*
X116380000Y-112710000D03*
X103240000Y-112710000D03*
D13*
X74020000Y-59180000D03*
X74020000Y-56640000D03*
X74020000Y-54100000D03*
X74020000Y-51560000D03*
X71480000Y-59180000D03*
X71480000Y-56640000D03*
X71480000Y-54100000D03*
G04 #@! TA.AperFunction,ComponentPad*
G36*
G01*
X70630000Y-52160000D02*
X70630000Y-50960000D01*
G75*
G02*
X70880000Y-50710000I250000J0D01*
G01*
X72080000Y-50710000D01*
G75*
G02*
X72330000Y-50960000I0J-250000D01*
G01*
X72330000Y-52160000D01*
G75*
G02*
X72080000Y-52410000I-250000J0D01*
G01*
X70880000Y-52410000D01*
G75*
G02*
X70630000Y-52160000I0J250000D01*
G01*
G37*
G04 #@! TD.AperFunction*
D14*
X121940000Y-66660000D03*
X121940000Y-64160000D03*
G04 #@! TA.AperFunction,ComponentPad*
G36*
G01*
X121215000Y-60810000D02*
X122665000Y-60810000D01*
G75*
G02*
X122915000Y-61060000I0J-250000D01*
G01*
X122915000Y-62260000D01*
G75*
G02*
X122665000Y-62510000I-250000J0D01*
G01*
X121215000Y-62510000D01*
G75*
G02*
X120965000Y-62260000I0J250000D01*
G01*
X120965000Y-61060000D01*
G75*
G02*
X121215000Y-60810000I250000J0D01*
G01*
G37*
G04 #@! TD.AperFunction*
D10*
X89290000Y-110000000D03*
X86790000Y-110000000D03*
X84790000Y-110000000D03*
D11*
X82290000Y-110000000D03*
D12*
X92360000Y-112710000D03*
X79220000Y-112710000D03*
D15*
X121940000Y-55550000D03*
G04 #@! TA.AperFunction,ComponentPad*
G36*
G01*
X121190000Y-52200000D02*
X122690000Y-52200000D01*
G75*
G02*
X122940000Y-52450000I0J-250000D01*
G01*
X122940000Y-53650000D01*
G75*
G02*
X122690000Y-53900000I-250000J0D01*
G01*
X121190000Y-53900000D01*
G75*
G02*
X120940000Y-53650000I0J250000D01*
G01*
X120940000Y-52450000D01*
G75*
G02*
X121190000Y-52200000I250000J0D01*
G01*
G37*
G04 #@! TD.AperFunction*
D16*
X107844999Y-69878999D03*
X105304999Y-69878999D03*
X102764999Y-69878999D03*
X100224999Y-69878999D03*
X97684999Y-69878999D03*
X95144999Y-69878999D03*
X92604999Y-69878999D03*
X90064999Y-69878999D03*
X87524999Y-69878999D03*
X84984999Y-69878999D03*
X82444999Y-69878999D03*
X79904999Y-69878999D03*
X107844999Y-67338999D03*
X105304999Y-67338999D03*
X102764999Y-67338999D03*
X100224999Y-67338999D03*
X97684999Y-67338999D03*
X95144999Y-67338999D03*
X92604999Y-67338999D03*
X90064999Y-67338999D03*
X87524999Y-67338999D03*
X84984999Y-67338999D03*
X82444999Y-67338999D03*
X79904999Y-67338999D03*
X97684999Y-102298999D03*
X95144999Y-102298999D03*
X92604999Y-102298999D03*
X90064999Y-102298999D03*
X87524999Y-102298999D03*
X84984999Y-102298999D03*
X82444999Y-102298999D03*
X79904999Y-102298999D03*
X107844999Y-104838999D03*
X105304999Y-104838999D03*
X102764999Y-104838999D03*
X100224999Y-104838999D03*
X97684999Y-104838999D03*
X95144999Y-104838999D03*
X92604999Y-104838999D03*
X90064999Y-104838999D03*
X87524999Y-104838999D03*
X84984999Y-104838999D03*
X82444999Y-104838999D03*
X79904999Y-104838999D03*
D14*
X121940000Y-80280000D03*
X121940000Y-77780000D03*
X121940000Y-75280000D03*
G04 #@! TA.AperFunction,ComponentPad*
G36*
G01*
X121215000Y-71930000D02*
X122665000Y-71930000D01*
G75*
G02*
X122915000Y-72180000I0J-250000D01*
G01*
X122915000Y-73380000D01*
G75*
G02*
X122665000Y-73630000I-250000J0D01*
G01*
X121215000Y-73630000D01*
G75*
G02*
X120965000Y-73380000I0J250000D01*
G01*
X120965000Y-72180000D01*
G75*
G02*
X121215000Y-71930000I250000J0D01*
G01*
G37*
G04 #@! TD.AperFunction*
D17*
X109514000Y-96662000D03*
X101894000Y-99202000D03*
X109514000Y-99202000D03*
D18*
X101894000Y-96662000D03*
D14*
X121940000Y-105050000D03*
X121940000Y-102550000D03*
G04 #@! TA.AperFunction,ComponentPad*
G36*
G01*
X121215000Y-99200000D02*
X122665000Y-99200000D01*
G75*
G02*
X122915000Y-99450000I0J-250000D01*
G01*
X122915000Y-100650000D01*
G75*
G02*
X122665000Y-100900000I-250000J0D01*
G01*
X121215000Y-100900000D01*
G75*
G02*
X120965000Y-100650000I0J250000D01*
G01*
X120965000Y-99450000D01*
G75*
G02*
X121215000Y-99200000I250000J0D01*
G01*
G37*
G04 #@! TD.AperFunction*
X121940000Y-93920000D03*
X121940000Y-91420000D03*
X121940000Y-88920000D03*
G04 #@! TA.AperFunction,ComponentPad*
G36*
G01*
X121215000Y-85570000D02*
X122665000Y-85570000D01*
G75*
G02*
X122915000Y-85820000I0J-250000D01*
G01*
X122915000Y-87020000D01*
G75*
G02*
X122665000Y-87270000I-250000J0D01*
G01*
X121215000Y-87270000D01*
G75*
G02*
X120965000Y-87020000I0J250000D01*
G01*
X120965000Y-85820000D01*
G75*
G02*
X121215000Y-85570000I250000J0D01*
G01*
G37*
G04 #@! TD.AperFunction*
D19*
X108440000Y-43760000D03*
X99300000Y-43620000D03*
X110820000Y-37880000D03*
X78440000Y-92090000D03*
X92430000Y-44010000D03*
X94780000Y-43260000D03*
X116190000Y-38150000D03*
X109130000Y-63030000D03*
X109040000Y-55440000D03*
X109040000Y-58050000D03*
X109140000Y-60750000D03*
X111680000Y-55460000D03*
X111580000Y-57790000D03*
X111680000Y-60510000D03*
X90080000Y-75710000D03*
X92430000Y-75670000D03*
X90220000Y-78590000D03*
X92410000Y-78510000D03*
X97320000Y-74940000D03*
X99880000Y-74960000D03*
X102480000Y-74860000D03*
X106030000Y-74880000D03*
X100020000Y-78830000D03*
X102500000Y-78810000D03*
X105950000Y-78940000D03*
X82650000Y-73780000D03*
X84580000Y-75710000D03*
X80550000Y-75130000D03*
X82710000Y-77440000D03*
X85970000Y-78720000D03*
X85910000Y-81400000D03*
X90150000Y-81920000D03*
X90050000Y-73500000D03*
X85300000Y-73460000D03*
X97490000Y-63100000D03*
X95940000Y-37840000D03*
X99320000Y-37840000D03*
X103530000Y-37900000D03*
X107400000Y-37880000D03*
X87640000Y-64370000D03*
X91330000Y-63160000D03*
X91300000Y-64880000D03*
X91540000Y-57840000D03*
X91540000Y-60650000D03*
X96810000Y-58220000D03*
X96810000Y-60310000D03*
X94090000Y-64940000D03*
X96510000Y-64940000D03*
X69130000Y-68690000D03*
X71860000Y-68780000D03*
X75040000Y-68780000D03*
X111980000Y-86100000D03*
X110110000Y-72200000D03*
X112880000Y-72270000D03*
X115960000Y-72240000D03*
X110240000Y-78880000D03*
X106070000Y-82540000D03*
X110360000Y-83080000D03*
X114880000Y-79970000D03*
X114850000Y-83050000D03*
X114960000Y-76550000D03*
X117470000Y-79950000D03*
X117470000Y-76610000D03*
X99590000Y-81530000D03*
X101760000Y-83520000D03*
X104490000Y-86230000D03*
X97160000Y-83990000D03*
X99180000Y-86080000D03*
X102060000Y-88920000D03*
X68900000Y-36440000D03*
X78080000Y-43110000D03*
X76910000Y-44450000D03*
X68830000Y-44770000D03*
X68620000Y-41160000D03*
X78680000Y-39240000D03*
X97740000Y-111930000D03*
X84120000Y-36400000D03*
X85860000Y-36400000D03*
X88240000Y-36400000D03*
X98255007Y-122325007D03*
X85070000Y-96630000D03*
X79440000Y-88480000D03*
X95790000Y-81060000D03*
X95790000Y-77700000D03*
X84140000Y-47100000D03*
X94390000Y-37850000D03*
X79904999Y-57735001D03*
X97500000Y-51060000D03*
X107430000Y-50910000D03*
X88130000Y-50950000D03*
X81410000Y-44440000D03*
X84428000Y-44678000D03*
X80820000Y-55380000D03*
X83607000Y-61967000D03*
X82765000Y-65075000D03*
X107550000Y-52130000D03*
X88850001Y-52429999D03*
X80760000Y-58460000D03*
X79640000Y-72120000D03*
X82410000Y-72150000D03*
X86730000Y-37970000D03*
X86100000Y-71350000D03*
X78000000Y-53840000D03*
X93510000Y-41800000D03*
X87524999Y-62034999D03*
X80704999Y-56770000D03*
X102440000Y-53310000D03*
X96115000Y-53345000D03*
X88553000Y-83807000D03*
X87900000Y-53410000D03*
X114050000Y-52960000D03*
X107850000Y-86160000D03*
X111510000Y-76790000D03*
X86550000Y-60790000D03*
X90420000Y-43030000D03*
X80750000Y-50040000D03*
X84580000Y-62630000D03*
X91660000Y-41600000D03*
X97160000Y-56390000D03*
X102090000Y-49700000D03*
X103420000Y-43160000D03*
X112840000Y-91080000D03*
X112810000Y-89840000D03*
X100260000Y-114800000D03*
X100850000Y-110050000D03*
X95350000Y-115030000D03*
X94810000Y-110015000D03*
D20*
X105304999Y-67338999D02*
X107844999Y-67338999D01*
X125874990Y-38144990D02*
X123675281Y-35945280D01*
X123675281Y-35945280D02*
X84383498Y-35946502D01*
X125874990Y-60520000D02*
X125874990Y-57165010D01*
X125874990Y-64794990D02*
X125874990Y-60520000D01*
X121261001Y-67338999D02*
X121940000Y-66660000D01*
X107844999Y-67338999D02*
X121261001Y-67338999D01*
X121940000Y-66660000D02*
X125800000Y-66660000D01*
X125800000Y-66660000D02*
X125874990Y-66585010D01*
X125874990Y-66585010D02*
X125874990Y-64794990D01*
X125874990Y-53105010D02*
X121995010Y-53105010D01*
X125874990Y-57165010D02*
X125874990Y-53105010D01*
X121995010Y-53105010D02*
X121940000Y-53050000D01*
X125874990Y-53105010D02*
X125874990Y-38144990D01*
X84335000Y-122325000D02*
X82290000Y-120280000D01*
X125874312Y-122101885D02*
X125838115Y-122101885D01*
X125875026Y-122073727D02*
X125874312Y-122101885D01*
X125838115Y-122101885D02*
X125614976Y-122325023D01*
X125881091Y-69961092D02*
X125875026Y-122073727D01*
X82290000Y-120280000D02*
X82290000Y-110000000D01*
X125874990Y-69954990D02*
X125881091Y-69961092D01*
X125874990Y-66585010D02*
X125874990Y-69954990D01*
X106310000Y-121020000D02*
X107615012Y-122325012D01*
X106310000Y-110000000D02*
X106310000Y-121020000D01*
X125614976Y-122325023D02*
X107615012Y-122325012D01*
X98255007Y-122325007D02*
X84335000Y-122325000D01*
X107615012Y-122325012D02*
X98255007Y-122325007D01*
D21*
X79440000Y-91000000D02*
X79440000Y-88480000D01*
X85070000Y-96630000D02*
X79440000Y-91000000D01*
X95790000Y-81060000D02*
X95790000Y-77700000D01*
X80860000Y-47100000D02*
X84140000Y-47100000D01*
X79904999Y-48055001D02*
X80860000Y-47100000D01*
X84140000Y-47100000D02*
X85730000Y-47100000D01*
X85730000Y-47100000D02*
X87870000Y-44960000D01*
X87870000Y-44960000D02*
X87870000Y-38850000D01*
X88870000Y-37850000D02*
X94390000Y-37850000D01*
X87870000Y-38850000D02*
X88870000Y-37850000D01*
X79904999Y-57735001D02*
X79904999Y-48055001D01*
X79904999Y-67338999D02*
X79904999Y-57735001D01*
X97390000Y-50950000D02*
X97500000Y-51060000D01*
X88130000Y-50950000D02*
X97390000Y-50950000D01*
X107280000Y-51060000D02*
X107430000Y-50910000D01*
X97500000Y-51060000D02*
X107280000Y-51060000D01*
D22*
X84190000Y-44440000D02*
X84428000Y-44678000D01*
X81410000Y-44440000D02*
X84190000Y-44440000D01*
D21*
X83607000Y-58167000D02*
X83607000Y-61967000D01*
X80820000Y-55380000D02*
X83607000Y-58167000D01*
X83607000Y-65917000D02*
X82765000Y-65075000D01*
X83607000Y-68501000D02*
X83607000Y-65917000D01*
X84984999Y-69878999D02*
X83607000Y-68501000D01*
X89150000Y-52130000D02*
X88850001Y-52429999D01*
X107550000Y-52130000D02*
X89150000Y-52130000D01*
D22*
X80760000Y-58460000D02*
X80760000Y-63050000D01*
X82765000Y-65055000D02*
X82765000Y-65075000D01*
X80760000Y-63050000D02*
X82765000Y-65055000D01*
D21*
X82380000Y-72120000D02*
X82410000Y-72150000D01*
X79640000Y-72120000D02*
X82380000Y-72120000D01*
D23*
X86730000Y-37970000D02*
X86730000Y-43890000D01*
X86730000Y-43890000D02*
X86730000Y-44700000D01*
X86730000Y-44700000D02*
X85570000Y-45860000D01*
X85570000Y-45860000D02*
X80350000Y-45860000D01*
X80350000Y-45860000D02*
X78000000Y-48210000D01*
X78840000Y-71350000D02*
X86100000Y-71350000D01*
X78000000Y-70510000D02*
X78840000Y-71350000D01*
X78000000Y-53840000D02*
X78000000Y-70510000D01*
X78000000Y-48210000D02*
X78000000Y-53840000D01*
D21*
X87524999Y-55264999D02*
X86880000Y-54620000D01*
X86880000Y-54620000D02*
X86880000Y-50490000D01*
X86880000Y-50490000D02*
X87920000Y-49450000D01*
X87920000Y-49450000D02*
X92040000Y-49450000D01*
X93510000Y-47980000D02*
X93510000Y-41800000D01*
X92040000Y-49450000D02*
X93510000Y-47980000D01*
X87524999Y-62034999D02*
X87524999Y-55264999D01*
X80704999Y-56770000D02*
X82200000Y-58265001D01*
X82200000Y-58265001D02*
X82200000Y-62510000D01*
X82200000Y-62510000D02*
X84310000Y-64620000D01*
X84310000Y-64620000D02*
X85820000Y-64620000D01*
X87524999Y-66324999D02*
X87524999Y-67338999D01*
X85820000Y-64620000D02*
X87524999Y-66324999D01*
D24*
X87524999Y-82778999D02*
X88553000Y-83807000D01*
X87524999Y-69878999D02*
X87524999Y-82778999D01*
D22*
X113700000Y-53310000D02*
X114050000Y-52960000D01*
X102440000Y-53310000D02*
X113700000Y-53310000D01*
X102405000Y-53345000D02*
X102440000Y-53310000D01*
X96115000Y-53345000D02*
X102405000Y-53345000D01*
X96050000Y-53410000D02*
X96115000Y-53345000D01*
X87900000Y-53410000D02*
X96050000Y-53410000D01*
X107844999Y-86154999D02*
X107850000Y-86160000D01*
X107844999Y-69878999D02*
X107844999Y-86154999D01*
D21*
X113020000Y-75280000D02*
X111510000Y-76790000D01*
X121940000Y-75280000D02*
X113020000Y-75280000D01*
X86550000Y-60790000D02*
X86550000Y-55830000D01*
X86550000Y-55830000D02*
X85960000Y-55240000D01*
X85960000Y-55240000D02*
X85960000Y-50060000D01*
X85960000Y-50060000D02*
X90420000Y-45600000D01*
X90420000Y-45600000D02*
X90420000Y-43030000D01*
X80750000Y-50040000D02*
X80750000Y-52930000D01*
X84580000Y-56828542D02*
X84580000Y-62630000D01*
X80750000Y-52998542D02*
X84580000Y-56828542D01*
X80750000Y-52930000D02*
X80750000Y-52998542D01*
X91660000Y-41600000D02*
X90380000Y-41600000D01*
X90380000Y-41600000D02*
X89210000Y-42770000D01*
X89210000Y-42770000D02*
X89210000Y-45130000D01*
X89210000Y-45130000D02*
X84930000Y-49410000D01*
X84930000Y-49410000D02*
X84930000Y-56330000D01*
X84930000Y-56330000D02*
X85380000Y-56780000D01*
X85380000Y-56780000D02*
X85380000Y-61930000D01*
X85380000Y-61930000D02*
X86680000Y-63230000D01*
X86680000Y-63230000D02*
X88970000Y-63230000D01*
X88970000Y-63230000D02*
X90360000Y-61840000D01*
X90360000Y-61840000D02*
X90360000Y-57240000D01*
X91210000Y-56390000D02*
X97160000Y-56390000D01*
X90360000Y-57240000D02*
X91210000Y-56390000D01*
D23*
X102090000Y-44490000D02*
X103420000Y-43160000D01*
X102090000Y-49700000D02*
X102090000Y-44490000D01*
D21*
X113180000Y-91420000D02*
X112840000Y-91080000D01*
X121940000Y-91420000D02*
X113180000Y-91420000D01*
X121940000Y-88920000D02*
X120000000Y-88920000D01*
X119080000Y-89840000D02*
X112810000Y-89840000D01*
X120000000Y-88920000D02*
X119080000Y-89840000D01*
D23*
X100850000Y-114210000D02*
X100850000Y-110050000D01*
X100260000Y-114800000D02*
X100850000Y-114210000D01*
X94810000Y-114490000D02*
X94810000Y-110015000D01*
X95350000Y-115030000D02*
X94810000Y-114490000D01*
D25*
X82772146Y-35626037D02*
X82740588Y-35946553D01*
X82772165Y-36267068D01*
X82865666Y-36575264D01*
X83017496Y-36859296D01*
X83221821Y-37108252D01*
X83470789Y-37312561D01*
X83754831Y-37464373D01*
X84063033Y-37557854D01*
X84303227Y-37581504D01*
X85770663Y-37581458D01*
X85734774Y-37668102D01*
X85695000Y-37868061D01*
X85695000Y-38071939D01*
X85734774Y-38271898D01*
X85812795Y-38460256D01*
X85926063Y-38629774D01*
X85945000Y-38648711D01*
X85945001Y-43851430D01*
X85945000Y-43851440D01*
X85945000Y-44374843D01*
X85443905Y-44875938D01*
X85463000Y-44779939D01*
X85463000Y-44576061D01*
X85423226Y-44376102D01*
X85345205Y-44187744D01*
X85231937Y-44018226D01*
X85087774Y-43874063D01*
X84918256Y-43760795D01*
X84729898Y-43682774D01*
X84603805Y-43657693D01*
X84530313Y-43618411D01*
X84363490Y-43567805D01*
X84233477Y-43555000D01*
X84233469Y-43555000D01*
X84190000Y-43550719D01*
X84146531Y-43555000D01*
X81948454Y-43555000D01*
X81900256Y-43522795D01*
X81711898Y-43444774D01*
X81511939Y-43405000D01*
X81308061Y-43405000D01*
X81108102Y-43444774D01*
X80919744Y-43522795D01*
X80750226Y-43636063D01*
X80606063Y-43780226D01*
X80492795Y-43949744D01*
X80414774Y-44138102D01*
X80375000Y-44338061D01*
X80375000Y-44541939D01*
X80414774Y-44741898D01*
X80492795Y-44930256D01*
X80589510Y-45075000D01*
X80388556Y-45075000D01*
X80350000Y-45071203D01*
X80311444Y-45075000D01*
X80311439Y-45075000D01*
X80271026Y-45078980D01*
X80196113Y-45086358D01*
X80073055Y-45123688D01*
X80048140Y-45131246D01*
X79911767Y-45204138D01*
X79792236Y-45302236D01*
X79767655Y-45332188D01*
X77472190Y-47627653D01*
X77442236Y-47652236D01*
X77344138Y-47771768D01*
X77271246Y-47908141D01*
X77226359Y-48056114D01*
X77215000Y-48171440D01*
X77215000Y-48171447D01*
X77211203Y-48210000D01*
X77215000Y-48248553D01*
X77215001Y-53161288D01*
X77196063Y-53180226D01*
X77082795Y-53349744D01*
X77004774Y-53538102D01*
X76965000Y-53738061D01*
X76965000Y-53941939D01*
X77004774Y-54141898D01*
X77082795Y-54330256D01*
X77196063Y-54499774D01*
X77215000Y-54518711D01*
X77215001Y-70471437D01*
X77211203Y-70510000D01*
X77226359Y-70663886D01*
X77271246Y-70811859D01*
X77288727Y-70844564D01*
X77344139Y-70948233D01*
X77384690Y-70997644D01*
X77417655Y-71037812D01*
X77417659Y-71037816D01*
X77442237Y-71067764D01*
X77472185Y-71092342D01*
X78257657Y-71877815D01*
X78282236Y-71907764D01*
X78312184Y-71932342D01*
X78312187Y-71932345D01*
X78341390Y-71956311D01*
X78401767Y-72005862D01*
X78538140Y-72078754D01*
X78605000Y-72099036D01*
X78605000Y-72221939D01*
X78644774Y-72421898D01*
X78722795Y-72610256D01*
X78836063Y-72779774D01*
X78980226Y-72923937D01*
X79149744Y-73037205D01*
X79338102Y-73115226D01*
X79538061Y-73155000D01*
X79741939Y-73155000D01*
X79941898Y-73115226D01*
X80130256Y-73037205D01*
X80253285Y-72955000D01*
X81751817Y-72955000D01*
X81919744Y-73067205D01*
X82108102Y-73145226D01*
X82308061Y-73185000D01*
X82511939Y-73185000D01*
X82711898Y-73145226D01*
X82900256Y-73067205D01*
X83069774Y-72953937D01*
X83213937Y-72809774D01*
X83327205Y-72640256D01*
X83405226Y-72451898D01*
X83445000Y-72251939D01*
X83445000Y-72135000D01*
X85421289Y-72135000D01*
X85440226Y-72153937D01*
X85609744Y-72267205D01*
X85798102Y-72345226D01*
X85998061Y-72385000D01*
X86201939Y-72385000D01*
X86401898Y-72345226D01*
X86489999Y-72308733D01*
X86490000Y-82728161D01*
X86484993Y-82778999D01*
X86504976Y-82981894D01*
X86564159Y-83176992D01*
X86660265Y-83356796D01*
X86757196Y-83474906D01*
X86789604Y-83514395D01*
X86829091Y-83546801D01*
X87749063Y-84466774D01*
X87893226Y-84610937D01*
X87935712Y-84639325D01*
X87975202Y-84671734D01*
X88020256Y-84695816D01*
X88062744Y-84724205D01*
X88109959Y-84743762D01*
X88155006Y-84767840D01*
X88203881Y-84782666D01*
X88251102Y-84802226D01*
X88301229Y-84812197D01*
X88350104Y-84827023D01*
X88400936Y-84832030D01*
X88451061Y-84842000D01*
X88502164Y-84842000D01*
X88553000Y-84847007D01*
X88603835Y-84842000D01*
X88654939Y-84842000D01*
X88705064Y-84832030D01*
X88755895Y-84827023D01*
X88804768Y-84812197D01*
X88854898Y-84802226D01*
X88902122Y-84782665D01*
X88950993Y-84767840D01*
X88996036Y-84743764D01*
X89043256Y-84724205D01*
X89085748Y-84695813D01*
X89130797Y-84671734D01*
X89170284Y-84639328D01*
X89212774Y-84610937D01*
X89248908Y-84574803D01*
X89288396Y-84542396D01*
X89320803Y-84502908D01*
X89356937Y-84466774D01*
X89385328Y-84424284D01*
X89417734Y-84384797D01*
X89441813Y-84339748D01*
X89470205Y-84297256D01*
X89489764Y-84250036D01*
X89513840Y-84204993D01*
X89528665Y-84156122D01*
X89548226Y-84108898D01*
X89558197Y-84058768D01*
X89573023Y-84009895D01*
X89578030Y-83959064D01*
X89588000Y-83908939D01*
X89588000Y-83857835D01*
X89593007Y-83807000D01*
X89588000Y-83756164D01*
X89588000Y-83705061D01*
X89578030Y-83654936D01*
X89573023Y-83604104D01*
X89558197Y-83555229D01*
X89548226Y-83505102D01*
X89528666Y-83457881D01*
X89513840Y-83409006D01*
X89489762Y-83363959D01*
X89470205Y-83316744D01*
X89441816Y-83274256D01*
X89417734Y-83229202D01*
X89385325Y-83189712D01*
X89356937Y-83147226D01*
X89212774Y-83003063D01*
X88559999Y-82350289D01*
X88559999Y-77598061D01*
X94755000Y-77598061D01*
X94755000Y-77801939D01*
X94794774Y-78001898D01*
X94872795Y-78190256D01*
X94955001Y-78313286D01*
X94955000Y-80446715D01*
X94872795Y-80569744D01*
X94794774Y-80758102D01*
X94755000Y-80958061D01*
X94755000Y-81161939D01*
X94794774Y-81361898D01*
X94872795Y-81550256D01*
X94986063Y-81719774D01*
X95130226Y-81863937D01*
X95299744Y-81977205D01*
X95488102Y-82055226D01*
X95688061Y-82095000D01*
X95891939Y-82095000D01*
X96091898Y-82055226D01*
X96280256Y-81977205D01*
X96449774Y-81863937D01*
X96593937Y-81719774D01*
X96707205Y-81550256D01*
X96785226Y-81361898D01*
X96825000Y-81161939D01*
X96825000Y-80958061D01*
X96785226Y-80758102D01*
X96707205Y-80569744D01*
X96625000Y-80446715D01*
X96625000Y-78313285D01*
X96707205Y-78190256D01*
X96785226Y-78001898D01*
X96825000Y-77801939D01*
X96825000Y-77598061D01*
X96785226Y-77398102D01*
X96707205Y-77209744D01*
X96593937Y-77040226D01*
X96449774Y-76896063D01*
X96280256Y-76782795D01*
X96091898Y-76704774D01*
X95891939Y-76665000D01*
X95688061Y-76665000D01*
X95488102Y-76704774D01*
X95299744Y-76782795D01*
X95130226Y-76896063D01*
X94986063Y-77040226D01*
X94872795Y-77209744D01*
X94794774Y-77398102D01*
X94755000Y-77598061D01*
X88559999Y-77598061D01*
X88559999Y-70819654D01*
X88610119Y-70769534D01*
X88763004Y-70540726D01*
X88794999Y-70463484D01*
X88826994Y-70540726D01*
X88979879Y-70769534D01*
X89174464Y-70964119D01*
X89403272Y-71117004D01*
X89657509Y-71222313D01*
X89927407Y-71275999D01*
X90202591Y-71275999D01*
X90472489Y-71222313D01*
X90726726Y-71117004D01*
X90955534Y-70964119D01*
X91150119Y-70769534D01*
X91303004Y-70540726D01*
X91334999Y-70463484D01*
X91366994Y-70540726D01*
X91519879Y-70769534D01*
X91714464Y-70964119D01*
X91943272Y-71117004D01*
X92197509Y-71222313D01*
X92467407Y-71275999D01*
X92742591Y-71275999D01*
X93012489Y-71222313D01*
X93266726Y-71117004D01*
X93495534Y-70964119D01*
X93690119Y-70769534D01*
X93843004Y-70540726D01*
X93874999Y-70463484D01*
X93906994Y-70540726D01*
X94059879Y-70769534D01*
X94254464Y-70964119D01*
X94483272Y-71117004D01*
X94737509Y-71222313D01*
X95007407Y-71275999D01*
X95282591Y-71275999D01*
X95552489Y-71222313D01*
X95806726Y-71117004D01*
X96035534Y-70964119D01*
X96155089Y-70844564D01*
X96899039Y-70844564D01*
X96966019Y-71084655D01*
X97215047Y-71201755D01*
X97482134Y-71268022D01*
X97757016Y-71280909D01*
X98029132Y-71239921D01*
X98288022Y-71146635D01*
X98403979Y-71084655D01*
X98470959Y-70844564D01*
X97684999Y-70058604D01*
X96899039Y-70844564D01*
X96155089Y-70844564D01*
X96230119Y-70769534D01*
X96383004Y-70540726D01*
X96412691Y-70469056D01*
X96417363Y-70482022D01*
X96479343Y-70597979D01*
X96719434Y-70664959D01*
X97505394Y-69878999D01*
X96719434Y-69093039D01*
X96479343Y-69160019D01*
X96415514Y-69295759D01*
X96383004Y-69217272D01*
X96230119Y-68988464D01*
X96035534Y-68793879D01*
X95806726Y-68640994D01*
X95729484Y-68608999D01*
X95806726Y-68577004D01*
X96035534Y-68424119D01*
X96230119Y-68229534D01*
X96383004Y-68000726D01*
X96414999Y-67923484D01*
X96446994Y-68000726D01*
X96599879Y-68229534D01*
X96794464Y-68424119D01*
X97023272Y-68577004D01*
X97094942Y-68606691D01*
X97081976Y-68611363D01*
X96966019Y-68673343D01*
X96899039Y-68913434D01*
X97684999Y-69699394D01*
X98470959Y-68913434D01*
X98403979Y-68673343D01*
X98268239Y-68609514D01*
X98346726Y-68577004D01*
X98575534Y-68424119D01*
X98770119Y-68229534D01*
X98923004Y-68000726D01*
X98954999Y-67923484D01*
X98986994Y-68000726D01*
X99139879Y-68229534D01*
X99334464Y-68424119D01*
X99563272Y-68577004D01*
X99640514Y-68608999D01*
X99563272Y-68640994D01*
X99334464Y-68793879D01*
X99139879Y-68988464D01*
X98986994Y-69217272D01*
X98957307Y-69288942D01*
X98952635Y-69275976D01*
X98890655Y-69160019D01*
X98650564Y-69093039D01*
X97864604Y-69878999D01*
X98650564Y-70664959D01*
X98890655Y-70597979D01*
X98954484Y-70462239D01*
X98986994Y-70540726D01*
X99139879Y-70769534D01*
X99334464Y-70964119D01*
X99563272Y-71117004D01*
X99817509Y-71222313D01*
X100087407Y-71275999D01*
X100362591Y-71275999D01*
X100632489Y-71222313D01*
X100886726Y-71117004D01*
X101115534Y-70964119D01*
X101310119Y-70769534D01*
X101463004Y-70540726D01*
X101494999Y-70463484D01*
X101526994Y-70540726D01*
X101679879Y-70769534D01*
X101874464Y-70964119D01*
X102103272Y-71117004D01*
X102357509Y-71222313D01*
X102627407Y-71275999D01*
X102902591Y-71275999D01*
X103172489Y-71222313D01*
X103426726Y-71117004D01*
X103655534Y-70964119D01*
X103850119Y-70769534D01*
X104003004Y-70540726D01*
X104034999Y-70463484D01*
X104066994Y-70540726D01*
X104219879Y-70769534D01*
X104414464Y-70964119D01*
X104643272Y-71117004D01*
X104897509Y-71222313D01*
X105167407Y-71275999D01*
X105442591Y-71275999D01*
X105712489Y-71222313D01*
X105966726Y-71117004D01*
X106195534Y-70964119D01*
X106390119Y-70769534D01*
X106543004Y-70540726D01*
X106574999Y-70463484D01*
X106606994Y-70540726D01*
X106759879Y-70769534D01*
X106954464Y-70964119D01*
X106959999Y-70967817D01*
X106960000Y-85629029D01*
X106932795Y-85669744D01*
X106854774Y-85858102D01*
X106815000Y-86058061D01*
X106815000Y-86261939D01*
X106854774Y-86461898D01*
X106932795Y-86650256D01*
X107046063Y-86819774D01*
X107190226Y-86963937D01*
X107359744Y-87077205D01*
X107548102Y-87155226D01*
X107748061Y-87195000D01*
X107951939Y-87195000D01*
X108151898Y-87155226D01*
X108340256Y-87077205D01*
X108509774Y-86963937D01*
X108653937Y-86819774D01*
X108767205Y-86650256D01*
X108845226Y-86461898D01*
X108885000Y-86261939D01*
X108885000Y-86058061D01*
X108845226Y-85858102D01*
X108767205Y-85669744D01*
X108729999Y-85614061D01*
X108729999Y-80636890D01*
X120373524Y-80636890D01*
X120465648Y-80899858D01*
X120612504Y-81151193D01*
X120805571Y-81369049D01*
X121037430Y-81545053D01*
X121299170Y-81672442D01*
X121580733Y-81746320D01*
X121813000Y-81606165D01*
X121813000Y-80407000D01*
X122067000Y-80407000D01*
X122067000Y-81606165D01*
X122299267Y-81746320D01*
X122580830Y-81672442D01*
X122842570Y-81545053D01*
X123074429Y-81369049D01*
X123267496Y-81151193D01*
X123414352Y-80899858D01*
X123506476Y-80636890D01*
X123385155Y-80407000D01*
X122067000Y-80407000D01*
X121813000Y-80407000D01*
X120494845Y-80407000D01*
X120373524Y-80636890D01*
X108729999Y-80636890D01*
X108729999Y-76688061D01*
X110475000Y-76688061D01*
X110475000Y-76891939D01*
X110514774Y-77091898D01*
X110592795Y-77280256D01*
X110706063Y-77449774D01*
X110850226Y-77593937D01*
X111019744Y-77707205D01*
X111208102Y-77785226D01*
X111408061Y-77825000D01*
X111611939Y-77825000D01*
X111811898Y-77785226D01*
X112000256Y-77707205D01*
X112169774Y-77593937D01*
X112313937Y-77449774D01*
X112427205Y-77280256D01*
X112505226Y-77091898D01*
X112534093Y-76946775D01*
X113365868Y-76115000D01*
X120579207Y-76115000D01*
X120759866Y-76335134D01*
X120985986Y-76520706D01*
X121003374Y-76530000D01*
X120985986Y-76539294D01*
X120759866Y-76724866D01*
X120574294Y-76950986D01*
X120436401Y-77208966D01*
X120351487Y-77488889D01*
X120322815Y-77780000D01*
X120351487Y-78071111D01*
X120436401Y-78351034D01*
X120574294Y-78609014D01*
X120759866Y-78835134D01*
X120985986Y-79020706D01*
X121011722Y-79034462D01*
X120805571Y-79190951D01*
X120612504Y-79408807D01*
X120465648Y-79660142D01*
X120373524Y-79923110D01*
X120494845Y-80153000D01*
X121813000Y-80153000D01*
X121813000Y-80133000D01*
X122067000Y-80133000D01*
X122067000Y-80153000D01*
X123385155Y-80153000D01*
X123506476Y-79923110D01*
X123414352Y-79660142D01*
X123267496Y-79408807D01*
X123074429Y-79190951D01*
X122868278Y-79034462D01*
X122894014Y-79020706D01*
X123120134Y-78835134D01*
X123305706Y-78609014D01*
X123443599Y-78351034D01*
X123528513Y-78071111D01*
X123557185Y-77780000D01*
X123528513Y-77488889D01*
X123443599Y-77208966D01*
X123305706Y-76950986D01*
X123120134Y-76724866D01*
X122894014Y-76539294D01*
X122876626Y-76530000D01*
X122894014Y-76520706D01*
X123120134Y-76335134D01*
X123305706Y-76109014D01*
X123443599Y-75851034D01*
X123528513Y-75571111D01*
X123557185Y-75280000D01*
X123528513Y-74988889D01*
X123443599Y-74708966D01*
X123305706Y-74450986D01*
X123120134Y-74224866D01*
X123056663Y-74172777D01*
X123158386Y-74118405D01*
X123292962Y-74007962D01*
X123403405Y-73873386D01*
X123485472Y-73719850D01*
X123536008Y-73553254D01*
X123553072Y-73380000D01*
X123553072Y-72180000D01*
X123536008Y-72006746D01*
X123485472Y-71840150D01*
X123403405Y-71686614D01*
X123292962Y-71552038D01*
X123158386Y-71441595D01*
X123004850Y-71359528D01*
X122838254Y-71308992D01*
X122665000Y-71291928D01*
X121215000Y-71291928D01*
X121041746Y-71308992D01*
X120875150Y-71359528D01*
X120721614Y-71441595D01*
X120587038Y-71552038D01*
X120476595Y-71686614D01*
X120394528Y-71840150D01*
X120343992Y-72006746D01*
X120326928Y-72180000D01*
X120326928Y-73380000D01*
X120343992Y-73553254D01*
X120394528Y-73719850D01*
X120476595Y-73873386D01*
X120587038Y-74007962D01*
X120721614Y-74118405D01*
X120823337Y-74172777D01*
X120759866Y-74224866D01*
X120579207Y-74445000D01*
X113061007Y-74445000D01*
X113019999Y-74440961D01*
X112978991Y-74445000D01*
X112978981Y-74445000D01*
X112856311Y-74457082D01*
X112698913Y-74504828D01*
X112553854Y-74582364D01*
X112426709Y-74686709D01*
X112400559Y-74718574D01*
X111353225Y-75765907D01*
X111208102Y-75794774D01*
X111019744Y-75872795D01*
X110850226Y-75986063D01*
X110706063Y-76130226D01*
X110592795Y-76299744D01*
X110514774Y-76488102D01*
X110475000Y-76688061D01*
X108729999Y-76688061D01*
X108729999Y-70967817D01*
X108735534Y-70964119D01*
X108930119Y-70769534D01*
X109083004Y-70540726D01*
X109188313Y-70286489D01*
X109241999Y-70016591D01*
X109241999Y-69741407D01*
X109188313Y-69471509D01*
X109083004Y-69217272D01*
X108930119Y-68988464D01*
X108915654Y-68973999D01*
X121180682Y-68973999D01*
X121261001Y-68981910D01*
X121341320Y-68973999D01*
X121341323Y-68973999D01*
X121581517Y-68950342D01*
X121889716Y-68856851D01*
X122173753Y-68705030D01*
X122422715Y-68500713D01*
X122473925Y-68438313D01*
X122617238Y-68295000D01*
X124239991Y-68295000D01*
X124239991Y-69874594D01*
X124232079Y-69954856D01*
X124239991Y-70035255D01*
X124239991Y-70035312D01*
X124246076Y-70097092D01*
X124240187Y-120690023D01*
X108292252Y-120690013D01*
X107945000Y-120342761D01*
X107945000Y-116779872D01*
X118765000Y-116779872D01*
X118765000Y-117220128D01*
X118850890Y-117651925D01*
X119019369Y-118058669D01*
X119263962Y-118424729D01*
X119575271Y-118736038D01*
X119941331Y-118980631D01*
X120348075Y-119149110D01*
X120779872Y-119235000D01*
X121220128Y-119235000D01*
X121651925Y-119149110D01*
X122058669Y-118980631D01*
X122424729Y-118736038D01*
X122736038Y-118424729D01*
X122980631Y-118058669D01*
X123149110Y-117651925D01*
X123235000Y-117220128D01*
X123235000Y-116779872D01*
X123149110Y-116348075D01*
X122980631Y-115941331D01*
X122736038Y-115575271D01*
X122424729Y-115263962D01*
X122058669Y-115019369D01*
X121651925Y-114850890D01*
X121220128Y-114765000D01*
X120779872Y-114765000D01*
X120348075Y-114850890D01*
X119941331Y-115019369D01*
X119575271Y-115263962D01*
X119263962Y-115575271D01*
X119019369Y-115941331D01*
X118850890Y-116348075D01*
X118765000Y-116779872D01*
X107945000Y-116779872D01*
X107945000Y-112499721D01*
X114245000Y-112499721D01*
X114245000Y-112920279D01*
X114327047Y-113332756D01*
X114487988Y-113721302D01*
X114721637Y-114070983D01*
X115019017Y-114368363D01*
X115368698Y-114602012D01*
X115757244Y-114762953D01*
X116169721Y-114845000D01*
X116590279Y-114845000D01*
X117002756Y-114762953D01*
X117391302Y-114602012D01*
X117740983Y-114368363D01*
X118038363Y-114070983D01*
X118272012Y-113721302D01*
X118432953Y-113332756D01*
X118515000Y-112920279D01*
X118515000Y-112499721D01*
X118432953Y-112087244D01*
X118272012Y-111698698D01*
X118038363Y-111349017D01*
X117740983Y-111051637D01*
X117391302Y-110817988D01*
X117002756Y-110657047D01*
X116590279Y-110575000D01*
X116169721Y-110575000D01*
X115757244Y-110657047D01*
X115368698Y-110817988D01*
X115019017Y-111051637D01*
X114721637Y-111349017D01*
X114487988Y-111698698D01*
X114327047Y-112087244D01*
X114245000Y-112499721D01*
X107945000Y-112499721D01*
X107945000Y-111147885D01*
X108130273Y-111271680D01*
X108391426Y-111379853D01*
X108668665Y-111435000D01*
X108951335Y-111435000D01*
X109228574Y-111379853D01*
X109489727Y-111271680D01*
X109724759Y-111114637D01*
X109810000Y-111029396D01*
X109895241Y-111114637D01*
X110130273Y-111271680D01*
X110391426Y-111379853D01*
X110668665Y-111435000D01*
X110951335Y-111435000D01*
X111228574Y-111379853D01*
X111489727Y-111271680D01*
X111724759Y-111114637D01*
X111846694Y-110992702D01*
X112496903Y-110992702D01*
X112568486Y-111236671D01*
X112823996Y-111357571D01*
X113098184Y-111426300D01*
X113380512Y-111440217D01*
X113660130Y-111398787D01*
X113926292Y-111303603D01*
X114051514Y-111236671D01*
X114123097Y-110992702D01*
X113310000Y-110179605D01*
X112496903Y-110992702D01*
X111846694Y-110992702D01*
X111924637Y-110914759D01*
X112058692Y-110714131D01*
X112073329Y-110741514D01*
X112317298Y-110813097D01*
X113130395Y-110000000D01*
X113489605Y-110000000D01*
X114302702Y-110813097D01*
X114546671Y-110741514D01*
X114667571Y-110486004D01*
X114736300Y-110211816D01*
X114750217Y-109929488D01*
X114708787Y-109649870D01*
X114613603Y-109383708D01*
X114546671Y-109258486D01*
X114302702Y-109186903D01*
X113489605Y-110000000D01*
X113130395Y-110000000D01*
X112317298Y-109186903D01*
X112073329Y-109258486D01*
X112059676Y-109287341D01*
X111924637Y-109085241D01*
X111846694Y-109007298D01*
X112496903Y-109007298D01*
X113310000Y-109820395D01*
X114123097Y-109007298D01*
X114051514Y-108763329D01*
X113796004Y-108642429D01*
X113521816Y-108573700D01*
X113239488Y-108559783D01*
X112959870Y-108601213D01*
X112693708Y-108696397D01*
X112568486Y-108763329D01*
X112496903Y-109007298D01*
X111846694Y-109007298D01*
X111724759Y-108885363D01*
X111489727Y-108728320D01*
X111228574Y-108620147D01*
X110951335Y-108565000D01*
X110668665Y-108565000D01*
X110391426Y-108620147D01*
X110130273Y-108728320D01*
X109895241Y-108885363D01*
X109810000Y-108970604D01*
X109724759Y-108885363D01*
X109489727Y-108728320D01*
X109228574Y-108620147D01*
X108951335Y-108565000D01*
X108668665Y-108565000D01*
X108391426Y-108620147D01*
X108130273Y-108728320D01*
X107895241Y-108885363D01*
X107717023Y-109063581D01*
X107699502Y-109005820D01*
X107640537Y-108895506D01*
X107561185Y-108798815D01*
X107464494Y-108719463D01*
X107354180Y-108660498D01*
X107234482Y-108624188D01*
X107197669Y-108620562D01*
X106938714Y-108482148D01*
X106630515Y-108388657D01*
X106310000Y-108357089D01*
X105989484Y-108388657D01*
X105681285Y-108482148D01*
X105422330Y-108620562D01*
X105385518Y-108624188D01*
X105265820Y-108660498D01*
X105155506Y-108719463D01*
X105058815Y-108798815D01*
X104979463Y-108895506D01*
X104920498Y-109005820D01*
X104884188Y-109125518D01*
X104875305Y-109215710D01*
X104792148Y-109371286D01*
X104698657Y-109679485D01*
X104675000Y-109919679D01*
X104675000Y-111125654D01*
X104600983Y-111051637D01*
X104251302Y-110817988D01*
X103862756Y-110657047D01*
X103450279Y-110575000D01*
X103029721Y-110575000D01*
X102617244Y-110657047D01*
X102228698Y-110817988D01*
X101879017Y-111051637D01*
X101635000Y-111295654D01*
X101635000Y-110728711D01*
X101653937Y-110709774D01*
X101767205Y-110540256D01*
X101845226Y-110351898D01*
X101885000Y-110151939D01*
X101885000Y-109948061D01*
X101845226Y-109748102D01*
X101767205Y-109559744D01*
X101653937Y-109390226D01*
X101509774Y-109246063D01*
X101340256Y-109132795D01*
X101151898Y-109054774D01*
X100951939Y-109015000D01*
X100748061Y-109015000D01*
X100548102Y-109054774D01*
X100359744Y-109132795D01*
X100190226Y-109246063D01*
X100046063Y-109390226D01*
X99932795Y-109559744D01*
X99854774Y-109748102D01*
X99815000Y-109948061D01*
X99815000Y-110151939D01*
X99854774Y-110351898D01*
X99932795Y-110540256D01*
X100046063Y-110709774D01*
X100065001Y-110728712D01*
X100065000Y-113783511D01*
X99958102Y-113804774D01*
X99769744Y-113882795D01*
X99600226Y-113996063D01*
X99456063Y-114140226D01*
X99342795Y-114309744D01*
X99264774Y-114498102D01*
X99225000Y-114698061D01*
X99225000Y-114901939D01*
X99264774Y-115101898D01*
X99342795Y-115290256D01*
X99456063Y-115459774D01*
X99600226Y-115603937D01*
X99769744Y-115717205D01*
X99958102Y-115795226D01*
X100158061Y-115835000D01*
X100361939Y-115835000D01*
X100561898Y-115795226D01*
X100750256Y-115717205D01*
X100919774Y-115603937D01*
X101063937Y-115459774D01*
X101177205Y-115290256D01*
X101255226Y-115101898D01*
X101295000Y-114901939D01*
X101295000Y-114875158D01*
X101377816Y-114792342D01*
X101407764Y-114767764D01*
X101440315Y-114728102D01*
X101456450Y-114708441D01*
X101505862Y-114648233D01*
X101578754Y-114511860D01*
X101623641Y-114363887D01*
X101635000Y-114248561D01*
X101635000Y-114248554D01*
X101638797Y-114210001D01*
X101635000Y-114171448D01*
X101635000Y-114124346D01*
X101879017Y-114368363D01*
X102228698Y-114602012D01*
X102617244Y-114762953D01*
X103029721Y-114845000D01*
X103450279Y-114845000D01*
X103862756Y-114762953D01*
X104251302Y-114602012D01*
X104600983Y-114368363D01*
X104675000Y-114294346D01*
X104675001Y-120690011D01*
X98174686Y-120690007D01*
X98174677Y-120690008D01*
X85012240Y-120690000D01*
X83925000Y-119602762D01*
X83925000Y-112499721D01*
X90225000Y-112499721D01*
X90225000Y-112920279D01*
X90307047Y-113332756D01*
X90467988Y-113721302D01*
X90701637Y-114070983D01*
X90999017Y-114368363D01*
X91348698Y-114602012D01*
X91737244Y-114762953D01*
X92149721Y-114845000D01*
X92570279Y-114845000D01*
X92982756Y-114762953D01*
X93371302Y-114602012D01*
X93720983Y-114368363D01*
X94018363Y-114070983D01*
X94025000Y-114061050D01*
X94025000Y-114451447D01*
X94021203Y-114490000D01*
X94025000Y-114528553D01*
X94025000Y-114528560D01*
X94036359Y-114643886D01*
X94081246Y-114791859D01*
X94154138Y-114928232D01*
X94252236Y-115047764D01*
X94282189Y-115072346D01*
X94315000Y-115105157D01*
X94315000Y-115131939D01*
X94354774Y-115331898D01*
X94432795Y-115520256D01*
X94546063Y-115689774D01*
X94690226Y-115833937D01*
X94859744Y-115947205D01*
X95048102Y-116025226D01*
X95248061Y-116065000D01*
X95451939Y-116065000D01*
X95651898Y-116025226D01*
X95840256Y-115947205D01*
X96009774Y-115833937D01*
X96153937Y-115689774D01*
X96267205Y-115520256D01*
X96345226Y-115331898D01*
X96385000Y-115131939D01*
X96385000Y-114928061D01*
X96345226Y-114728102D01*
X96267205Y-114539744D01*
X96153937Y-114370226D01*
X96009774Y-114226063D01*
X95840256Y-114112795D01*
X95651898Y-114034774D01*
X95595000Y-114023456D01*
X95595000Y-110693711D01*
X95613937Y-110674774D01*
X95727205Y-110505256D01*
X95805226Y-110316898D01*
X95845000Y-110116939D01*
X95845000Y-109913061D01*
X95805226Y-109713102D01*
X95727205Y-109524744D01*
X95613937Y-109355226D01*
X95469774Y-109211063D01*
X95300256Y-109097795D01*
X95111898Y-109019774D01*
X94911939Y-108980000D01*
X94708061Y-108980000D01*
X94508102Y-109019774D01*
X94319744Y-109097795D01*
X94150226Y-109211063D01*
X94006063Y-109355226D01*
X93892795Y-109524744D01*
X93814774Y-109713102D01*
X93775000Y-109913061D01*
X93775000Y-110116939D01*
X93814774Y-110316898D01*
X93892795Y-110505256D01*
X94006063Y-110674774D01*
X94025001Y-110693712D01*
X94025001Y-111358951D01*
X94018363Y-111349017D01*
X93720983Y-111051637D01*
X93371302Y-110817988D01*
X92982756Y-110657047D01*
X92570279Y-110575000D01*
X92149721Y-110575000D01*
X91737244Y-110657047D01*
X91348698Y-110817988D01*
X90999017Y-111051637D01*
X90701637Y-111349017D01*
X90467988Y-111698698D01*
X90307047Y-112087244D01*
X90225000Y-112499721D01*
X83925000Y-112499721D01*
X83925000Y-111147885D01*
X84110273Y-111271680D01*
X84371426Y-111379853D01*
X84648665Y-111435000D01*
X84931335Y-111435000D01*
X85208574Y-111379853D01*
X85469727Y-111271680D01*
X85704759Y-111114637D01*
X85790000Y-111029396D01*
X85875241Y-111114637D01*
X86110273Y-111271680D01*
X86371426Y-111379853D01*
X86648665Y-111435000D01*
X86931335Y-111435000D01*
X87208574Y-111379853D01*
X87469727Y-111271680D01*
X87704759Y-111114637D01*
X87826694Y-110992702D01*
X88476903Y-110992702D01*
X88548486Y-111236671D01*
X88803996Y-111357571D01*
X89078184Y-111426300D01*
X89360512Y-111440217D01*
X89640130Y-111398787D01*
X89906292Y-111303603D01*
X90031514Y-111236671D01*
X90103097Y-110992702D01*
X89290000Y-110179605D01*
X88476903Y-110992702D01*
X87826694Y-110992702D01*
X87904637Y-110914759D01*
X88038692Y-110714131D01*
X88053329Y-110741514D01*
X88297298Y-110813097D01*
X89110395Y-110000000D01*
X89469605Y-110000000D01*
X90282702Y-110813097D01*
X90526671Y-110741514D01*
X90647571Y-110486004D01*
X90716300Y-110211816D01*
X90730217Y-109929488D01*
X90688787Y-109649870D01*
X90593603Y-109383708D01*
X90526671Y-109258486D01*
X90282702Y-109186903D01*
X89469605Y-110000000D01*
X89110395Y-110000000D01*
X88297298Y-109186903D01*
X88053329Y-109258486D01*
X88039676Y-109287341D01*
X87904637Y-109085241D01*
X87826694Y-109007298D01*
X88476903Y-109007298D01*
X89290000Y-109820395D01*
X90103097Y-109007298D01*
X90031514Y-108763329D01*
X89776004Y-108642429D01*
X89501816Y-108573700D01*
X89219488Y-108559783D01*
X88939870Y-108601213D01*
X88673708Y-108696397D01*
X88548486Y-108763329D01*
X88476903Y-109007298D01*
X87826694Y-109007298D01*
X87704759Y-108885363D01*
X87469727Y-108728320D01*
X87208574Y-108620147D01*
X86931335Y-108565000D01*
X86648665Y-108565000D01*
X86371426Y-108620147D01*
X86110273Y-108728320D01*
X85875241Y-108885363D01*
X85790000Y-108970604D01*
X85704759Y-108885363D01*
X85469727Y-108728320D01*
X85208574Y-108620147D01*
X84931335Y-108565000D01*
X84648665Y-108565000D01*
X84371426Y-108620147D01*
X84110273Y-108728320D01*
X83875241Y-108885363D01*
X83697023Y-109063581D01*
X83679502Y-109005820D01*
X83620537Y-108895506D01*
X83541185Y-108798815D01*
X83444494Y-108719463D01*
X83334180Y-108660498D01*
X83214482Y-108624188D01*
X83177670Y-108620562D01*
X82918715Y-108482148D01*
X82610516Y-108388657D01*
X82290000Y-108357089D01*
X81969485Y-108388657D01*
X81661286Y-108482148D01*
X81402331Y-108620562D01*
X81365518Y-108624188D01*
X81245820Y-108660498D01*
X81135506Y-108719463D01*
X81038815Y-108798815D01*
X80959463Y-108895506D01*
X80900498Y-109005820D01*
X80864188Y-109125518D01*
X80855305Y-109215711D01*
X80772149Y-109371285D01*
X80678658Y-109679484D01*
X80655001Y-109919678D01*
X80655001Y-111125655D01*
X80580983Y-111051637D01*
X80231302Y-110817988D01*
X79842756Y-110657047D01*
X79430279Y-110575000D01*
X79009721Y-110575000D01*
X78597244Y-110657047D01*
X78208698Y-110817988D01*
X77859017Y-111051637D01*
X77561637Y-111349017D01*
X77327988Y-111698698D01*
X77167047Y-112087244D01*
X77085000Y-112499721D01*
X77085000Y-112920279D01*
X77167047Y-113332756D01*
X77327988Y-113721302D01*
X77561637Y-114070983D01*
X77859017Y-114368363D01*
X78208698Y-114602012D01*
X78597244Y-114762953D01*
X79009721Y-114845000D01*
X79430279Y-114845000D01*
X79842756Y-114762953D01*
X80231302Y-114602012D01*
X80580983Y-114368363D01*
X80655001Y-114294345D01*
X80655000Y-120199680D01*
X80647089Y-120280000D01*
X80655000Y-120360319D01*
X80655000Y-120360321D01*
X80678657Y-120600515D01*
X80772148Y-120908714D01*
X80923969Y-121192751D01*
X81128286Y-121441714D01*
X81190686Y-121492924D01*
X82587769Y-122890008D01*
X68904730Y-122890000D01*
X68715267Y-122871423D01*
X68566426Y-122826485D01*
X68429151Y-122753495D01*
X68308671Y-122655234D01*
X68209565Y-122535436D01*
X68135619Y-122398675D01*
X68089643Y-122250153D01*
X68069967Y-122062944D01*
X68069967Y-116729872D01*
X70765000Y-116729872D01*
X70765000Y-117170128D01*
X70850890Y-117601925D01*
X71019369Y-118008669D01*
X71263962Y-118374729D01*
X71575271Y-118686038D01*
X71941331Y-118930631D01*
X72348075Y-119099110D01*
X72779872Y-119185000D01*
X73220128Y-119185000D01*
X73651925Y-119099110D01*
X74058669Y-118930631D01*
X74424729Y-118686038D01*
X74736038Y-118374729D01*
X74980631Y-118008669D01*
X75149110Y-117601925D01*
X75235000Y-117170128D01*
X75235000Y-116729872D01*
X75149110Y-116298075D01*
X74980631Y-115891331D01*
X74736038Y-115525271D01*
X74424729Y-115213962D01*
X74058669Y-114969369D01*
X73651925Y-114800890D01*
X73220128Y-114715000D01*
X72779872Y-114715000D01*
X72348075Y-114800890D01*
X71941331Y-114969369D01*
X71575271Y-115213962D01*
X71263962Y-115525271D01*
X71019369Y-115891331D01*
X70850890Y-116298075D01*
X70765000Y-116729872D01*
X68069967Y-116729872D01*
X68069967Y-105804564D01*
X79119039Y-105804564D01*
X79186019Y-106044655D01*
X79435047Y-106161755D01*
X79702134Y-106228022D01*
X79977016Y-106240909D01*
X80249132Y-106199921D01*
X80508022Y-106106635D01*
X80623979Y-106044655D01*
X80690959Y-105804564D01*
X79904999Y-105018604D01*
X79119039Y-105804564D01*
X68069967Y-105804564D01*
X68069967Y-104911016D01*
X78503089Y-104911016D01*
X78544077Y-105183132D01*
X78637363Y-105442022D01*
X78699343Y-105557979D01*
X78939434Y-105624959D01*
X79725394Y-104838999D01*
X78939434Y-104053039D01*
X78699343Y-104120019D01*
X78582243Y-104369047D01*
X78515976Y-104636134D01*
X78503089Y-104911016D01*
X68069967Y-104911016D01*
X68069967Y-103264564D01*
X79119039Y-103264564D01*
X79186019Y-103504655D01*
X79316643Y-103566078D01*
X79301976Y-103571363D01*
X79186019Y-103633343D01*
X79119039Y-103873434D01*
X79904999Y-104659394D01*
X80690959Y-103873434D01*
X80623979Y-103633343D01*
X80493355Y-103571920D01*
X80508022Y-103566635D01*
X80623979Y-103504655D01*
X80690959Y-103264564D01*
X79904999Y-102478604D01*
X79119039Y-103264564D01*
X68069967Y-103264564D01*
X68069967Y-102371016D01*
X78503089Y-102371016D01*
X78544077Y-102643132D01*
X78637363Y-102902022D01*
X78699343Y-103017979D01*
X78939434Y-103084959D01*
X79725394Y-102298999D01*
X80084604Y-102298999D01*
X80870564Y-103084959D01*
X81110655Y-103017979D01*
X81174484Y-102882239D01*
X81206994Y-102960726D01*
X81359879Y-103189534D01*
X81554464Y-103384119D01*
X81783272Y-103537004D01*
X81860514Y-103568999D01*
X81783272Y-103600994D01*
X81554464Y-103753879D01*
X81359879Y-103948464D01*
X81206994Y-104177272D01*
X81177307Y-104248942D01*
X81172635Y-104235976D01*
X81110655Y-104120019D01*
X80870564Y-104053039D01*
X80084604Y-104838999D01*
X80870564Y-105624959D01*
X81110655Y-105557979D01*
X81174484Y-105422239D01*
X81206994Y-105500726D01*
X81359879Y-105729534D01*
X81554464Y-105924119D01*
X81783272Y-106077004D01*
X82037509Y-106182313D01*
X82307407Y-106235999D01*
X82582591Y-106235999D01*
X82852489Y-106182313D01*
X83106726Y-106077004D01*
X83335534Y-105924119D01*
X83530119Y-105729534D01*
X83683004Y-105500726D01*
X83714999Y-105423484D01*
X83746994Y-105500726D01*
X83899879Y-105729534D01*
X84094464Y-105924119D01*
X84323272Y-106077004D01*
X84577509Y-106182313D01*
X84847407Y-106235999D01*
X85122591Y-106235999D01*
X85392489Y-106182313D01*
X85646726Y-106077004D01*
X85875534Y-105924119D01*
X86070119Y-105729534D01*
X86223004Y-105500726D01*
X86254999Y-105423484D01*
X86286994Y-105500726D01*
X86439879Y-105729534D01*
X86634464Y-105924119D01*
X86863272Y-106077004D01*
X87117509Y-106182313D01*
X87387407Y-106235999D01*
X87662591Y-106235999D01*
X87932489Y-106182313D01*
X88186726Y-106077004D01*
X88415534Y-105924119D01*
X88610119Y-105729534D01*
X88763004Y-105500726D01*
X88794999Y-105423484D01*
X88826994Y-105500726D01*
X88979879Y-105729534D01*
X89174464Y-105924119D01*
X89403272Y-106077004D01*
X89657509Y-106182313D01*
X89927407Y-106235999D01*
X90202591Y-106235999D01*
X90472489Y-106182313D01*
X90726726Y-106077004D01*
X90955534Y-105924119D01*
X91150119Y-105729534D01*
X91303004Y-105500726D01*
X91334999Y-105423484D01*
X91366994Y-105500726D01*
X91519879Y-105729534D01*
X91714464Y-105924119D01*
X91943272Y-106077004D01*
X92197509Y-106182313D01*
X92467407Y-106235999D01*
X92742591Y-106235999D01*
X93012489Y-106182313D01*
X93266726Y-106077004D01*
X93495534Y-105924119D01*
X93690119Y-105729534D01*
X93843004Y-105500726D01*
X93874999Y-105423484D01*
X93906994Y-105500726D01*
X94059879Y-105729534D01*
X94254464Y-105924119D01*
X94483272Y-106077004D01*
X94737509Y-106182313D01*
X95007407Y-106235999D01*
X95282591Y-106235999D01*
X95552489Y-106182313D01*
X95806726Y-106077004D01*
X96035534Y-105924119D01*
X96230119Y-105729534D01*
X96383004Y-105500726D01*
X96414999Y-105423484D01*
X96446994Y-105500726D01*
X96599879Y-105729534D01*
X96794464Y-105924119D01*
X97023272Y-106077004D01*
X97277509Y-106182313D01*
X97547407Y-106235999D01*
X97822591Y-106235999D01*
X98092489Y-106182313D01*
X98346726Y-106077004D01*
X98575534Y-105924119D01*
X98770119Y-105729534D01*
X98923004Y-105500726D01*
X98954999Y-105423484D01*
X98986994Y-105500726D01*
X99139879Y-105729534D01*
X99334464Y-105924119D01*
X99563272Y-106077004D01*
X99817509Y-106182313D01*
X100087407Y-106235999D01*
X100362591Y-106235999D01*
X100632489Y-106182313D01*
X100886726Y-106077004D01*
X101115534Y-105924119D01*
X101310119Y-105729534D01*
X101463004Y-105500726D01*
X101494999Y-105423484D01*
X101526994Y-105500726D01*
X101679879Y-105729534D01*
X101874464Y-105924119D01*
X102103272Y-106077004D01*
X102357509Y-106182313D01*
X102627407Y-106235999D01*
X102902591Y-106235999D01*
X103172489Y-106182313D01*
X103426726Y-106077004D01*
X103655534Y-105924119D01*
X103850119Y-105729534D01*
X104003004Y-105500726D01*
X104034999Y-105423484D01*
X104066994Y-105500726D01*
X104219879Y-105729534D01*
X104414464Y-105924119D01*
X104643272Y-106077004D01*
X104897509Y-106182313D01*
X105167407Y-106235999D01*
X105442591Y-106235999D01*
X105712489Y-106182313D01*
X105966726Y-106077004D01*
X106195534Y-105924119D01*
X106390119Y-105729534D01*
X106543004Y-105500726D01*
X106574999Y-105423484D01*
X106606994Y-105500726D01*
X106759879Y-105729534D01*
X106954464Y-105924119D01*
X107183272Y-106077004D01*
X107437509Y-106182313D01*
X107707407Y-106235999D01*
X107982591Y-106235999D01*
X108252489Y-106182313D01*
X108506726Y-106077004D01*
X108735534Y-105924119D01*
X108930119Y-105729534D01*
X109083004Y-105500726D01*
X109188313Y-105246489D01*
X109241999Y-104976591D01*
X109241999Y-104701407D01*
X109188313Y-104431509D01*
X109083004Y-104177272D01*
X108930119Y-103948464D01*
X108735534Y-103753879D01*
X108506726Y-103600994D01*
X108252489Y-103495685D01*
X107982591Y-103441999D01*
X107707407Y-103441999D01*
X107437509Y-103495685D01*
X107183272Y-103600994D01*
X106954464Y-103753879D01*
X106759879Y-103948464D01*
X106606994Y-104177272D01*
X106574999Y-104254514D01*
X106543004Y-104177272D01*
X106390119Y-103948464D01*
X106195534Y-103753879D01*
X105966726Y-103600994D01*
X105712489Y-103495685D01*
X105442591Y-103441999D01*
X105167407Y-103441999D01*
X104897509Y-103495685D01*
X104643272Y-103600994D01*
X104414464Y-103753879D01*
X104219879Y-103948464D01*
X104066994Y-104177272D01*
X104034999Y-104254514D01*
X104003004Y-104177272D01*
X103850119Y-103948464D01*
X103655534Y-103753879D01*
X103426726Y-103600994D01*
X103172489Y-103495685D01*
X102902591Y-103441999D01*
X102627407Y-103441999D01*
X102357509Y-103495685D01*
X102103272Y-103600994D01*
X101874464Y-103753879D01*
X101679879Y-103948464D01*
X101526994Y-104177272D01*
X101494999Y-104254514D01*
X101463004Y-104177272D01*
X101310119Y-103948464D01*
X101115534Y-103753879D01*
X100886726Y-103600994D01*
X100632489Y-103495685D01*
X100362591Y-103441999D01*
X100087407Y-103441999D01*
X99817509Y-103495685D01*
X99563272Y-103600994D01*
X99334464Y-103753879D01*
X99139879Y-103948464D01*
X98986994Y-104177272D01*
X98954999Y-104254514D01*
X98923004Y-104177272D01*
X98770119Y-103948464D01*
X98575534Y-103753879D01*
X98346726Y-103600994D01*
X98269484Y-103568999D01*
X98346726Y-103537004D01*
X98575534Y-103384119D01*
X98770119Y-103189534D01*
X98923004Y-102960726D01*
X99028313Y-102706489D01*
X99059440Y-102550000D01*
X120322815Y-102550000D01*
X120351487Y-102841111D01*
X120436401Y-103121034D01*
X120574294Y-103379014D01*
X120759866Y-103605134D01*
X120985986Y-103790706D01*
X121003374Y-103800000D01*
X120985986Y-103809294D01*
X120759866Y-103994866D01*
X120574294Y-104220986D01*
X120436401Y-104478966D01*
X120351487Y-104758889D01*
X120322815Y-105050000D01*
X120351487Y-105341111D01*
X120436401Y-105621034D01*
X120574294Y-105879014D01*
X120759866Y-106105134D01*
X120985986Y-106290706D01*
X121243966Y-106428599D01*
X121523889Y-106513513D01*
X121742050Y-106535000D01*
X122137950Y-106535000D01*
X122356111Y-106513513D01*
X122636034Y-106428599D01*
X122894014Y-106290706D01*
X123120134Y-106105134D01*
X123305706Y-105879014D01*
X123443599Y-105621034D01*
X123528513Y-105341111D01*
X123557185Y-105050000D01*
X123528513Y-104758889D01*
X123443599Y-104478966D01*
X123305706Y-104220986D01*
X123120134Y-103994866D01*
X122894014Y-103809294D01*
X122876626Y-103800000D01*
X122894014Y-103790706D01*
X123120134Y-103605134D01*
X123305706Y-103379014D01*
X123443599Y-103121034D01*
X123528513Y-102841111D01*
X123557185Y-102550000D01*
X123528513Y-102258889D01*
X123443599Y-101978966D01*
X123305706Y-101720986D01*
X123120134Y-101494866D01*
X123056663Y-101442777D01*
X123158386Y-101388405D01*
X123292962Y-101277962D01*
X123403405Y-101143386D01*
X123485472Y-100989850D01*
X123536008Y-100823254D01*
X123553072Y-100650000D01*
X123553072Y-99450000D01*
X123536008Y-99276746D01*
X123485472Y-99110150D01*
X123403405Y-98956614D01*
X123292962Y-98822038D01*
X123158386Y-98711595D01*
X123004850Y-98629528D01*
X122838254Y-98578992D01*
X122665000Y-98561928D01*
X121215000Y-98561928D01*
X121041746Y-98578992D01*
X120875150Y-98629528D01*
X120721614Y-98711595D01*
X120587038Y-98822038D01*
X120476595Y-98956614D01*
X120394528Y-99110150D01*
X120343992Y-99276746D01*
X120326928Y-99450000D01*
X120326928Y-100650000D01*
X120343992Y-100823254D01*
X120394528Y-100989850D01*
X120476595Y-101143386D01*
X120587038Y-101277962D01*
X120721614Y-101388405D01*
X120823337Y-101442777D01*
X120759866Y-101494866D01*
X120574294Y-101720986D01*
X120436401Y-101978966D01*
X120351487Y-102258889D01*
X120322815Y-102550000D01*
X99059440Y-102550000D01*
X99081999Y-102436591D01*
X99081999Y-102161407D01*
X99028313Y-101891509D01*
X98923004Y-101637272D01*
X98770119Y-101408464D01*
X98575534Y-101213879D01*
X98346726Y-101060994D01*
X98092489Y-100955685D01*
X97822591Y-100901999D01*
X97547407Y-100901999D01*
X97277509Y-100955685D01*
X97023272Y-101060994D01*
X96794464Y-101213879D01*
X96599879Y-101408464D01*
X96446994Y-101637272D01*
X96414999Y-101714514D01*
X96383004Y-101637272D01*
X96230119Y-101408464D01*
X96035534Y-101213879D01*
X95806726Y-101060994D01*
X95552489Y-100955685D01*
X95282591Y-100901999D01*
X95007407Y-100901999D01*
X94737509Y-100955685D01*
X94483272Y-101060994D01*
X94254464Y-101213879D01*
X94059879Y-101408464D01*
X93906994Y-101637272D01*
X93874999Y-101714514D01*
X93843004Y-101637272D01*
X93690119Y-101408464D01*
X93495534Y-101213879D01*
X93266726Y-101060994D01*
X93012489Y-100955685D01*
X92742591Y-100901999D01*
X92467407Y-100901999D01*
X92197509Y-100955685D01*
X91943272Y-101060994D01*
X91714464Y-101213879D01*
X91519879Y-101408464D01*
X91366994Y-101637272D01*
X91334999Y-101714514D01*
X91303004Y-101637272D01*
X91150119Y-101408464D01*
X90955534Y-101213879D01*
X90726726Y-101060994D01*
X90472489Y-100955685D01*
X90202591Y-100901999D01*
X89927407Y-100901999D01*
X89657509Y-100955685D01*
X89403272Y-101060994D01*
X89174464Y-101213879D01*
X88979879Y-101408464D01*
X88826994Y-101637272D01*
X88794999Y-101714514D01*
X88763004Y-101637272D01*
X88610119Y-101408464D01*
X88415534Y-101213879D01*
X88186726Y-101060994D01*
X87932489Y-100955685D01*
X87662591Y-100901999D01*
X87387407Y-100901999D01*
X87117509Y-100955685D01*
X86863272Y-101060994D01*
X86634464Y-101213879D01*
X86439879Y-101408464D01*
X86286994Y-101637272D01*
X86254999Y-101714514D01*
X86223004Y-101637272D01*
X86070119Y-101408464D01*
X85875534Y-101213879D01*
X85646726Y-101060994D01*
X85392489Y-100955685D01*
X85122591Y-100901999D01*
X84847407Y-100901999D01*
X84577509Y-100955685D01*
X84323272Y-101060994D01*
X84094464Y-101213879D01*
X83899879Y-101408464D01*
X83746994Y-101637272D01*
X83714999Y-101714514D01*
X83683004Y-101637272D01*
X83530119Y-101408464D01*
X83335534Y-101213879D01*
X83106726Y-101060994D01*
X82852489Y-100955685D01*
X82582591Y-100901999D01*
X82307407Y-100901999D01*
X82037509Y-100955685D01*
X81783272Y-101060994D01*
X81554464Y-101213879D01*
X81359879Y-101408464D01*
X81206994Y-101637272D01*
X81177307Y-101708942D01*
X81172635Y-101695976D01*
X81110655Y-101580019D01*
X80870564Y-101513039D01*
X80084604Y-102298999D01*
X79725394Y-102298999D01*
X78939434Y-101513039D01*
X78699343Y-101580019D01*
X78582243Y-101829047D01*
X78515976Y-102096134D01*
X78503089Y-102371016D01*
X68069967Y-102371016D01*
X68069967Y-101333434D01*
X79119039Y-101333434D01*
X79904999Y-102119394D01*
X80690959Y-101333434D01*
X80623979Y-101093343D01*
X80374951Y-100976243D01*
X80107864Y-100909976D01*
X79832982Y-100897089D01*
X79560866Y-100938077D01*
X79301976Y-101031363D01*
X79186019Y-101093343D01*
X79119039Y-101333434D01*
X68069967Y-101333434D01*
X68069967Y-99551039D01*
X100502096Y-99551039D01*
X100542754Y-99685087D01*
X100662963Y-99939420D01*
X100830481Y-100165414D01*
X101038869Y-100354385D01*
X101280119Y-100499070D01*
X101544960Y-100593909D01*
X101767000Y-100472624D01*
X101767000Y-99329000D01*
X102021000Y-99329000D01*
X102021000Y-100472624D01*
X102243040Y-100593909D01*
X102507881Y-100499070D01*
X102749131Y-100354385D01*
X102957519Y-100165414D01*
X103125037Y-99939420D01*
X103245246Y-99685087D01*
X103285904Y-99551039D01*
X103163915Y-99329000D01*
X102021000Y-99329000D01*
X101767000Y-99329000D01*
X100624085Y-99329000D01*
X100502096Y-99551039D01*
X68069967Y-99551039D01*
X68069967Y-92357137D01*
X72653000Y-92357137D01*
X72653000Y-92570863D01*
X72694696Y-92780483D01*
X72776485Y-92977940D01*
X72895225Y-93155647D01*
X73046353Y-93306775D01*
X73224060Y-93425515D01*
X73421517Y-93507304D01*
X73631137Y-93549000D01*
X73844863Y-93549000D01*
X74054483Y-93507304D01*
X74251940Y-93425515D01*
X74429647Y-93306775D01*
X74580775Y-93155647D01*
X74699515Y-92977940D01*
X74781304Y-92780483D01*
X74823000Y-92570863D01*
X74823000Y-92357137D01*
X74781304Y-92147517D01*
X74699515Y-91950060D01*
X74580775Y-91772353D01*
X74429647Y-91621225D01*
X74251940Y-91502485D01*
X74054483Y-91420696D01*
X73844863Y-91379000D01*
X73631137Y-91379000D01*
X73421517Y-91420696D01*
X73224060Y-91502485D01*
X73046353Y-91621225D01*
X72895225Y-91772353D01*
X72776485Y-91950060D01*
X72694696Y-92147517D01*
X72653000Y-92357137D01*
X68069967Y-92357137D01*
X68069967Y-87957137D01*
X72653000Y-87957137D01*
X72653000Y-88170863D01*
X72694696Y-88380483D01*
X72776485Y-88577940D01*
X72895225Y-88755647D01*
X73046353Y-88906775D01*
X73224060Y-89025515D01*
X73421517Y-89107304D01*
X73631137Y-89149000D01*
X73844863Y-89149000D01*
X74054483Y-89107304D01*
X74251940Y-89025515D01*
X74429647Y-88906775D01*
X74580775Y-88755647D01*
X74699515Y-88577940D01*
X74781304Y-88380483D01*
X74781785Y-88378061D01*
X78405000Y-88378061D01*
X78405000Y-88581939D01*
X78444774Y-88781898D01*
X78522795Y-88970256D01*
X78605001Y-89093286D01*
X78605000Y-90958981D01*
X78600960Y-91000000D01*
X78605000Y-91041018D01*
X78617082Y-91163688D01*
X78664828Y-91321086D01*
X78742364Y-91466145D01*
X78846709Y-91593291D01*
X78878579Y-91619446D01*
X84045908Y-96786775D01*
X84074774Y-96931898D01*
X84152795Y-97120256D01*
X84266063Y-97289774D01*
X84410226Y-97433937D01*
X84579744Y-97547205D01*
X84768102Y-97625226D01*
X84968061Y-97665000D01*
X85171939Y-97665000D01*
X85371898Y-97625226D01*
X85560256Y-97547205D01*
X85729774Y-97433937D01*
X85873937Y-97289774D01*
X85987205Y-97120256D01*
X86065226Y-96931898D01*
X86105000Y-96731939D01*
X86105000Y-96528061D01*
X86065226Y-96328102D01*
X85987205Y-96139744D01*
X85873937Y-95970226D01*
X85765711Y-95862000D01*
X100455928Y-95862000D01*
X100455928Y-97462000D01*
X100468188Y-97586482D01*
X100504498Y-97706180D01*
X100563463Y-97816494D01*
X100642815Y-97913185D01*
X100739506Y-97992537D01*
X100849820Y-98051502D01*
X100969518Y-98087812D01*
X100994080Y-98090231D01*
X100830481Y-98238586D01*
X100662963Y-98464580D01*
X100542754Y-98718913D01*
X100502096Y-98852961D01*
X100624085Y-99075000D01*
X101767000Y-99075000D01*
X101767000Y-99055000D01*
X102021000Y-99055000D01*
X102021000Y-99075000D01*
X103163915Y-99075000D01*
X103285904Y-98852961D01*
X103245246Y-98718913D01*
X103125037Y-98464580D01*
X102957519Y-98238586D01*
X102793920Y-98090231D01*
X102818482Y-98087812D01*
X102938180Y-98051502D01*
X103048494Y-97992537D01*
X103145185Y-97913185D01*
X103224537Y-97816494D01*
X103283502Y-97706180D01*
X103319812Y-97586482D01*
X103332072Y-97462000D01*
X103332072Y-96520665D01*
X108079000Y-96520665D01*
X108079000Y-96803335D01*
X108134147Y-97080574D01*
X108242320Y-97341727D01*
X108399363Y-97576759D01*
X108599241Y-97776637D01*
X108831759Y-97932000D01*
X108599241Y-98087363D01*
X108399363Y-98287241D01*
X108242320Y-98522273D01*
X108134147Y-98783426D01*
X108079000Y-99060665D01*
X108079000Y-99343335D01*
X108134147Y-99620574D01*
X108242320Y-99881727D01*
X108399363Y-100116759D01*
X108599241Y-100316637D01*
X108834273Y-100473680D01*
X109095426Y-100581853D01*
X109372665Y-100637000D01*
X109655335Y-100637000D01*
X109932574Y-100581853D01*
X110193727Y-100473680D01*
X110428759Y-100316637D01*
X110628637Y-100116759D01*
X110785680Y-99881727D01*
X110893853Y-99620574D01*
X110949000Y-99343335D01*
X110949000Y-99060665D01*
X110893853Y-98783426D01*
X110785680Y-98522273D01*
X110628637Y-98287241D01*
X110428759Y-98087363D01*
X110196241Y-97932000D01*
X110428759Y-97776637D01*
X110628637Y-97576759D01*
X110785680Y-97341727D01*
X110893853Y-97080574D01*
X110949000Y-96803335D01*
X110949000Y-96520665D01*
X110893853Y-96243426D01*
X110785680Y-95982273D01*
X110628637Y-95747241D01*
X110428759Y-95547363D01*
X110193727Y-95390320D01*
X109932574Y-95282147D01*
X109655335Y-95227000D01*
X109372665Y-95227000D01*
X109095426Y-95282147D01*
X108834273Y-95390320D01*
X108599241Y-95547363D01*
X108399363Y-95747241D01*
X108242320Y-95982273D01*
X108134147Y-96243426D01*
X108079000Y-96520665D01*
X103332072Y-96520665D01*
X103332072Y-95862000D01*
X103319812Y-95737518D01*
X103283502Y-95617820D01*
X103224537Y-95507506D01*
X103145185Y-95410815D01*
X103048494Y-95331463D01*
X102938180Y-95272498D01*
X102818482Y-95236188D01*
X102694000Y-95223928D01*
X101094000Y-95223928D01*
X100969518Y-95236188D01*
X100849820Y-95272498D01*
X100739506Y-95331463D01*
X100642815Y-95410815D01*
X100563463Y-95507506D01*
X100504498Y-95617820D01*
X100468188Y-95737518D01*
X100455928Y-95862000D01*
X85765711Y-95862000D01*
X85729774Y-95826063D01*
X85560256Y-95712795D01*
X85371898Y-95634774D01*
X85226775Y-95605908D01*
X80275000Y-90654133D01*
X80275000Y-89738061D01*
X111775000Y-89738061D01*
X111775000Y-89941939D01*
X111814774Y-90141898D01*
X111892795Y-90330256D01*
X111994487Y-90482449D01*
X111922795Y-90589744D01*
X111844774Y-90778102D01*
X111805000Y-90978061D01*
X111805000Y-91181939D01*
X111844774Y-91381898D01*
X111922795Y-91570256D01*
X112036063Y-91739774D01*
X112180226Y-91883937D01*
X112349744Y-91997205D01*
X112538102Y-92075226D01*
X112701870Y-92107801D01*
X112713854Y-92117636D01*
X112858913Y-92195172D01*
X113016311Y-92242918D01*
X113138981Y-92255000D01*
X113138982Y-92255000D01*
X113180000Y-92259040D01*
X113221018Y-92255000D01*
X120579207Y-92255000D01*
X120759866Y-92475134D01*
X120985986Y-92660706D01*
X121003374Y-92670000D01*
X120985986Y-92679294D01*
X120759866Y-92864866D01*
X120574294Y-93090986D01*
X120436401Y-93348966D01*
X120351487Y-93628889D01*
X120322815Y-93920000D01*
X120351487Y-94211111D01*
X120436401Y-94491034D01*
X120574294Y-94749014D01*
X120759866Y-94975134D01*
X120985986Y-95160706D01*
X121243966Y-95298599D01*
X121523889Y-95383513D01*
X121742050Y-95405000D01*
X122137950Y-95405000D01*
X122356111Y-95383513D01*
X122636034Y-95298599D01*
X122894014Y-95160706D01*
X123120134Y-94975134D01*
X123305706Y-94749014D01*
X123443599Y-94491034D01*
X123528513Y-94211111D01*
X123557185Y-93920000D01*
X123528513Y-93628889D01*
X123443599Y-93348966D01*
X123305706Y-93090986D01*
X123120134Y-92864866D01*
X122894014Y-92679294D01*
X122876626Y-92670000D01*
X122894014Y-92660706D01*
X123120134Y-92475134D01*
X123305706Y-92249014D01*
X123443599Y-91991034D01*
X123528513Y-91711111D01*
X123557185Y-91420000D01*
X123528513Y-91128889D01*
X123443599Y-90848966D01*
X123305706Y-90590986D01*
X123120134Y-90364866D01*
X122894014Y-90179294D01*
X122876626Y-90170000D01*
X122894014Y-90160706D01*
X123120134Y-89975134D01*
X123305706Y-89749014D01*
X123443599Y-89491034D01*
X123528513Y-89211111D01*
X123557185Y-88920000D01*
X123528513Y-88628889D01*
X123443599Y-88348966D01*
X123305706Y-88090986D01*
X123120134Y-87864866D01*
X123056663Y-87812777D01*
X123158386Y-87758405D01*
X123292962Y-87647962D01*
X123403405Y-87513386D01*
X123485472Y-87359850D01*
X123536008Y-87193254D01*
X123553072Y-87020000D01*
X123553072Y-85820000D01*
X123536008Y-85646746D01*
X123485472Y-85480150D01*
X123403405Y-85326614D01*
X123292962Y-85192038D01*
X123158386Y-85081595D01*
X123004850Y-84999528D01*
X122838254Y-84948992D01*
X122665000Y-84931928D01*
X121215000Y-84931928D01*
X121041746Y-84948992D01*
X120875150Y-84999528D01*
X120721614Y-85081595D01*
X120587038Y-85192038D01*
X120476595Y-85326614D01*
X120394528Y-85480150D01*
X120343992Y-85646746D01*
X120326928Y-85820000D01*
X120326928Y-87020000D01*
X120343992Y-87193254D01*
X120394528Y-87359850D01*
X120476595Y-87513386D01*
X120587038Y-87647962D01*
X120721614Y-87758405D01*
X120823337Y-87812777D01*
X120759866Y-87864866D01*
X120579207Y-88085000D01*
X120041007Y-88085000D01*
X119999999Y-88080961D01*
X119958991Y-88085000D01*
X119958981Y-88085000D01*
X119836311Y-88097082D01*
X119678913Y-88144828D01*
X119533854Y-88222364D01*
X119406709Y-88326709D01*
X119380558Y-88358574D01*
X118734133Y-89005000D01*
X113423285Y-89005000D01*
X113300256Y-88922795D01*
X113111898Y-88844774D01*
X112911939Y-88805000D01*
X112708061Y-88805000D01*
X112508102Y-88844774D01*
X112319744Y-88922795D01*
X112150226Y-89036063D01*
X112006063Y-89180226D01*
X111892795Y-89349744D01*
X111814774Y-89538102D01*
X111775000Y-89738061D01*
X80275000Y-89738061D01*
X80275000Y-89093285D01*
X80357205Y-88970256D01*
X80435226Y-88781898D01*
X80475000Y-88581939D01*
X80475000Y-88378061D01*
X80435226Y-88178102D01*
X80357205Y-87989744D01*
X80243937Y-87820226D01*
X80099774Y-87676063D01*
X79930256Y-87562795D01*
X79741898Y-87484774D01*
X79541939Y-87445000D01*
X79338061Y-87445000D01*
X79138102Y-87484774D01*
X78949744Y-87562795D01*
X78780226Y-87676063D01*
X78636063Y-87820226D01*
X78522795Y-87989744D01*
X78444774Y-88178102D01*
X78405000Y-88378061D01*
X74781785Y-88378061D01*
X74823000Y-88170863D01*
X74823000Y-87957137D01*
X74781304Y-87747517D01*
X74699515Y-87550060D01*
X74580775Y-87372353D01*
X74429647Y-87221225D01*
X74251940Y-87102485D01*
X74054483Y-87020696D01*
X73844863Y-86979000D01*
X73631137Y-86979000D01*
X73421517Y-87020696D01*
X73224060Y-87102485D01*
X73046353Y-87221225D01*
X72895225Y-87372353D01*
X72776485Y-87550060D01*
X72694696Y-87747517D01*
X72653000Y-87957137D01*
X68069967Y-87957137D01*
X68069967Y-50960000D01*
X69991928Y-50960000D01*
X69991928Y-52160000D01*
X70008992Y-52333254D01*
X70059528Y-52499850D01*
X70141595Y-52653386D01*
X70252038Y-52787962D01*
X70386614Y-52898405D01*
X70513608Y-52966285D01*
X70326525Y-53153368D01*
X70164010Y-53396589D01*
X70052068Y-53666842D01*
X69995000Y-53953740D01*
X69995000Y-54246260D01*
X70052068Y-54533158D01*
X70164010Y-54803411D01*
X70326525Y-55046632D01*
X70533368Y-55253475D01*
X70707760Y-55370000D01*
X70533368Y-55486525D01*
X70326525Y-55693368D01*
X70164010Y-55936589D01*
X70052068Y-56206842D01*
X69995000Y-56493740D01*
X69995000Y-56786260D01*
X70052068Y-57073158D01*
X70164010Y-57343411D01*
X70326525Y-57586632D01*
X70533368Y-57793475D01*
X70707760Y-57910000D01*
X70533368Y-58026525D01*
X70326525Y-58233368D01*
X70164010Y-58476589D01*
X70052068Y-58746842D01*
X69995000Y-59033740D01*
X69995000Y-59326260D01*
X70052068Y-59613158D01*
X70164010Y-59883411D01*
X70326525Y-60126632D01*
X70533368Y-60333475D01*
X70776589Y-60495990D01*
X71046842Y-60607932D01*
X71333740Y-60665000D01*
X71626260Y-60665000D01*
X71913158Y-60607932D01*
X72183411Y-60495990D01*
X72426632Y-60333475D01*
X72633475Y-60126632D01*
X72750000Y-59952240D01*
X72866525Y-60126632D01*
X73073368Y-60333475D01*
X73316589Y-60495990D01*
X73586842Y-60607932D01*
X73873740Y-60665000D01*
X74166260Y-60665000D01*
X74453158Y-60607932D01*
X74723411Y-60495990D01*
X74966632Y-60333475D01*
X75173475Y-60126632D01*
X75335990Y-59883411D01*
X75447932Y-59613158D01*
X75505000Y-59326260D01*
X75505000Y-59033740D01*
X75447932Y-58746842D01*
X75335990Y-58476589D01*
X75173475Y-58233368D01*
X74966632Y-58026525D01*
X74792240Y-57910000D01*
X74966632Y-57793475D01*
X75173475Y-57586632D01*
X75335990Y-57343411D01*
X75447932Y-57073158D01*
X75505000Y-56786260D01*
X75505000Y-56493740D01*
X75447932Y-56206842D01*
X75335990Y-55936589D01*
X75173475Y-55693368D01*
X74966632Y-55486525D01*
X74792240Y-55370000D01*
X74966632Y-55253475D01*
X75173475Y-55046632D01*
X75335990Y-54803411D01*
X75447932Y-54533158D01*
X75505000Y-54246260D01*
X75505000Y-53953740D01*
X75447932Y-53666842D01*
X75335990Y-53396589D01*
X75173475Y-53153368D01*
X74966632Y-52946525D01*
X74792240Y-52830000D01*
X74966632Y-52713475D01*
X75173475Y-52506632D01*
X75335990Y-52263411D01*
X75447932Y-51993158D01*
X75505000Y-51706260D01*
X75505000Y-51413740D01*
X75447932Y-51126842D01*
X75335990Y-50856589D01*
X75173475Y-50613368D01*
X74966632Y-50406525D01*
X74723411Y-50244010D01*
X74453158Y-50132068D01*
X74166260Y-50075000D01*
X73873740Y-50075000D01*
X73586842Y-50132068D01*
X73316589Y-50244010D01*
X73073368Y-50406525D01*
X72886285Y-50593608D01*
X72818405Y-50466614D01*
X72707962Y-50332038D01*
X72573386Y-50221595D01*
X72419850Y-50139528D01*
X72253254Y-50088992D01*
X72080000Y-50071928D01*
X70880000Y-50071928D01*
X70706746Y-50088992D01*
X70540150Y-50139528D01*
X70386614Y-50221595D01*
X70252038Y-50332038D01*
X70141595Y-50466614D01*
X70059528Y-50620150D01*
X70008992Y-50786746D01*
X69991928Y-50960000D01*
X68069967Y-50960000D01*
X68069967Y-39779872D01*
X70765000Y-39779872D01*
X70765000Y-40220128D01*
X70850890Y-40651925D01*
X71019369Y-41058669D01*
X71263962Y-41424729D01*
X71575271Y-41736038D01*
X71941331Y-41980631D01*
X72348075Y-42149110D01*
X72779872Y-42235000D01*
X73220128Y-42235000D01*
X73651925Y-42149110D01*
X74058669Y-41980631D01*
X74424729Y-41736038D01*
X74736038Y-41424729D01*
X74980631Y-41058669D01*
X75149110Y-40651925D01*
X75235000Y-40220128D01*
X75235000Y-39779872D01*
X75149110Y-39348075D01*
X74980631Y-38941331D01*
X74736038Y-38575271D01*
X74424729Y-38263962D01*
X74058669Y-38019369D01*
X73651925Y-37850890D01*
X73220128Y-37765000D01*
X72779872Y-37765000D01*
X72348075Y-37850890D01*
X71941331Y-38019369D01*
X71575271Y-38263962D01*
X71263962Y-38575271D01*
X71019369Y-38941331D01*
X70850890Y-39348075D01*
X70765000Y-39779872D01*
X68069967Y-39779872D01*
X68069967Y-36214728D01*
X68088543Y-36025270D01*
X68133482Y-35876425D01*
X68206470Y-35739153D01*
X68304735Y-35618669D01*
X68424531Y-35519565D01*
X68561294Y-35445618D01*
X68709815Y-35399643D01*
X68897023Y-35379967D01*
X82846782Y-35379967D01*
X82772146Y-35626037D01*
G04 #@! TA.AperFunction,Conductor*
D26*
G36*
X82772146Y-35626037D02*
G01*
X82740588Y-35946553D01*
X82772165Y-36267068D01*
X82865666Y-36575264D01*
X83017496Y-36859296D01*
X83221821Y-37108252D01*
X83470789Y-37312561D01*
X83754831Y-37464373D01*
X84063033Y-37557854D01*
X84303227Y-37581504D01*
X85770663Y-37581458D01*
X85734774Y-37668102D01*
X85695000Y-37868061D01*
X85695000Y-38071939D01*
X85734774Y-38271898D01*
X85812795Y-38460256D01*
X85926063Y-38629774D01*
X85945000Y-38648711D01*
X85945001Y-43851430D01*
X85945000Y-43851440D01*
X85945000Y-44374843D01*
X85443905Y-44875938D01*
X85463000Y-44779939D01*
X85463000Y-44576061D01*
X85423226Y-44376102D01*
X85345205Y-44187744D01*
X85231937Y-44018226D01*
X85087774Y-43874063D01*
X84918256Y-43760795D01*
X84729898Y-43682774D01*
X84603805Y-43657693D01*
X84530313Y-43618411D01*
X84363490Y-43567805D01*
X84233477Y-43555000D01*
X84233469Y-43555000D01*
X84190000Y-43550719D01*
X84146531Y-43555000D01*
X81948454Y-43555000D01*
X81900256Y-43522795D01*
X81711898Y-43444774D01*
X81511939Y-43405000D01*
X81308061Y-43405000D01*
X81108102Y-43444774D01*
X80919744Y-43522795D01*
X80750226Y-43636063D01*
X80606063Y-43780226D01*
X80492795Y-43949744D01*
X80414774Y-44138102D01*
X80375000Y-44338061D01*
X80375000Y-44541939D01*
X80414774Y-44741898D01*
X80492795Y-44930256D01*
X80589510Y-45075000D01*
X80388556Y-45075000D01*
X80350000Y-45071203D01*
X80311444Y-45075000D01*
X80311439Y-45075000D01*
X80271026Y-45078980D01*
X80196113Y-45086358D01*
X80073055Y-45123688D01*
X80048140Y-45131246D01*
X79911767Y-45204138D01*
X79792236Y-45302236D01*
X79767655Y-45332188D01*
X77472190Y-47627653D01*
X77442236Y-47652236D01*
X77344138Y-47771768D01*
X77271246Y-47908141D01*
X77226359Y-48056114D01*
X77215000Y-48171440D01*
X77215000Y-48171447D01*
X77211203Y-48210000D01*
X77215000Y-48248553D01*
X77215001Y-53161288D01*
X77196063Y-53180226D01*
X77082795Y-53349744D01*
X77004774Y-53538102D01*
X76965000Y-53738061D01*
X76965000Y-53941939D01*
X77004774Y-54141898D01*
X77082795Y-54330256D01*
X77196063Y-54499774D01*
X77215000Y-54518711D01*
X77215001Y-70471437D01*
X77211203Y-70510000D01*
X77226359Y-70663886D01*
X77271246Y-70811859D01*
X77288727Y-70844564D01*
X77344139Y-70948233D01*
X77384690Y-70997644D01*
X77417655Y-71037812D01*
X77417659Y-71037816D01*
X77442237Y-71067764D01*
X77472185Y-71092342D01*
X78257657Y-71877815D01*
X78282236Y-71907764D01*
X78312184Y-71932342D01*
X78312187Y-71932345D01*
X78341390Y-71956311D01*
X78401767Y-72005862D01*
X78538140Y-72078754D01*
X78605000Y-72099036D01*
X78605000Y-72221939D01*
X78644774Y-72421898D01*
X78722795Y-72610256D01*
X78836063Y-72779774D01*
X78980226Y-72923937D01*
X79149744Y-73037205D01*
X79338102Y-73115226D01*
X79538061Y-73155000D01*
X79741939Y-73155000D01*
X79941898Y-73115226D01*
X80130256Y-73037205D01*
X80253285Y-72955000D01*
X81751817Y-72955000D01*
X81919744Y-73067205D01*
X82108102Y-73145226D01*
X82308061Y-73185000D01*
X82511939Y-73185000D01*
X82711898Y-73145226D01*
X82900256Y-73067205D01*
X83069774Y-72953937D01*
X83213937Y-72809774D01*
X83327205Y-72640256D01*
X83405226Y-72451898D01*
X83445000Y-72251939D01*
X83445000Y-72135000D01*
X85421289Y-72135000D01*
X85440226Y-72153937D01*
X85609744Y-72267205D01*
X85798102Y-72345226D01*
X85998061Y-72385000D01*
X86201939Y-72385000D01*
X86401898Y-72345226D01*
X86489999Y-72308733D01*
X86490000Y-82728161D01*
X86484993Y-82778999D01*
X86504976Y-82981894D01*
X86564159Y-83176992D01*
X86660265Y-83356796D01*
X86757196Y-83474906D01*
X86789604Y-83514395D01*
X86829091Y-83546801D01*
X87749063Y-84466774D01*
X87893226Y-84610937D01*
X87935712Y-84639325D01*
X87975202Y-84671734D01*
X88020256Y-84695816D01*
X88062744Y-84724205D01*
X88109959Y-84743762D01*
X88155006Y-84767840D01*
X88203881Y-84782666D01*
X88251102Y-84802226D01*
X88301229Y-84812197D01*
X88350104Y-84827023D01*
X88400936Y-84832030D01*
X88451061Y-84842000D01*
X88502164Y-84842000D01*
X88553000Y-84847007D01*
X88603835Y-84842000D01*
X88654939Y-84842000D01*
X88705064Y-84832030D01*
X88755895Y-84827023D01*
X88804768Y-84812197D01*
X88854898Y-84802226D01*
X88902122Y-84782665D01*
X88950993Y-84767840D01*
X88996036Y-84743764D01*
X89043256Y-84724205D01*
X89085748Y-84695813D01*
X89130797Y-84671734D01*
X89170284Y-84639328D01*
X89212774Y-84610937D01*
X89248908Y-84574803D01*
X89288396Y-84542396D01*
X89320803Y-84502908D01*
X89356937Y-84466774D01*
X89385328Y-84424284D01*
X89417734Y-84384797D01*
X89441813Y-84339748D01*
X89470205Y-84297256D01*
X89489764Y-84250036D01*
X89513840Y-84204993D01*
X89528665Y-84156122D01*
X89548226Y-84108898D01*
X89558197Y-84058768D01*
X89573023Y-84009895D01*
X89578030Y-83959064D01*
X89588000Y-83908939D01*
X89588000Y-83857835D01*
X89593007Y-83807000D01*
X89588000Y-83756164D01*
X89588000Y-83705061D01*
X89578030Y-83654936D01*
X89573023Y-83604104D01*
X89558197Y-83555229D01*
X89548226Y-83505102D01*
X89528666Y-83457881D01*
X89513840Y-83409006D01*
X89489762Y-83363959D01*
X89470205Y-83316744D01*
X89441816Y-83274256D01*
X89417734Y-83229202D01*
X89385325Y-83189712D01*
X89356937Y-83147226D01*
X89212774Y-83003063D01*
X88559999Y-82350289D01*
X88559999Y-77598061D01*
X94755000Y-77598061D01*
X94755000Y-77801939D01*
X94794774Y-78001898D01*
X94872795Y-78190256D01*
X94955001Y-78313286D01*
X94955000Y-80446715D01*
X94872795Y-80569744D01*
X94794774Y-80758102D01*
X94755000Y-80958061D01*
X94755000Y-81161939D01*
X94794774Y-81361898D01*
X94872795Y-81550256D01*
X94986063Y-81719774D01*
X95130226Y-81863937D01*
X95299744Y-81977205D01*
X95488102Y-82055226D01*
X95688061Y-82095000D01*
X95891939Y-82095000D01*
X96091898Y-82055226D01*
X96280256Y-81977205D01*
X96449774Y-81863937D01*
X96593937Y-81719774D01*
X96707205Y-81550256D01*
X96785226Y-81361898D01*
X96825000Y-81161939D01*
X96825000Y-80958061D01*
X96785226Y-80758102D01*
X96707205Y-80569744D01*
X96625000Y-80446715D01*
X96625000Y-78313285D01*
X96707205Y-78190256D01*
X96785226Y-78001898D01*
X96825000Y-77801939D01*
X96825000Y-77598061D01*
X96785226Y-77398102D01*
X96707205Y-77209744D01*
X96593937Y-77040226D01*
X96449774Y-76896063D01*
X96280256Y-76782795D01*
X96091898Y-76704774D01*
X95891939Y-76665000D01*
X95688061Y-76665000D01*
X95488102Y-76704774D01*
X95299744Y-76782795D01*
X95130226Y-76896063D01*
X94986063Y-77040226D01*
X94872795Y-77209744D01*
X94794774Y-77398102D01*
X94755000Y-77598061D01*
X88559999Y-77598061D01*
X88559999Y-70819654D01*
X88610119Y-70769534D01*
X88763004Y-70540726D01*
X88794999Y-70463484D01*
X88826994Y-70540726D01*
X88979879Y-70769534D01*
X89174464Y-70964119D01*
X89403272Y-71117004D01*
X89657509Y-71222313D01*
X89927407Y-71275999D01*
X90202591Y-71275999D01*
X90472489Y-71222313D01*
X90726726Y-71117004D01*
X90955534Y-70964119D01*
X91150119Y-70769534D01*
X91303004Y-70540726D01*
X91334999Y-70463484D01*
X91366994Y-70540726D01*
X91519879Y-70769534D01*
X91714464Y-70964119D01*
X91943272Y-71117004D01*
X92197509Y-71222313D01*
X92467407Y-71275999D01*
X92742591Y-71275999D01*
X93012489Y-71222313D01*
X93266726Y-71117004D01*
X93495534Y-70964119D01*
X93690119Y-70769534D01*
X93843004Y-70540726D01*
X93874999Y-70463484D01*
X93906994Y-70540726D01*
X94059879Y-70769534D01*
X94254464Y-70964119D01*
X94483272Y-71117004D01*
X94737509Y-71222313D01*
X95007407Y-71275999D01*
X95282591Y-71275999D01*
X95552489Y-71222313D01*
X95806726Y-71117004D01*
X96035534Y-70964119D01*
X96155089Y-70844564D01*
X96899039Y-70844564D01*
X96966019Y-71084655D01*
X97215047Y-71201755D01*
X97482134Y-71268022D01*
X97757016Y-71280909D01*
X98029132Y-71239921D01*
X98288022Y-71146635D01*
X98403979Y-71084655D01*
X98470959Y-70844564D01*
X97684999Y-70058604D01*
X96899039Y-70844564D01*
X96155089Y-70844564D01*
X96230119Y-70769534D01*
X96383004Y-70540726D01*
X96412691Y-70469056D01*
X96417363Y-70482022D01*
X96479343Y-70597979D01*
X96719434Y-70664959D01*
X97505394Y-69878999D01*
X96719434Y-69093039D01*
X96479343Y-69160019D01*
X96415514Y-69295759D01*
X96383004Y-69217272D01*
X96230119Y-68988464D01*
X96035534Y-68793879D01*
X95806726Y-68640994D01*
X95729484Y-68608999D01*
X95806726Y-68577004D01*
X96035534Y-68424119D01*
X96230119Y-68229534D01*
X96383004Y-68000726D01*
X96414999Y-67923484D01*
X96446994Y-68000726D01*
X96599879Y-68229534D01*
X96794464Y-68424119D01*
X97023272Y-68577004D01*
X97094942Y-68606691D01*
X97081976Y-68611363D01*
X96966019Y-68673343D01*
X96899039Y-68913434D01*
X97684999Y-69699394D01*
X98470959Y-68913434D01*
X98403979Y-68673343D01*
X98268239Y-68609514D01*
X98346726Y-68577004D01*
X98575534Y-68424119D01*
X98770119Y-68229534D01*
X98923004Y-68000726D01*
X98954999Y-67923484D01*
X98986994Y-68000726D01*
X99139879Y-68229534D01*
X99334464Y-68424119D01*
X99563272Y-68577004D01*
X99640514Y-68608999D01*
X99563272Y-68640994D01*
X99334464Y-68793879D01*
X99139879Y-68988464D01*
X98986994Y-69217272D01*
X98957307Y-69288942D01*
X98952635Y-69275976D01*
X98890655Y-69160019D01*
X98650564Y-69093039D01*
X97864604Y-69878999D01*
X98650564Y-70664959D01*
X98890655Y-70597979D01*
X98954484Y-70462239D01*
X98986994Y-70540726D01*
X99139879Y-70769534D01*
X99334464Y-70964119D01*
X99563272Y-71117004D01*
X99817509Y-71222313D01*
X100087407Y-71275999D01*
X100362591Y-71275999D01*
X100632489Y-71222313D01*
X100886726Y-71117004D01*
X101115534Y-70964119D01*
X101310119Y-70769534D01*
X101463004Y-70540726D01*
X101494999Y-70463484D01*
X101526994Y-70540726D01*
X101679879Y-70769534D01*
X101874464Y-70964119D01*
X102103272Y-71117004D01*
X102357509Y-71222313D01*
X102627407Y-71275999D01*
X102902591Y-71275999D01*
X103172489Y-71222313D01*
X103426726Y-71117004D01*
X103655534Y-70964119D01*
X103850119Y-70769534D01*
X104003004Y-70540726D01*
X104034999Y-70463484D01*
X104066994Y-70540726D01*
X104219879Y-70769534D01*
X104414464Y-70964119D01*
X104643272Y-71117004D01*
X104897509Y-71222313D01*
X105167407Y-71275999D01*
X105442591Y-71275999D01*
X105712489Y-71222313D01*
X105966726Y-71117004D01*
X106195534Y-70964119D01*
X106390119Y-70769534D01*
X106543004Y-70540726D01*
X106574999Y-70463484D01*
X106606994Y-70540726D01*
X106759879Y-70769534D01*
X106954464Y-70964119D01*
X106959999Y-70967817D01*
X106960000Y-85629029D01*
X106932795Y-85669744D01*
X106854774Y-85858102D01*
X106815000Y-86058061D01*
X106815000Y-86261939D01*
X106854774Y-86461898D01*
X106932795Y-86650256D01*
X107046063Y-86819774D01*
X107190226Y-86963937D01*
X107359744Y-87077205D01*
X107548102Y-87155226D01*
X107748061Y-87195000D01*
X107951939Y-87195000D01*
X108151898Y-87155226D01*
X108340256Y-87077205D01*
X108509774Y-86963937D01*
X108653937Y-86819774D01*
X108767205Y-86650256D01*
X108845226Y-86461898D01*
X108885000Y-86261939D01*
X108885000Y-86058061D01*
X108845226Y-85858102D01*
X108767205Y-85669744D01*
X108729999Y-85614061D01*
X108729999Y-80636890D01*
X120373524Y-80636890D01*
X120465648Y-80899858D01*
X120612504Y-81151193D01*
X120805571Y-81369049D01*
X121037430Y-81545053D01*
X121299170Y-81672442D01*
X121580733Y-81746320D01*
X121813000Y-81606165D01*
X121813000Y-80407000D01*
X122067000Y-80407000D01*
X122067000Y-81606165D01*
X122299267Y-81746320D01*
X122580830Y-81672442D01*
X122842570Y-81545053D01*
X123074429Y-81369049D01*
X123267496Y-81151193D01*
X123414352Y-80899858D01*
X123506476Y-80636890D01*
X123385155Y-80407000D01*
X122067000Y-80407000D01*
X121813000Y-80407000D01*
X120494845Y-80407000D01*
X120373524Y-80636890D01*
X108729999Y-80636890D01*
X108729999Y-76688061D01*
X110475000Y-76688061D01*
X110475000Y-76891939D01*
X110514774Y-77091898D01*
X110592795Y-77280256D01*
X110706063Y-77449774D01*
X110850226Y-77593937D01*
X111019744Y-77707205D01*
X111208102Y-77785226D01*
X111408061Y-77825000D01*
X111611939Y-77825000D01*
X111811898Y-77785226D01*
X112000256Y-77707205D01*
X112169774Y-77593937D01*
X112313937Y-77449774D01*
X112427205Y-77280256D01*
X112505226Y-77091898D01*
X112534093Y-76946775D01*
X113365868Y-76115000D01*
X120579207Y-76115000D01*
X120759866Y-76335134D01*
X120985986Y-76520706D01*
X121003374Y-76530000D01*
X120985986Y-76539294D01*
X120759866Y-76724866D01*
X120574294Y-76950986D01*
X120436401Y-77208966D01*
X120351487Y-77488889D01*
X120322815Y-77780000D01*
X120351487Y-78071111D01*
X120436401Y-78351034D01*
X120574294Y-78609014D01*
X120759866Y-78835134D01*
X120985986Y-79020706D01*
X121011722Y-79034462D01*
X120805571Y-79190951D01*
X120612504Y-79408807D01*
X120465648Y-79660142D01*
X120373524Y-79923110D01*
X120494845Y-80153000D01*
X121813000Y-80153000D01*
X121813000Y-80133000D01*
X122067000Y-80133000D01*
X122067000Y-80153000D01*
X123385155Y-80153000D01*
X123506476Y-79923110D01*
X123414352Y-79660142D01*
X123267496Y-79408807D01*
X123074429Y-79190951D01*
X122868278Y-79034462D01*
X122894014Y-79020706D01*
X123120134Y-78835134D01*
X123305706Y-78609014D01*
X123443599Y-78351034D01*
X123528513Y-78071111D01*
X123557185Y-77780000D01*
X123528513Y-77488889D01*
X123443599Y-77208966D01*
X123305706Y-76950986D01*
X123120134Y-76724866D01*
X122894014Y-76539294D01*
X122876626Y-76530000D01*
X122894014Y-76520706D01*
X123120134Y-76335134D01*
X123305706Y-76109014D01*
X123443599Y-75851034D01*
X123528513Y-75571111D01*
X123557185Y-75280000D01*
X123528513Y-74988889D01*
X123443599Y-74708966D01*
X123305706Y-74450986D01*
X123120134Y-74224866D01*
X123056663Y-74172777D01*
X123158386Y-74118405D01*
X123292962Y-74007962D01*
X123403405Y-73873386D01*
X123485472Y-73719850D01*
X123536008Y-73553254D01*
X123553072Y-73380000D01*
X123553072Y-72180000D01*
X123536008Y-72006746D01*
X123485472Y-71840150D01*
X123403405Y-71686614D01*
X123292962Y-71552038D01*
X123158386Y-71441595D01*
X123004850Y-71359528D01*
X122838254Y-71308992D01*
X122665000Y-71291928D01*
X121215000Y-71291928D01*
X121041746Y-71308992D01*
X120875150Y-71359528D01*
X120721614Y-71441595D01*
X120587038Y-71552038D01*
X120476595Y-71686614D01*
X120394528Y-71840150D01*
X120343992Y-72006746D01*
X120326928Y-72180000D01*
X120326928Y-73380000D01*
X120343992Y-73553254D01*
X120394528Y-73719850D01*
X120476595Y-73873386D01*
X120587038Y-74007962D01*
X120721614Y-74118405D01*
X120823337Y-74172777D01*
X120759866Y-74224866D01*
X120579207Y-74445000D01*
X113061007Y-74445000D01*
X113019999Y-74440961D01*
X112978991Y-74445000D01*
X112978981Y-74445000D01*
X112856311Y-74457082D01*
X112698913Y-74504828D01*
X112553854Y-74582364D01*
X112426709Y-74686709D01*
X112400559Y-74718574D01*
X111353225Y-75765907D01*
X111208102Y-75794774D01*
X111019744Y-75872795D01*
X110850226Y-75986063D01*
X110706063Y-76130226D01*
X110592795Y-76299744D01*
X110514774Y-76488102D01*
X110475000Y-76688061D01*
X108729999Y-76688061D01*
X108729999Y-70967817D01*
X108735534Y-70964119D01*
X108930119Y-70769534D01*
X109083004Y-70540726D01*
X109188313Y-70286489D01*
X109241999Y-70016591D01*
X109241999Y-69741407D01*
X109188313Y-69471509D01*
X109083004Y-69217272D01*
X108930119Y-68988464D01*
X108915654Y-68973999D01*
X121180682Y-68973999D01*
X121261001Y-68981910D01*
X121341320Y-68973999D01*
X121341323Y-68973999D01*
X121581517Y-68950342D01*
X121889716Y-68856851D01*
X122173753Y-68705030D01*
X122422715Y-68500713D01*
X122473925Y-68438313D01*
X122617238Y-68295000D01*
X124239991Y-68295000D01*
X124239991Y-69874594D01*
X124232079Y-69954856D01*
X124239991Y-70035255D01*
X124239991Y-70035312D01*
X124246076Y-70097092D01*
X124240187Y-120690023D01*
X108292252Y-120690013D01*
X107945000Y-120342761D01*
X107945000Y-116779872D01*
X118765000Y-116779872D01*
X118765000Y-117220128D01*
X118850890Y-117651925D01*
X119019369Y-118058669D01*
X119263962Y-118424729D01*
X119575271Y-118736038D01*
X119941331Y-118980631D01*
X120348075Y-119149110D01*
X120779872Y-119235000D01*
X121220128Y-119235000D01*
X121651925Y-119149110D01*
X122058669Y-118980631D01*
X122424729Y-118736038D01*
X122736038Y-118424729D01*
X122980631Y-118058669D01*
X123149110Y-117651925D01*
X123235000Y-117220128D01*
X123235000Y-116779872D01*
X123149110Y-116348075D01*
X122980631Y-115941331D01*
X122736038Y-115575271D01*
X122424729Y-115263962D01*
X122058669Y-115019369D01*
X121651925Y-114850890D01*
X121220128Y-114765000D01*
X120779872Y-114765000D01*
X120348075Y-114850890D01*
X119941331Y-115019369D01*
X119575271Y-115263962D01*
X119263962Y-115575271D01*
X119019369Y-115941331D01*
X118850890Y-116348075D01*
X118765000Y-116779872D01*
X107945000Y-116779872D01*
X107945000Y-112499721D01*
X114245000Y-112499721D01*
X114245000Y-112920279D01*
X114327047Y-113332756D01*
X114487988Y-113721302D01*
X114721637Y-114070983D01*
X115019017Y-114368363D01*
X115368698Y-114602012D01*
X115757244Y-114762953D01*
X116169721Y-114845000D01*
X116590279Y-114845000D01*
X117002756Y-114762953D01*
X117391302Y-114602012D01*
X117740983Y-114368363D01*
X118038363Y-114070983D01*
X118272012Y-113721302D01*
X118432953Y-113332756D01*
X118515000Y-112920279D01*
X118515000Y-112499721D01*
X118432953Y-112087244D01*
X118272012Y-111698698D01*
X118038363Y-111349017D01*
X117740983Y-111051637D01*
X117391302Y-110817988D01*
X117002756Y-110657047D01*
X116590279Y-110575000D01*
X116169721Y-110575000D01*
X115757244Y-110657047D01*
X115368698Y-110817988D01*
X115019017Y-111051637D01*
X114721637Y-111349017D01*
X114487988Y-111698698D01*
X114327047Y-112087244D01*
X114245000Y-112499721D01*
X107945000Y-112499721D01*
X107945000Y-111147885D01*
X108130273Y-111271680D01*
X108391426Y-111379853D01*
X108668665Y-111435000D01*
X108951335Y-111435000D01*
X109228574Y-111379853D01*
X109489727Y-111271680D01*
X109724759Y-111114637D01*
X109810000Y-111029396D01*
X109895241Y-111114637D01*
X110130273Y-111271680D01*
X110391426Y-111379853D01*
X110668665Y-111435000D01*
X110951335Y-111435000D01*
X111228574Y-111379853D01*
X111489727Y-111271680D01*
X111724759Y-111114637D01*
X111846694Y-110992702D01*
X112496903Y-110992702D01*
X112568486Y-111236671D01*
X112823996Y-111357571D01*
X113098184Y-111426300D01*
X113380512Y-111440217D01*
X113660130Y-111398787D01*
X113926292Y-111303603D01*
X114051514Y-111236671D01*
X114123097Y-110992702D01*
X113310000Y-110179605D01*
X112496903Y-110992702D01*
X111846694Y-110992702D01*
X111924637Y-110914759D01*
X112058692Y-110714131D01*
X112073329Y-110741514D01*
X112317298Y-110813097D01*
X113130395Y-110000000D01*
X113489605Y-110000000D01*
X114302702Y-110813097D01*
X114546671Y-110741514D01*
X114667571Y-110486004D01*
X114736300Y-110211816D01*
X114750217Y-109929488D01*
X114708787Y-109649870D01*
X114613603Y-109383708D01*
X114546671Y-109258486D01*
X114302702Y-109186903D01*
X113489605Y-110000000D01*
X113130395Y-110000000D01*
X112317298Y-109186903D01*
X112073329Y-109258486D01*
X112059676Y-109287341D01*
X111924637Y-109085241D01*
X111846694Y-109007298D01*
X112496903Y-109007298D01*
X113310000Y-109820395D01*
X114123097Y-109007298D01*
X114051514Y-108763329D01*
X113796004Y-108642429D01*
X113521816Y-108573700D01*
X113239488Y-108559783D01*
X112959870Y-108601213D01*
X112693708Y-108696397D01*
X112568486Y-108763329D01*
X112496903Y-109007298D01*
X111846694Y-109007298D01*
X111724759Y-108885363D01*
X111489727Y-108728320D01*
X111228574Y-108620147D01*
X110951335Y-108565000D01*
X110668665Y-108565000D01*
X110391426Y-108620147D01*
X110130273Y-108728320D01*
X109895241Y-108885363D01*
X109810000Y-108970604D01*
X109724759Y-108885363D01*
X109489727Y-108728320D01*
X109228574Y-108620147D01*
X108951335Y-108565000D01*
X108668665Y-108565000D01*
X108391426Y-108620147D01*
X108130273Y-108728320D01*
X107895241Y-108885363D01*
X107717023Y-109063581D01*
X107699502Y-109005820D01*
X107640537Y-108895506D01*
X107561185Y-108798815D01*
X107464494Y-108719463D01*
X107354180Y-108660498D01*
X107234482Y-108624188D01*
X107197669Y-108620562D01*
X106938714Y-108482148D01*
X106630515Y-108388657D01*
X106310000Y-108357089D01*
X105989484Y-108388657D01*
X105681285Y-108482148D01*
X105422330Y-108620562D01*
X105385518Y-108624188D01*
X105265820Y-108660498D01*
X105155506Y-108719463D01*
X105058815Y-108798815D01*
X104979463Y-108895506D01*
X104920498Y-109005820D01*
X104884188Y-109125518D01*
X104875305Y-109215710D01*
X104792148Y-109371286D01*
X104698657Y-109679485D01*
X104675000Y-109919679D01*
X104675000Y-111125654D01*
X104600983Y-111051637D01*
X104251302Y-110817988D01*
X103862756Y-110657047D01*
X103450279Y-110575000D01*
X103029721Y-110575000D01*
X102617244Y-110657047D01*
X102228698Y-110817988D01*
X101879017Y-111051637D01*
X101635000Y-111295654D01*
X101635000Y-110728711D01*
X101653937Y-110709774D01*
X101767205Y-110540256D01*
X101845226Y-110351898D01*
X101885000Y-110151939D01*
X101885000Y-109948061D01*
X101845226Y-109748102D01*
X101767205Y-109559744D01*
X101653937Y-109390226D01*
X101509774Y-109246063D01*
X101340256Y-109132795D01*
X101151898Y-109054774D01*
X100951939Y-109015000D01*
X100748061Y-109015000D01*
X100548102Y-109054774D01*
X100359744Y-109132795D01*
X100190226Y-109246063D01*
X100046063Y-109390226D01*
X99932795Y-109559744D01*
X99854774Y-109748102D01*
X99815000Y-109948061D01*
X99815000Y-110151939D01*
X99854774Y-110351898D01*
X99932795Y-110540256D01*
X100046063Y-110709774D01*
X100065001Y-110728712D01*
X100065000Y-113783511D01*
X99958102Y-113804774D01*
X99769744Y-113882795D01*
X99600226Y-113996063D01*
X99456063Y-114140226D01*
X99342795Y-114309744D01*
X99264774Y-114498102D01*
X99225000Y-114698061D01*
X99225000Y-114901939D01*
X99264774Y-115101898D01*
X99342795Y-115290256D01*
X99456063Y-115459774D01*
X99600226Y-115603937D01*
X99769744Y-115717205D01*
X99958102Y-115795226D01*
X100158061Y-115835000D01*
X100361939Y-115835000D01*
X100561898Y-115795226D01*
X100750256Y-115717205D01*
X100919774Y-115603937D01*
X101063937Y-115459774D01*
X101177205Y-115290256D01*
X101255226Y-115101898D01*
X101295000Y-114901939D01*
X101295000Y-114875158D01*
X101377816Y-114792342D01*
X101407764Y-114767764D01*
X101440315Y-114728102D01*
X101456450Y-114708441D01*
X101505862Y-114648233D01*
X101578754Y-114511860D01*
X101623641Y-114363887D01*
X101635000Y-114248561D01*
X101635000Y-114248554D01*
X101638797Y-114210001D01*
X101635000Y-114171448D01*
X101635000Y-114124346D01*
X101879017Y-114368363D01*
X102228698Y-114602012D01*
X102617244Y-114762953D01*
X103029721Y-114845000D01*
X103450279Y-114845000D01*
X103862756Y-114762953D01*
X104251302Y-114602012D01*
X104600983Y-114368363D01*
X104675000Y-114294346D01*
X104675001Y-120690011D01*
X98174686Y-120690007D01*
X98174677Y-120690008D01*
X85012240Y-120690000D01*
X83925000Y-119602762D01*
X83925000Y-112499721D01*
X90225000Y-112499721D01*
X90225000Y-112920279D01*
X90307047Y-113332756D01*
X90467988Y-113721302D01*
X90701637Y-114070983D01*
X90999017Y-114368363D01*
X91348698Y-114602012D01*
X91737244Y-114762953D01*
X92149721Y-114845000D01*
X92570279Y-114845000D01*
X92982756Y-114762953D01*
X93371302Y-114602012D01*
X93720983Y-114368363D01*
X94018363Y-114070983D01*
X94025000Y-114061050D01*
X94025000Y-114451447D01*
X94021203Y-114490000D01*
X94025000Y-114528553D01*
X94025000Y-114528560D01*
X94036359Y-114643886D01*
X94081246Y-114791859D01*
X94154138Y-114928232D01*
X94252236Y-115047764D01*
X94282189Y-115072346D01*
X94315000Y-115105157D01*
X94315000Y-115131939D01*
X94354774Y-115331898D01*
X94432795Y-115520256D01*
X94546063Y-115689774D01*
X94690226Y-115833937D01*
X94859744Y-115947205D01*
X95048102Y-116025226D01*
X95248061Y-116065000D01*
X95451939Y-116065000D01*
X95651898Y-116025226D01*
X95840256Y-115947205D01*
X96009774Y-115833937D01*
X96153937Y-115689774D01*
X96267205Y-115520256D01*
X96345226Y-115331898D01*
X96385000Y-115131939D01*
X96385000Y-114928061D01*
X96345226Y-114728102D01*
X96267205Y-114539744D01*
X96153937Y-114370226D01*
X96009774Y-114226063D01*
X95840256Y-114112795D01*
X95651898Y-114034774D01*
X95595000Y-114023456D01*
X95595000Y-110693711D01*
X95613937Y-110674774D01*
X95727205Y-110505256D01*
X95805226Y-110316898D01*
X95845000Y-110116939D01*
X95845000Y-109913061D01*
X95805226Y-109713102D01*
X95727205Y-109524744D01*
X95613937Y-109355226D01*
X95469774Y-109211063D01*
X95300256Y-109097795D01*
X95111898Y-109019774D01*
X94911939Y-108980000D01*
X94708061Y-108980000D01*
X94508102Y-109019774D01*
X94319744Y-109097795D01*
X94150226Y-109211063D01*
X94006063Y-109355226D01*
X93892795Y-109524744D01*
X93814774Y-109713102D01*
X93775000Y-109913061D01*
X93775000Y-110116939D01*
X93814774Y-110316898D01*
X93892795Y-110505256D01*
X94006063Y-110674774D01*
X94025001Y-110693712D01*
X94025001Y-111358951D01*
X94018363Y-111349017D01*
X93720983Y-111051637D01*
X93371302Y-110817988D01*
X92982756Y-110657047D01*
X92570279Y-110575000D01*
X92149721Y-110575000D01*
X91737244Y-110657047D01*
X91348698Y-110817988D01*
X90999017Y-111051637D01*
X90701637Y-111349017D01*
X90467988Y-111698698D01*
X90307047Y-112087244D01*
X90225000Y-112499721D01*
X83925000Y-112499721D01*
X83925000Y-111147885D01*
X84110273Y-111271680D01*
X84371426Y-111379853D01*
X84648665Y-111435000D01*
X84931335Y-111435000D01*
X85208574Y-111379853D01*
X85469727Y-111271680D01*
X85704759Y-111114637D01*
X85790000Y-111029396D01*
X85875241Y-111114637D01*
X86110273Y-111271680D01*
X86371426Y-111379853D01*
X86648665Y-111435000D01*
X86931335Y-111435000D01*
X87208574Y-111379853D01*
X87469727Y-111271680D01*
X87704759Y-111114637D01*
X87826694Y-110992702D01*
X88476903Y-110992702D01*
X88548486Y-111236671D01*
X88803996Y-111357571D01*
X89078184Y-111426300D01*
X89360512Y-111440217D01*
X89640130Y-111398787D01*
X89906292Y-111303603D01*
X90031514Y-111236671D01*
X90103097Y-110992702D01*
X89290000Y-110179605D01*
X88476903Y-110992702D01*
X87826694Y-110992702D01*
X87904637Y-110914759D01*
X88038692Y-110714131D01*
X88053329Y-110741514D01*
X88297298Y-110813097D01*
X89110395Y-110000000D01*
X89469605Y-110000000D01*
X90282702Y-110813097D01*
X90526671Y-110741514D01*
X90647571Y-110486004D01*
X90716300Y-110211816D01*
X90730217Y-109929488D01*
X90688787Y-109649870D01*
X90593603Y-109383708D01*
X90526671Y-109258486D01*
X90282702Y-109186903D01*
X89469605Y-110000000D01*
X89110395Y-110000000D01*
X88297298Y-109186903D01*
X88053329Y-109258486D01*
X88039676Y-109287341D01*
X87904637Y-109085241D01*
X87826694Y-109007298D01*
X88476903Y-109007298D01*
X89290000Y-109820395D01*
X90103097Y-109007298D01*
X90031514Y-108763329D01*
X89776004Y-108642429D01*
X89501816Y-108573700D01*
X89219488Y-108559783D01*
X88939870Y-108601213D01*
X88673708Y-108696397D01*
X88548486Y-108763329D01*
X88476903Y-109007298D01*
X87826694Y-109007298D01*
X87704759Y-108885363D01*
X87469727Y-108728320D01*
X87208574Y-108620147D01*
X86931335Y-108565000D01*
X86648665Y-108565000D01*
X86371426Y-108620147D01*
X86110273Y-108728320D01*
X85875241Y-108885363D01*
X85790000Y-108970604D01*
X85704759Y-108885363D01*
X85469727Y-108728320D01*
X85208574Y-108620147D01*
X84931335Y-108565000D01*
X84648665Y-108565000D01*
X84371426Y-108620147D01*
X84110273Y-108728320D01*
X83875241Y-108885363D01*
X83697023Y-109063581D01*
X83679502Y-109005820D01*
X83620537Y-108895506D01*
X83541185Y-108798815D01*
X83444494Y-108719463D01*
X83334180Y-108660498D01*
X83214482Y-108624188D01*
X83177670Y-108620562D01*
X82918715Y-108482148D01*
X82610516Y-108388657D01*
X82290000Y-108357089D01*
X81969485Y-108388657D01*
X81661286Y-108482148D01*
X81402331Y-108620562D01*
X81365518Y-108624188D01*
X81245820Y-108660498D01*
X81135506Y-108719463D01*
X81038815Y-108798815D01*
X80959463Y-108895506D01*
X80900498Y-109005820D01*
X80864188Y-109125518D01*
X80855305Y-109215711D01*
X80772149Y-109371285D01*
X80678658Y-109679484D01*
X80655001Y-109919678D01*
X80655001Y-111125655D01*
X80580983Y-111051637D01*
X80231302Y-110817988D01*
X79842756Y-110657047D01*
X79430279Y-110575000D01*
X79009721Y-110575000D01*
X78597244Y-110657047D01*
X78208698Y-110817988D01*
X77859017Y-111051637D01*
X77561637Y-111349017D01*
X77327988Y-111698698D01*
X77167047Y-112087244D01*
X77085000Y-112499721D01*
X77085000Y-112920279D01*
X77167047Y-113332756D01*
X77327988Y-113721302D01*
X77561637Y-114070983D01*
X77859017Y-114368363D01*
X78208698Y-114602012D01*
X78597244Y-114762953D01*
X79009721Y-114845000D01*
X79430279Y-114845000D01*
X79842756Y-114762953D01*
X80231302Y-114602012D01*
X80580983Y-114368363D01*
X80655001Y-114294345D01*
X80655000Y-120199680D01*
X80647089Y-120280000D01*
X80655000Y-120360319D01*
X80655000Y-120360321D01*
X80678657Y-120600515D01*
X80772148Y-120908714D01*
X80923969Y-121192751D01*
X81128286Y-121441714D01*
X81190686Y-121492924D01*
X82587769Y-122890008D01*
X68904730Y-122890000D01*
X68715267Y-122871423D01*
X68566426Y-122826485D01*
X68429151Y-122753495D01*
X68308671Y-122655234D01*
X68209565Y-122535436D01*
X68135619Y-122398675D01*
X68089643Y-122250153D01*
X68069967Y-122062944D01*
X68069967Y-116729872D01*
X70765000Y-116729872D01*
X70765000Y-117170128D01*
X70850890Y-117601925D01*
X71019369Y-118008669D01*
X71263962Y-118374729D01*
X71575271Y-118686038D01*
X71941331Y-118930631D01*
X72348075Y-119099110D01*
X72779872Y-119185000D01*
X73220128Y-119185000D01*
X73651925Y-119099110D01*
X74058669Y-118930631D01*
X74424729Y-118686038D01*
X74736038Y-118374729D01*
X74980631Y-118008669D01*
X75149110Y-117601925D01*
X75235000Y-117170128D01*
X75235000Y-116729872D01*
X75149110Y-116298075D01*
X74980631Y-115891331D01*
X74736038Y-115525271D01*
X74424729Y-115213962D01*
X74058669Y-114969369D01*
X73651925Y-114800890D01*
X73220128Y-114715000D01*
X72779872Y-114715000D01*
X72348075Y-114800890D01*
X71941331Y-114969369D01*
X71575271Y-115213962D01*
X71263962Y-115525271D01*
X71019369Y-115891331D01*
X70850890Y-116298075D01*
X70765000Y-116729872D01*
X68069967Y-116729872D01*
X68069967Y-105804564D01*
X79119039Y-105804564D01*
X79186019Y-106044655D01*
X79435047Y-106161755D01*
X79702134Y-106228022D01*
X79977016Y-106240909D01*
X80249132Y-106199921D01*
X80508022Y-106106635D01*
X80623979Y-106044655D01*
X80690959Y-105804564D01*
X79904999Y-105018604D01*
X79119039Y-105804564D01*
X68069967Y-105804564D01*
X68069967Y-104911016D01*
X78503089Y-104911016D01*
X78544077Y-105183132D01*
X78637363Y-105442022D01*
X78699343Y-105557979D01*
X78939434Y-105624959D01*
X79725394Y-104838999D01*
X78939434Y-104053039D01*
X78699343Y-104120019D01*
X78582243Y-104369047D01*
X78515976Y-104636134D01*
X78503089Y-104911016D01*
X68069967Y-104911016D01*
X68069967Y-103264564D01*
X79119039Y-103264564D01*
X79186019Y-103504655D01*
X79316643Y-103566078D01*
X79301976Y-103571363D01*
X79186019Y-103633343D01*
X79119039Y-103873434D01*
X79904999Y-104659394D01*
X80690959Y-103873434D01*
X80623979Y-103633343D01*
X80493355Y-103571920D01*
X80508022Y-103566635D01*
X80623979Y-103504655D01*
X80690959Y-103264564D01*
X79904999Y-102478604D01*
X79119039Y-103264564D01*
X68069967Y-103264564D01*
X68069967Y-102371016D01*
X78503089Y-102371016D01*
X78544077Y-102643132D01*
X78637363Y-102902022D01*
X78699343Y-103017979D01*
X78939434Y-103084959D01*
X79725394Y-102298999D01*
X80084604Y-102298999D01*
X80870564Y-103084959D01*
X81110655Y-103017979D01*
X81174484Y-102882239D01*
X81206994Y-102960726D01*
X81359879Y-103189534D01*
X81554464Y-103384119D01*
X81783272Y-103537004D01*
X81860514Y-103568999D01*
X81783272Y-103600994D01*
X81554464Y-103753879D01*
X81359879Y-103948464D01*
X81206994Y-104177272D01*
X81177307Y-104248942D01*
X81172635Y-104235976D01*
X81110655Y-104120019D01*
X80870564Y-104053039D01*
X80084604Y-104838999D01*
X80870564Y-105624959D01*
X81110655Y-105557979D01*
X81174484Y-105422239D01*
X81206994Y-105500726D01*
X81359879Y-105729534D01*
X81554464Y-105924119D01*
X81783272Y-106077004D01*
X82037509Y-106182313D01*
X82307407Y-106235999D01*
X82582591Y-106235999D01*
X82852489Y-106182313D01*
X83106726Y-106077004D01*
X83335534Y-105924119D01*
X83530119Y-105729534D01*
X83683004Y-105500726D01*
X83714999Y-105423484D01*
X83746994Y-105500726D01*
X83899879Y-105729534D01*
X84094464Y-105924119D01*
X84323272Y-106077004D01*
X84577509Y-106182313D01*
X84847407Y-106235999D01*
X85122591Y-106235999D01*
X85392489Y-106182313D01*
X85646726Y-106077004D01*
X85875534Y-105924119D01*
X86070119Y-105729534D01*
X86223004Y-105500726D01*
X86254999Y-105423484D01*
X86286994Y-105500726D01*
X86439879Y-105729534D01*
X86634464Y-105924119D01*
X86863272Y-106077004D01*
X87117509Y-106182313D01*
X87387407Y-106235999D01*
X87662591Y-106235999D01*
X87932489Y-106182313D01*
X88186726Y-106077004D01*
X88415534Y-105924119D01*
X88610119Y-105729534D01*
X88763004Y-105500726D01*
X88794999Y-105423484D01*
X88826994Y-105500726D01*
X88979879Y-105729534D01*
X89174464Y-105924119D01*
X89403272Y-106077004D01*
X89657509Y-106182313D01*
X89927407Y-106235999D01*
X90202591Y-106235999D01*
X90472489Y-106182313D01*
X90726726Y-106077004D01*
X90955534Y-105924119D01*
X91150119Y-105729534D01*
X91303004Y-105500726D01*
X91334999Y-105423484D01*
X91366994Y-105500726D01*
X91519879Y-105729534D01*
X91714464Y-105924119D01*
X91943272Y-106077004D01*
X92197509Y-106182313D01*
X92467407Y-106235999D01*
X92742591Y-106235999D01*
X93012489Y-106182313D01*
X93266726Y-106077004D01*
X93495534Y-105924119D01*
X93690119Y-105729534D01*
X93843004Y-105500726D01*
X93874999Y-105423484D01*
X93906994Y-105500726D01*
X94059879Y-105729534D01*
X94254464Y-105924119D01*
X94483272Y-106077004D01*
X94737509Y-106182313D01*
X95007407Y-106235999D01*
X95282591Y-106235999D01*
X95552489Y-106182313D01*
X95806726Y-106077004D01*
X96035534Y-105924119D01*
X96230119Y-105729534D01*
X96383004Y-105500726D01*
X96414999Y-105423484D01*
X96446994Y-105500726D01*
X96599879Y-105729534D01*
X96794464Y-105924119D01*
X97023272Y-106077004D01*
X97277509Y-106182313D01*
X97547407Y-106235999D01*
X97822591Y-106235999D01*
X98092489Y-106182313D01*
X98346726Y-106077004D01*
X98575534Y-105924119D01*
X98770119Y-105729534D01*
X98923004Y-105500726D01*
X98954999Y-105423484D01*
X98986994Y-105500726D01*
X99139879Y-105729534D01*
X99334464Y-105924119D01*
X99563272Y-106077004D01*
X99817509Y-106182313D01*
X100087407Y-106235999D01*
X100362591Y-106235999D01*
X100632489Y-106182313D01*
X100886726Y-106077004D01*
X101115534Y-105924119D01*
X101310119Y-105729534D01*
X101463004Y-105500726D01*
X101494999Y-105423484D01*
X101526994Y-105500726D01*
X101679879Y-105729534D01*
X101874464Y-105924119D01*
X102103272Y-106077004D01*
X102357509Y-106182313D01*
X102627407Y-106235999D01*
X102902591Y-106235999D01*
X103172489Y-106182313D01*
X103426726Y-106077004D01*
X103655534Y-105924119D01*
X103850119Y-105729534D01*
X104003004Y-105500726D01*
X104034999Y-105423484D01*
X104066994Y-105500726D01*
X104219879Y-105729534D01*
X104414464Y-105924119D01*
X104643272Y-106077004D01*
X104897509Y-106182313D01*
X105167407Y-106235999D01*
X105442591Y-106235999D01*
X105712489Y-106182313D01*
X105966726Y-106077004D01*
X106195534Y-105924119D01*
X106390119Y-105729534D01*
X106543004Y-105500726D01*
X106574999Y-105423484D01*
X106606994Y-105500726D01*
X106759879Y-105729534D01*
X106954464Y-105924119D01*
X107183272Y-106077004D01*
X107437509Y-106182313D01*
X107707407Y-106235999D01*
X107982591Y-106235999D01*
X108252489Y-106182313D01*
X108506726Y-106077004D01*
X108735534Y-105924119D01*
X108930119Y-105729534D01*
X109083004Y-105500726D01*
X109188313Y-105246489D01*
X109241999Y-104976591D01*
X109241999Y-104701407D01*
X109188313Y-104431509D01*
X109083004Y-104177272D01*
X108930119Y-103948464D01*
X108735534Y-103753879D01*
X108506726Y-103600994D01*
X108252489Y-103495685D01*
X107982591Y-103441999D01*
X107707407Y-103441999D01*
X107437509Y-103495685D01*
X107183272Y-103600994D01*
X106954464Y-103753879D01*
X106759879Y-103948464D01*
X106606994Y-104177272D01*
X106574999Y-104254514D01*
X106543004Y-104177272D01*
X106390119Y-103948464D01*
X106195534Y-103753879D01*
X105966726Y-103600994D01*
X105712489Y-103495685D01*
X105442591Y-103441999D01*
X105167407Y-103441999D01*
X104897509Y-103495685D01*
X104643272Y-103600994D01*
X104414464Y-103753879D01*
X104219879Y-103948464D01*
X104066994Y-104177272D01*
X104034999Y-104254514D01*
X104003004Y-104177272D01*
X103850119Y-103948464D01*
X103655534Y-103753879D01*
X103426726Y-103600994D01*
X103172489Y-103495685D01*
X102902591Y-103441999D01*
X102627407Y-103441999D01*
X102357509Y-103495685D01*
X102103272Y-103600994D01*
X101874464Y-103753879D01*
X101679879Y-103948464D01*
X101526994Y-104177272D01*
X101494999Y-104254514D01*
X101463004Y-104177272D01*
X101310119Y-103948464D01*
X101115534Y-103753879D01*
X100886726Y-103600994D01*
X100632489Y-103495685D01*
X100362591Y-103441999D01*
X100087407Y-103441999D01*
X99817509Y-103495685D01*
X99563272Y-103600994D01*
X99334464Y-103753879D01*
X99139879Y-103948464D01*
X98986994Y-104177272D01*
X98954999Y-104254514D01*
X98923004Y-104177272D01*
X98770119Y-103948464D01*
X98575534Y-103753879D01*
X98346726Y-103600994D01*
X98269484Y-103568999D01*
X98346726Y-103537004D01*
X98575534Y-103384119D01*
X98770119Y-103189534D01*
X98923004Y-102960726D01*
X99028313Y-102706489D01*
X99059440Y-102550000D01*
X120322815Y-102550000D01*
X120351487Y-102841111D01*
X120436401Y-103121034D01*
X120574294Y-103379014D01*
X120759866Y-103605134D01*
X120985986Y-103790706D01*
X121003374Y-103800000D01*
X120985986Y-103809294D01*
X120759866Y-103994866D01*
X120574294Y-104220986D01*
X120436401Y-104478966D01*
X120351487Y-104758889D01*
X120322815Y-105050000D01*
X120351487Y-105341111D01*
X120436401Y-105621034D01*
X120574294Y-105879014D01*
X120759866Y-106105134D01*
X120985986Y-106290706D01*
X121243966Y-106428599D01*
X121523889Y-106513513D01*
X121742050Y-106535000D01*
X122137950Y-106535000D01*
X122356111Y-106513513D01*
X122636034Y-106428599D01*
X122894014Y-106290706D01*
X123120134Y-106105134D01*
X123305706Y-105879014D01*
X123443599Y-105621034D01*
X123528513Y-105341111D01*
X123557185Y-105050000D01*
X123528513Y-104758889D01*
X123443599Y-104478966D01*
X123305706Y-104220986D01*
X123120134Y-103994866D01*
X122894014Y-103809294D01*
X122876626Y-103800000D01*
X122894014Y-103790706D01*
X123120134Y-103605134D01*
X123305706Y-103379014D01*
X123443599Y-103121034D01*
X123528513Y-102841111D01*
X123557185Y-102550000D01*
X123528513Y-102258889D01*
X123443599Y-101978966D01*
X123305706Y-101720986D01*
X123120134Y-101494866D01*
X123056663Y-101442777D01*
X123158386Y-101388405D01*
X123292962Y-101277962D01*
X123403405Y-101143386D01*
X123485472Y-100989850D01*
X123536008Y-100823254D01*
X123553072Y-100650000D01*
X123553072Y-99450000D01*
X123536008Y-99276746D01*
X123485472Y-99110150D01*
X123403405Y-98956614D01*
X123292962Y-98822038D01*
X123158386Y-98711595D01*
X123004850Y-98629528D01*
X122838254Y-98578992D01*
X122665000Y-98561928D01*
X121215000Y-98561928D01*
X121041746Y-98578992D01*
X120875150Y-98629528D01*
X120721614Y-98711595D01*
X120587038Y-98822038D01*
X120476595Y-98956614D01*
X120394528Y-99110150D01*
X120343992Y-99276746D01*
X120326928Y-99450000D01*
X120326928Y-100650000D01*
X120343992Y-100823254D01*
X120394528Y-100989850D01*
X120476595Y-101143386D01*
X120587038Y-101277962D01*
X120721614Y-101388405D01*
X120823337Y-101442777D01*
X120759866Y-101494866D01*
X120574294Y-101720986D01*
X120436401Y-101978966D01*
X120351487Y-102258889D01*
X120322815Y-102550000D01*
X99059440Y-102550000D01*
X99081999Y-102436591D01*
X99081999Y-102161407D01*
X99028313Y-101891509D01*
X98923004Y-101637272D01*
X98770119Y-101408464D01*
X98575534Y-101213879D01*
X98346726Y-101060994D01*
X98092489Y-100955685D01*
X97822591Y-100901999D01*
X97547407Y-100901999D01*
X97277509Y-100955685D01*
X97023272Y-101060994D01*
X96794464Y-101213879D01*
X96599879Y-101408464D01*
X96446994Y-101637272D01*
X96414999Y-101714514D01*
X96383004Y-101637272D01*
X96230119Y-101408464D01*
X96035534Y-101213879D01*
X95806726Y-101060994D01*
X95552489Y-100955685D01*
X95282591Y-100901999D01*
X95007407Y-100901999D01*
X94737509Y-100955685D01*
X94483272Y-101060994D01*
X94254464Y-101213879D01*
X94059879Y-101408464D01*
X93906994Y-101637272D01*
X93874999Y-101714514D01*
X93843004Y-101637272D01*
X93690119Y-101408464D01*
X93495534Y-101213879D01*
X93266726Y-101060994D01*
X93012489Y-100955685D01*
X92742591Y-100901999D01*
X92467407Y-100901999D01*
X92197509Y-100955685D01*
X91943272Y-101060994D01*
X91714464Y-101213879D01*
X91519879Y-101408464D01*
X91366994Y-101637272D01*
X91334999Y-101714514D01*
X91303004Y-101637272D01*
X91150119Y-101408464D01*
X90955534Y-101213879D01*
X90726726Y-101060994D01*
X90472489Y-100955685D01*
X90202591Y-100901999D01*
X89927407Y-100901999D01*
X89657509Y-100955685D01*
X89403272Y-101060994D01*
X89174464Y-101213879D01*
X88979879Y-101408464D01*
X88826994Y-101637272D01*
X88794999Y-101714514D01*
X88763004Y-101637272D01*
X88610119Y-101408464D01*
X88415534Y-101213879D01*
X88186726Y-101060994D01*
X87932489Y-100955685D01*
X87662591Y-100901999D01*
X87387407Y-100901999D01*
X87117509Y-100955685D01*
X86863272Y-101060994D01*
X86634464Y-101213879D01*
X86439879Y-101408464D01*
X86286994Y-101637272D01*
X86254999Y-101714514D01*
X86223004Y-101637272D01*
X86070119Y-101408464D01*
X85875534Y-101213879D01*
X85646726Y-101060994D01*
X85392489Y-100955685D01*
X85122591Y-100901999D01*
X84847407Y-100901999D01*
X84577509Y-100955685D01*
X84323272Y-101060994D01*
X84094464Y-101213879D01*
X83899879Y-101408464D01*
X83746994Y-101637272D01*
X83714999Y-101714514D01*
X83683004Y-101637272D01*
X83530119Y-101408464D01*
X83335534Y-101213879D01*
X83106726Y-101060994D01*
X82852489Y-100955685D01*
X82582591Y-100901999D01*
X82307407Y-100901999D01*
X82037509Y-100955685D01*
X81783272Y-101060994D01*
X81554464Y-101213879D01*
X81359879Y-101408464D01*
X81206994Y-101637272D01*
X81177307Y-101708942D01*
X81172635Y-101695976D01*
X81110655Y-101580019D01*
X80870564Y-101513039D01*
X80084604Y-102298999D01*
X79725394Y-102298999D01*
X78939434Y-101513039D01*
X78699343Y-101580019D01*
X78582243Y-101829047D01*
X78515976Y-102096134D01*
X78503089Y-102371016D01*
X68069967Y-102371016D01*
X68069967Y-101333434D01*
X79119039Y-101333434D01*
X79904999Y-102119394D01*
X80690959Y-101333434D01*
X80623979Y-101093343D01*
X80374951Y-100976243D01*
X80107864Y-100909976D01*
X79832982Y-100897089D01*
X79560866Y-100938077D01*
X79301976Y-101031363D01*
X79186019Y-101093343D01*
X79119039Y-101333434D01*
X68069967Y-101333434D01*
X68069967Y-99551039D01*
X100502096Y-99551039D01*
X100542754Y-99685087D01*
X100662963Y-99939420D01*
X100830481Y-100165414D01*
X101038869Y-100354385D01*
X101280119Y-100499070D01*
X101544960Y-100593909D01*
X101767000Y-100472624D01*
X101767000Y-99329000D01*
X102021000Y-99329000D01*
X102021000Y-100472624D01*
X102243040Y-100593909D01*
X102507881Y-100499070D01*
X102749131Y-100354385D01*
X102957519Y-100165414D01*
X103125037Y-99939420D01*
X103245246Y-99685087D01*
X103285904Y-99551039D01*
X103163915Y-99329000D01*
X102021000Y-99329000D01*
X101767000Y-99329000D01*
X100624085Y-99329000D01*
X100502096Y-99551039D01*
X68069967Y-99551039D01*
X68069967Y-92357137D01*
X72653000Y-92357137D01*
X72653000Y-92570863D01*
X72694696Y-92780483D01*
X72776485Y-92977940D01*
X72895225Y-93155647D01*
X73046353Y-93306775D01*
X73224060Y-93425515D01*
X73421517Y-93507304D01*
X73631137Y-93549000D01*
X73844863Y-93549000D01*
X74054483Y-93507304D01*
X74251940Y-93425515D01*
X74429647Y-93306775D01*
X74580775Y-93155647D01*
X74699515Y-92977940D01*
X74781304Y-92780483D01*
X74823000Y-92570863D01*
X74823000Y-92357137D01*
X74781304Y-92147517D01*
X74699515Y-91950060D01*
X74580775Y-91772353D01*
X74429647Y-91621225D01*
X74251940Y-91502485D01*
X74054483Y-91420696D01*
X73844863Y-91379000D01*
X73631137Y-91379000D01*
X73421517Y-91420696D01*
X73224060Y-91502485D01*
X73046353Y-91621225D01*
X72895225Y-91772353D01*
X72776485Y-91950060D01*
X72694696Y-92147517D01*
X72653000Y-92357137D01*
X68069967Y-92357137D01*
X68069967Y-87957137D01*
X72653000Y-87957137D01*
X72653000Y-88170863D01*
X72694696Y-88380483D01*
X72776485Y-88577940D01*
X72895225Y-88755647D01*
X73046353Y-88906775D01*
X73224060Y-89025515D01*
X73421517Y-89107304D01*
X73631137Y-89149000D01*
X73844863Y-89149000D01*
X74054483Y-89107304D01*
X74251940Y-89025515D01*
X74429647Y-88906775D01*
X74580775Y-88755647D01*
X74699515Y-88577940D01*
X74781304Y-88380483D01*
X74781785Y-88378061D01*
X78405000Y-88378061D01*
X78405000Y-88581939D01*
X78444774Y-88781898D01*
X78522795Y-88970256D01*
X78605001Y-89093286D01*
X78605000Y-90958981D01*
X78600960Y-91000000D01*
X78605000Y-91041018D01*
X78617082Y-91163688D01*
X78664828Y-91321086D01*
X78742364Y-91466145D01*
X78846709Y-91593291D01*
X78878579Y-91619446D01*
X84045908Y-96786775D01*
X84074774Y-96931898D01*
X84152795Y-97120256D01*
X84266063Y-97289774D01*
X84410226Y-97433937D01*
X84579744Y-97547205D01*
X84768102Y-97625226D01*
X84968061Y-97665000D01*
X85171939Y-97665000D01*
X85371898Y-97625226D01*
X85560256Y-97547205D01*
X85729774Y-97433937D01*
X85873937Y-97289774D01*
X85987205Y-97120256D01*
X86065226Y-96931898D01*
X86105000Y-96731939D01*
X86105000Y-96528061D01*
X86065226Y-96328102D01*
X85987205Y-96139744D01*
X85873937Y-95970226D01*
X85765711Y-95862000D01*
X100455928Y-95862000D01*
X100455928Y-97462000D01*
X100468188Y-97586482D01*
X100504498Y-97706180D01*
X100563463Y-97816494D01*
X100642815Y-97913185D01*
X100739506Y-97992537D01*
X100849820Y-98051502D01*
X100969518Y-98087812D01*
X100994080Y-98090231D01*
X100830481Y-98238586D01*
X100662963Y-98464580D01*
X100542754Y-98718913D01*
X100502096Y-98852961D01*
X100624085Y-99075000D01*
X101767000Y-99075000D01*
X101767000Y-99055000D01*
X102021000Y-99055000D01*
X102021000Y-99075000D01*
X103163915Y-99075000D01*
X103285904Y-98852961D01*
X103245246Y-98718913D01*
X103125037Y-98464580D01*
X102957519Y-98238586D01*
X102793920Y-98090231D01*
X102818482Y-98087812D01*
X102938180Y-98051502D01*
X103048494Y-97992537D01*
X103145185Y-97913185D01*
X103224537Y-97816494D01*
X103283502Y-97706180D01*
X103319812Y-97586482D01*
X103332072Y-97462000D01*
X103332072Y-96520665D01*
X108079000Y-96520665D01*
X108079000Y-96803335D01*
X108134147Y-97080574D01*
X108242320Y-97341727D01*
X108399363Y-97576759D01*
X108599241Y-97776637D01*
X108831759Y-97932000D01*
X108599241Y-98087363D01*
X108399363Y-98287241D01*
X108242320Y-98522273D01*
X108134147Y-98783426D01*
X108079000Y-99060665D01*
X108079000Y-99343335D01*
X108134147Y-99620574D01*
X108242320Y-99881727D01*
X108399363Y-100116759D01*
X108599241Y-100316637D01*
X108834273Y-100473680D01*
X109095426Y-100581853D01*
X109372665Y-100637000D01*
X109655335Y-100637000D01*
X109932574Y-100581853D01*
X110193727Y-100473680D01*
X110428759Y-100316637D01*
X110628637Y-100116759D01*
X110785680Y-99881727D01*
X110893853Y-99620574D01*
X110949000Y-99343335D01*
X110949000Y-99060665D01*
X110893853Y-98783426D01*
X110785680Y-98522273D01*
X110628637Y-98287241D01*
X110428759Y-98087363D01*
X110196241Y-97932000D01*
X110428759Y-97776637D01*
X110628637Y-97576759D01*
X110785680Y-97341727D01*
X110893853Y-97080574D01*
X110949000Y-96803335D01*
X110949000Y-96520665D01*
X110893853Y-96243426D01*
X110785680Y-95982273D01*
X110628637Y-95747241D01*
X110428759Y-95547363D01*
X110193727Y-95390320D01*
X109932574Y-95282147D01*
X109655335Y-95227000D01*
X109372665Y-95227000D01*
X109095426Y-95282147D01*
X108834273Y-95390320D01*
X108599241Y-95547363D01*
X108399363Y-95747241D01*
X108242320Y-95982273D01*
X108134147Y-96243426D01*
X108079000Y-96520665D01*
X103332072Y-96520665D01*
X103332072Y-95862000D01*
X103319812Y-95737518D01*
X103283502Y-95617820D01*
X103224537Y-95507506D01*
X103145185Y-95410815D01*
X103048494Y-95331463D01*
X102938180Y-95272498D01*
X102818482Y-95236188D01*
X102694000Y-95223928D01*
X101094000Y-95223928D01*
X100969518Y-95236188D01*
X100849820Y-95272498D01*
X100739506Y-95331463D01*
X100642815Y-95410815D01*
X100563463Y-95507506D01*
X100504498Y-95617820D01*
X100468188Y-95737518D01*
X100455928Y-95862000D01*
X85765711Y-95862000D01*
X85729774Y-95826063D01*
X85560256Y-95712795D01*
X85371898Y-95634774D01*
X85226775Y-95605908D01*
X80275000Y-90654133D01*
X80275000Y-89738061D01*
X111775000Y-89738061D01*
X111775000Y-89941939D01*
X111814774Y-90141898D01*
X111892795Y-90330256D01*
X111994487Y-90482449D01*
X111922795Y-90589744D01*
X111844774Y-90778102D01*
X111805000Y-90978061D01*
X111805000Y-91181939D01*
X111844774Y-91381898D01*
X111922795Y-91570256D01*
X112036063Y-91739774D01*
X112180226Y-91883937D01*
X112349744Y-91997205D01*
X112538102Y-92075226D01*
X112701870Y-92107801D01*
X112713854Y-92117636D01*
X112858913Y-92195172D01*
X113016311Y-92242918D01*
X113138981Y-92255000D01*
X113138982Y-92255000D01*
X113180000Y-92259040D01*
X113221018Y-92255000D01*
X120579207Y-92255000D01*
X120759866Y-92475134D01*
X120985986Y-92660706D01*
X121003374Y-92670000D01*
X120985986Y-92679294D01*
X120759866Y-92864866D01*
X120574294Y-93090986D01*
X120436401Y-93348966D01*
X120351487Y-93628889D01*
X120322815Y-93920000D01*
X120351487Y-94211111D01*
X120436401Y-94491034D01*
X120574294Y-94749014D01*
X120759866Y-94975134D01*
X120985986Y-95160706D01*
X121243966Y-95298599D01*
X121523889Y-95383513D01*
X121742050Y-95405000D01*
X122137950Y-95405000D01*
X122356111Y-95383513D01*
X122636034Y-95298599D01*
X122894014Y-95160706D01*
X123120134Y-94975134D01*
X123305706Y-94749014D01*
X123443599Y-94491034D01*
X123528513Y-94211111D01*
X123557185Y-93920000D01*
X123528513Y-93628889D01*
X123443599Y-93348966D01*
X123305706Y-93090986D01*
X123120134Y-92864866D01*
X122894014Y-92679294D01*
X122876626Y-92670000D01*
X122894014Y-92660706D01*
X123120134Y-92475134D01*
X123305706Y-92249014D01*
X123443599Y-91991034D01*
X123528513Y-91711111D01*
X123557185Y-91420000D01*
X123528513Y-91128889D01*
X123443599Y-90848966D01*
X123305706Y-90590986D01*
X123120134Y-90364866D01*
X122894014Y-90179294D01*
X122876626Y-90170000D01*
X122894014Y-90160706D01*
X123120134Y-89975134D01*
X123305706Y-89749014D01*
X123443599Y-89491034D01*
X123528513Y-89211111D01*
X123557185Y-88920000D01*
X123528513Y-88628889D01*
X123443599Y-88348966D01*
X123305706Y-88090986D01*
X123120134Y-87864866D01*
X123056663Y-87812777D01*
X123158386Y-87758405D01*
X123292962Y-87647962D01*
X123403405Y-87513386D01*
X123485472Y-87359850D01*
X123536008Y-87193254D01*
X123553072Y-87020000D01*
X123553072Y-85820000D01*
X123536008Y-85646746D01*
X123485472Y-85480150D01*
X123403405Y-85326614D01*
X123292962Y-85192038D01*
X123158386Y-85081595D01*
X123004850Y-84999528D01*
X122838254Y-84948992D01*
X122665000Y-84931928D01*
X121215000Y-84931928D01*
X121041746Y-84948992D01*
X120875150Y-84999528D01*
X120721614Y-85081595D01*
X120587038Y-85192038D01*
X120476595Y-85326614D01*
X120394528Y-85480150D01*
X120343992Y-85646746D01*
X120326928Y-85820000D01*
X120326928Y-87020000D01*
X120343992Y-87193254D01*
X120394528Y-87359850D01*
X120476595Y-87513386D01*
X120587038Y-87647962D01*
X120721614Y-87758405D01*
X120823337Y-87812777D01*
X120759866Y-87864866D01*
X120579207Y-88085000D01*
X120041007Y-88085000D01*
X119999999Y-88080961D01*
X119958991Y-88085000D01*
X119958981Y-88085000D01*
X119836311Y-88097082D01*
X119678913Y-88144828D01*
X119533854Y-88222364D01*
X119406709Y-88326709D01*
X119380558Y-88358574D01*
X118734133Y-89005000D01*
X113423285Y-89005000D01*
X113300256Y-88922795D01*
X113111898Y-88844774D01*
X112911939Y-88805000D01*
X112708061Y-88805000D01*
X112508102Y-88844774D01*
X112319744Y-88922795D01*
X112150226Y-89036063D01*
X112006063Y-89180226D01*
X111892795Y-89349744D01*
X111814774Y-89538102D01*
X111775000Y-89738061D01*
X80275000Y-89738061D01*
X80275000Y-89093285D01*
X80357205Y-88970256D01*
X80435226Y-88781898D01*
X80475000Y-88581939D01*
X80475000Y-88378061D01*
X80435226Y-88178102D01*
X80357205Y-87989744D01*
X80243937Y-87820226D01*
X80099774Y-87676063D01*
X79930256Y-87562795D01*
X79741898Y-87484774D01*
X79541939Y-87445000D01*
X79338061Y-87445000D01*
X79138102Y-87484774D01*
X78949744Y-87562795D01*
X78780226Y-87676063D01*
X78636063Y-87820226D01*
X78522795Y-87989744D01*
X78444774Y-88178102D01*
X78405000Y-88378061D01*
X74781785Y-88378061D01*
X74823000Y-88170863D01*
X74823000Y-87957137D01*
X74781304Y-87747517D01*
X74699515Y-87550060D01*
X74580775Y-87372353D01*
X74429647Y-87221225D01*
X74251940Y-87102485D01*
X74054483Y-87020696D01*
X73844863Y-86979000D01*
X73631137Y-86979000D01*
X73421517Y-87020696D01*
X73224060Y-87102485D01*
X73046353Y-87221225D01*
X72895225Y-87372353D01*
X72776485Y-87550060D01*
X72694696Y-87747517D01*
X72653000Y-87957137D01*
X68069967Y-87957137D01*
X68069967Y-50960000D01*
X69991928Y-50960000D01*
X69991928Y-52160000D01*
X70008992Y-52333254D01*
X70059528Y-52499850D01*
X70141595Y-52653386D01*
X70252038Y-52787962D01*
X70386614Y-52898405D01*
X70513608Y-52966285D01*
X70326525Y-53153368D01*
X70164010Y-53396589D01*
X70052068Y-53666842D01*
X69995000Y-53953740D01*
X69995000Y-54246260D01*
X70052068Y-54533158D01*
X70164010Y-54803411D01*
X70326525Y-55046632D01*
X70533368Y-55253475D01*
X70707760Y-55370000D01*
X70533368Y-55486525D01*
X70326525Y-55693368D01*
X70164010Y-55936589D01*
X70052068Y-56206842D01*
X69995000Y-56493740D01*
X69995000Y-56786260D01*
X70052068Y-57073158D01*
X70164010Y-57343411D01*
X70326525Y-57586632D01*
X70533368Y-57793475D01*
X70707760Y-57910000D01*
X70533368Y-58026525D01*
X70326525Y-58233368D01*
X70164010Y-58476589D01*
X70052068Y-58746842D01*
X69995000Y-59033740D01*
X69995000Y-59326260D01*
X70052068Y-59613158D01*
X70164010Y-59883411D01*
X70326525Y-60126632D01*
X70533368Y-60333475D01*
X70776589Y-60495990D01*
X71046842Y-60607932D01*
X71333740Y-60665000D01*
X71626260Y-60665000D01*
X71913158Y-60607932D01*
X72183411Y-60495990D01*
X72426632Y-60333475D01*
X72633475Y-60126632D01*
X72750000Y-59952240D01*
X72866525Y-60126632D01*
X73073368Y-60333475D01*
X73316589Y-60495990D01*
X73586842Y-60607932D01*
X73873740Y-60665000D01*
X74166260Y-60665000D01*
X74453158Y-60607932D01*
X74723411Y-60495990D01*
X74966632Y-60333475D01*
X75173475Y-60126632D01*
X75335990Y-59883411D01*
X75447932Y-59613158D01*
X75505000Y-59326260D01*
X75505000Y-59033740D01*
X75447932Y-58746842D01*
X75335990Y-58476589D01*
X75173475Y-58233368D01*
X74966632Y-58026525D01*
X74792240Y-57910000D01*
X74966632Y-57793475D01*
X75173475Y-57586632D01*
X75335990Y-57343411D01*
X75447932Y-57073158D01*
X75505000Y-56786260D01*
X75505000Y-56493740D01*
X75447932Y-56206842D01*
X75335990Y-55936589D01*
X75173475Y-55693368D01*
X74966632Y-55486525D01*
X74792240Y-55370000D01*
X74966632Y-55253475D01*
X75173475Y-55046632D01*
X75335990Y-54803411D01*
X75447932Y-54533158D01*
X75505000Y-54246260D01*
X75505000Y-53953740D01*
X75447932Y-53666842D01*
X75335990Y-53396589D01*
X75173475Y-53153368D01*
X74966632Y-52946525D01*
X74792240Y-52830000D01*
X74966632Y-52713475D01*
X75173475Y-52506632D01*
X75335990Y-52263411D01*
X75447932Y-51993158D01*
X75505000Y-51706260D01*
X75505000Y-51413740D01*
X75447932Y-51126842D01*
X75335990Y-50856589D01*
X75173475Y-50613368D01*
X74966632Y-50406525D01*
X74723411Y-50244010D01*
X74453158Y-50132068D01*
X74166260Y-50075000D01*
X73873740Y-50075000D01*
X73586842Y-50132068D01*
X73316589Y-50244010D01*
X73073368Y-50406525D01*
X72886285Y-50593608D01*
X72818405Y-50466614D01*
X72707962Y-50332038D01*
X72573386Y-50221595D01*
X72419850Y-50139528D01*
X72253254Y-50088992D01*
X72080000Y-50071928D01*
X70880000Y-50071928D01*
X70706746Y-50088992D01*
X70540150Y-50139528D01*
X70386614Y-50221595D01*
X70252038Y-50332038D01*
X70141595Y-50466614D01*
X70059528Y-50620150D01*
X70008992Y-50786746D01*
X69991928Y-50960000D01*
X68069967Y-50960000D01*
X68069967Y-39779872D01*
X70765000Y-39779872D01*
X70765000Y-40220128D01*
X70850890Y-40651925D01*
X71019369Y-41058669D01*
X71263962Y-41424729D01*
X71575271Y-41736038D01*
X71941331Y-41980631D01*
X72348075Y-42149110D01*
X72779872Y-42235000D01*
X73220128Y-42235000D01*
X73651925Y-42149110D01*
X74058669Y-41980631D01*
X74424729Y-41736038D01*
X74736038Y-41424729D01*
X74980631Y-41058669D01*
X75149110Y-40651925D01*
X75235000Y-40220128D01*
X75235000Y-39779872D01*
X75149110Y-39348075D01*
X74980631Y-38941331D01*
X74736038Y-38575271D01*
X74424729Y-38263962D01*
X74058669Y-38019369D01*
X73651925Y-37850890D01*
X73220128Y-37765000D01*
X72779872Y-37765000D01*
X72348075Y-37850890D01*
X71941331Y-38019369D01*
X71575271Y-38263962D01*
X71263962Y-38575271D01*
X71019369Y-38941331D01*
X70850890Y-39348075D01*
X70765000Y-39779872D01*
X68069967Y-39779872D01*
X68069967Y-36214728D01*
X68088543Y-36025270D01*
X68133482Y-35876425D01*
X68206470Y-35739153D01*
X68304735Y-35618669D01*
X68424531Y-35519565D01*
X68561294Y-35445618D01*
X68709815Y-35399643D01*
X68897023Y-35379967D01*
X82846782Y-35379967D01*
X82772146Y-35626037D01*
G37*
G04 #@! TD.AperFunction*
D25*
X124239991Y-38822230D02*
X124239990Y-51470010D01*
X122363871Y-51470010D01*
X122260516Y-51438658D01*
X121940000Y-51407089D01*
X121619484Y-51438658D01*
X121311286Y-51532148D01*
X121255572Y-51561928D01*
X121190000Y-51561928D01*
X121016746Y-51578992D01*
X120850150Y-51629528D01*
X120696614Y-51711595D01*
X120562038Y-51822038D01*
X120451595Y-51956614D01*
X120369528Y-52110150D01*
X120318992Y-52276746D01*
X120301928Y-52450000D01*
X120301928Y-53000870D01*
X120297089Y-53050000D01*
X120301928Y-53099130D01*
X120301928Y-53650000D01*
X120318992Y-53823254D01*
X120369528Y-53989850D01*
X120451595Y-54143386D01*
X120562038Y-54277962D01*
X120696614Y-54388405D01*
X120798593Y-54442914D01*
X120798205Y-54443198D01*
X120601336Y-54657954D01*
X120450146Y-54906991D01*
X120350446Y-55180739D01*
X120348524Y-55193110D01*
X120469845Y-55423000D01*
X121813000Y-55423000D01*
X121813000Y-55403000D01*
X122067000Y-55403000D01*
X122067000Y-55423000D01*
X123410155Y-55423000D01*
X123531476Y-55193110D01*
X123529554Y-55180739D01*
X123429854Y-54906991D01*
X123328480Y-54740010D01*
X124239991Y-54740010D01*
X124239990Y-57245331D01*
X124239991Y-57245341D01*
X124239990Y-60600321D01*
X124239991Y-60600331D01*
X124239990Y-64714668D01*
X124239990Y-65025000D01*
X123271115Y-65025000D01*
X123414352Y-64779858D01*
X123506476Y-64516890D01*
X123385155Y-64287000D01*
X122067000Y-64287000D01*
X122067000Y-64307000D01*
X121813000Y-64307000D01*
X121813000Y-64287000D01*
X120494845Y-64287000D01*
X120373524Y-64516890D01*
X120465648Y-64779858D01*
X120612504Y-65031193D01*
X120805571Y-65249049D01*
X120949164Y-65358050D01*
X120778286Y-65498286D01*
X120727079Y-65560682D01*
X120583762Y-65703999D01*
X105224677Y-65703999D01*
X104984483Y-65727656D01*
X104676284Y-65821147D01*
X104392247Y-65972968D01*
X104143285Y-66177285D01*
X103938968Y-66426247D01*
X103852947Y-66587181D01*
X103730564Y-66553039D01*
X102944604Y-67338999D01*
X103730564Y-68124959D01*
X103852947Y-68090817D01*
X103938968Y-68251751D01*
X104143285Y-68500713D01*
X104392247Y-68705030D01*
X104478465Y-68751115D01*
X104414464Y-68793879D01*
X104219879Y-68988464D01*
X104066994Y-69217272D01*
X104034999Y-69294514D01*
X104003004Y-69217272D01*
X103850119Y-68988464D01*
X103655534Y-68793879D01*
X103426726Y-68640994D01*
X103355056Y-68611307D01*
X103368022Y-68606635D01*
X103483979Y-68544655D01*
X103550959Y-68304564D01*
X102764999Y-67518604D01*
X101979039Y-68304564D01*
X102046019Y-68544655D01*
X102181759Y-68608484D01*
X102103272Y-68640994D01*
X101874464Y-68793879D01*
X101679879Y-68988464D01*
X101526994Y-69217272D01*
X101494999Y-69294514D01*
X101463004Y-69217272D01*
X101310119Y-68988464D01*
X101115534Y-68793879D01*
X100886726Y-68640994D01*
X100809484Y-68608999D01*
X100886726Y-68577004D01*
X101115534Y-68424119D01*
X101310119Y-68229534D01*
X101463004Y-68000726D01*
X101492691Y-67929056D01*
X101497363Y-67942022D01*
X101559343Y-68057979D01*
X101799434Y-68124959D01*
X102585394Y-67338999D01*
X101799434Y-66553039D01*
X101559343Y-66620019D01*
X101495514Y-66755759D01*
X101463004Y-66677272D01*
X101310119Y-66448464D01*
X101235089Y-66373434D01*
X101979039Y-66373434D01*
X102764999Y-67159394D01*
X103550959Y-66373434D01*
X103483979Y-66133343D01*
X103234951Y-66016243D01*
X102967864Y-65949976D01*
X102692982Y-65937089D01*
X102420866Y-65978077D01*
X102161976Y-66071363D01*
X102046019Y-66133343D01*
X101979039Y-66373434D01*
X101235089Y-66373434D01*
X101115534Y-66253879D01*
X100886726Y-66100994D01*
X100632489Y-65995685D01*
X100362591Y-65941999D01*
X100087407Y-65941999D01*
X99817509Y-65995685D01*
X99563272Y-66100994D01*
X99334464Y-66253879D01*
X99139879Y-66448464D01*
X98986994Y-66677272D01*
X98954999Y-66754514D01*
X98923004Y-66677272D01*
X98770119Y-66448464D01*
X98575534Y-66253879D01*
X98346726Y-66100994D01*
X98092489Y-65995685D01*
X97822591Y-65941999D01*
X97547407Y-65941999D01*
X97277509Y-65995685D01*
X97023272Y-66100994D01*
X96794464Y-66253879D01*
X96599879Y-66448464D01*
X96446994Y-66677272D01*
X96414999Y-66754514D01*
X96383004Y-66677272D01*
X96230119Y-66448464D01*
X96035534Y-66253879D01*
X95806726Y-66100994D01*
X95552489Y-65995685D01*
X95282591Y-65941999D01*
X95007407Y-65941999D01*
X94737509Y-65995685D01*
X94483272Y-66100994D01*
X94254464Y-66253879D01*
X94059879Y-66448464D01*
X93906994Y-66677272D01*
X93877307Y-66748942D01*
X93872635Y-66735976D01*
X93810655Y-66620019D01*
X93570564Y-66553039D01*
X92784604Y-67338999D01*
X93570564Y-68124959D01*
X93810655Y-68057979D01*
X93874484Y-67922239D01*
X93906994Y-68000726D01*
X94059879Y-68229534D01*
X94254464Y-68424119D01*
X94483272Y-68577004D01*
X94560514Y-68608999D01*
X94483272Y-68640994D01*
X94254464Y-68793879D01*
X94059879Y-68988464D01*
X93906994Y-69217272D01*
X93874999Y-69294514D01*
X93843004Y-69217272D01*
X93690119Y-68988464D01*
X93495534Y-68793879D01*
X93266726Y-68640994D01*
X93195056Y-68611307D01*
X93208022Y-68606635D01*
X93323979Y-68544655D01*
X93390959Y-68304564D01*
X92604999Y-67518604D01*
X91819039Y-68304564D01*
X91886019Y-68544655D01*
X92021759Y-68608484D01*
X91943272Y-68640994D01*
X91714464Y-68793879D01*
X91519879Y-68988464D01*
X91366994Y-69217272D01*
X91334999Y-69294514D01*
X91303004Y-69217272D01*
X91150119Y-68988464D01*
X90955534Y-68793879D01*
X90726726Y-68640994D01*
X90649484Y-68608999D01*
X90726726Y-68577004D01*
X90955534Y-68424119D01*
X91150119Y-68229534D01*
X91303004Y-68000726D01*
X91332691Y-67929056D01*
X91337363Y-67942022D01*
X91399343Y-68057979D01*
X91639434Y-68124959D01*
X92425394Y-67338999D01*
X91639434Y-66553039D01*
X91399343Y-66620019D01*
X91335514Y-66755759D01*
X91303004Y-66677272D01*
X91150119Y-66448464D01*
X91075089Y-66373434D01*
X91819039Y-66373434D01*
X92604999Y-67159394D01*
X93390959Y-66373434D01*
X93323979Y-66133343D01*
X93074951Y-66016243D01*
X92807864Y-65949976D01*
X92532982Y-65937089D01*
X92260866Y-65978077D01*
X92001976Y-66071363D01*
X91886019Y-66133343D01*
X91819039Y-66373434D01*
X91075089Y-66373434D01*
X90955534Y-66253879D01*
X90726726Y-66100994D01*
X90472489Y-65995685D01*
X90202591Y-65941999D01*
X89927407Y-65941999D01*
X89657509Y-65995685D01*
X89403272Y-66100994D01*
X89174464Y-66253879D01*
X88979879Y-66448464D01*
X88826994Y-66677272D01*
X88794999Y-66754514D01*
X88763004Y-66677272D01*
X88610119Y-66448464D01*
X88415534Y-66253879D01*
X88352913Y-66212037D01*
X88347917Y-66161311D01*
X88300171Y-66003912D01*
X88222635Y-65858853D01*
X88144438Y-65763569D01*
X88144436Y-65763567D01*
X88118290Y-65731708D01*
X88086432Y-65705563D01*
X86439446Y-64058579D01*
X86413291Y-64026709D01*
X86403545Y-64018711D01*
X86516311Y-64052918D01*
X86638981Y-64065000D01*
X86638982Y-64065000D01*
X86680000Y-64069040D01*
X86721018Y-64065000D01*
X88928982Y-64065000D01*
X88970000Y-64069040D01*
X89011018Y-64065000D01*
X89011019Y-64065000D01*
X89133689Y-64052918D01*
X89291087Y-64005172D01*
X89436146Y-63927636D01*
X89563291Y-63823291D01*
X89589446Y-63791422D01*
X90921433Y-62459436D01*
X90953291Y-62433291D01*
X91016652Y-62356086D01*
X91057636Y-62306146D01*
X91135172Y-62161087D01*
X91182918Y-62003689D01*
X91199040Y-61840000D01*
X91195000Y-61798982D01*
X91195000Y-61060000D01*
X120326928Y-61060000D01*
X120326928Y-62260000D01*
X120343992Y-62433254D01*
X120394528Y-62599850D01*
X120476595Y-62753386D01*
X120587038Y-62887962D01*
X120721614Y-62998405D01*
X120826961Y-63054714D01*
X120805571Y-63070951D01*
X120612504Y-63288807D01*
X120465648Y-63540142D01*
X120373524Y-63803110D01*
X120494845Y-64033000D01*
X121813000Y-64033000D01*
X121813000Y-64013000D01*
X122067000Y-64013000D01*
X122067000Y-64033000D01*
X123385155Y-64033000D01*
X123506476Y-63803110D01*
X123414352Y-63540142D01*
X123267496Y-63288807D01*
X123074429Y-63070951D01*
X123053039Y-63054714D01*
X123158386Y-62998405D01*
X123292962Y-62887962D01*
X123403405Y-62753386D01*
X123485472Y-62599850D01*
X123536008Y-62433254D01*
X123553072Y-62260000D01*
X123553072Y-61060000D01*
X123536008Y-60886746D01*
X123485472Y-60720150D01*
X123403405Y-60566614D01*
X123292962Y-60432038D01*
X123158386Y-60321595D01*
X123004850Y-60239528D01*
X122838254Y-60188992D01*
X122665000Y-60171928D01*
X121215000Y-60171928D01*
X121041746Y-60188992D01*
X120875150Y-60239528D01*
X120721614Y-60321595D01*
X120587038Y-60432038D01*
X120476595Y-60566614D01*
X120394528Y-60720150D01*
X120343992Y-60886746D01*
X120326928Y-61060000D01*
X91195000Y-61060000D01*
X91195000Y-57585868D01*
X91555868Y-57225000D01*
X96546715Y-57225000D01*
X96669744Y-57307205D01*
X96858102Y-57385226D01*
X97058061Y-57425000D01*
X97261939Y-57425000D01*
X97461898Y-57385226D01*
X97650256Y-57307205D01*
X97819774Y-57193937D01*
X97963937Y-57049774D01*
X98077205Y-56880256D01*
X98155226Y-56691898D01*
X98195000Y-56491939D01*
X98195000Y-56288061D01*
X98155226Y-56088102D01*
X98080165Y-55906890D01*
X120348524Y-55906890D01*
X120350446Y-55919261D01*
X120450146Y-56193009D01*
X120601336Y-56442046D01*
X120798205Y-56656802D01*
X121033188Y-56829025D01*
X121297255Y-56952096D01*
X121580258Y-57021285D01*
X121813000Y-56877232D01*
X121813000Y-55677000D01*
X122067000Y-55677000D01*
X122067000Y-56877232D01*
X122299742Y-57021285D01*
X122582745Y-56952096D01*
X122846812Y-56829025D01*
X123081795Y-56656802D01*
X123278664Y-56442046D01*
X123429854Y-56193009D01*
X123529554Y-55919261D01*
X123531476Y-55906890D01*
X123410155Y-55677000D01*
X122067000Y-55677000D01*
X121813000Y-55677000D01*
X120469845Y-55677000D01*
X120348524Y-55906890D01*
X98080165Y-55906890D01*
X98077205Y-55899744D01*
X97963937Y-55730226D01*
X97819774Y-55586063D01*
X97650256Y-55472795D01*
X97461898Y-55394774D01*
X97261939Y-55355000D01*
X97058061Y-55355000D01*
X96858102Y-55394774D01*
X96669744Y-55472795D01*
X96546715Y-55555000D01*
X91251018Y-55555000D01*
X91210000Y-55550960D01*
X91168982Y-55555000D01*
X91168981Y-55555000D01*
X91046311Y-55567082D01*
X90888913Y-55614828D01*
X90743854Y-55692364D01*
X90616709Y-55796709D01*
X90590563Y-55828568D01*
X89798574Y-56620559D01*
X89766710Y-56646709D01*
X89690984Y-56738982D01*
X89662364Y-56773855D01*
X89584828Y-56918914D01*
X89537082Y-57076312D01*
X89520960Y-57240000D01*
X89525001Y-57281028D01*
X89525000Y-61494131D01*
X88624133Y-62395000D01*
X88496158Y-62395000D01*
X88520225Y-62336897D01*
X88559999Y-62136938D01*
X88559999Y-61933060D01*
X88520225Y-61733101D01*
X88442204Y-61544743D01*
X88359999Y-61421714D01*
X88359999Y-55306006D01*
X88364038Y-55264998D01*
X88359999Y-55223990D01*
X88359999Y-55223980D01*
X88347917Y-55101310D01*
X88300171Y-54943912D01*
X88222635Y-54798853D01*
X88118290Y-54671708D01*
X88086425Y-54645557D01*
X87885868Y-54445000D01*
X88001939Y-54445000D01*
X88201898Y-54405226D01*
X88390256Y-54327205D01*
X88438454Y-54295000D01*
X95703918Y-54295000D01*
X95813102Y-54340226D01*
X96013061Y-54380000D01*
X96216939Y-54380000D01*
X96416898Y-54340226D01*
X96605256Y-54262205D01*
X96653454Y-54230000D01*
X101956492Y-54230000D01*
X102138102Y-54305226D01*
X102338061Y-54345000D01*
X102541939Y-54345000D01*
X102741898Y-54305226D01*
X102930256Y-54227205D01*
X102978454Y-54195000D01*
X113656531Y-54195000D01*
X113700000Y-54199281D01*
X113743469Y-54195000D01*
X113743477Y-54195000D01*
X113873490Y-54182195D01*
X114040313Y-54131589D01*
X114194059Y-54049411D01*
X114295043Y-53966535D01*
X114351898Y-53955226D01*
X114540256Y-53877205D01*
X114709774Y-53763937D01*
X114853937Y-53619774D01*
X114967205Y-53450256D01*
X115045226Y-53261898D01*
X115085000Y-53061939D01*
X115085000Y-52858061D01*
X115045226Y-52658102D01*
X114967205Y-52469744D01*
X114853937Y-52300226D01*
X114709774Y-52156063D01*
X114540256Y-52042795D01*
X114351898Y-51964774D01*
X114151939Y-51925000D01*
X113948061Y-51925000D01*
X113748102Y-51964774D01*
X113559744Y-52042795D01*
X113390226Y-52156063D01*
X113246063Y-52300226D01*
X113162692Y-52425000D01*
X108546598Y-52425000D01*
X108585000Y-52231939D01*
X108585000Y-52028061D01*
X108545226Y-51828102D01*
X108467205Y-51639744D01*
X108353937Y-51470226D01*
X108321875Y-51438164D01*
X108347205Y-51400256D01*
X108425226Y-51211898D01*
X108465000Y-51011939D01*
X108465000Y-50808061D01*
X108425226Y-50608102D01*
X108347205Y-50419744D01*
X108233937Y-50250226D01*
X108089774Y-50106063D01*
X107920256Y-49992795D01*
X107731898Y-49914774D01*
X107531939Y-49875000D01*
X107328061Y-49875000D01*
X107128102Y-49914774D01*
X106939744Y-49992795D01*
X106770226Y-50106063D01*
X106651289Y-50225000D01*
X102983990Y-50225000D01*
X103007205Y-50190256D01*
X103085226Y-50001898D01*
X103125000Y-49801939D01*
X103125000Y-49598061D01*
X103085226Y-49398102D01*
X103007205Y-49209744D01*
X102893937Y-49040226D01*
X102875000Y-49021289D01*
X102875000Y-44815157D01*
X103495158Y-44195000D01*
X103521939Y-44195000D01*
X103721898Y-44155226D01*
X103910256Y-44077205D01*
X104079774Y-43963937D01*
X104223937Y-43819774D01*
X104337205Y-43650256D01*
X104415226Y-43461898D01*
X104455000Y-43261939D01*
X104455000Y-43058061D01*
X104415226Y-42858102D01*
X104337205Y-42669744D01*
X104223937Y-42500226D01*
X104079774Y-42356063D01*
X103910256Y-42242795D01*
X103721898Y-42164774D01*
X103521939Y-42125000D01*
X103318061Y-42125000D01*
X103118102Y-42164774D01*
X102929744Y-42242795D01*
X102760226Y-42356063D01*
X102616063Y-42500226D01*
X102502795Y-42669744D01*
X102424774Y-42858102D01*
X102385000Y-43058061D01*
X102385000Y-43084842D01*
X101562185Y-43907658D01*
X101532237Y-43932236D01*
X101507659Y-43962184D01*
X101507655Y-43962188D01*
X101474690Y-44002356D01*
X101434139Y-44051767D01*
X101408526Y-44099687D01*
X101361246Y-44188141D01*
X101316359Y-44336114D01*
X101301203Y-44490000D01*
X101305001Y-44528563D01*
X101305000Y-49021289D01*
X101286063Y-49040226D01*
X101172795Y-49209744D01*
X101094774Y-49398102D01*
X101055000Y-49598061D01*
X101055000Y-49801939D01*
X101094774Y-50001898D01*
X101172795Y-50190256D01*
X101196010Y-50225000D01*
X98113285Y-50225000D01*
X97990256Y-50142795D01*
X97801898Y-50064774D01*
X97601939Y-50025000D01*
X97398061Y-50025000D01*
X97198102Y-50064774D01*
X97076847Y-50115000D01*
X92545913Y-50115000D01*
X92633291Y-50043291D01*
X92659446Y-50011422D01*
X94071433Y-48599436D01*
X94103291Y-48573291D01*
X94146086Y-48521146D01*
X94207636Y-48446146D01*
X94285172Y-48301087D01*
X94332918Y-48143689D01*
X94349040Y-47980000D01*
X94345000Y-47938982D01*
X94345000Y-42413285D01*
X94427205Y-42290256D01*
X94505226Y-42101898D01*
X94545000Y-41901939D01*
X94545000Y-41698061D01*
X94505226Y-41498102D01*
X94427205Y-41309744D01*
X94313937Y-41140226D01*
X94169774Y-40996063D01*
X94000256Y-40882795D01*
X93811898Y-40804774D01*
X93611939Y-40765000D01*
X93408061Y-40765000D01*
X93208102Y-40804774D01*
X93019744Y-40882795D01*
X92850226Y-40996063D01*
X92706063Y-41140226D01*
X92634311Y-41247610D01*
X92577205Y-41109744D01*
X92463937Y-40940226D01*
X92319774Y-40796063D01*
X92150256Y-40682795D01*
X91961898Y-40604774D01*
X91761939Y-40565000D01*
X91558061Y-40565000D01*
X91358102Y-40604774D01*
X91169744Y-40682795D01*
X91046715Y-40765000D01*
X90421018Y-40765000D01*
X90380000Y-40760960D01*
X90216311Y-40777082D01*
X90058913Y-40824828D01*
X89913854Y-40902364D01*
X89822810Y-40977082D01*
X89786709Y-41006709D01*
X89760563Y-41038568D01*
X88705000Y-42094133D01*
X88705000Y-39779872D01*
X118765000Y-39779872D01*
X118765000Y-40220128D01*
X118850890Y-40651925D01*
X119019369Y-41058669D01*
X119263962Y-41424729D01*
X119575271Y-41736038D01*
X119941331Y-41980631D01*
X120348075Y-42149110D01*
X120779872Y-42235000D01*
X121220128Y-42235000D01*
X121651925Y-42149110D01*
X122058669Y-41980631D01*
X122424729Y-41736038D01*
X122736038Y-41424729D01*
X122980631Y-41058669D01*
X123149110Y-40651925D01*
X123235000Y-40220128D01*
X123235000Y-39779872D01*
X123149110Y-39348075D01*
X122980631Y-38941331D01*
X122736038Y-38575271D01*
X122424729Y-38263962D01*
X122058669Y-38019369D01*
X121651925Y-37850890D01*
X121220128Y-37765000D01*
X120779872Y-37765000D01*
X120348075Y-37850890D01*
X119941331Y-38019369D01*
X119575271Y-38263962D01*
X119263962Y-38575271D01*
X119019369Y-38941331D01*
X118850890Y-39348075D01*
X118765000Y-39779872D01*
X88705000Y-39779872D01*
X88705000Y-39195868D01*
X89215868Y-38685000D01*
X93776715Y-38685000D01*
X93899744Y-38767205D01*
X94088102Y-38845226D01*
X94288061Y-38885000D01*
X94491939Y-38885000D01*
X94691898Y-38845226D01*
X94880256Y-38767205D01*
X95049774Y-38653937D01*
X95193937Y-38509774D01*
X95307205Y-38340256D01*
X95385226Y-38151898D01*
X95425000Y-37951939D01*
X95425000Y-37748061D01*
X95391801Y-37581159D01*
X122998062Y-37580301D01*
X124239991Y-38822230D01*
G04 #@! TA.AperFunction,Conductor*
D26*
G36*
X124239991Y-38822230D02*
G01*
X124239990Y-51470010D01*
X122363871Y-51470010D01*
X122260516Y-51438658D01*
X121940000Y-51407089D01*
X121619484Y-51438658D01*
X121311286Y-51532148D01*
X121255572Y-51561928D01*
X121190000Y-51561928D01*
X121016746Y-51578992D01*
X120850150Y-51629528D01*
X120696614Y-51711595D01*
X120562038Y-51822038D01*
X120451595Y-51956614D01*
X120369528Y-52110150D01*
X120318992Y-52276746D01*
X120301928Y-52450000D01*
X120301928Y-53000870D01*
X120297089Y-53050000D01*
X120301928Y-53099130D01*
X120301928Y-53650000D01*
X120318992Y-53823254D01*
X120369528Y-53989850D01*
X120451595Y-54143386D01*
X120562038Y-54277962D01*
X120696614Y-54388405D01*
X120798593Y-54442914D01*
X120798205Y-54443198D01*
X120601336Y-54657954D01*
X120450146Y-54906991D01*
X120350446Y-55180739D01*
X120348524Y-55193110D01*
X120469845Y-55423000D01*
X121813000Y-55423000D01*
X121813000Y-55403000D01*
X122067000Y-55403000D01*
X122067000Y-55423000D01*
X123410155Y-55423000D01*
X123531476Y-55193110D01*
X123529554Y-55180739D01*
X123429854Y-54906991D01*
X123328480Y-54740010D01*
X124239991Y-54740010D01*
X124239990Y-57245331D01*
X124239991Y-57245341D01*
X124239990Y-60600321D01*
X124239991Y-60600331D01*
X124239990Y-64714668D01*
X124239990Y-65025000D01*
X123271115Y-65025000D01*
X123414352Y-64779858D01*
X123506476Y-64516890D01*
X123385155Y-64287000D01*
X122067000Y-64287000D01*
X122067000Y-64307000D01*
X121813000Y-64307000D01*
X121813000Y-64287000D01*
X120494845Y-64287000D01*
X120373524Y-64516890D01*
X120465648Y-64779858D01*
X120612504Y-65031193D01*
X120805571Y-65249049D01*
X120949164Y-65358050D01*
X120778286Y-65498286D01*
X120727079Y-65560682D01*
X120583762Y-65703999D01*
X105224677Y-65703999D01*
X104984483Y-65727656D01*
X104676284Y-65821147D01*
X104392247Y-65972968D01*
X104143285Y-66177285D01*
X103938968Y-66426247D01*
X103852947Y-66587181D01*
X103730564Y-66553039D01*
X102944604Y-67338999D01*
X103730564Y-68124959D01*
X103852947Y-68090817D01*
X103938968Y-68251751D01*
X104143285Y-68500713D01*
X104392247Y-68705030D01*
X104478465Y-68751115D01*
X104414464Y-68793879D01*
X104219879Y-68988464D01*
X104066994Y-69217272D01*
X104034999Y-69294514D01*
X104003004Y-69217272D01*
X103850119Y-68988464D01*
X103655534Y-68793879D01*
X103426726Y-68640994D01*
X103355056Y-68611307D01*
X103368022Y-68606635D01*
X103483979Y-68544655D01*
X103550959Y-68304564D01*
X102764999Y-67518604D01*
X101979039Y-68304564D01*
X102046019Y-68544655D01*
X102181759Y-68608484D01*
X102103272Y-68640994D01*
X101874464Y-68793879D01*
X101679879Y-68988464D01*
X101526994Y-69217272D01*
X101494999Y-69294514D01*
X101463004Y-69217272D01*
X101310119Y-68988464D01*
X101115534Y-68793879D01*
X100886726Y-68640994D01*
X100809484Y-68608999D01*
X100886726Y-68577004D01*
X101115534Y-68424119D01*
X101310119Y-68229534D01*
X101463004Y-68000726D01*
X101492691Y-67929056D01*
X101497363Y-67942022D01*
X101559343Y-68057979D01*
X101799434Y-68124959D01*
X102585394Y-67338999D01*
X101799434Y-66553039D01*
X101559343Y-66620019D01*
X101495514Y-66755759D01*
X101463004Y-66677272D01*
X101310119Y-66448464D01*
X101235089Y-66373434D01*
X101979039Y-66373434D01*
X102764999Y-67159394D01*
X103550959Y-66373434D01*
X103483979Y-66133343D01*
X103234951Y-66016243D01*
X102967864Y-65949976D01*
X102692982Y-65937089D01*
X102420866Y-65978077D01*
X102161976Y-66071363D01*
X102046019Y-66133343D01*
X101979039Y-66373434D01*
X101235089Y-66373434D01*
X101115534Y-66253879D01*
X100886726Y-66100994D01*
X100632489Y-65995685D01*
X100362591Y-65941999D01*
X100087407Y-65941999D01*
X99817509Y-65995685D01*
X99563272Y-66100994D01*
X99334464Y-66253879D01*
X99139879Y-66448464D01*
X98986994Y-66677272D01*
X98954999Y-66754514D01*
X98923004Y-66677272D01*
X98770119Y-66448464D01*
X98575534Y-66253879D01*
X98346726Y-66100994D01*
X98092489Y-65995685D01*
X97822591Y-65941999D01*
X97547407Y-65941999D01*
X97277509Y-65995685D01*
X97023272Y-66100994D01*
X96794464Y-66253879D01*
X96599879Y-66448464D01*
X96446994Y-66677272D01*
X96414999Y-66754514D01*
X96383004Y-66677272D01*
X96230119Y-66448464D01*
X96035534Y-66253879D01*
X95806726Y-66100994D01*
X95552489Y-65995685D01*
X95282591Y-65941999D01*
X95007407Y-65941999D01*
X94737509Y-65995685D01*
X94483272Y-66100994D01*
X94254464Y-66253879D01*
X94059879Y-66448464D01*
X93906994Y-66677272D01*
X93877307Y-66748942D01*
X93872635Y-66735976D01*
X93810655Y-66620019D01*
X93570564Y-66553039D01*
X92784604Y-67338999D01*
X93570564Y-68124959D01*
X93810655Y-68057979D01*
X93874484Y-67922239D01*
X93906994Y-68000726D01*
X94059879Y-68229534D01*
X94254464Y-68424119D01*
X94483272Y-68577004D01*
X94560514Y-68608999D01*
X94483272Y-68640994D01*
X94254464Y-68793879D01*
X94059879Y-68988464D01*
X93906994Y-69217272D01*
X93874999Y-69294514D01*
X93843004Y-69217272D01*
X93690119Y-68988464D01*
X93495534Y-68793879D01*
X93266726Y-68640994D01*
X93195056Y-68611307D01*
X93208022Y-68606635D01*
X93323979Y-68544655D01*
X93390959Y-68304564D01*
X92604999Y-67518604D01*
X91819039Y-68304564D01*
X91886019Y-68544655D01*
X92021759Y-68608484D01*
X91943272Y-68640994D01*
X91714464Y-68793879D01*
X91519879Y-68988464D01*
X91366994Y-69217272D01*
X91334999Y-69294514D01*
X91303004Y-69217272D01*
X91150119Y-68988464D01*
X90955534Y-68793879D01*
X90726726Y-68640994D01*
X90649484Y-68608999D01*
X90726726Y-68577004D01*
X90955534Y-68424119D01*
X91150119Y-68229534D01*
X91303004Y-68000726D01*
X91332691Y-67929056D01*
X91337363Y-67942022D01*
X91399343Y-68057979D01*
X91639434Y-68124959D01*
X92425394Y-67338999D01*
X91639434Y-66553039D01*
X91399343Y-66620019D01*
X91335514Y-66755759D01*
X91303004Y-66677272D01*
X91150119Y-66448464D01*
X91075089Y-66373434D01*
X91819039Y-66373434D01*
X92604999Y-67159394D01*
X93390959Y-66373434D01*
X93323979Y-66133343D01*
X93074951Y-66016243D01*
X92807864Y-65949976D01*
X92532982Y-65937089D01*
X92260866Y-65978077D01*
X92001976Y-66071363D01*
X91886019Y-66133343D01*
X91819039Y-66373434D01*
X91075089Y-66373434D01*
X90955534Y-66253879D01*
X90726726Y-66100994D01*
X90472489Y-65995685D01*
X90202591Y-65941999D01*
X89927407Y-65941999D01*
X89657509Y-65995685D01*
X89403272Y-66100994D01*
X89174464Y-66253879D01*
X88979879Y-66448464D01*
X88826994Y-66677272D01*
X88794999Y-66754514D01*
X88763004Y-66677272D01*
X88610119Y-66448464D01*
X88415534Y-66253879D01*
X88352913Y-66212037D01*
X88347917Y-66161311D01*
X88300171Y-66003912D01*
X88222635Y-65858853D01*
X88144438Y-65763569D01*
X88144436Y-65763567D01*
X88118290Y-65731708D01*
X88086432Y-65705563D01*
X86439446Y-64058579D01*
X86413291Y-64026709D01*
X86403545Y-64018711D01*
X86516311Y-64052918D01*
X86638981Y-64065000D01*
X86638982Y-64065000D01*
X86680000Y-64069040D01*
X86721018Y-64065000D01*
X88928982Y-64065000D01*
X88970000Y-64069040D01*
X89011018Y-64065000D01*
X89011019Y-64065000D01*
X89133689Y-64052918D01*
X89291087Y-64005172D01*
X89436146Y-63927636D01*
X89563291Y-63823291D01*
X89589446Y-63791422D01*
X90921433Y-62459436D01*
X90953291Y-62433291D01*
X91016652Y-62356086D01*
X91057636Y-62306146D01*
X91135172Y-62161087D01*
X91182918Y-62003689D01*
X91199040Y-61840000D01*
X91195000Y-61798982D01*
X91195000Y-61060000D01*
X120326928Y-61060000D01*
X120326928Y-62260000D01*
X120343992Y-62433254D01*
X120394528Y-62599850D01*
X120476595Y-62753386D01*
X120587038Y-62887962D01*
X120721614Y-62998405D01*
X120826961Y-63054714D01*
X120805571Y-63070951D01*
X120612504Y-63288807D01*
X120465648Y-63540142D01*
X120373524Y-63803110D01*
X120494845Y-64033000D01*
X121813000Y-64033000D01*
X121813000Y-64013000D01*
X122067000Y-64013000D01*
X122067000Y-64033000D01*
X123385155Y-64033000D01*
X123506476Y-63803110D01*
X123414352Y-63540142D01*
X123267496Y-63288807D01*
X123074429Y-63070951D01*
X123053039Y-63054714D01*
X123158386Y-62998405D01*
X123292962Y-62887962D01*
X123403405Y-62753386D01*
X123485472Y-62599850D01*
X123536008Y-62433254D01*
X123553072Y-62260000D01*
X123553072Y-61060000D01*
X123536008Y-60886746D01*
X123485472Y-60720150D01*
X123403405Y-60566614D01*
X123292962Y-60432038D01*
X123158386Y-60321595D01*
X123004850Y-60239528D01*
X122838254Y-60188992D01*
X122665000Y-60171928D01*
X121215000Y-60171928D01*
X121041746Y-60188992D01*
X120875150Y-60239528D01*
X120721614Y-60321595D01*
X120587038Y-60432038D01*
X120476595Y-60566614D01*
X120394528Y-60720150D01*
X120343992Y-60886746D01*
X120326928Y-61060000D01*
X91195000Y-61060000D01*
X91195000Y-57585868D01*
X91555868Y-57225000D01*
X96546715Y-57225000D01*
X96669744Y-57307205D01*
X96858102Y-57385226D01*
X97058061Y-57425000D01*
X97261939Y-57425000D01*
X97461898Y-57385226D01*
X97650256Y-57307205D01*
X97819774Y-57193937D01*
X97963937Y-57049774D01*
X98077205Y-56880256D01*
X98155226Y-56691898D01*
X98195000Y-56491939D01*
X98195000Y-56288061D01*
X98155226Y-56088102D01*
X98080165Y-55906890D01*
X120348524Y-55906890D01*
X120350446Y-55919261D01*
X120450146Y-56193009D01*
X120601336Y-56442046D01*
X120798205Y-56656802D01*
X121033188Y-56829025D01*
X121297255Y-56952096D01*
X121580258Y-57021285D01*
X121813000Y-56877232D01*
X121813000Y-55677000D01*
X122067000Y-55677000D01*
X122067000Y-56877232D01*
X122299742Y-57021285D01*
X122582745Y-56952096D01*
X122846812Y-56829025D01*
X123081795Y-56656802D01*
X123278664Y-56442046D01*
X123429854Y-56193009D01*
X123529554Y-55919261D01*
X123531476Y-55906890D01*
X123410155Y-55677000D01*
X122067000Y-55677000D01*
X121813000Y-55677000D01*
X120469845Y-55677000D01*
X120348524Y-55906890D01*
X98080165Y-55906890D01*
X98077205Y-55899744D01*
X97963937Y-55730226D01*
X97819774Y-55586063D01*
X97650256Y-55472795D01*
X97461898Y-55394774D01*
X97261939Y-55355000D01*
X97058061Y-55355000D01*
X96858102Y-55394774D01*
X96669744Y-55472795D01*
X96546715Y-55555000D01*
X91251018Y-55555000D01*
X91210000Y-55550960D01*
X91168982Y-55555000D01*
X91168981Y-55555000D01*
X91046311Y-55567082D01*
X90888913Y-55614828D01*
X90743854Y-55692364D01*
X90616709Y-55796709D01*
X90590563Y-55828568D01*
X89798574Y-56620559D01*
X89766710Y-56646709D01*
X89690984Y-56738982D01*
X89662364Y-56773855D01*
X89584828Y-56918914D01*
X89537082Y-57076312D01*
X89520960Y-57240000D01*
X89525001Y-57281028D01*
X89525000Y-61494131D01*
X88624133Y-62395000D01*
X88496158Y-62395000D01*
X88520225Y-62336897D01*
X88559999Y-62136938D01*
X88559999Y-61933060D01*
X88520225Y-61733101D01*
X88442204Y-61544743D01*
X88359999Y-61421714D01*
X88359999Y-55306006D01*
X88364038Y-55264998D01*
X88359999Y-55223990D01*
X88359999Y-55223980D01*
X88347917Y-55101310D01*
X88300171Y-54943912D01*
X88222635Y-54798853D01*
X88118290Y-54671708D01*
X88086425Y-54645557D01*
X87885868Y-54445000D01*
X88001939Y-54445000D01*
X88201898Y-54405226D01*
X88390256Y-54327205D01*
X88438454Y-54295000D01*
X95703918Y-54295000D01*
X95813102Y-54340226D01*
X96013061Y-54380000D01*
X96216939Y-54380000D01*
X96416898Y-54340226D01*
X96605256Y-54262205D01*
X96653454Y-54230000D01*
X101956492Y-54230000D01*
X102138102Y-54305226D01*
X102338061Y-54345000D01*
X102541939Y-54345000D01*
X102741898Y-54305226D01*
X102930256Y-54227205D01*
X102978454Y-54195000D01*
X113656531Y-54195000D01*
X113700000Y-54199281D01*
X113743469Y-54195000D01*
X113743477Y-54195000D01*
X113873490Y-54182195D01*
X114040313Y-54131589D01*
X114194059Y-54049411D01*
X114295043Y-53966535D01*
X114351898Y-53955226D01*
X114540256Y-53877205D01*
X114709774Y-53763937D01*
X114853937Y-53619774D01*
X114967205Y-53450256D01*
X115045226Y-53261898D01*
X115085000Y-53061939D01*
X115085000Y-52858061D01*
X115045226Y-52658102D01*
X114967205Y-52469744D01*
X114853937Y-52300226D01*
X114709774Y-52156063D01*
X114540256Y-52042795D01*
X114351898Y-51964774D01*
X114151939Y-51925000D01*
X113948061Y-51925000D01*
X113748102Y-51964774D01*
X113559744Y-52042795D01*
X113390226Y-52156063D01*
X113246063Y-52300226D01*
X113162692Y-52425000D01*
X108546598Y-52425000D01*
X108585000Y-52231939D01*
X108585000Y-52028061D01*
X108545226Y-51828102D01*
X108467205Y-51639744D01*
X108353937Y-51470226D01*
X108321875Y-51438164D01*
X108347205Y-51400256D01*
X108425226Y-51211898D01*
X108465000Y-51011939D01*
X108465000Y-50808061D01*
X108425226Y-50608102D01*
X108347205Y-50419744D01*
X108233937Y-50250226D01*
X108089774Y-50106063D01*
X107920256Y-49992795D01*
X107731898Y-49914774D01*
X107531939Y-49875000D01*
X107328061Y-49875000D01*
X107128102Y-49914774D01*
X106939744Y-49992795D01*
X106770226Y-50106063D01*
X106651289Y-50225000D01*
X102983990Y-50225000D01*
X103007205Y-50190256D01*
X103085226Y-50001898D01*
X103125000Y-49801939D01*
X103125000Y-49598061D01*
X103085226Y-49398102D01*
X103007205Y-49209744D01*
X102893937Y-49040226D01*
X102875000Y-49021289D01*
X102875000Y-44815157D01*
X103495158Y-44195000D01*
X103521939Y-44195000D01*
X103721898Y-44155226D01*
X103910256Y-44077205D01*
X104079774Y-43963937D01*
X104223937Y-43819774D01*
X104337205Y-43650256D01*
X104415226Y-43461898D01*
X104455000Y-43261939D01*
X104455000Y-43058061D01*
X104415226Y-42858102D01*
X104337205Y-42669744D01*
X104223937Y-42500226D01*
X104079774Y-42356063D01*
X103910256Y-42242795D01*
X103721898Y-42164774D01*
X103521939Y-42125000D01*
X103318061Y-42125000D01*
X103118102Y-42164774D01*
X102929744Y-42242795D01*
X102760226Y-42356063D01*
X102616063Y-42500226D01*
X102502795Y-42669744D01*
X102424774Y-42858102D01*
X102385000Y-43058061D01*
X102385000Y-43084842D01*
X101562185Y-43907658D01*
X101532237Y-43932236D01*
X101507659Y-43962184D01*
X101507655Y-43962188D01*
X101474690Y-44002356D01*
X101434139Y-44051767D01*
X101408526Y-44099687D01*
X101361246Y-44188141D01*
X101316359Y-44336114D01*
X101301203Y-44490000D01*
X101305001Y-44528563D01*
X101305000Y-49021289D01*
X101286063Y-49040226D01*
X101172795Y-49209744D01*
X101094774Y-49398102D01*
X101055000Y-49598061D01*
X101055000Y-49801939D01*
X101094774Y-50001898D01*
X101172795Y-50190256D01*
X101196010Y-50225000D01*
X98113285Y-50225000D01*
X97990256Y-50142795D01*
X97801898Y-50064774D01*
X97601939Y-50025000D01*
X97398061Y-50025000D01*
X97198102Y-50064774D01*
X97076847Y-50115000D01*
X92545913Y-50115000D01*
X92633291Y-50043291D01*
X92659446Y-50011422D01*
X94071433Y-48599436D01*
X94103291Y-48573291D01*
X94146086Y-48521146D01*
X94207636Y-48446146D01*
X94285172Y-48301087D01*
X94332918Y-48143689D01*
X94349040Y-47980000D01*
X94345000Y-47938982D01*
X94345000Y-42413285D01*
X94427205Y-42290256D01*
X94505226Y-42101898D01*
X94545000Y-41901939D01*
X94545000Y-41698061D01*
X94505226Y-41498102D01*
X94427205Y-41309744D01*
X94313937Y-41140226D01*
X94169774Y-40996063D01*
X94000256Y-40882795D01*
X93811898Y-40804774D01*
X93611939Y-40765000D01*
X93408061Y-40765000D01*
X93208102Y-40804774D01*
X93019744Y-40882795D01*
X92850226Y-40996063D01*
X92706063Y-41140226D01*
X92634311Y-41247610D01*
X92577205Y-41109744D01*
X92463937Y-40940226D01*
X92319774Y-40796063D01*
X92150256Y-40682795D01*
X91961898Y-40604774D01*
X91761939Y-40565000D01*
X91558061Y-40565000D01*
X91358102Y-40604774D01*
X91169744Y-40682795D01*
X91046715Y-40765000D01*
X90421018Y-40765000D01*
X90380000Y-40760960D01*
X90216311Y-40777082D01*
X90058913Y-40824828D01*
X89913854Y-40902364D01*
X89822810Y-40977082D01*
X89786709Y-41006709D01*
X89760563Y-41038568D01*
X88705000Y-42094133D01*
X88705000Y-39779872D01*
X118765000Y-39779872D01*
X118765000Y-40220128D01*
X118850890Y-40651925D01*
X119019369Y-41058669D01*
X119263962Y-41424729D01*
X119575271Y-41736038D01*
X119941331Y-41980631D01*
X120348075Y-42149110D01*
X120779872Y-42235000D01*
X121220128Y-42235000D01*
X121651925Y-42149110D01*
X122058669Y-41980631D01*
X122424729Y-41736038D01*
X122736038Y-41424729D01*
X122980631Y-41058669D01*
X123149110Y-40651925D01*
X123235000Y-40220128D01*
X123235000Y-39779872D01*
X123149110Y-39348075D01*
X122980631Y-38941331D01*
X122736038Y-38575271D01*
X122424729Y-38263962D01*
X122058669Y-38019369D01*
X121651925Y-37850890D01*
X121220128Y-37765000D01*
X120779872Y-37765000D01*
X120348075Y-37850890D01*
X119941331Y-38019369D01*
X119575271Y-38263962D01*
X119263962Y-38575271D01*
X119019369Y-38941331D01*
X118850890Y-39348075D01*
X118765000Y-39779872D01*
X88705000Y-39779872D01*
X88705000Y-39195868D01*
X89215868Y-38685000D01*
X93776715Y-38685000D01*
X93899744Y-38767205D01*
X94088102Y-38845226D01*
X94288061Y-38885000D01*
X94491939Y-38885000D01*
X94691898Y-38845226D01*
X94880256Y-38767205D01*
X95049774Y-38653937D01*
X95193937Y-38509774D01*
X95307205Y-38340256D01*
X95385226Y-38151898D01*
X95425000Y-37951939D01*
X95425000Y-37748061D01*
X95391801Y-37581159D01*
X122998062Y-37580301D01*
X124239991Y-38822230D01*
G37*
G04 #@! TD.AperFunction*
D25*
X86453737Y-66434606D02*
X86439879Y-66448464D01*
X86286994Y-66677272D01*
X86257307Y-66748942D01*
X86252635Y-66735976D01*
X86190655Y-66620019D01*
X85950564Y-66553039D01*
X85164604Y-67338999D01*
X85950564Y-68124959D01*
X86190655Y-68057979D01*
X86254484Y-67922239D01*
X86286994Y-68000726D01*
X86439879Y-68229534D01*
X86634464Y-68424119D01*
X86863272Y-68577004D01*
X86940514Y-68608999D01*
X86863272Y-68640994D01*
X86634464Y-68793879D01*
X86439879Y-68988464D01*
X86286994Y-69217272D01*
X86254999Y-69294514D01*
X86223004Y-69217272D01*
X86070119Y-68988464D01*
X85875534Y-68793879D01*
X85646726Y-68640994D01*
X85575056Y-68611307D01*
X85588022Y-68606635D01*
X85703979Y-68544655D01*
X85770959Y-68304564D01*
X84984999Y-67518604D01*
X84970857Y-67532747D01*
X84791252Y-67353142D01*
X84805394Y-67338999D01*
X84791252Y-67324857D01*
X84970857Y-67145252D01*
X84984999Y-67159394D01*
X85770959Y-66373434D01*
X85703979Y-66133343D01*
X85454951Y-66016243D01*
X85187864Y-65949976D01*
X84912982Y-65937089D01*
X84640866Y-65978077D01*
X84442000Y-66049735D01*
X84442000Y-65958018D01*
X84446040Y-65917000D01*
X84429918Y-65753311D01*
X84382172Y-65595913D01*
X84308957Y-65458937D01*
X84310000Y-65459040D01*
X84351018Y-65455000D01*
X85474133Y-65455000D01*
X86453737Y-66434606D01*
G04 #@! TA.AperFunction,Conductor*
D26*
G36*
X86453737Y-66434606D02*
G01*
X86439879Y-66448464D01*
X86286994Y-66677272D01*
X86257307Y-66748942D01*
X86252635Y-66735976D01*
X86190655Y-66620019D01*
X85950564Y-66553039D01*
X85164604Y-67338999D01*
X85950564Y-68124959D01*
X86190655Y-68057979D01*
X86254484Y-67922239D01*
X86286994Y-68000726D01*
X86439879Y-68229534D01*
X86634464Y-68424119D01*
X86863272Y-68577004D01*
X86940514Y-68608999D01*
X86863272Y-68640994D01*
X86634464Y-68793879D01*
X86439879Y-68988464D01*
X86286994Y-69217272D01*
X86254999Y-69294514D01*
X86223004Y-69217272D01*
X86070119Y-68988464D01*
X85875534Y-68793879D01*
X85646726Y-68640994D01*
X85575056Y-68611307D01*
X85588022Y-68606635D01*
X85703979Y-68544655D01*
X85770959Y-68304564D01*
X84984999Y-67518604D01*
X84970857Y-67532747D01*
X84791252Y-67353142D01*
X84805394Y-67338999D01*
X84791252Y-67324857D01*
X84970857Y-67145252D01*
X84984999Y-67159394D01*
X85770959Y-66373434D01*
X85703979Y-66133343D01*
X85454951Y-66016243D01*
X85187864Y-65949976D01*
X84912982Y-65937089D01*
X84640866Y-65978077D01*
X84442000Y-66049735D01*
X84442000Y-65958018D01*
X84446040Y-65917000D01*
X84429918Y-65753311D01*
X84382172Y-65595913D01*
X84308957Y-65458937D01*
X84310000Y-65459040D01*
X84351018Y-65455000D01*
X85474133Y-65455000D01*
X86453737Y-66434606D01*
G37*
G04 #@! TD.AperFunction*
D25*
X92592795Y-42290256D02*
X92675001Y-42413286D01*
X92675000Y-47634131D01*
X91694133Y-48615000D01*
X88585867Y-48615000D01*
X90981428Y-46219440D01*
X91013291Y-46193291D01*
X91117636Y-46066146D01*
X91195172Y-45921087D01*
X91242918Y-45763689D01*
X91255000Y-45641019D01*
X91255000Y-45641009D01*
X91259039Y-45600001D01*
X91255000Y-45558993D01*
X91255000Y-43643285D01*
X91337205Y-43520256D01*
X91415226Y-43331898D01*
X91455000Y-43131939D01*
X91455000Y-42928061D01*
X91415226Y-42728102D01*
X91360374Y-42595678D01*
X91558061Y-42635000D01*
X91761939Y-42635000D01*
X91961898Y-42595226D01*
X92150256Y-42517205D01*
X92319774Y-42403937D01*
X92463937Y-42259774D01*
X92535689Y-42152390D01*
X92592795Y-42290256D01*
G04 #@! TA.AperFunction,Conductor*
D26*
G36*
X92592795Y-42290256D02*
G01*
X92675001Y-42413286D01*
X92675000Y-47634131D01*
X91694133Y-48615000D01*
X88585867Y-48615000D01*
X90981428Y-46219440D01*
X91013291Y-46193291D01*
X91117636Y-46066146D01*
X91195172Y-45921087D01*
X91242918Y-45763689D01*
X91255000Y-45641019D01*
X91255000Y-45641009D01*
X91259039Y-45600001D01*
X91255000Y-45558993D01*
X91255000Y-43643285D01*
X91337205Y-43520256D01*
X91415226Y-43331898D01*
X91455000Y-43131939D01*
X91455000Y-42928061D01*
X91415226Y-42728102D01*
X91360374Y-42595678D01*
X91558061Y-42635000D01*
X91761939Y-42635000D01*
X91961898Y-42595226D01*
X92150256Y-42517205D01*
X92319774Y-42403937D01*
X92463937Y-42259774D01*
X92535689Y-42152390D01*
X92592795Y-42290256D01*
G37*
G04 #@! TD.AperFunction*
M02*
