M48
; DRILL file {KiCad 5.1.10-88a1d61d58~90~ubuntu21.04.1} date Thu Oct 21 13:00:24 2021
; FORMAT={-:-/ absolute / metric / decimal}
; #@! TF.CreationDate,2021-10-21T13:00:24+03:00
; #@! TF.GenerationSoftware,Kicad,Pcbnew,5.1.10-88a1d61d58~90~ubuntu21.04.1
FMAT,2
METRIC
T1C0.400
T2C0.762
T3C0.800
T4C0.950
T5C1.000
T6C2.300
T7C0.900
T8C3.200
%
G90
G05
T1
X68.62Y-41.16
X68.83Y-44.77
X68.9Y-36.44
X69.13Y-68.69
X69.78Y-73.67
X69.78Y-81.02
X71.86Y-68.78
X72.78Y-73.41
X73.62Y-80.96
X74.82Y-62.21
X77.94Y-50.66
X78.01Y-49.48
X78.05Y-80.96
X78.44Y-92.09
X79.17Y-88.04
X79.296Y-60.714
X79.34Y-74.75
X79.46Y-73.49
X79.64Y-72.12
X79.87Y-42.34
X80.77Y-94.39
X80.91Y-44.25
X81.395Y-62.405
X82.03Y-65.203
X82.4Y-52.09
X82.41Y-60.95
X82.41Y-72.15
X83.34Y-73.41
X83.4Y-74.82
X83.71Y-78.81
X83.74Y-85.95
X83.79Y-81.38
X83.79Y-88.05
X83.84Y-83.7
X84.12Y-36.4
X84.97Y-47.25
X85.17Y-116.25
X85.2Y-114.1
X85.24Y-118.85
X85.38Y-37.68
X85.4Y-60.07
X85.47Y-61.38
X85.81Y-75.43
X85.91Y-81.4
X85.91Y-85.98
X85.96Y-83.65
X85.97Y-78.72
X86.04Y-88.05
X86.1Y-71.35
X86.55Y-56.66
X86.73Y-37.97
X87.525Y-58.595
X87.58Y-114.1
X87.64Y-64.37
X87.65Y-118.77
X87.69Y-116.32
X87.9Y-53.41
X88.13Y-50.95
X88.85Y-52.04
X89.19Y-75.54
X89.95Y-57.68
X90.04Y-85.67
X90.04Y-88.07
X90.09Y-83.7
X90.15Y-81.92
X90.22Y-78.59
X90.42Y-43.03
X90.66Y-73.41
X90.99Y-75.56
X91.23Y-59.14
X91.66Y-41.6
X92.1Y-61.13
X92.41Y-78.51
X92.43Y-44.01
X92.5Y-83.94
X92.52Y-81.69
X92.55Y-85.59
X92.58Y-99.12
X92.65Y-88.2
X92.77Y-63.32
X93.32Y-75.54
X93.51Y-41.8
X93.9Y-58.91
X94.09Y-64.94
X94.09Y-73.38
X94.39Y-37.85
X94.43Y-60.79
X94.6Y-55.51
X94.77Y-62.98
X94.78Y-43.26
X94.81Y-110.015
X95.35Y-115.03
X95.79Y-77.7
X95.79Y-81.06
X95.94Y-37.84
X96.115Y-53.345
X96.51Y-64.94
X96.81Y-58.22
X96.81Y-60.31
X97.16Y-56.39
X97.16Y-83.99
X97.32Y-74.94
X97.49Y-63.1
X97.5Y-51.06
X97.74Y-111.93
X98.255Y-122.325
X99.18Y-86.08
X99.3Y-43.62
X99.32Y-37.84
X99.59Y-81.53
X99.88Y-74.96
X100.02Y-78.83
X100.26Y-114.8
X100.85Y-110.05
X100.96Y-55.56
X101.76Y-83.52
X102.06Y-88.92
X102.44Y-53.31
X102.47Y-48.93
X102.48Y-74.86
X102.5Y-78.81
X102.59Y-50.13
X103.42Y-43.16
X103.53Y-37.9
X104.49Y-86.23
X105.95Y-78.94
X106.03Y-74.88
X106.07Y-82.54
X106.96Y-54.74
X107.4Y-37.88
X107.43Y-50.91
X107.55Y-52.13
X107.85Y-86.16
X108.44Y-43.76
X109.04Y-55.44
X109.04Y-58.05
X109.13Y-63.03
X109.14Y-60.75
X109.34Y-115.23
X109.53Y-117.45
X109.68Y-119.94
X110.11Y-72.2
X110.24Y-78.88
X110.36Y-83.08
X110.82Y-37.88
X111.51Y-76.79
X111.58Y-57.79
X111.68Y-55.46
X111.68Y-60.51
X111.98Y-86.1
X112.32Y-117.45
X112.39Y-115.23
X112.39Y-119.94
X112.81Y-89.84
X112.84Y-91.08
X112.88Y-72.27
X113.35Y-53.31
X114.05Y-52.96
X114.85Y-83.05
X114.88Y-79.97
X114.96Y-76.55
X115.96Y-72.24
X116.19Y-38.15
X117.18Y-97.24
X117.47Y-76.61
X117.47Y-79.95
T2
X79.905Y-67.339
X79.905Y-69.879
X79.905Y-102.299
X79.905Y-104.839
X82.445Y-67.339
X82.445Y-69.879
X82.445Y-102.299
X82.445Y-104.839
X84.985Y-67.339
X84.985Y-69.879
X84.985Y-102.299
X84.985Y-104.839
X87.525Y-67.339
X87.525Y-69.879
X87.525Y-102.299
X87.525Y-104.839
X90.065Y-67.339
X90.065Y-69.879
X90.065Y-102.299
X90.065Y-104.839
X92.605Y-67.339
X92.605Y-69.879
X92.605Y-102.299
X92.605Y-104.839
X95.145Y-67.339
X95.145Y-69.879
X95.145Y-102.299
X95.145Y-104.839
X97.685Y-67.339
X97.685Y-69.879
X97.685Y-102.299
X97.685Y-104.839
X100.225Y-67.339
X100.225Y-69.879
X100.225Y-104.839
X102.765Y-67.339
X102.765Y-69.879
X102.765Y-104.839
X105.305Y-67.339
X105.305Y-69.879
X105.305Y-104.839
X107.845Y-67.339
X107.845Y-69.879
X107.845Y-104.839
T3
X101.894Y-96.662
X101.894Y-99.202
X109.514Y-96.662
X109.514Y-99.202
T4
X82.29Y-110.0
X84.79Y-110.0
X86.79Y-110.0
X89.29Y-110.0
X106.31Y-110.0
X108.81Y-110.0
X110.81Y-110.0
X113.31Y-110.0
X121.94Y-61.66
X121.94Y-64.16
X121.94Y-66.66
X121.94Y-72.78
X121.94Y-75.28
X121.94Y-77.78
X121.94Y-80.28
X121.94Y-86.42
X121.94Y-88.92
X121.94Y-91.42
X121.94Y-93.92
X121.94Y-100.05
X121.94Y-102.55
X121.94Y-105.05
T5
X71.02Y-49.24
X71.02Y-51.78
X71.08Y-55.56
X71.08Y-58.1
X71.08Y-60.64
X71.08Y-63.18
X121.94Y-53.05
X121.94Y-55.55
T6
X79.22Y-112.71
X92.36Y-112.71
X103.24Y-112.71
X116.38Y-112.71
T7
X73.738Y-88.064
X73.738Y-92.464
T8
X73.0Y-40.0
X73.0Y-116.95
X121.0Y-40.0
X121.0Y-117.0
T0
M30
