G04 #@! TF.GenerationSoftware,KiCad,Pcbnew,5.1.10-88a1d61d58~90~ubuntu21.04.1*
G04 #@! TF.CreationDate,2021-07-27T13:19:27+03:00*
G04 #@! TF.ProjectId,klipper_nano,6b6c6970-7065-4725-9f6e-616e6f2e6b69,rev?*
G04 #@! TF.SameCoordinates,Original*
G04 #@! TF.FileFunction,Soldermask,Top*
G04 #@! TF.FilePolarity,Negative*
%FSLAX46Y46*%
G04 Gerber Fmt 4.6, Leading zero omitted, Abs format (unit mm)*
G04 Created by KiCad (PCBNEW 5.1.10-88a1d61d58~90~ubuntu21.04.1) date 2021-07-27 13:19:27*
%MOMM*%
%LPD*%
G01*
G04 APERTURE LIST*
%ADD10C,1.702000*%
%ADD11C,3.102000*%
%ADD12C,1.802000*%
%ADD13O,2.052000X1.802000*%
%ADD14C,1.002000*%
%ADD15O,2.102000X1.802000*%
%ADD16C,1.626000*%
%ADD17C,3.302000*%
%ADD18O,1.702000X1.702000*%
%ADD19C,0.100000*%
G04 APERTURE END LIST*
D10*
X113310000Y-110000000D03*
X110810000Y-110000000D03*
X108810000Y-110000000D03*
G36*
G01*
X105459000Y-110750000D02*
X105459000Y-109250000D01*
G75*
G02*
X105510000Y-109199000I51000J0D01*
G01*
X107110000Y-109199000D01*
G75*
G02*
X107161000Y-109250000I0J-51000D01*
G01*
X107161000Y-110750000D01*
G75*
G02*
X107110000Y-110801000I-51000J0D01*
G01*
X105510000Y-110801000D01*
G75*
G02*
X105459000Y-110750000I0J51000D01*
G01*
G37*
D11*
X116380000Y-112710000D03*
X103240000Y-112710000D03*
G36*
G01*
X97404999Y-114929000D02*
X98055001Y-114929000D01*
G75*
G02*
X98106000Y-114979999I0J-50999D01*
G01*
X98106000Y-116040001D01*
G75*
G02*
X98055001Y-116091000I-50999J0D01*
G01*
X97404999Y-116091000D01*
G75*
G02*
X97354000Y-116040001I0J50999D01*
G01*
X97354000Y-114979999D01*
G75*
G02*
X97404999Y-114929000I50999J0D01*
G01*
G37*
G36*
G01*
X98354999Y-114929000D02*
X99005001Y-114929000D01*
G75*
G02*
X99056000Y-114979999I0J-50999D01*
G01*
X99056000Y-116040001D01*
G75*
G02*
X99005001Y-116091000I-50999J0D01*
G01*
X98354999Y-116091000D01*
G75*
G02*
X98304000Y-116040001I0J50999D01*
G01*
X98304000Y-114979999D01*
G75*
G02*
X98354999Y-114929000I50999J0D01*
G01*
G37*
G36*
G01*
X96454999Y-114929000D02*
X97105001Y-114929000D01*
G75*
G02*
X97156000Y-114979999I0J-50999D01*
G01*
X97156000Y-116040001D01*
G75*
G02*
X97105001Y-116091000I-50999J0D01*
G01*
X96454999Y-116091000D01*
G75*
G02*
X96404000Y-116040001I0J50999D01*
G01*
X96404000Y-114979999D01*
G75*
G02*
X96454999Y-114929000I50999J0D01*
G01*
G37*
G36*
G01*
X96454999Y-112729000D02*
X97105001Y-112729000D01*
G75*
G02*
X97156000Y-112779999I0J-50999D01*
G01*
X97156000Y-113840001D01*
G75*
G02*
X97105001Y-113891000I-50999J0D01*
G01*
X96454999Y-113891000D01*
G75*
G02*
X96404000Y-113840001I0J50999D01*
G01*
X96404000Y-112779999D01*
G75*
G02*
X96454999Y-112729000I50999J0D01*
G01*
G37*
G36*
G01*
X97404999Y-112729000D02*
X98055001Y-112729000D01*
G75*
G02*
X98106000Y-112779999I0J-50999D01*
G01*
X98106000Y-113840001D01*
G75*
G02*
X98055001Y-113891000I-50999J0D01*
G01*
X97404999Y-113891000D01*
G75*
G02*
X97354000Y-113840001I0J50999D01*
G01*
X97354000Y-112779999D01*
G75*
G02*
X97404999Y-112729000I50999J0D01*
G01*
G37*
G36*
G01*
X98354999Y-112729000D02*
X99005001Y-112729000D01*
G75*
G02*
X99056000Y-112779999I0J-50999D01*
G01*
X99056000Y-113840001D01*
G75*
G02*
X99005001Y-113891000I-50999J0D01*
G01*
X98354999Y-113891000D01*
G75*
G02*
X98304000Y-113840001I0J50999D01*
G01*
X98304000Y-112779999D01*
G75*
G02*
X98354999Y-112729000I50999J0D01*
G01*
G37*
G36*
G01*
X98343876Y-109456500D02*
X99296124Y-109456500D01*
G75*
G02*
X99571000Y-109731376I0J-274876D01*
G01*
X99571000Y-110308624D01*
G75*
G02*
X99296124Y-110583500I-274876J0D01*
G01*
X98343876Y-110583500D01*
G75*
G02*
X98069000Y-110308624I0J274876D01*
G01*
X98069000Y-109731376D01*
G75*
G02*
X98343876Y-109456500I274876J0D01*
G01*
G37*
G36*
G01*
X98343876Y-107631500D02*
X99296124Y-107631500D01*
G75*
G02*
X99571000Y-107906376I0J-274876D01*
G01*
X99571000Y-108483624D01*
G75*
G02*
X99296124Y-108758500I-274876J0D01*
G01*
X98343876Y-108758500D01*
G75*
G02*
X98069000Y-108483624I0J274876D01*
G01*
X98069000Y-107906376D01*
G75*
G02*
X98343876Y-107631500I274876J0D01*
G01*
G37*
G36*
G01*
X100373876Y-109486500D02*
X101326124Y-109486500D01*
G75*
G02*
X101601000Y-109761376I0J-274876D01*
G01*
X101601000Y-110338624D01*
G75*
G02*
X101326124Y-110613500I-274876J0D01*
G01*
X100373876Y-110613500D01*
G75*
G02*
X100099000Y-110338624I0J274876D01*
G01*
X100099000Y-109761376D01*
G75*
G02*
X100373876Y-109486500I274876J0D01*
G01*
G37*
G36*
G01*
X100373876Y-107661500D02*
X101326124Y-107661500D01*
G75*
G02*
X101601000Y-107936376I0J-274876D01*
G01*
X101601000Y-108513624D01*
G75*
G02*
X101326124Y-108788500I-274876J0D01*
G01*
X100373876Y-108788500D01*
G75*
G02*
X100099000Y-108513624I0J274876D01*
G01*
X100099000Y-107936376D01*
G75*
G02*
X100373876Y-107661500I274876J0D01*
G01*
G37*
G36*
G01*
X94333876Y-109451500D02*
X95286124Y-109451500D01*
G75*
G02*
X95561000Y-109726376I0J-274876D01*
G01*
X95561000Y-110303624D01*
G75*
G02*
X95286124Y-110578500I-274876J0D01*
G01*
X94333876Y-110578500D01*
G75*
G02*
X94059000Y-110303624I0J274876D01*
G01*
X94059000Y-109726376D01*
G75*
G02*
X94333876Y-109451500I274876J0D01*
G01*
G37*
G36*
G01*
X94333876Y-107626500D02*
X95286124Y-107626500D01*
G75*
G02*
X95561000Y-107901376I0J-274876D01*
G01*
X95561000Y-108478624D01*
G75*
G02*
X95286124Y-108753500I-274876J0D01*
G01*
X94333876Y-108753500D01*
G75*
G02*
X94059000Y-108478624I0J274876D01*
G01*
X94059000Y-107901376D01*
G75*
G02*
X94333876Y-107626500I274876J0D01*
G01*
G37*
G36*
G01*
X96333876Y-109471500D02*
X97286124Y-109471500D01*
G75*
G02*
X97561000Y-109746376I0J-274876D01*
G01*
X97561000Y-110323624D01*
G75*
G02*
X97286124Y-110598500I-274876J0D01*
G01*
X96333876Y-110598500D01*
G75*
G02*
X96059000Y-110323624I0J274876D01*
G01*
X96059000Y-109746376D01*
G75*
G02*
X96333876Y-109471500I274876J0D01*
G01*
G37*
G36*
G01*
X96333876Y-107646500D02*
X97286124Y-107646500D01*
G75*
G02*
X97561000Y-107921376I0J-274876D01*
G01*
X97561000Y-108498624D01*
G75*
G02*
X97286124Y-108773500I-274876J0D01*
G01*
X96333876Y-108773500D01*
G75*
G02*
X96059000Y-108498624I0J274876D01*
G01*
X96059000Y-107921376D01*
G75*
G02*
X96333876Y-107646500I274876J0D01*
G01*
G37*
G36*
G01*
X117340500Y-89741000D02*
X116339500Y-89741000D01*
G75*
G02*
X116064000Y-89465500I0J275500D01*
G01*
X116064000Y-88914500D01*
G75*
G02*
X116339500Y-88639000I275500J0D01*
G01*
X117340500Y-88639000D01*
G75*
G02*
X117616000Y-88914500I0J-275500D01*
G01*
X117616000Y-89465500D01*
G75*
G02*
X117340500Y-89741000I-275500J0D01*
G01*
G37*
G36*
G01*
X117340500Y-91641000D02*
X116339500Y-91641000D01*
G75*
G02*
X116064000Y-91365500I0J275500D01*
G01*
X116064000Y-90814500D01*
G75*
G02*
X116339500Y-90539000I275500J0D01*
G01*
X117340500Y-90539000D01*
G75*
G02*
X117616000Y-90814500I0J-275500D01*
G01*
X117616000Y-91365500D01*
G75*
G02*
X117340500Y-91641000I-275500J0D01*
G01*
G37*
G36*
G01*
X113459000Y-88650500D02*
X113459000Y-88299500D01*
G75*
G02*
X113634500Y-88124000I175500J0D01*
G01*
X115335500Y-88124000D01*
G75*
G02*
X115511000Y-88299500I0J-175500D01*
G01*
X115511000Y-88650500D01*
G75*
G02*
X115335500Y-88826000I-175500J0D01*
G01*
X113634500Y-88826000D01*
G75*
G02*
X113459000Y-88650500I0J175500D01*
G01*
G37*
G36*
G01*
X113459000Y-89920500D02*
X113459000Y-89569500D01*
G75*
G02*
X113634500Y-89394000I175500J0D01*
G01*
X115335500Y-89394000D01*
G75*
G02*
X115511000Y-89569500I0J-175500D01*
G01*
X115511000Y-89920500D01*
G75*
G02*
X115335500Y-90096000I-175500J0D01*
G01*
X113634500Y-90096000D01*
G75*
G02*
X113459000Y-89920500I0J175500D01*
G01*
G37*
G36*
G01*
X113459000Y-91190500D02*
X113459000Y-90839500D01*
G75*
G02*
X113634500Y-90664000I175500J0D01*
G01*
X115335500Y-90664000D01*
G75*
G02*
X115511000Y-90839500I0J-175500D01*
G01*
X115511000Y-91190500D01*
G75*
G02*
X115335500Y-91366000I-175500J0D01*
G01*
X113634500Y-91366000D01*
G75*
G02*
X113459000Y-91190500I0J175500D01*
G01*
G37*
G36*
G01*
X113459000Y-92460500D02*
X113459000Y-92109500D01*
G75*
G02*
X113634500Y-91934000I175500J0D01*
G01*
X115335500Y-91934000D01*
G75*
G02*
X115511000Y-92109500I0J-175500D01*
G01*
X115511000Y-92460500D01*
G75*
G02*
X115335500Y-92636000I-175500J0D01*
G01*
X113634500Y-92636000D01*
G75*
G02*
X113459000Y-92460500I0J175500D01*
G01*
G37*
G36*
G01*
X108509000Y-92460500D02*
X108509000Y-92109500D01*
G75*
G02*
X108684500Y-91934000I175500J0D01*
G01*
X110385500Y-91934000D01*
G75*
G02*
X110561000Y-92109500I0J-175500D01*
G01*
X110561000Y-92460500D01*
G75*
G02*
X110385500Y-92636000I-175500J0D01*
G01*
X108684500Y-92636000D01*
G75*
G02*
X108509000Y-92460500I0J175500D01*
G01*
G37*
G36*
G01*
X108509000Y-91190500D02*
X108509000Y-90839500D01*
G75*
G02*
X108684500Y-90664000I175500J0D01*
G01*
X110385500Y-90664000D01*
G75*
G02*
X110561000Y-90839500I0J-175500D01*
G01*
X110561000Y-91190500D01*
G75*
G02*
X110385500Y-91366000I-175500J0D01*
G01*
X108684500Y-91366000D01*
G75*
G02*
X108509000Y-91190500I0J175500D01*
G01*
G37*
G36*
G01*
X108509000Y-89920500D02*
X108509000Y-89569500D01*
G75*
G02*
X108684500Y-89394000I175500J0D01*
G01*
X110385500Y-89394000D01*
G75*
G02*
X110561000Y-89569500I0J-175500D01*
G01*
X110561000Y-89920500D01*
G75*
G02*
X110385500Y-90096000I-175500J0D01*
G01*
X108684500Y-90096000D01*
G75*
G02*
X108509000Y-89920500I0J175500D01*
G01*
G37*
G36*
G01*
X108509000Y-88650500D02*
X108509000Y-88299500D01*
G75*
G02*
X108684500Y-88124000I175500J0D01*
G01*
X110385500Y-88124000D01*
G75*
G02*
X110561000Y-88299500I0J-175500D01*
G01*
X110561000Y-88650500D01*
G75*
G02*
X110385500Y-88826000I-175500J0D01*
G01*
X108684500Y-88826000D01*
G75*
G02*
X108509000Y-88650500I0J175500D01*
G01*
G37*
G36*
G01*
X109601000Y-86069500D02*
X109601000Y-87070500D01*
G75*
G02*
X109325500Y-87346000I-275500J0D01*
G01*
X108774500Y-87346000D01*
G75*
G02*
X108499000Y-87070500I0J275500D01*
G01*
X108499000Y-86069500D01*
G75*
G02*
X108774500Y-85794000I275500J0D01*
G01*
X109325500Y-85794000D01*
G75*
G02*
X109601000Y-86069500I0J-275500D01*
G01*
G37*
G36*
G01*
X111501000Y-86069500D02*
X111501000Y-87070500D01*
G75*
G02*
X111225500Y-87346000I-275500J0D01*
G01*
X110674500Y-87346000D01*
G75*
G02*
X110399000Y-87070500I0J275500D01*
G01*
X110399000Y-86069500D01*
G75*
G02*
X110674500Y-85794000I275500J0D01*
G01*
X111225500Y-85794000D01*
G75*
G02*
X111501000Y-86069500I0J-275500D01*
G01*
G37*
G36*
G01*
X113183875Y-104196500D02*
X114136125Y-104196500D01*
G75*
G02*
X114411000Y-104471375I0J-274875D01*
G01*
X114411000Y-105048625D01*
G75*
G02*
X114136125Y-105323500I-274875J0D01*
G01*
X113183875Y-105323500D01*
G75*
G02*
X112909000Y-105048625I0J274875D01*
G01*
X112909000Y-104471375D01*
G75*
G02*
X113183875Y-104196500I274875J0D01*
G01*
G37*
G36*
G01*
X113183875Y-102371500D02*
X114136125Y-102371500D01*
G75*
G02*
X114411000Y-102646375I0J-274875D01*
G01*
X114411000Y-103223625D01*
G75*
G02*
X114136125Y-103498500I-274875J0D01*
G01*
X113183875Y-103498500D01*
G75*
G02*
X112909000Y-103223625I0J274875D01*
G01*
X112909000Y-102646375D01*
G75*
G02*
X113183875Y-102371500I274875J0D01*
G01*
G37*
D12*
X74020000Y-59180000D03*
X74020000Y-56640000D03*
X74020000Y-54100000D03*
X74020000Y-51560000D03*
X71480000Y-59180000D03*
X71480000Y-56640000D03*
X71480000Y-54100000D03*
G36*
G01*
X70579000Y-52196000D02*
X70579000Y-50924000D01*
G75*
G02*
X70844000Y-50659000I265000J0D01*
G01*
X72116000Y-50659000D01*
G75*
G02*
X72381000Y-50924000I0J-265000D01*
G01*
X72381000Y-52196000D01*
G75*
G02*
X72116000Y-52461000I-265000J0D01*
G01*
X70844000Y-52461000D01*
G75*
G02*
X70579000Y-52196000I0J265000D01*
G01*
G37*
D13*
X121940000Y-66660000D03*
X121940000Y-64160000D03*
G36*
G01*
X121179000Y-60759000D02*
X122701000Y-60759000D01*
G75*
G02*
X122966000Y-61024000I0J-265000D01*
G01*
X122966000Y-62296000D01*
G75*
G02*
X122701000Y-62561000I-265000J0D01*
G01*
X121179000Y-62561000D01*
G75*
G02*
X120914000Y-62296000I0J265000D01*
G01*
X120914000Y-61024000D01*
G75*
G02*
X121179000Y-60759000I265000J0D01*
G01*
G37*
D14*
X73738000Y-92464000D03*
X73738000Y-88064000D03*
G36*
G01*
X75088000Y-91563000D02*
X77588000Y-91563000D01*
G75*
G02*
X77639000Y-91614000I0J-51000D01*
G01*
X77639000Y-92114000D01*
G75*
G02*
X77588000Y-92165000I-51000J0D01*
G01*
X75088000Y-92165000D01*
G75*
G02*
X75037000Y-92114000I0J51000D01*
G01*
X75037000Y-91614000D01*
G75*
G02*
X75088000Y-91563000I51000J0D01*
G01*
G37*
G36*
G01*
X75088000Y-90763000D02*
X77588000Y-90763000D01*
G75*
G02*
X77639000Y-90814000I0J-51000D01*
G01*
X77639000Y-91314000D01*
G75*
G02*
X77588000Y-91365000I-51000J0D01*
G01*
X75088000Y-91365000D01*
G75*
G02*
X75037000Y-91314000I0J51000D01*
G01*
X75037000Y-90814000D01*
G75*
G02*
X75088000Y-90763000I51000J0D01*
G01*
G37*
G36*
G01*
X75088000Y-89963000D02*
X77588000Y-89963000D01*
G75*
G02*
X77639000Y-90014000I0J-51000D01*
G01*
X77639000Y-90514000D01*
G75*
G02*
X77588000Y-90565000I-51000J0D01*
G01*
X75088000Y-90565000D01*
G75*
G02*
X75037000Y-90514000I0J51000D01*
G01*
X75037000Y-90014000D01*
G75*
G02*
X75088000Y-89963000I51000J0D01*
G01*
G37*
G36*
G01*
X75088000Y-89163000D02*
X77588000Y-89163000D01*
G75*
G02*
X77639000Y-89214000I0J-51000D01*
G01*
X77639000Y-89714000D01*
G75*
G02*
X77588000Y-89765000I-51000J0D01*
G01*
X75088000Y-89765000D01*
G75*
G02*
X75037000Y-89714000I0J51000D01*
G01*
X75037000Y-89214000D01*
G75*
G02*
X75088000Y-89163000I51000J0D01*
G01*
G37*
G36*
G01*
X75088000Y-88363000D02*
X77588000Y-88363000D01*
G75*
G02*
X77639000Y-88414000I0J-51000D01*
G01*
X77639000Y-88914000D01*
G75*
G02*
X77588000Y-88965000I-51000J0D01*
G01*
X75088000Y-88965000D01*
G75*
G02*
X75037000Y-88914000I0J51000D01*
G01*
X75037000Y-88414000D01*
G75*
G02*
X75088000Y-88363000I51000J0D01*
G01*
G37*
G36*
G01*
X75088000Y-93613000D02*
X77588000Y-93613000D01*
G75*
G02*
X77639000Y-93664000I0J-51000D01*
G01*
X77639000Y-95664000D01*
G75*
G02*
X77588000Y-95715000I-51000J0D01*
G01*
X75088000Y-95715000D01*
G75*
G02*
X75037000Y-95664000I0J51000D01*
G01*
X75037000Y-93664000D01*
G75*
G02*
X75088000Y-93613000I51000J0D01*
G01*
G37*
G36*
G01*
X75088000Y-84813000D02*
X77588000Y-84813000D01*
G75*
G02*
X77639000Y-84864000I0J-51000D01*
G01*
X77639000Y-86864000D01*
G75*
G02*
X77588000Y-86915000I-51000J0D01*
G01*
X75088000Y-86915000D01*
G75*
G02*
X75037000Y-86864000I0J51000D01*
G01*
X75037000Y-84864000D01*
G75*
G02*
X75088000Y-84813000I51000J0D01*
G01*
G37*
G36*
G01*
X69588000Y-93613000D02*
X72088000Y-93613000D01*
G75*
G02*
X72139000Y-93664000I0J-51000D01*
G01*
X72139000Y-95664000D01*
G75*
G02*
X72088000Y-95715000I-51000J0D01*
G01*
X69588000Y-95715000D01*
G75*
G02*
X69537000Y-95664000I0J51000D01*
G01*
X69537000Y-93664000D01*
G75*
G02*
X69588000Y-93613000I51000J0D01*
G01*
G37*
G36*
G01*
X69588000Y-84813000D02*
X72088000Y-84813000D01*
G75*
G02*
X72139000Y-84864000I0J-51000D01*
G01*
X72139000Y-86864000D01*
G75*
G02*
X72088000Y-86915000I-51000J0D01*
G01*
X69588000Y-86915000D01*
G75*
G02*
X69537000Y-86864000I0J51000D01*
G01*
X69537000Y-84864000D01*
G75*
G02*
X69588000Y-84813000I51000J0D01*
G01*
G37*
D10*
X89290000Y-110000000D03*
X86790000Y-110000000D03*
X84790000Y-110000000D03*
G36*
G01*
X81439000Y-110750000D02*
X81439000Y-109250000D01*
G75*
G02*
X81490000Y-109199000I51000J0D01*
G01*
X83090000Y-109199000D01*
G75*
G02*
X83141000Y-109250000I0J-51000D01*
G01*
X83141000Y-110750000D01*
G75*
G02*
X83090000Y-110801000I-51000J0D01*
G01*
X81490000Y-110801000D01*
G75*
G02*
X81439000Y-110750000I0J51000D01*
G01*
G37*
D11*
X92360000Y-112710000D03*
X79220000Y-112710000D03*
G36*
G01*
X87431000Y-53139500D02*
X87431000Y-53490500D01*
G75*
G02*
X87255500Y-53666000I-175500J0D01*
G01*
X85554500Y-53666000D01*
G75*
G02*
X85379000Y-53490500I0J175500D01*
G01*
X85379000Y-53139500D01*
G75*
G02*
X85554500Y-52964000I175500J0D01*
G01*
X87255500Y-52964000D01*
G75*
G02*
X87431000Y-53139500I0J-175500D01*
G01*
G37*
G36*
G01*
X87431000Y-51869500D02*
X87431000Y-52220500D01*
G75*
G02*
X87255500Y-52396000I-175500J0D01*
G01*
X85554500Y-52396000D01*
G75*
G02*
X85379000Y-52220500I0J175500D01*
G01*
X85379000Y-51869500D01*
G75*
G02*
X85554500Y-51694000I175500J0D01*
G01*
X87255500Y-51694000D01*
G75*
G02*
X87431000Y-51869500I0J-175500D01*
G01*
G37*
G36*
G01*
X87431000Y-50599500D02*
X87431000Y-50950500D01*
G75*
G02*
X87255500Y-51126000I-175500J0D01*
G01*
X85554500Y-51126000D01*
G75*
G02*
X85379000Y-50950500I0J175500D01*
G01*
X85379000Y-50599500D01*
G75*
G02*
X85554500Y-50424000I175500J0D01*
G01*
X87255500Y-50424000D01*
G75*
G02*
X87431000Y-50599500I0J-175500D01*
G01*
G37*
G36*
G01*
X87431000Y-49329500D02*
X87431000Y-49680500D01*
G75*
G02*
X87255500Y-49856000I-175500J0D01*
G01*
X85554500Y-49856000D01*
G75*
G02*
X85379000Y-49680500I0J175500D01*
G01*
X85379000Y-49329500D01*
G75*
G02*
X85554500Y-49154000I175500J0D01*
G01*
X87255500Y-49154000D01*
G75*
G02*
X87431000Y-49329500I0J-175500D01*
G01*
G37*
G36*
G01*
X87431000Y-48059500D02*
X87431000Y-48410500D01*
G75*
G02*
X87255500Y-48586000I-175500J0D01*
G01*
X85554500Y-48586000D01*
G75*
G02*
X85379000Y-48410500I0J175500D01*
G01*
X85379000Y-48059500D01*
G75*
G02*
X85554500Y-47884000I175500J0D01*
G01*
X87255500Y-47884000D01*
G75*
G02*
X87431000Y-48059500I0J-175500D01*
G01*
G37*
G36*
G01*
X87431000Y-46789500D02*
X87431000Y-47140500D01*
G75*
G02*
X87255500Y-47316000I-175500J0D01*
G01*
X85554500Y-47316000D01*
G75*
G02*
X85379000Y-47140500I0J175500D01*
G01*
X85379000Y-46789500D01*
G75*
G02*
X85554500Y-46614000I175500J0D01*
G01*
X87255500Y-46614000D01*
G75*
G02*
X87431000Y-46789500I0J-175500D01*
G01*
G37*
G36*
G01*
X87431000Y-45519500D02*
X87431000Y-45870500D01*
G75*
G02*
X87255500Y-46046000I-175500J0D01*
G01*
X85554500Y-46046000D01*
G75*
G02*
X85379000Y-45870500I0J175500D01*
G01*
X85379000Y-45519500D01*
G75*
G02*
X85554500Y-45344000I175500J0D01*
G01*
X87255500Y-45344000D01*
G75*
G02*
X87431000Y-45519500I0J-175500D01*
G01*
G37*
G36*
G01*
X87431000Y-44249500D02*
X87431000Y-44600500D01*
G75*
G02*
X87255500Y-44776000I-175500J0D01*
G01*
X85554500Y-44776000D01*
G75*
G02*
X85379000Y-44600500I0J175500D01*
G01*
X85379000Y-44249500D01*
G75*
G02*
X85554500Y-44074000I175500J0D01*
G01*
X87255500Y-44074000D01*
G75*
G02*
X87431000Y-44249500I0J-175500D01*
G01*
G37*
G36*
G01*
X92381000Y-44249500D02*
X92381000Y-44600500D01*
G75*
G02*
X92205500Y-44776000I-175500J0D01*
G01*
X90504500Y-44776000D01*
G75*
G02*
X90329000Y-44600500I0J175500D01*
G01*
X90329000Y-44249500D01*
G75*
G02*
X90504500Y-44074000I175500J0D01*
G01*
X92205500Y-44074000D01*
G75*
G02*
X92381000Y-44249500I0J-175500D01*
G01*
G37*
G36*
G01*
X92381000Y-45519500D02*
X92381000Y-45870500D01*
G75*
G02*
X92205500Y-46046000I-175500J0D01*
G01*
X90504500Y-46046000D01*
G75*
G02*
X90329000Y-45870500I0J175500D01*
G01*
X90329000Y-45519500D01*
G75*
G02*
X90504500Y-45344000I175500J0D01*
G01*
X92205500Y-45344000D01*
G75*
G02*
X92381000Y-45519500I0J-175500D01*
G01*
G37*
G36*
G01*
X92381000Y-46789500D02*
X92381000Y-47140500D01*
G75*
G02*
X92205500Y-47316000I-175500J0D01*
G01*
X90504500Y-47316000D01*
G75*
G02*
X90329000Y-47140500I0J175500D01*
G01*
X90329000Y-46789500D01*
G75*
G02*
X90504500Y-46614000I175500J0D01*
G01*
X92205500Y-46614000D01*
G75*
G02*
X92381000Y-46789500I0J-175500D01*
G01*
G37*
G36*
G01*
X92381000Y-48059500D02*
X92381000Y-48410500D01*
G75*
G02*
X92205500Y-48586000I-175500J0D01*
G01*
X90504500Y-48586000D01*
G75*
G02*
X90329000Y-48410500I0J175500D01*
G01*
X90329000Y-48059500D01*
G75*
G02*
X90504500Y-47884000I175500J0D01*
G01*
X92205500Y-47884000D01*
G75*
G02*
X92381000Y-48059500I0J-175500D01*
G01*
G37*
G36*
G01*
X92381000Y-49329500D02*
X92381000Y-49680500D01*
G75*
G02*
X92205500Y-49856000I-175500J0D01*
G01*
X90504500Y-49856000D01*
G75*
G02*
X90329000Y-49680500I0J175500D01*
G01*
X90329000Y-49329500D01*
G75*
G02*
X90504500Y-49154000I175500J0D01*
G01*
X92205500Y-49154000D01*
G75*
G02*
X92381000Y-49329500I0J-175500D01*
G01*
G37*
G36*
G01*
X92381000Y-50599500D02*
X92381000Y-50950500D01*
G75*
G02*
X92205500Y-51126000I-175500J0D01*
G01*
X90504500Y-51126000D01*
G75*
G02*
X90329000Y-50950500I0J175500D01*
G01*
X90329000Y-50599500D01*
G75*
G02*
X90504500Y-50424000I175500J0D01*
G01*
X92205500Y-50424000D01*
G75*
G02*
X92381000Y-50599500I0J-175500D01*
G01*
G37*
G36*
G01*
X92381000Y-51869500D02*
X92381000Y-52220500D01*
G75*
G02*
X92205500Y-52396000I-175500J0D01*
G01*
X90504500Y-52396000D01*
G75*
G02*
X90329000Y-52220500I0J175500D01*
G01*
X90329000Y-51869500D01*
G75*
G02*
X90504500Y-51694000I175500J0D01*
G01*
X92205500Y-51694000D01*
G75*
G02*
X92381000Y-51869500I0J-175500D01*
G01*
G37*
G36*
G01*
X92381000Y-53139500D02*
X92381000Y-53490500D01*
G75*
G02*
X92205500Y-53666000I-175500J0D01*
G01*
X90504500Y-53666000D01*
G75*
G02*
X90329000Y-53490500I0J175500D01*
G01*
X90329000Y-53139500D01*
G75*
G02*
X90504500Y-52964000I175500J0D01*
G01*
X92205500Y-52964000D01*
G75*
G02*
X92381000Y-53139500I0J-175500D01*
G01*
G37*
G36*
G01*
X95361000Y-53169500D02*
X95361000Y-53520500D01*
G75*
G02*
X95185500Y-53696000I-175500J0D01*
G01*
X93484500Y-53696000D01*
G75*
G02*
X93309000Y-53520500I0J175500D01*
G01*
X93309000Y-53169500D01*
G75*
G02*
X93484500Y-52994000I175500J0D01*
G01*
X95185500Y-52994000D01*
G75*
G02*
X95361000Y-53169500I0J-175500D01*
G01*
G37*
G36*
G01*
X95361000Y-51899500D02*
X95361000Y-52250500D01*
G75*
G02*
X95185500Y-52426000I-175500J0D01*
G01*
X93484500Y-52426000D01*
G75*
G02*
X93309000Y-52250500I0J175500D01*
G01*
X93309000Y-51899500D01*
G75*
G02*
X93484500Y-51724000I175500J0D01*
G01*
X95185500Y-51724000D01*
G75*
G02*
X95361000Y-51899500I0J-175500D01*
G01*
G37*
G36*
G01*
X95361000Y-50629500D02*
X95361000Y-50980500D01*
G75*
G02*
X95185500Y-51156000I-175500J0D01*
G01*
X93484500Y-51156000D01*
G75*
G02*
X93309000Y-50980500I0J175500D01*
G01*
X93309000Y-50629500D01*
G75*
G02*
X93484500Y-50454000I175500J0D01*
G01*
X95185500Y-50454000D01*
G75*
G02*
X95361000Y-50629500I0J-175500D01*
G01*
G37*
G36*
G01*
X95361000Y-49359500D02*
X95361000Y-49710500D01*
G75*
G02*
X95185500Y-49886000I-175500J0D01*
G01*
X93484500Y-49886000D01*
G75*
G02*
X93309000Y-49710500I0J175500D01*
G01*
X93309000Y-49359500D01*
G75*
G02*
X93484500Y-49184000I175500J0D01*
G01*
X95185500Y-49184000D01*
G75*
G02*
X95361000Y-49359500I0J-175500D01*
G01*
G37*
G36*
G01*
X95361000Y-48089500D02*
X95361000Y-48440500D01*
G75*
G02*
X95185500Y-48616000I-175500J0D01*
G01*
X93484500Y-48616000D01*
G75*
G02*
X93309000Y-48440500I0J175500D01*
G01*
X93309000Y-48089500D01*
G75*
G02*
X93484500Y-47914000I175500J0D01*
G01*
X95185500Y-47914000D01*
G75*
G02*
X95361000Y-48089500I0J-175500D01*
G01*
G37*
G36*
G01*
X95361000Y-46819500D02*
X95361000Y-47170500D01*
G75*
G02*
X95185500Y-47346000I-175500J0D01*
G01*
X93484500Y-47346000D01*
G75*
G02*
X93309000Y-47170500I0J175500D01*
G01*
X93309000Y-46819500D01*
G75*
G02*
X93484500Y-46644000I175500J0D01*
G01*
X95185500Y-46644000D01*
G75*
G02*
X95361000Y-46819500I0J-175500D01*
G01*
G37*
G36*
G01*
X95361000Y-45549500D02*
X95361000Y-45900500D01*
G75*
G02*
X95185500Y-46076000I-175500J0D01*
G01*
X93484500Y-46076000D01*
G75*
G02*
X93309000Y-45900500I0J175500D01*
G01*
X93309000Y-45549500D01*
G75*
G02*
X93484500Y-45374000I175500J0D01*
G01*
X95185500Y-45374000D01*
G75*
G02*
X95361000Y-45549500I0J-175500D01*
G01*
G37*
G36*
G01*
X95361000Y-44279500D02*
X95361000Y-44630500D01*
G75*
G02*
X95185500Y-44806000I-175500J0D01*
G01*
X93484500Y-44806000D01*
G75*
G02*
X93309000Y-44630500I0J175500D01*
G01*
X93309000Y-44279500D01*
G75*
G02*
X93484500Y-44104000I175500J0D01*
G01*
X95185500Y-44104000D01*
G75*
G02*
X95361000Y-44279500I0J-175500D01*
G01*
G37*
G36*
G01*
X100311000Y-44279500D02*
X100311000Y-44630500D01*
G75*
G02*
X100135500Y-44806000I-175500J0D01*
G01*
X98434500Y-44806000D01*
G75*
G02*
X98259000Y-44630500I0J175500D01*
G01*
X98259000Y-44279500D01*
G75*
G02*
X98434500Y-44104000I175500J0D01*
G01*
X100135500Y-44104000D01*
G75*
G02*
X100311000Y-44279500I0J-175500D01*
G01*
G37*
G36*
G01*
X100311000Y-45549500D02*
X100311000Y-45900500D01*
G75*
G02*
X100135500Y-46076000I-175500J0D01*
G01*
X98434500Y-46076000D01*
G75*
G02*
X98259000Y-45900500I0J175500D01*
G01*
X98259000Y-45549500D01*
G75*
G02*
X98434500Y-45374000I175500J0D01*
G01*
X100135500Y-45374000D01*
G75*
G02*
X100311000Y-45549500I0J-175500D01*
G01*
G37*
G36*
G01*
X100311000Y-46819500D02*
X100311000Y-47170500D01*
G75*
G02*
X100135500Y-47346000I-175500J0D01*
G01*
X98434500Y-47346000D01*
G75*
G02*
X98259000Y-47170500I0J175500D01*
G01*
X98259000Y-46819500D01*
G75*
G02*
X98434500Y-46644000I175500J0D01*
G01*
X100135500Y-46644000D01*
G75*
G02*
X100311000Y-46819500I0J-175500D01*
G01*
G37*
G36*
G01*
X100311000Y-48089500D02*
X100311000Y-48440500D01*
G75*
G02*
X100135500Y-48616000I-175500J0D01*
G01*
X98434500Y-48616000D01*
G75*
G02*
X98259000Y-48440500I0J175500D01*
G01*
X98259000Y-48089500D01*
G75*
G02*
X98434500Y-47914000I175500J0D01*
G01*
X100135500Y-47914000D01*
G75*
G02*
X100311000Y-48089500I0J-175500D01*
G01*
G37*
G36*
G01*
X100311000Y-49359500D02*
X100311000Y-49710500D01*
G75*
G02*
X100135500Y-49886000I-175500J0D01*
G01*
X98434500Y-49886000D01*
G75*
G02*
X98259000Y-49710500I0J175500D01*
G01*
X98259000Y-49359500D01*
G75*
G02*
X98434500Y-49184000I175500J0D01*
G01*
X100135500Y-49184000D01*
G75*
G02*
X100311000Y-49359500I0J-175500D01*
G01*
G37*
G36*
G01*
X100311000Y-50629500D02*
X100311000Y-50980500D01*
G75*
G02*
X100135500Y-51156000I-175500J0D01*
G01*
X98434500Y-51156000D01*
G75*
G02*
X98259000Y-50980500I0J175500D01*
G01*
X98259000Y-50629500D01*
G75*
G02*
X98434500Y-50454000I175500J0D01*
G01*
X100135500Y-50454000D01*
G75*
G02*
X100311000Y-50629500I0J-175500D01*
G01*
G37*
G36*
G01*
X100311000Y-51899500D02*
X100311000Y-52250500D01*
G75*
G02*
X100135500Y-52426000I-175500J0D01*
G01*
X98434500Y-52426000D01*
G75*
G02*
X98259000Y-52250500I0J175500D01*
G01*
X98259000Y-51899500D01*
G75*
G02*
X98434500Y-51724000I175500J0D01*
G01*
X100135500Y-51724000D01*
G75*
G02*
X100311000Y-51899500I0J-175500D01*
G01*
G37*
G36*
G01*
X100311000Y-53169500D02*
X100311000Y-53520500D01*
G75*
G02*
X100135500Y-53696000I-175500J0D01*
G01*
X98434500Y-53696000D01*
G75*
G02*
X98259000Y-53520500I0J175500D01*
G01*
X98259000Y-53169500D01*
G75*
G02*
X98434500Y-52994000I175500J0D01*
G01*
X100135500Y-52994000D01*
G75*
G02*
X100311000Y-53169500I0J-175500D01*
G01*
G37*
G36*
G01*
X105371000Y-53179500D02*
X105371000Y-53530500D01*
G75*
G02*
X105195500Y-53706000I-175500J0D01*
G01*
X103494500Y-53706000D01*
G75*
G02*
X103319000Y-53530500I0J175500D01*
G01*
X103319000Y-53179500D01*
G75*
G02*
X103494500Y-53004000I175500J0D01*
G01*
X105195500Y-53004000D01*
G75*
G02*
X105371000Y-53179500I0J-175500D01*
G01*
G37*
G36*
G01*
X105371000Y-51909500D02*
X105371000Y-52260500D01*
G75*
G02*
X105195500Y-52436000I-175500J0D01*
G01*
X103494500Y-52436000D01*
G75*
G02*
X103319000Y-52260500I0J175500D01*
G01*
X103319000Y-51909500D01*
G75*
G02*
X103494500Y-51734000I175500J0D01*
G01*
X105195500Y-51734000D01*
G75*
G02*
X105371000Y-51909500I0J-175500D01*
G01*
G37*
G36*
G01*
X105371000Y-50639500D02*
X105371000Y-50990500D01*
G75*
G02*
X105195500Y-51166000I-175500J0D01*
G01*
X103494500Y-51166000D01*
G75*
G02*
X103319000Y-50990500I0J175500D01*
G01*
X103319000Y-50639500D01*
G75*
G02*
X103494500Y-50464000I175500J0D01*
G01*
X105195500Y-50464000D01*
G75*
G02*
X105371000Y-50639500I0J-175500D01*
G01*
G37*
G36*
G01*
X105371000Y-49369500D02*
X105371000Y-49720500D01*
G75*
G02*
X105195500Y-49896000I-175500J0D01*
G01*
X103494500Y-49896000D01*
G75*
G02*
X103319000Y-49720500I0J175500D01*
G01*
X103319000Y-49369500D01*
G75*
G02*
X103494500Y-49194000I175500J0D01*
G01*
X105195500Y-49194000D01*
G75*
G02*
X105371000Y-49369500I0J-175500D01*
G01*
G37*
G36*
G01*
X105371000Y-48099500D02*
X105371000Y-48450500D01*
G75*
G02*
X105195500Y-48626000I-175500J0D01*
G01*
X103494500Y-48626000D01*
G75*
G02*
X103319000Y-48450500I0J175500D01*
G01*
X103319000Y-48099500D01*
G75*
G02*
X103494500Y-47924000I175500J0D01*
G01*
X105195500Y-47924000D01*
G75*
G02*
X105371000Y-48099500I0J-175500D01*
G01*
G37*
G36*
G01*
X105371000Y-46829500D02*
X105371000Y-47180500D01*
G75*
G02*
X105195500Y-47356000I-175500J0D01*
G01*
X103494500Y-47356000D01*
G75*
G02*
X103319000Y-47180500I0J175500D01*
G01*
X103319000Y-46829500D01*
G75*
G02*
X103494500Y-46654000I175500J0D01*
G01*
X105195500Y-46654000D01*
G75*
G02*
X105371000Y-46829500I0J-175500D01*
G01*
G37*
G36*
G01*
X105371000Y-45559500D02*
X105371000Y-45910500D01*
G75*
G02*
X105195500Y-46086000I-175500J0D01*
G01*
X103494500Y-46086000D01*
G75*
G02*
X103319000Y-45910500I0J175500D01*
G01*
X103319000Y-45559500D01*
G75*
G02*
X103494500Y-45384000I175500J0D01*
G01*
X105195500Y-45384000D01*
G75*
G02*
X105371000Y-45559500I0J-175500D01*
G01*
G37*
G36*
G01*
X105371000Y-44289500D02*
X105371000Y-44640500D01*
G75*
G02*
X105195500Y-44816000I-175500J0D01*
G01*
X103494500Y-44816000D01*
G75*
G02*
X103319000Y-44640500I0J175500D01*
G01*
X103319000Y-44289500D01*
G75*
G02*
X103494500Y-44114000I175500J0D01*
G01*
X105195500Y-44114000D01*
G75*
G02*
X105371000Y-44289500I0J-175500D01*
G01*
G37*
G36*
G01*
X110321000Y-44289500D02*
X110321000Y-44640500D01*
G75*
G02*
X110145500Y-44816000I-175500J0D01*
G01*
X108444500Y-44816000D01*
G75*
G02*
X108269000Y-44640500I0J175500D01*
G01*
X108269000Y-44289500D01*
G75*
G02*
X108444500Y-44114000I175500J0D01*
G01*
X110145500Y-44114000D01*
G75*
G02*
X110321000Y-44289500I0J-175500D01*
G01*
G37*
G36*
G01*
X110321000Y-45559500D02*
X110321000Y-45910500D01*
G75*
G02*
X110145500Y-46086000I-175500J0D01*
G01*
X108444500Y-46086000D01*
G75*
G02*
X108269000Y-45910500I0J175500D01*
G01*
X108269000Y-45559500D01*
G75*
G02*
X108444500Y-45384000I175500J0D01*
G01*
X110145500Y-45384000D01*
G75*
G02*
X110321000Y-45559500I0J-175500D01*
G01*
G37*
G36*
G01*
X110321000Y-46829500D02*
X110321000Y-47180500D01*
G75*
G02*
X110145500Y-47356000I-175500J0D01*
G01*
X108444500Y-47356000D01*
G75*
G02*
X108269000Y-47180500I0J175500D01*
G01*
X108269000Y-46829500D01*
G75*
G02*
X108444500Y-46654000I175500J0D01*
G01*
X110145500Y-46654000D01*
G75*
G02*
X110321000Y-46829500I0J-175500D01*
G01*
G37*
G36*
G01*
X110321000Y-48099500D02*
X110321000Y-48450500D01*
G75*
G02*
X110145500Y-48626000I-175500J0D01*
G01*
X108444500Y-48626000D01*
G75*
G02*
X108269000Y-48450500I0J175500D01*
G01*
X108269000Y-48099500D01*
G75*
G02*
X108444500Y-47924000I175500J0D01*
G01*
X110145500Y-47924000D01*
G75*
G02*
X110321000Y-48099500I0J-175500D01*
G01*
G37*
G36*
G01*
X110321000Y-49369500D02*
X110321000Y-49720500D01*
G75*
G02*
X110145500Y-49896000I-175500J0D01*
G01*
X108444500Y-49896000D01*
G75*
G02*
X108269000Y-49720500I0J175500D01*
G01*
X108269000Y-49369500D01*
G75*
G02*
X108444500Y-49194000I175500J0D01*
G01*
X110145500Y-49194000D01*
G75*
G02*
X110321000Y-49369500I0J-175500D01*
G01*
G37*
G36*
G01*
X110321000Y-50639500D02*
X110321000Y-50990500D01*
G75*
G02*
X110145500Y-51166000I-175500J0D01*
G01*
X108444500Y-51166000D01*
G75*
G02*
X108269000Y-50990500I0J175500D01*
G01*
X108269000Y-50639500D01*
G75*
G02*
X108444500Y-50464000I175500J0D01*
G01*
X110145500Y-50464000D01*
G75*
G02*
X110321000Y-50639500I0J-175500D01*
G01*
G37*
G36*
G01*
X110321000Y-51909500D02*
X110321000Y-52260500D01*
G75*
G02*
X110145500Y-52436000I-175500J0D01*
G01*
X108444500Y-52436000D01*
G75*
G02*
X108269000Y-52260500I0J175500D01*
G01*
X108269000Y-51909500D01*
G75*
G02*
X108444500Y-51734000I175500J0D01*
G01*
X110145500Y-51734000D01*
G75*
G02*
X110321000Y-51909500I0J-175500D01*
G01*
G37*
G36*
G01*
X110321000Y-53179500D02*
X110321000Y-53530500D01*
G75*
G02*
X110145500Y-53706000I-175500J0D01*
G01*
X108444500Y-53706000D01*
G75*
G02*
X108269000Y-53530500I0J175500D01*
G01*
X108269000Y-53179500D01*
G75*
G02*
X108444500Y-53004000I175500J0D01*
G01*
X110145500Y-53004000D01*
G75*
G02*
X110321000Y-53179500I0J-175500D01*
G01*
G37*
G36*
G01*
X103239000Y-55355500D02*
X103239000Y-55004500D01*
G75*
G02*
X103414500Y-54829000I175500J0D01*
G01*
X105115500Y-54829000D01*
G75*
G02*
X105291000Y-55004500I0J-175500D01*
G01*
X105291000Y-55355500D01*
G75*
G02*
X105115500Y-55531000I-175500J0D01*
G01*
X103414500Y-55531000D01*
G75*
G02*
X103239000Y-55355500I0J175500D01*
G01*
G37*
G36*
G01*
X103239000Y-56625500D02*
X103239000Y-56274500D01*
G75*
G02*
X103414500Y-56099000I175500J0D01*
G01*
X105115500Y-56099000D01*
G75*
G02*
X105291000Y-56274500I0J-175500D01*
G01*
X105291000Y-56625500D01*
G75*
G02*
X105115500Y-56801000I-175500J0D01*
G01*
X103414500Y-56801000D01*
G75*
G02*
X103239000Y-56625500I0J175500D01*
G01*
G37*
G36*
G01*
X103239000Y-57895500D02*
X103239000Y-57544500D01*
G75*
G02*
X103414500Y-57369000I175500J0D01*
G01*
X105115500Y-57369000D01*
G75*
G02*
X105291000Y-57544500I0J-175500D01*
G01*
X105291000Y-57895500D01*
G75*
G02*
X105115500Y-58071000I-175500J0D01*
G01*
X103414500Y-58071000D01*
G75*
G02*
X103239000Y-57895500I0J175500D01*
G01*
G37*
G36*
G01*
X103239000Y-59165500D02*
X103239000Y-58814500D01*
G75*
G02*
X103414500Y-58639000I175500J0D01*
G01*
X105115500Y-58639000D01*
G75*
G02*
X105291000Y-58814500I0J-175500D01*
G01*
X105291000Y-59165500D01*
G75*
G02*
X105115500Y-59341000I-175500J0D01*
G01*
X103414500Y-59341000D01*
G75*
G02*
X103239000Y-59165500I0J175500D01*
G01*
G37*
G36*
G01*
X103239000Y-60435500D02*
X103239000Y-60084500D01*
G75*
G02*
X103414500Y-59909000I175500J0D01*
G01*
X105115500Y-59909000D01*
G75*
G02*
X105291000Y-60084500I0J-175500D01*
G01*
X105291000Y-60435500D01*
G75*
G02*
X105115500Y-60611000I-175500J0D01*
G01*
X103414500Y-60611000D01*
G75*
G02*
X103239000Y-60435500I0J175500D01*
G01*
G37*
G36*
G01*
X103239000Y-61705500D02*
X103239000Y-61354500D01*
G75*
G02*
X103414500Y-61179000I175500J0D01*
G01*
X105115500Y-61179000D01*
G75*
G02*
X105291000Y-61354500I0J-175500D01*
G01*
X105291000Y-61705500D01*
G75*
G02*
X105115500Y-61881000I-175500J0D01*
G01*
X103414500Y-61881000D01*
G75*
G02*
X103239000Y-61705500I0J175500D01*
G01*
G37*
G36*
G01*
X103239000Y-62975500D02*
X103239000Y-62624500D01*
G75*
G02*
X103414500Y-62449000I175500J0D01*
G01*
X105115500Y-62449000D01*
G75*
G02*
X105291000Y-62624500I0J-175500D01*
G01*
X105291000Y-62975500D01*
G75*
G02*
X105115500Y-63151000I-175500J0D01*
G01*
X103414500Y-63151000D01*
G75*
G02*
X103239000Y-62975500I0J175500D01*
G01*
G37*
G36*
G01*
X98289000Y-62975500D02*
X98289000Y-62624500D01*
G75*
G02*
X98464500Y-62449000I175500J0D01*
G01*
X100165500Y-62449000D01*
G75*
G02*
X100341000Y-62624500I0J-175500D01*
G01*
X100341000Y-62975500D01*
G75*
G02*
X100165500Y-63151000I-175500J0D01*
G01*
X98464500Y-63151000D01*
G75*
G02*
X98289000Y-62975500I0J175500D01*
G01*
G37*
G36*
G01*
X98289000Y-61705500D02*
X98289000Y-61354500D01*
G75*
G02*
X98464500Y-61179000I175500J0D01*
G01*
X100165500Y-61179000D01*
G75*
G02*
X100341000Y-61354500I0J-175500D01*
G01*
X100341000Y-61705500D01*
G75*
G02*
X100165500Y-61881000I-175500J0D01*
G01*
X98464500Y-61881000D01*
G75*
G02*
X98289000Y-61705500I0J175500D01*
G01*
G37*
G36*
G01*
X98289000Y-60435500D02*
X98289000Y-60084500D01*
G75*
G02*
X98464500Y-59909000I175500J0D01*
G01*
X100165500Y-59909000D01*
G75*
G02*
X100341000Y-60084500I0J-175500D01*
G01*
X100341000Y-60435500D01*
G75*
G02*
X100165500Y-60611000I-175500J0D01*
G01*
X98464500Y-60611000D01*
G75*
G02*
X98289000Y-60435500I0J175500D01*
G01*
G37*
G36*
G01*
X98289000Y-59165500D02*
X98289000Y-58814500D01*
G75*
G02*
X98464500Y-58639000I175500J0D01*
G01*
X100165500Y-58639000D01*
G75*
G02*
X100341000Y-58814500I0J-175500D01*
G01*
X100341000Y-59165500D01*
G75*
G02*
X100165500Y-59341000I-175500J0D01*
G01*
X98464500Y-59341000D01*
G75*
G02*
X98289000Y-59165500I0J175500D01*
G01*
G37*
G36*
G01*
X98289000Y-57895500D02*
X98289000Y-57544500D01*
G75*
G02*
X98464500Y-57369000I175500J0D01*
G01*
X100165500Y-57369000D01*
G75*
G02*
X100341000Y-57544500I0J-175500D01*
G01*
X100341000Y-57895500D01*
G75*
G02*
X100165500Y-58071000I-175500J0D01*
G01*
X98464500Y-58071000D01*
G75*
G02*
X98289000Y-57895500I0J175500D01*
G01*
G37*
G36*
G01*
X98289000Y-56625500D02*
X98289000Y-56274500D01*
G75*
G02*
X98464500Y-56099000I175500J0D01*
G01*
X100165500Y-56099000D01*
G75*
G02*
X100341000Y-56274500I0J-175500D01*
G01*
X100341000Y-56625500D01*
G75*
G02*
X100165500Y-56801000I-175500J0D01*
G01*
X98464500Y-56801000D01*
G75*
G02*
X98289000Y-56625500I0J175500D01*
G01*
G37*
G36*
G01*
X98289000Y-55355500D02*
X98289000Y-55004500D01*
G75*
G02*
X98464500Y-54829000I175500J0D01*
G01*
X100165500Y-54829000D01*
G75*
G02*
X100341000Y-55004500I0J-175500D01*
G01*
X100341000Y-55355500D01*
G75*
G02*
X100165500Y-55531000I-175500J0D01*
G01*
X98464500Y-55531000D01*
G75*
G02*
X98289000Y-55355500I0J175500D01*
G01*
G37*
G36*
G01*
X79928000Y-38237000D02*
X77928000Y-38237000D01*
G75*
G02*
X77877000Y-38186000I0J51000D01*
G01*
X77877000Y-35686000D01*
G75*
G02*
X77928000Y-35635000I51000J0D01*
G01*
X79928000Y-35635000D01*
G75*
G02*
X79979000Y-35686000I0J-51000D01*
G01*
X79979000Y-38186000D01*
G75*
G02*
X79928000Y-38237000I-51000J0D01*
G01*
G37*
G36*
G01*
X115928000Y-38237000D02*
X113928000Y-38237000D01*
G75*
G02*
X113877000Y-38186000I0J51000D01*
G01*
X113877000Y-35686000D01*
G75*
G02*
X113928000Y-35635000I51000J0D01*
G01*
X115928000Y-35635000D01*
G75*
G02*
X115979000Y-35686000I0J-51000D01*
G01*
X115979000Y-38186000D01*
G75*
G02*
X115928000Y-38237000I-51000J0D01*
G01*
G37*
G36*
G01*
X81728000Y-40637000D02*
X81128000Y-40637000D01*
G75*
G02*
X81077000Y-40586000I0J51000D01*
G01*
X81077000Y-38786000D01*
G75*
G02*
X81128000Y-38735000I51000J0D01*
G01*
X81728000Y-38735000D01*
G75*
G02*
X81779000Y-38786000I0J-51000D01*
G01*
X81779000Y-40586000D01*
G75*
G02*
X81728000Y-40637000I-51000J0D01*
G01*
G37*
G36*
G01*
X82728000Y-40637000D02*
X82128000Y-40637000D01*
G75*
G02*
X82077000Y-40586000I0J51000D01*
G01*
X82077000Y-38786000D01*
G75*
G02*
X82128000Y-38735000I51000J0D01*
G01*
X82728000Y-38735000D01*
G75*
G02*
X82779000Y-38786000I0J-51000D01*
G01*
X82779000Y-40586000D01*
G75*
G02*
X82728000Y-40637000I-51000J0D01*
G01*
G37*
G36*
G01*
X83728000Y-40637000D02*
X83128000Y-40637000D01*
G75*
G02*
X83077000Y-40586000I0J51000D01*
G01*
X83077000Y-38786000D01*
G75*
G02*
X83128000Y-38735000I51000J0D01*
G01*
X83728000Y-38735000D01*
G75*
G02*
X83779000Y-38786000I0J-51000D01*
G01*
X83779000Y-40586000D01*
G75*
G02*
X83728000Y-40637000I-51000J0D01*
G01*
G37*
G36*
G01*
X84728000Y-40637000D02*
X84128000Y-40637000D01*
G75*
G02*
X84077000Y-40586000I0J51000D01*
G01*
X84077000Y-38786000D01*
G75*
G02*
X84128000Y-38735000I51000J0D01*
G01*
X84728000Y-38735000D01*
G75*
G02*
X84779000Y-38786000I0J-51000D01*
G01*
X84779000Y-40586000D01*
G75*
G02*
X84728000Y-40637000I-51000J0D01*
G01*
G37*
G36*
G01*
X85728000Y-40637000D02*
X85128000Y-40637000D01*
G75*
G02*
X85077000Y-40586000I0J51000D01*
G01*
X85077000Y-38786000D01*
G75*
G02*
X85128000Y-38735000I51000J0D01*
G01*
X85728000Y-38735000D01*
G75*
G02*
X85779000Y-38786000I0J-51000D01*
G01*
X85779000Y-40586000D01*
G75*
G02*
X85728000Y-40637000I-51000J0D01*
G01*
G37*
G36*
G01*
X86728000Y-40637000D02*
X86128000Y-40637000D01*
G75*
G02*
X86077000Y-40586000I0J51000D01*
G01*
X86077000Y-38786000D01*
G75*
G02*
X86128000Y-38735000I51000J0D01*
G01*
X86728000Y-38735000D01*
G75*
G02*
X86779000Y-38786000I0J-51000D01*
G01*
X86779000Y-40586000D01*
G75*
G02*
X86728000Y-40637000I-51000J0D01*
G01*
G37*
G36*
G01*
X87728000Y-40637000D02*
X87128000Y-40637000D01*
G75*
G02*
X87077000Y-40586000I0J51000D01*
G01*
X87077000Y-38786000D01*
G75*
G02*
X87128000Y-38735000I51000J0D01*
G01*
X87728000Y-38735000D01*
G75*
G02*
X87779000Y-38786000I0J-51000D01*
G01*
X87779000Y-40586000D01*
G75*
G02*
X87728000Y-40637000I-51000J0D01*
G01*
G37*
G36*
G01*
X88728000Y-40637000D02*
X88128000Y-40637000D01*
G75*
G02*
X88077000Y-40586000I0J51000D01*
G01*
X88077000Y-38786000D01*
G75*
G02*
X88128000Y-38735000I51000J0D01*
G01*
X88728000Y-38735000D01*
G75*
G02*
X88779000Y-38786000I0J-51000D01*
G01*
X88779000Y-40586000D01*
G75*
G02*
X88728000Y-40637000I-51000J0D01*
G01*
G37*
G36*
G01*
X89728000Y-40637000D02*
X89128000Y-40637000D01*
G75*
G02*
X89077000Y-40586000I0J51000D01*
G01*
X89077000Y-38786000D01*
G75*
G02*
X89128000Y-38735000I51000J0D01*
G01*
X89728000Y-38735000D01*
G75*
G02*
X89779000Y-38786000I0J-51000D01*
G01*
X89779000Y-40586000D01*
G75*
G02*
X89728000Y-40637000I-51000J0D01*
G01*
G37*
G36*
G01*
X90728000Y-40637000D02*
X90128000Y-40637000D01*
G75*
G02*
X90077000Y-40586000I0J51000D01*
G01*
X90077000Y-38786000D01*
G75*
G02*
X90128000Y-38735000I51000J0D01*
G01*
X90728000Y-38735000D01*
G75*
G02*
X90779000Y-38786000I0J-51000D01*
G01*
X90779000Y-40586000D01*
G75*
G02*
X90728000Y-40637000I-51000J0D01*
G01*
G37*
G36*
G01*
X91728000Y-40637000D02*
X91128000Y-40637000D01*
G75*
G02*
X91077000Y-40586000I0J51000D01*
G01*
X91077000Y-38786000D01*
G75*
G02*
X91128000Y-38735000I51000J0D01*
G01*
X91728000Y-38735000D01*
G75*
G02*
X91779000Y-38786000I0J-51000D01*
G01*
X91779000Y-40586000D01*
G75*
G02*
X91728000Y-40637000I-51000J0D01*
G01*
G37*
G36*
G01*
X92728000Y-40637000D02*
X92128000Y-40637000D01*
G75*
G02*
X92077000Y-40586000I0J51000D01*
G01*
X92077000Y-38786000D01*
G75*
G02*
X92128000Y-38735000I51000J0D01*
G01*
X92728000Y-38735000D01*
G75*
G02*
X92779000Y-38786000I0J-51000D01*
G01*
X92779000Y-40586000D01*
G75*
G02*
X92728000Y-40637000I-51000J0D01*
G01*
G37*
G36*
G01*
X93728000Y-40637000D02*
X93128000Y-40637000D01*
G75*
G02*
X93077000Y-40586000I0J51000D01*
G01*
X93077000Y-38786000D01*
G75*
G02*
X93128000Y-38735000I51000J0D01*
G01*
X93728000Y-38735000D01*
G75*
G02*
X93779000Y-38786000I0J-51000D01*
G01*
X93779000Y-40586000D01*
G75*
G02*
X93728000Y-40637000I-51000J0D01*
G01*
G37*
G36*
G01*
X94728000Y-40637000D02*
X94128000Y-40637000D01*
G75*
G02*
X94077000Y-40586000I0J51000D01*
G01*
X94077000Y-38786000D01*
G75*
G02*
X94128000Y-38735000I51000J0D01*
G01*
X94728000Y-38735000D01*
G75*
G02*
X94779000Y-38786000I0J-51000D01*
G01*
X94779000Y-40586000D01*
G75*
G02*
X94728000Y-40637000I-51000J0D01*
G01*
G37*
G36*
G01*
X95728000Y-40637000D02*
X95128000Y-40637000D01*
G75*
G02*
X95077000Y-40586000I0J51000D01*
G01*
X95077000Y-38786000D01*
G75*
G02*
X95128000Y-38735000I51000J0D01*
G01*
X95728000Y-38735000D01*
G75*
G02*
X95779000Y-38786000I0J-51000D01*
G01*
X95779000Y-40586000D01*
G75*
G02*
X95728000Y-40637000I-51000J0D01*
G01*
G37*
G36*
G01*
X96728000Y-40637000D02*
X96128000Y-40637000D01*
G75*
G02*
X96077000Y-40586000I0J51000D01*
G01*
X96077000Y-38786000D01*
G75*
G02*
X96128000Y-38735000I51000J0D01*
G01*
X96728000Y-38735000D01*
G75*
G02*
X96779000Y-38786000I0J-51000D01*
G01*
X96779000Y-40586000D01*
G75*
G02*
X96728000Y-40637000I-51000J0D01*
G01*
G37*
G36*
G01*
X97728000Y-40637000D02*
X97128000Y-40637000D01*
G75*
G02*
X97077000Y-40586000I0J51000D01*
G01*
X97077000Y-38786000D01*
G75*
G02*
X97128000Y-38735000I51000J0D01*
G01*
X97728000Y-38735000D01*
G75*
G02*
X97779000Y-38786000I0J-51000D01*
G01*
X97779000Y-40586000D01*
G75*
G02*
X97728000Y-40637000I-51000J0D01*
G01*
G37*
G36*
G01*
X98728000Y-40637000D02*
X98128000Y-40637000D01*
G75*
G02*
X98077000Y-40586000I0J51000D01*
G01*
X98077000Y-38786000D01*
G75*
G02*
X98128000Y-38735000I51000J0D01*
G01*
X98728000Y-38735000D01*
G75*
G02*
X98779000Y-38786000I0J-51000D01*
G01*
X98779000Y-40586000D01*
G75*
G02*
X98728000Y-40637000I-51000J0D01*
G01*
G37*
G36*
G01*
X99728000Y-40637000D02*
X99128000Y-40637000D01*
G75*
G02*
X99077000Y-40586000I0J51000D01*
G01*
X99077000Y-38786000D01*
G75*
G02*
X99128000Y-38735000I51000J0D01*
G01*
X99728000Y-38735000D01*
G75*
G02*
X99779000Y-38786000I0J-51000D01*
G01*
X99779000Y-40586000D01*
G75*
G02*
X99728000Y-40637000I-51000J0D01*
G01*
G37*
G36*
G01*
X100728000Y-40637000D02*
X100128000Y-40637000D01*
G75*
G02*
X100077000Y-40586000I0J51000D01*
G01*
X100077000Y-38786000D01*
G75*
G02*
X100128000Y-38735000I51000J0D01*
G01*
X100728000Y-38735000D01*
G75*
G02*
X100779000Y-38786000I0J-51000D01*
G01*
X100779000Y-40586000D01*
G75*
G02*
X100728000Y-40637000I-51000J0D01*
G01*
G37*
G36*
G01*
X101728000Y-40637000D02*
X101128000Y-40637000D01*
G75*
G02*
X101077000Y-40586000I0J51000D01*
G01*
X101077000Y-38786000D01*
G75*
G02*
X101128000Y-38735000I51000J0D01*
G01*
X101728000Y-38735000D01*
G75*
G02*
X101779000Y-38786000I0J-51000D01*
G01*
X101779000Y-40586000D01*
G75*
G02*
X101728000Y-40637000I-51000J0D01*
G01*
G37*
G36*
G01*
X102728000Y-40637000D02*
X102128000Y-40637000D01*
G75*
G02*
X102077000Y-40586000I0J51000D01*
G01*
X102077000Y-38786000D01*
G75*
G02*
X102128000Y-38735000I51000J0D01*
G01*
X102728000Y-38735000D01*
G75*
G02*
X102779000Y-38786000I0J-51000D01*
G01*
X102779000Y-40586000D01*
G75*
G02*
X102728000Y-40637000I-51000J0D01*
G01*
G37*
G36*
G01*
X103728000Y-40637000D02*
X103128000Y-40637000D01*
G75*
G02*
X103077000Y-40586000I0J51000D01*
G01*
X103077000Y-38786000D01*
G75*
G02*
X103128000Y-38735000I51000J0D01*
G01*
X103728000Y-38735000D01*
G75*
G02*
X103779000Y-38786000I0J-51000D01*
G01*
X103779000Y-40586000D01*
G75*
G02*
X103728000Y-40637000I-51000J0D01*
G01*
G37*
G36*
G01*
X104728000Y-40637000D02*
X104128000Y-40637000D01*
G75*
G02*
X104077000Y-40586000I0J51000D01*
G01*
X104077000Y-38786000D01*
G75*
G02*
X104128000Y-38735000I51000J0D01*
G01*
X104728000Y-38735000D01*
G75*
G02*
X104779000Y-38786000I0J-51000D01*
G01*
X104779000Y-40586000D01*
G75*
G02*
X104728000Y-40637000I-51000J0D01*
G01*
G37*
G36*
G01*
X105728000Y-40637000D02*
X105128000Y-40637000D01*
G75*
G02*
X105077000Y-40586000I0J51000D01*
G01*
X105077000Y-38786000D01*
G75*
G02*
X105128000Y-38735000I51000J0D01*
G01*
X105728000Y-38735000D01*
G75*
G02*
X105779000Y-38786000I0J-51000D01*
G01*
X105779000Y-40586000D01*
G75*
G02*
X105728000Y-40637000I-51000J0D01*
G01*
G37*
G36*
G01*
X106728000Y-40637000D02*
X106128000Y-40637000D01*
G75*
G02*
X106077000Y-40586000I0J51000D01*
G01*
X106077000Y-38786000D01*
G75*
G02*
X106128000Y-38735000I51000J0D01*
G01*
X106728000Y-38735000D01*
G75*
G02*
X106779000Y-38786000I0J-51000D01*
G01*
X106779000Y-40586000D01*
G75*
G02*
X106728000Y-40637000I-51000J0D01*
G01*
G37*
G36*
G01*
X107728000Y-40637000D02*
X107128000Y-40637000D01*
G75*
G02*
X107077000Y-40586000I0J51000D01*
G01*
X107077000Y-38786000D01*
G75*
G02*
X107128000Y-38735000I51000J0D01*
G01*
X107728000Y-38735000D01*
G75*
G02*
X107779000Y-38786000I0J-51000D01*
G01*
X107779000Y-40586000D01*
G75*
G02*
X107728000Y-40637000I-51000J0D01*
G01*
G37*
G36*
G01*
X108728000Y-40637000D02*
X108128000Y-40637000D01*
G75*
G02*
X108077000Y-40586000I0J51000D01*
G01*
X108077000Y-38786000D01*
G75*
G02*
X108128000Y-38735000I51000J0D01*
G01*
X108728000Y-38735000D01*
G75*
G02*
X108779000Y-38786000I0J-51000D01*
G01*
X108779000Y-40586000D01*
G75*
G02*
X108728000Y-40637000I-51000J0D01*
G01*
G37*
G36*
G01*
X109728000Y-40637000D02*
X109128000Y-40637000D01*
G75*
G02*
X109077000Y-40586000I0J51000D01*
G01*
X109077000Y-38786000D01*
G75*
G02*
X109128000Y-38735000I51000J0D01*
G01*
X109728000Y-38735000D01*
G75*
G02*
X109779000Y-38786000I0J-51000D01*
G01*
X109779000Y-40586000D01*
G75*
G02*
X109728000Y-40637000I-51000J0D01*
G01*
G37*
G36*
G01*
X110728000Y-40637000D02*
X110128000Y-40637000D01*
G75*
G02*
X110077000Y-40586000I0J51000D01*
G01*
X110077000Y-38786000D01*
G75*
G02*
X110128000Y-38735000I51000J0D01*
G01*
X110728000Y-38735000D01*
G75*
G02*
X110779000Y-38786000I0J-51000D01*
G01*
X110779000Y-40586000D01*
G75*
G02*
X110728000Y-40637000I-51000J0D01*
G01*
G37*
G36*
G01*
X111728000Y-40637000D02*
X111128000Y-40637000D01*
G75*
G02*
X111077000Y-40586000I0J51000D01*
G01*
X111077000Y-38786000D01*
G75*
G02*
X111128000Y-38735000I51000J0D01*
G01*
X111728000Y-38735000D01*
G75*
G02*
X111779000Y-38786000I0J-51000D01*
G01*
X111779000Y-40586000D01*
G75*
G02*
X111728000Y-40637000I-51000J0D01*
G01*
G37*
G36*
G01*
X112728000Y-40637000D02*
X112128000Y-40637000D01*
G75*
G02*
X112077000Y-40586000I0J51000D01*
G01*
X112077000Y-38786000D01*
G75*
G02*
X112128000Y-38735000I51000J0D01*
G01*
X112728000Y-38735000D01*
G75*
G02*
X112779000Y-38786000I0J-51000D01*
G01*
X112779000Y-40586000D01*
G75*
G02*
X112728000Y-40637000I-51000J0D01*
G01*
G37*
D15*
X121940000Y-55550000D03*
G36*
G01*
X121154000Y-52149000D02*
X122726000Y-52149000D01*
G75*
G02*
X122991000Y-52414000I0J-265000D01*
G01*
X122991000Y-53686000D01*
G75*
G02*
X122726000Y-53951000I-265000J0D01*
G01*
X121154000Y-53951000D01*
G75*
G02*
X120889000Y-53686000I0J265000D01*
G01*
X120889000Y-52414000D01*
G75*
G02*
X121154000Y-52149000I265000J0D01*
G01*
G37*
D16*
X107844999Y-69878999D03*
X105304999Y-69878999D03*
X102764999Y-69878999D03*
X100224999Y-69878999D03*
X97684999Y-69878999D03*
X95144999Y-69878999D03*
X92604999Y-69878999D03*
X90064999Y-69878999D03*
X87524999Y-69878999D03*
X84984999Y-69878999D03*
X82444999Y-69878999D03*
X79904999Y-69878999D03*
X107844999Y-67338999D03*
X105304999Y-67338999D03*
X102764999Y-67338999D03*
X100224999Y-67338999D03*
X97684999Y-67338999D03*
X95144999Y-67338999D03*
X92604999Y-67338999D03*
X90064999Y-67338999D03*
X87524999Y-67338999D03*
X84984999Y-67338999D03*
X82444999Y-67338999D03*
X79904999Y-67338999D03*
X97684999Y-102298999D03*
X95144999Y-102298999D03*
X92604999Y-102298999D03*
X90064999Y-102298999D03*
X87524999Y-102298999D03*
X84984999Y-102298999D03*
X82444999Y-102298999D03*
X79904999Y-102298999D03*
X107844999Y-104838999D03*
X105304999Y-104838999D03*
X102764999Y-104838999D03*
X100224999Y-104838999D03*
X97684999Y-104838999D03*
X95144999Y-104838999D03*
X92604999Y-104838999D03*
X90064999Y-104838999D03*
X87524999Y-104838999D03*
X84984999Y-104838999D03*
X82444999Y-104838999D03*
X79904999Y-104838999D03*
D13*
X121940000Y-80280000D03*
X121940000Y-77780000D03*
X121940000Y-75280000D03*
G36*
G01*
X121179000Y-71879000D02*
X122701000Y-71879000D01*
G75*
G02*
X122966000Y-72144000I0J-265000D01*
G01*
X122966000Y-73416000D01*
G75*
G02*
X122701000Y-73681000I-265000J0D01*
G01*
X121179000Y-73681000D01*
G75*
G02*
X120914000Y-73416000I0J265000D01*
G01*
X120914000Y-72144000D01*
G75*
G02*
X121179000Y-71879000I265000J0D01*
G01*
G37*
D17*
X73000000Y-40000000D03*
X73000000Y-116950000D03*
X121000000Y-40000000D03*
X121000000Y-117000000D03*
D18*
X109514000Y-96662000D03*
X101894000Y-99202000D03*
X109514000Y-99202000D03*
G36*
G01*
X101043000Y-97462000D02*
X101043000Y-95862000D01*
G75*
G02*
X101094000Y-95811000I51000J0D01*
G01*
X102694000Y-95811000D01*
G75*
G02*
X102745000Y-95862000I0J-51000D01*
G01*
X102745000Y-97462000D01*
G75*
G02*
X102694000Y-97513000I-51000J0D01*
G01*
X101094000Y-97513000D01*
G75*
G02*
X101043000Y-97462000I0J51000D01*
G01*
G37*
G36*
G01*
X98393500Y-96185875D02*
X98393500Y-97138125D01*
G75*
G02*
X98118625Y-97413000I-274875J0D01*
G01*
X97541375Y-97413000D01*
G75*
G02*
X97266500Y-97138125I0J274875D01*
G01*
X97266500Y-96185875D01*
G75*
G02*
X97541375Y-95911000I274875J0D01*
G01*
X98118625Y-95911000D01*
G75*
G02*
X98393500Y-96185875I0J-274875D01*
G01*
G37*
G36*
G01*
X100218500Y-96185875D02*
X100218500Y-97138125D01*
G75*
G02*
X99943625Y-97413000I-274875J0D01*
G01*
X99366375Y-97413000D01*
G75*
G02*
X99091500Y-97138125I0J274875D01*
G01*
X99091500Y-96185875D01*
G75*
G02*
X99366375Y-95911000I274875J0D01*
G01*
X99943625Y-95911000D01*
G75*
G02*
X100218500Y-96185875I0J-274875D01*
G01*
G37*
D13*
X121940000Y-105050000D03*
X121940000Y-102550000D03*
G36*
G01*
X121179000Y-99149000D02*
X122701000Y-99149000D01*
G75*
G02*
X122966000Y-99414000I0J-265000D01*
G01*
X122966000Y-100686000D01*
G75*
G02*
X122701000Y-100951000I-265000J0D01*
G01*
X121179000Y-100951000D01*
G75*
G02*
X120914000Y-100686000I0J265000D01*
G01*
X120914000Y-99414000D01*
G75*
G02*
X121179000Y-99149000I265000J0D01*
G01*
G37*
G36*
G01*
X115183500Y-104263000D02*
X116184500Y-104263000D01*
G75*
G02*
X116460000Y-104538500I0J-275500D01*
G01*
X116460000Y-105089500D01*
G75*
G02*
X116184500Y-105365000I-275500J0D01*
G01*
X115183500Y-105365000D01*
G75*
G02*
X114908000Y-105089500I0J275500D01*
G01*
X114908000Y-104538500D01*
G75*
G02*
X115183500Y-104263000I275500J0D01*
G01*
G37*
G36*
G01*
X115183500Y-102363000D02*
X116184500Y-102363000D01*
G75*
G02*
X116460000Y-102638500I0J-275500D01*
G01*
X116460000Y-103189500D01*
G75*
G02*
X116184500Y-103465000I-275500J0D01*
G01*
X115183500Y-103465000D01*
G75*
G02*
X114908000Y-103189500I0J275500D01*
G01*
X114908000Y-102638500D01*
G75*
G02*
X115183500Y-102363000I275500J0D01*
G01*
G37*
X121940000Y-93920000D03*
X121940000Y-91420000D03*
X121940000Y-88920000D03*
G36*
G01*
X121179000Y-85519000D02*
X122701000Y-85519000D01*
G75*
G02*
X122966000Y-85784000I0J-265000D01*
G01*
X122966000Y-87056000D01*
G75*
G02*
X122701000Y-87321000I-265000J0D01*
G01*
X121179000Y-87321000D01*
G75*
G02*
X120914000Y-87056000I0J265000D01*
G01*
X120914000Y-85784000D01*
G75*
G02*
X121179000Y-85519000I265000J0D01*
G01*
G37*
G36*
G01*
X89330500Y-91985000D02*
X89730500Y-91985000D01*
G75*
G02*
X89781500Y-92036000I0J-51000D01*
G01*
X89781500Y-93236000D01*
G75*
G02*
X89730500Y-93287000I-51000J0D01*
G01*
X89330500Y-93287000D01*
G75*
G02*
X89279500Y-93236000I0J51000D01*
G01*
X89279500Y-92036000D01*
G75*
G02*
X89330500Y-91985000I51000J0D01*
G01*
G37*
G36*
G01*
X88695500Y-91985000D02*
X89095500Y-91985000D01*
G75*
G02*
X89146500Y-92036000I0J-51000D01*
G01*
X89146500Y-93236000D01*
G75*
G02*
X89095500Y-93287000I-51000J0D01*
G01*
X88695500Y-93287000D01*
G75*
G02*
X88644500Y-93236000I0J51000D01*
G01*
X88644500Y-92036000D01*
G75*
G02*
X88695500Y-91985000I51000J0D01*
G01*
G37*
G36*
G01*
X88060500Y-91985000D02*
X88460500Y-91985000D01*
G75*
G02*
X88511500Y-92036000I0J-51000D01*
G01*
X88511500Y-93236000D01*
G75*
G02*
X88460500Y-93287000I-51000J0D01*
G01*
X88060500Y-93287000D01*
G75*
G02*
X88009500Y-93236000I0J51000D01*
G01*
X88009500Y-92036000D01*
G75*
G02*
X88060500Y-91985000I51000J0D01*
G01*
G37*
G36*
G01*
X87425500Y-91985000D02*
X87825500Y-91985000D01*
G75*
G02*
X87876500Y-92036000I0J-51000D01*
G01*
X87876500Y-93236000D01*
G75*
G02*
X87825500Y-93287000I-51000J0D01*
G01*
X87425500Y-93287000D01*
G75*
G02*
X87374500Y-93236000I0J51000D01*
G01*
X87374500Y-92036000D01*
G75*
G02*
X87425500Y-91985000I51000J0D01*
G01*
G37*
G36*
G01*
X86790500Y-91985000D02*
X87190500Y-91985000D01*
G75*
G02*
X87241500Y-92036000I0J-51000D01*
G01*
X87241500Y-93236000D01*
G75*
G02*
X87190500Y-93287000I-51000J0D01*
G01*
X86790500Y-93287000D01*
G75*
G02*
X86739500Y-93236000I0J51000D01*
G01*
X86739500Y-92036000D01*
G75*
G02*
X86790500Y-91985000I51000J0D01*
G01*
G37*
G36*
G01*
X86155500Y-91985000D02*
X86555500Y-91985000D01*
G75*
G02*
X86606500Y-92036000I0J-51000D01*
G01*
X86606500Y-93236000D01*
G75*
G02*
X86555500Y-93287000I-51000J0D01*
G01*
X86155500Y-93287000D01*
G75*
G02*
X86104500Y-93236000I0J51000D01*
G01*
X86104500Y-92036000D01*
G75*
G02*
X86155500Y-91985000I51000J0D01*
G01*
G37*
G36*
G01*
X85520500Y-91985000D02*
X85920500Y-91985000D01*
G75*
G02*
X85971500Y-92036000I0J-51000D01*
G01*
X85971500Y-93236000D01*
G75*
G02*
X85920500Y-93287000I-51000J0D01*
G01*
X85520500Y-93287000D01*
G75*
G02*
X85469500Y-93236000I0J51000D01*
G01*
X85469500Y-92036000D01*
G75*
G02*
X85520500Y-91985000I51000J0D01*
G01*
G37*
G36*
G01*
X84885500Y-91985000D02*
X85285500Y-91985000D01*
G75*
G02*
X85336500Y-92036000I0J-51000D01*
G01*
X85336500Y-93236000D01*
G75*
G02*
X85285500Y-93287000I-51000J0D01*
G01*
X84885500Y-93287000D01*
G75*
G02*
X84834500Y-93236000I0J51000D01*
G01*
X84834500Y-92036000D01*
G75*
G02*
X84885500Y-91985000I51000J0D01*
G01*
G37*
G36*
G01*
X84885500Y-86785000D02*
X85285500Y-86785000D01*
G75*
G02*
X85336500Y-86836000I0J-51000D01*
G01*
X85336500Y-88036000D01*
G75*
G02*
X85285500Y-88087000I-51000J0D01*
G01*
X84885500Y-88087000D01*
G75*
G02*
X84834500Y-88036000I0J51000D01*
G01*
X84834500Y-86836000D01*
G75*
G02*
X84885500Y-86785000I51000J0D01*
G01*
G37*
G36*
G01*
X85520500Y-86785000D02*
X85920500Y-86785000D01*
G75*
G02*
X85971500Y-86836000I0J-51000D01*
G01*
X85971500Y-88036000D01*
G75*
G02*
X85920500Y-88087000I-51000J0D01*
G01*
X85520500Y-88087000D01*
G75*
G02*
X85469500Y-88036000I0J51000D01*
G01*
X85469500Y-86836000D01*
G75*
G02*
X85520500Y-86785000I51000J0D01*
G01*
G37*
G36*
G01*
X86155500Y-86785000D02*
X86555500Y-86785000D01*
G75*
G02*
X86606500Y-86836000I0J-51000D01*
G01*
X86606500Y-88036000D01*
G75*
G02*
X86555500Y-88087000I-51000J0D01*
G01*
X86155500Y-88087000D01*
G75*
G02*
X86104500Y-88036000I0J51000D01*
G01*
X86104500Y-86836000D01*
G75*
G02*
X86155500Y-86785000I51000J0D01*
G01*
G37*
G36*
G01*
X86790500Y-86785000D02*
X87190500Y-86785000D01*
G75*
G02*
X87241500Y-86836000I0J-51000D01*
G01*
X87241500Y-88036000D01*
G75*
G02*
X87190500Y-88087000I-51000J0D01*
G01*
X86790500Y-88087000D01*
G75*
G02*
X86739500Y-88036000I0J51000D01*
G01*
X86739500Y-86836000D01*
G75*
G02*
X86790500Y-86785000I51000J0D01*
G01*
G37*
G36*
G01*
X87425500Y-86785000D02*
X87825500Y-86785000D01*
G75*
G02*
X87876500Y-86836000I0J-51000D01*
G01*
X87876500Y-88036000D01*
G75*
G02*
X87825500Y-88087000I-51000J0D01*
G01*
X87425500Y-88087000D01*
G75*
G02*
X87374500Y-88036000I0J51000D01*
G01*
X87374500Y-86836000D01*
G75*
G02*
X87425500Y-86785000I51000J0D01*
G01*
G37*
G36*
G01*
X88060500Y-86785000D02*
X88460500Y-86785000D01*
G75*
G02*
X88511500Y-86836000I0J-51000D01*
G01*
X88511500Y-88036000D01*
G75*
G02*
X88460500Y-88087000I-51000J0D01*
G01*
X88060500Y-88087000D01*
G75*
G02*
X88009500Y-88036000I0J51000D01*
G01*
X88009500Y-86836000D01*
G75*
G02*
X88060500Y-86785000I51000J0D01*
G01*
G37*
G36*
G01*
X88695500Y-86785000D02*
X89095500Y-86785000D01*
G75*
G02*
X89146500Y-86836000I0J-51000D01*
G01*
X89146500Y-88036000D01*
G75*
G02*
X89095500Y-88087000I-51000J0D01*
G01*
X88695500Y-88087000D01*
G75*
G02*
X88644500Y-88036000I0J51000D01*
G01*
X88644500Y-86836000D01*
G75*
G02*
X88695500Y-86785000I51000J0D01*
G01*
G37*
G36*
G01*
X89330500Y-86785000D02*
X89730500Y-86785000D01*
G75*
G02*
X89781500Y-86836000I0J-51000D01*
G01*
X89781500Y-88036000D01*
G75*
G02*
X89730500Y-88087000I-51000J0D01*
G01*
X89330500Y-88087000D01*
G75*
G02*
X89279500Y-88036000I0J51000D01*
G01*
X89279500Y-86836000D01*
G75*
G02*
X89330500Y-86785000I51000J0D01*
G01*
G37*
G36*
G01*
X82046500Y-88624250D02*
X82046500Y-89587750D01*
G75*
G02*
X81777250Y-89857000I-269250J0D01*
G01*
X81238750Y-89857000D01*
G75*
G02*
X80969500Y-89587750I0J269250D01*
G01*
X80969500Y-88624250D01*
G75*
G02*
X81238750Y-88355000I269250J0D01*
G01*
X81777250Y-88355000D01*
G75*
G02*
X82046500Y-88624250I0J-269250D01*
G01*
G37*
G36*
G01*
X83921500Y-88624250D02*
X83921500Y-89587750D01*
G75*
G02*
X83652250Y-89857000I-269250J0D01*
G01*
X83113750Y-89857000D01*
G75*
G02*
X82844500Y-89587750I0J269250D01*
G01*
X82844500Y-88624250D01*
G75*
G02*
X83113750Y-88355000I269250J0D01*
G01*
X83652250Y-88355000D01*
G75*
G02*
X83921500Y-88624250I0J-269250D01*
G01*
G37*
G36*
G01*
X82026500Y-90594250D02*
X82026500Y-91557750D01*
G75*
G02*
X81757250Y-91827000I-269250J0D01*
G01*
X81218750Y-91827000D01*
G75*
G02*
X80949500Y-91557750I0J269250D01*
G01*
X80949500Y-90594250D01*
G75*
G02*
X81218750Y-90325000I269250J0D01*
G01*
X81757250Y-90325000D01*
G75*
G02*
X82026500Y-90594250I0J-269250D01*
G01*
G37*
G36*
G01*
X83901500Y-90594250D02*
X83901500Y-91557750D01*
G75*
G02*
X83632250Y-91827000I-269250J0D01*
G01*
X83093750Y-91827000D01*
G75*
G02*
X82824500Y-91557750I0J269250D01*
G01*
X82824500Y-90594250D01*
G75*
G02*
X83093750Y-90325000I269250J0D01*
G01*
X83632250Y-90325000D01*
G75*
G02*
X83901500Y-90594250I0J-269250D01*
G01*
G37*
G36*
G01*
X88014500Y-86007750D02*
X88014500Y-85044250D01*
G75*
G02*
X88283750Y-84775000I269250J0D01*
G01*
X88822250Y-84775000D01*
G75*
G02*
X89091500Y-85044250I0J-269250D01*
G01*
X89091500Y-86007750D01*
G75*
G02*
X88822250Y-86277000I-269250J0D01*
G01*
X88283750Y-86277000D01*
G75*
G02*
X88014500Y-86007750I0J269250D01*
G01*
G37*
G36*
G01*
X86139500Y-86007750D02*
X86139500Y-85044250D01*
G75*
G02*
X86408750Y-84775000I269250J0D01*
G01*
X86947250Y-84775000D01*
G75*
G02*
X87216500Y-85044250I0J-269250D01*
G01*
X87216500Y-86007750D01*
G75*
G02*
X86947250Y-86277000I-269250J0D01*
G01*
X86408750Y-86277000D01*
G75*
G02*
X86139500Y-86007750I0J269250D01*
G01*
G37*
G36*
G01*
X87489500Y-95127750D02*
X87489500Y-94164250D01*
G75*
G02*
X87758750Y-93895000I269250J0D01*
G01*
X88297250Y-93895000D01*
G75*
G02*
X88566500Y-94164250I0J-269250D01*
G01*
X88566500Y-95127750D01*
G75*
G02*
X88297250Y-95397000I-269250J0D01*
G01*
X87758750Y-95397000D01*
G75*
G02*
X87489500Y-95127750I0J269250D01*
G01*
G37*
G36*
G01*
X85614500Y-95127750D02*
X85614500Y-94164250D01*
G75*
G02*
X85883750Y-93895000I269250J0D01*
G01*
X86422250Y-93895000D01*
G75*
G02*
X86691500Y-94164250I0J-269250D01*
G01*
X86691500Y-95127750D01*
G75*
G02*
X86422250Y-95397000I-269250J0D01*
G01*
X85883750Y-95397000D01*
G75*
G02*
X85614500Y-95127750I0J269250D01*
G01*
G37*
G36*
G01*
X87490500Y-97383750D02*
X87490500Y-96420250D01*
G75*
G02*
X87759750Y-96151000I269250J0D01*
G01*
X88298250Y-96151000D01*
G75*
G02*
X88567500Y-96420250I0J-269250D01*
G01*
X88567500Y-97383750D01*
G75*
G02*
X88298250Y-97653000I-269250J0D01*
G01*
X87759750Y-97653000D01*
G75*
G02*
X87490500Y-97383750I0J269250D01*
G01*
G37*
G36*
G01*
X85615500Y-97383750D02*
X85615500Y-96420250D01*
G75*
G02*
X85884750Y-96151000I269250J0D01*
G01*
X86423250Y-96151000D01*
G75*
G02*
X86692500Y-96420250I0J-269250D01*
G01*
X86692500Y-97383750D01*
G75*
G02*
X86423250Y-97653000I-269250J0D01*
G01*
X85884750Y-97653000D01*
G75*
G02*
X85615500Y-97383750I0J269250D01*
G01*
G37*
G36*
G01*
X82844500Y-87607750D02*
X82844500Y-86644250D01*
G75*
G02*
X83113750Y-86375000I269250J0D01*
G01*
X83652250Y-86375000D01*
G75*
G02*
X83921500Y-86644250I0J-269250D01*
G01*
X83921500Y-87607750D01*
G75*
G02*
X83652250Y-87877000I-269250J0D01*
G01*
X83113750Y-87877000D01*
G75*
G02*
X82844500Y-87607750I0J269250D01*
G01*
G37*
G36*
G01*
X80969500Y-87607750D02*
X80969500Y-86644250D01*
G75*
G02*
X81238750Y-86375000I269250J0D01*
G01*
X81777250Y-86375000D01*
G75*
G02*
X82046500Y-86644250I0J-269250D01*
G01*
X82046500Y-87607750D01*
G75*
G02*
X81777250Y-87877000I-269250J0D01*
G01*
X81238750Y-87877000D01*
G75*
G02*
X80969500Y-87607750I0J269250D01*
G01*
G37*
G36*
G01*
X82046500Y-92574250D02*
X82046500Y-93537750D01*
G75*
G02*
X81777250Y-93807000I-269250J0D01*
G01*
X81238750Y-93807000D01*
G75*
G02*
X80969500Y-93537750I0J269250D01*
G01*
X80969500Y-92574250D01*
G75*
G02*
X81238750Y-92305000I269250J0D01*
G01*
X81777250Y-92305000D01*
G75*
G02*
X82046500Y-92574250I0J-269250D01*
G01*
G37*
G36*
G01*
X83921500Y-92574250D02*
X83921500Y-93537750D01*
G75*
G02*
X83652250Y-93807000I-269250J0D01*
G01*
X83113750Y-93807000D01*
G75*
G02*
X82844500Y-93537750I0J269250D01*
G01*
X82844500Y-92574250D01*
G75*
G02*
X83113750Y-92305000I269250J0D01*
G01*
X83652250Y-92305000D01*
G75*
G02*
X83921500Y-92574250I0J-269250D01*
G01*
G37*
D19*
G36*
X98305732Y-114928000D02*
G01*
X98306000Y-114929000D01*
X98306000Y-116091000D01*
X98305000Y-116092732D01*
X98304000Y-116093000D01*
X98106000Y-116093000D01*
X98104268Y-116092000D01*
X98104000Y-116091000D01*
X98104000Y-114929000D01*
X98105000Y-114927268D01*
X98106000Y-114927000D01*
X98304000Y-114927000D01*
X98305732Y-114928000D01*
G37*
G36*
X97355732Y-114928000D02*
G01*
X97356000Y-114929000D01*
X97356000Y-116091000D01*
X97355000Y-116092732D01*
X97354000Y-116093000D01*
X97156000Y-116093000D01*
X97154268Y-116092000D01*
X97154000Y-116091000D01*
X97154000Y-114929000D01*
X97155000Y-114927268D01*
X97156000Y-114927000D01*
X97354000Y-114927000D01*
X97355732Y-114928000D01*
G37*
G36*
X98305732Y-112728000D02*
G01*
X98306000Y-112729000D01*
X98306000Y-113891000D01*
X98305000Y-113892732D01*
X98304000Y-113893000D01*
X98106000Y-113893000D01*
X98104268Y-113892000D01*
X98104000Y-113891000D01*
X98104000Y-112729000D01*
X98105000Y-112727268D01*
X98106000Y-112727000D01*
X98304000Y-112727000D01*
X98305732Y-112728000D01*
G37*
G36*
X97355732Y-112728000D02*
G01*
X97356000Y-112729000D01*
X97356000Y-113891000D01*
X97355000Y-113892732D01*
X97354000Y-113893000D01*
X97156000Y-113893000D01*
X97154268Y-113892000D01*
X97154000Y-113891000D01*
X97154000Y-112729000D01*
X97155000Y-112727268D01*
X97156000Y-112727000D01*
X97354000Y-112727000D01*
X97355732Y-112728000D01*
G37*
G36*
X122967165Y-100684374D02*
G01*
X122968000Y-100686000D01*
X122968000Y-100768097D01*
X122967990Y-100768293D01*
X122964001Y-100808796D01*
X122963925Y-100809181D01*
X122953899Y-100842233D01*
X122953749Y-100842595D01*
X122937472Y-100873046D01*
X122937254Y-100873372D01*
X122915345Y-100900068D01*
X122915068Y-100900345D01*
X122888372Y-100922254D01*
X122888046Y-100922472D01*
X122857595Y-100938749D01*
X122857233Y-100938899D01*
X122824181Y-100948925D01*
X122823796Y-100949001D01*
X122783293Y-100952990D01*
X122783097Y-100953000D01*
X122701000Y-100953000D01*
X122699268Y-100952000D01*
X122699268Y-100950000D01*
X122700804Y-100949010D01*
X122752304Y-100943938D01*
X122801642Y-100928971D01*
X122847110Y-100904668D01*
X122886962Y-100871962D01*
X122919668Y-100832110D01*
X122943971Y-100786642D01*
X122958938Y-100737304D01*
X122964010Y-100685804D01*
X122965175Y-100684178D01*
X122967165Y-100684374D01*
G37*
G36*
X120915990Y-100685804D02*
G01*
X120921062Y-100737304D01*
X120936029Y-100786642D01*
X120960332Y-100832110D01*
X120993038Y-100871962D01*
X121032890Y-100904668D01*
X121078358Y-100928971D01*
X121127696Y-100943938D01*
X121179196Y-100949010D01*
X121180822Y-100950175D01*
X121180626Y-100952165D01*
X121179000Y-100953000D01*
X121096903Y-100953000D01*
X121096707Y-100952990D01*
X121056204Y-100949001D01*
X121055819Y-100948925D01*
X121022767Y-100938899D01*
X121022405Y-100938749D01*
X120991954Y-100922472D01*
X120991628Y-100922254D01*
X120964932Y-100900345D01*
X120964655Y-100900068D01*
X120942746Y-100873372D01*
X120942528Y-100873046D01*
X120926251Y-100842595D01*
X120926101Y-100842233D01*
X120916075Y-100809181D01*
X120915999Y-100808796D01*
X120912010Y-100768293D01*
X120912000Y-100768097D01*
X120912000Y-100686000D01*
X120913000Y-100684268D01*
X120915000Y-100684268D01*
X120915990Y-100685804D01*
G37*
G36*
X121180732Y-99148000D02*
G01*
X121180732Y-99150000D01*
X121179196Y-99150990D01*
X121127696Y-99156062D01*
X121078358Y-99171029D01*
X121032890Y-99195332D01*
X120993038Y-99228038D01*
X120960332Y-99267890D01*
X120936029Y-99313358D01*
X120921062Y-99362696D01*
X120915990Y-99414196D01*
X120914825Y-99415822D01*
X120912835Y-99415626D01*
X120912000Y-99414000D01*
X120912000Y-99331903D01*
X120912010Y-99331707D01*
X120915999Y-99291204D01*
X120916075Y-99290819D01*
X120926101Y-99257767D01*
X120926251Y-99257405D01*
X120942528Y-99226954D01*
X120942746Y-99226628D01*
X120964655Y-99199932D01*
X120964932Y-99199655D01*
X120991628Y-99177746D01*
X120991954Y-99177528D01*
X121022405Y-99161251D01*
X121022767Y-99161101D01*
X121055819Y-99151075D01*
X121056204Y-99150999D01*
X121096707Y-99147010D01*
X121096903Y-99147000D01*
X121179000Y-99147000D01*
X121180732Y-99148000D01*
G37*
G36*
X122783293Y-99147010D02*
G01*
X122823796Y-99150999D01*
X122824181Y-99151075D01*
X122857233Y-99161101D01*
X122857595Y-99161251D01*
X122888046Y-99177528D01*
X122888372Y-99177746D01*
X122915068Y-99199655D01*
X122915345Y-99199932D01*
X122937254Y-99226628D01*
X122937472Y-99226954D01*
X122953749Y-99257405D01*
X122953899Y-99257767D01*
X122963925Y-99290819D01*
X122964001Y-99291204D01*
X122967990Y-99331707D01*
X122968000Y-99331903D01*
X122968000Y-99414000D01*
X122967000Y-99415732D01*
X122965000Y-99415732D01*
X122964010Y-99414196D01*
X122958938Y-99362696D01*
X122943971Y-99313358D01*
X122919668Y-99267890D01*
X122886962Y-99228038D01*
X122847110Y-99195332D01*
X122801642Y-99171029D01*
X122752304Y-99156062D01*
X122700804Y-99150990D01*
X122699178Y-99149825D01*
X122699374Y-99147835D01*
X122701000Y-99147000D01*
X122783097Y-99147000D01*
X122783293Y-99147010D01*
G37*
G36*
X88011232Y-91984000D02*
G01*
X88011500Y-91985000D01*
X88011500Y-93287000D01*
X88010500Y-93288732D01*
X88009500Y-93289000D01*
X87876500Y-93289000D01*
X87874768Y-93288000D01*
X87874500Y-93287000D01*
X87874500Y-91985000D01*
X87875500Y-91983268D01*
X87876500Y-91983000D01*
X88009500Y-91983000D01*
X88011232Y-91984000D01*
G37*
G36*
X86741232Y-91984000D02*
G01*
X86741500Y-91985000D01*
X86741500Y-93287000D01*
X86740500Y-93288732D01*
X86739500Y-93289000D01*
X86606500Y-93289000D01*
X86604768Y-93288000D01*
X86604500Y-93287000D01*
X86604500Y-91985000D01*
X86605500Y-91983268D01*
X86606500Y-91983000D01*
X86739500Y-91983000D01*
X86741232Y-91984000D01*
G37*
G36*
X87376232Y-91984000D02*
G01*
X87376500Y-91985000D01*
X87376500Y-93287000D01*
X87375500Y-93288732D01*
X87374500Y-93289000D01*
X87241500Y-93289000D01*
X87239768Y-93288000D01*
X87239500Y-93287000D01*
X87239500Y-91985000D01*
X87240500Y-91983268D01*
X87241500Y-91983000D01*
X87374500Y-91983000D01*
X87376232Y-91984000D01*
G37*
G36*
X86106232Y-91984000D02*
G01*
X86106500Y-91985000D01*
X86106500Y-93287000D01*
X86105500Y-93288732D01*
X86104500Y-93289000D01*
X85971500Y-93289000D01*
X85969768Y-93288000D01*
X85969500Y-93287000D01*
X85969500Y-91985000D01*
X85970500Y-91983268D01*
X85971500Y-91983000D01*
X86104500Y-91983000D01*
X86106232Y-91984000D01*
G37*
G36*
X88646232Y-91984000D02*
G01*
X88646500Y-91985000D01*
X88646500Y-93287000D01*
X88645500Y-93288732D01*
X88644500Y-93289000D01*
X88511500Y-93289000D01*
X88509768Y-93288000D01*
X88509500Y-93287000D01*
X88509500Y-91985000D01*
X88510500Y-91983268D01*
X88511500Y-91983000D01*
X88644500Y-91983000D01*
X88646232Y-91984000D01*
G37*
G36*
X89281232Y-91984000D02*
G01*
X89281500Y-91985000D01*
X89281500Y-93287000D01*
X89280500Y-93288732D01*
X89279500Y-93289000D01*
X89146500Y-93289000D01*
X89144768Y-93288000D01*
X89144500Y-93287000D01*
X89144500Y-91985000D01*
X89145500Y-91983268D01*
X89146500Y-91983000D01*
X89279500Y-91983000D01*
X89281232Y-91984000D01*
G37*
G36*
X85471232Y-91984000D02*
G01*
X85471500Y-91985000D01*
X85471500Y-93287000D01*
X85470500Y-93288732D01*
X85469500Y-93289000D01*
X85336500Y-93289000D01*
X85334768Y-93288000D01*
X85334500Y-93287000D01*
X85334500Y-91985000D01*
X85335500Y-91983268D01*
X85336500Y-91983000D01*
X85469500Y-91983000D01*
X85471232Y-91984000D01*
G37*
G36*
X77640732Y-91364000D02*
G01*
X77641000Y-91365000D01*
X77641000Y-91563000D01*
X77640000Y-91564732D01*
X77639000Y-91565000D01*
X75037000Y-91565000D01*
X75035268Y-91564000D01*
X75035000Y-91563000D01*
X75035000Y-91365000D01*
X75036000Y-91363268D01*
X75037000Y-91363000D01*
X77639000Y-91363000D01*
X77640732Y-91364000D01*
G37*
G36*
X77640732Y-90564000D02*
G01*
X77641000Y-90565000D01*
X77641000Y-90763000D01*
X77640000Y-90764732D01*
X77639000Y-90765000D01*
X75037000Y-90765000D01*
X75035268Y-90764000D01*
X75035000Y-90763000D01*
X75035000Y-90565000D01*
X75036000Y-90563268D01*
X75037000Y-90563000D01*
X77639000Y-90563000D01*
X77640732Y-90564000D01*
G37*
G36*
X77640732Y-89764000D02*
G01*
X77641000Y-89765000D01*
X77641000Y-89963000D01*
X77640000Y-89964732D01*
X77639000Y-89965000D01*
X75037000Y-89965000D01*
X75035268Y-89964000D01*
X75035000Y-89963000D01*
X75035000Y-89765000D01*
X75036000Y-89763268D01*
X75037000Y-89763000D01*
X77639000Y-89763000D01*
X77640732Y-89764000D01*
G37*
G36*
X77640732Y-88964000D02*
G01*
X77641000Y-88965000D01*
X77641000Y-89163000D01*
X77640000Y-89164732D01*
X77639000Y-89165000D01*
X75037000Y-89165000D01*
X75035268Y-89164000D01*
X75035000Y-89163000D01*
X75035000Y-88965000D01*
X75036000Y-88963268D01*
X75037000Y-88963000D01*
X77639000Y-88963000D01*
X77640732Y-88964000D01*
G37*
G36*
X86741232Y-86784000D02*
G01*
X86741500Y-86785000D01*
X86741500Y-88087000D01*
X86740500Y-88088732D01*
X86739500Y-88089000D01*
X86606500Y-88089000D01*
X86604768Y-88088000D01*
X86604500Y-88087000D01*
X86604500Y-86785000D01*
X86605500Y-86783268D01*
X86606500Y-86783000D01*
X86739500Y-86783000D01*
X86741232Y-86784000D01*
G37*
G36*
X89281232Y-86784000D02*
G01*
X89281500Y-86785000D01*
X89281500Y-88087000D01*
X89280500Y-88088732D01*
X89279500Y-88089000D01*
X89146500Y-88089000D01*
X89144768Y-88088000D01*
X89144500Y-88087000D01*
X89144500Y-86785000D01*
X89145500Y-86783268D01*
X89146500Y-86783000D01*
X89279500Y-86783000D01*
X89281232Y-86784000D01*
G37*
G36*
X85471232Y-86784000D02*
G01*
X85471500Y-86785000D01*
X85471500Y-88087000D01*
X85470500Y-88088732D01*
X85469500Y-88089000D01*
X85336500Y-88089000D01*
X85334768Y-88088000D01*
X85334500Y-88087000D01*
X85334500Y-86785000D01*
X85335500Y-86783268D01*
X85336500Y-86783000D01*
X85469500Y-86783000D01*
X85471232Y-86784000D01*
G37*
G36*
X86106232Y-86784000D02*
G01*
X86106500Y-86785000D01*
X86106500Y-88087000D01*
X86105500Y-88088732D01*
X86104500Y-88089000D01*
X85971500Y-88089000D01*
X85969768Y-88088000D01*
X85969500Y-88087000D01*
X85969500Y-86785000D01*
X85970500Y-86783268D01*
X85971500Y-86783000D01*
X86104500Y-86783000D01*
X86106232Y-86784000D01*
G37*
G36*
X87376232Y-86784000D02*
G01*
X87376500Y-86785000D01*
X87376500Y-88087000D01*
X87375500Y-88088732D01*
X87374500Y-88089000D01*
X87241500Y-88089000D01*
X87239768Y-88088000D01*
X87239500Y-88087000D01*
X87239500Y-86785000D01*
X87240500Y-86783268D01*
X87241500Y-86783000D01*
X87374500Y-86783000D01*
X87376232Y-86784000D01*
G37*
G36*
X88011232Y-86784000D02*
G01*
X88011500Y-86785000D01*
X88011500Y-88087000D01*
X88010500Y-88088732D01*
X88009500Y-88089000D01*
X87876500Y-88089000D01*
X87874768Y-88088000D01*
X87874500Y-88087000D01*
X87874500Y-86785000D01*
X87875500Y-86783268D01*
X87876500Y-86783000D01*
X88009500Y-86783000D01*
X88011232Y-86784000D01*
G37*
G36*
X88646232Y-86784000D02*
G01*
X88646500Y-86785000D01*
X88646500Y-88087000D01*
X88645500Y-88088732D01*
X88644500Y-88089000D01*
X88511500Y-88089000D01*
X88509768Y-88088000D01*
X88509500Y-88087000D01*
X88509500Y-86785000D01*
X88510500Y-86783268D01*
X88511500Y-86783000D01*
X88644500Y-86783000D01*
X88646232Y-86784000D01*
G37*
G36*
X122967165Y-87054374D02*
G01*
X122968000Y-87056000D01*
X122968000Y-87138097D01*
X122967990Y-87138293D01*
X122964001Y-87178796D01*
X122963925Y-87179181D01*
X122953899Y-87212233D01*
X122953749Y-87212595D01*
X122937472Y-87243046D01*
X122937254Y-87243372D01*
X122915345Y-87270068D01*
X122915068Y-87270345D01*
X122888372Y-87292254D01*
X122888046Y-87292472D01*
X122857595Y-87308749D01*
X122857233Y-87308899D01*
X122824181Y-87318925D01*
X122823796Y-87319001D01*
X122783293Y-87322990D01*
X122783097Y-87323000D01*
X122701000Y-87323000D01*
X122699268Y-87322000D01*
X122699268Y-87320000D01*
X122700804Y-87319010D01*
X122752304Y-87313938D01*
X122801642Y-87298971D01*
X122847110Y-87274668D01*
X122886962Y-87241962D01*
X122919668Y-87202110D01*
X122943971Y-87156642D01*
X122958938Y-87107304D01*
X122964010Y-87055804D01*
X122965175Y-87054178D01*
X122967165Y-87054374D01*
G37*
G36*
X120915990Y-87055804D02*
G01*
X120921062Y-87107304D01*
X120936029Y-87156642D01*
X120960332Y-87202110D01*
X120993038Y-87241962D01*
X121032890Y-87274668D01*
X121078358Y-87298971D01*
X121127696Y-87313938D01*
X121179196Y-87319010D01*
X121180822Y-87320175D01*
X121180626Y-87322165D01*
X121179000Y-87323000D01*
X121096903Y-87323000D01*
X121096707Y-87322990D01*
X121056204Y-87319001D01*
X121055819Y-87318925D01*
X121022767Y-87308899D01*
X121022405Y-87308749D01*
X120991954Y-87292472D01*
X120991628Y-87292254D01*
X120964932Y-87270345D01*
X120964655Y-87270068D01*
X120942746Y-87243372D01*
X120942528Y-87243046D01*
X120926251Y-87212595D01*
X120926101Y-87212233D01*
X120916075Y-87179181D01*
X120915999Y-87178796D01*
X120912010Y-87138293D01*
X120912000Y-87138097D01*
X120912000Y-87056000D01*
X120913000Y-87054268D01*
X120915000Y-87054268D01*
X120915990Y-87055804D01*
G37*
G36*
X121180732Y-85518000D02*
G01*
X121180732Y-85520000D01*
X121179196Y-85520990D01*
X121127696Y-85526062D01*
X121078358Y-85541029D01*
X121032890Y-85565332D01*
X120993038Y-85598038D01*
X120960332Y-85637890D01*
X120936029Y-85683358D01*
X120921062Y-85732696D01*
X120915990Y-85784196D01*
X120914825Y-85785822D01*
X120912835Y-85785626D01*
X120912000Y-85784000D01*
X120912000Y-85701903D01*
X120912010Y-85701707D01*
X120915999Y-85661204D01*
X120916075Y-85660819D01*
X120926101Y-85627767D01*
X120926251Y-85627405D01*
X120942528Y-85596954D01*
X120942746Y-85596628D01*
X120964655Y-85569932D01*
X120964932Y-85569655D01*
X120991628Y-85547746D01*
X120991954Y-85547528D01*
X121022405Y-85531251D01*
X121022767Y-85531101D01*
X121055819Y-85521075D01*
X121056204Y-85520999D01*
X121096707Y-85517010D01*
X121096903Y-85517000D01*
X121179000Y-85517000D01*
X121180732Y-85518000D01*
G37*
G36*
X122783293Y-85517010D02*
G01*
X122823796Y-85520999D01*
X122824181Y-85521075D01*
X122857233Y-85531101D01*
X122857595Y-85531251D01*
X122888046Y-85547528D01*
X122888372Y-85547746D01*
X122915068Y-85569655D01*
X122915345Y-85569932D01*
X122937254Y-85596628D01*
X122937472Y-85596954D01*
X122953749Y-85627405D01*
X122953899Y-85627767D01*
X122963925Y-85660819D01*
X122964001Y-85661204D01*
X122967990Y-85701707D01*
X122968000Y-85701903D01*
X122968000Y-85784000D01*
X122967000Y-85785732D01*
X122965000Y-85785732D01*
X122964010Y-85784196D01*
X122958938Y-85732696D01*
X122943971Y-85683358D01*
X122919668Y-85637890D01*
X122886962Y-85598038D01*
X122847110Y-85565332D01*
X122801642Y-85541029D01*
X122752304Y-85526062D01*
X122700804Y-85520990D01*
X122699178Y-85519825D01*
X122699374Y-85517835D01*
X122701000Y-85517000D01*
X122783097Y-85517000D01*
X122783293Y-85517010D01*
G37*
G36*
X120915990Y-73415804D02*
G01*
X120921062Y-73467304D01*
X120936029Y-73516642D01*
X120960332Y-73562110D01*
X120993038Y-73601962D01*
X121032890Y-73634668D01*
X121078358Y-73658971D01*
X121127696Y-73673938D01*
X121179196Y-73679010D01*
X121180822Y-73680175D01*
X121180626Y-73682165D01*
X121179000Y-73683000D01*
X121096903Y-73683000D01*
X121096707Y-73682990D01*
X121056204Y-73679001D01*
X121055819Y-73678925D01*
X121022767Y-73668899D01*
X121022405Y-73668749D01*
X120991954Y-73652472D01*
X120991628Y-73652254D01*
X120964932Y-73630345D01*
X120964655Y-73630068D01*
X120942746Y-73603372D01*
X120942528Y-73603046D01*
X120926251Y-73572595D01*
X120926101Y-73572233D01*
X120916075Y-73539181D01*
X120915999Y-73538796D01*
X120912010Y-73498293D01*
X120912000Y-73498097D01*
X120912000Y-73416000D01*
X120913000Y-73414268D01*
X120915000Y-73414268D01*
X120915990Y-73415804D01*
G37*
G36*
X122967165Y-73414374D02*
G01*
X122968000Y-73416000D01*
X122968000Y-73498097D01*
X122967990Y-73498293D01*
X122964001Y-73538796D01*
X122963925Y-73539181D01*
X122953899Y-73572233D01*
X122953749Y-73572595D01*
X122937472Y-73603046D01*
X122937254Y-73603372D01*
X122915345Y-73630068D01*
X122915068Y-73630345D01*
X122888372Y-73652254D01*
X122888046Y-73652472D01*
X122857595Y-73668749D01*
X122857233Y-73668899D01*
X122824181Y-73678925D01*
X122823796Y-73679001D01*
X122783293Y-73682990D01*
X122783097Y-73683000D01*
X122701000Y-73683000D01*
X122699268Y-73682000D01*
X122699268Y-73680000D01*
X122700804Y-73679010D01*
X122752304Y-73673938D01*
X122801642Y-73658971D01*
X122847110Y-73634668D01*
X122886962Y-73601962D01*
X122919668Y-73562110D01*
X122943971Y-73516642D01*
X122958938Y-73467304D01*
X122964010Y-73415804D01*
X122965175Y-73414178D01*
X122967165Y-73414374D01*
G37*
G36*
X121180732Y-71878000D02*
G01*
X121180732Y-71880000D01*
X121179196Y-71880990D01*
X121127696Y-71886062D01*
X121078358Y-71901029D01*
X121032890Y-71925332D01*
X120993038Y-71958038D01*
X120960332Y-71997890D01*
X120936029Y-72043358D01*
X120921062Y-72092696D01*
X120915990Y-72144196D01*
X120914825Y-72145822D01*
X120912835Y-72145626D01*
X120912000Y-72144000D01*
X120912000Y-72061903D01*
X120912010Y-72061707D01*
X120915999Y-72021204D01*
X120916075Y-72020819D01*
X120926101Y-71987767D01*
X120926251Y-71987405D01*
X120942528Y-71956954D01*
X120942746Y-71956628D01*
X120964655Y-71929932D01*
X120964932Y-71929655D01*
X120991628Y-71907746D01*
X120991954Y-71907528D01*
X121022405Y-71891251D01*
X121022767Y-71891101D01*
X121055819Y-71881075D01*
X121056204Y-71880999D01*
X121096707Y-71877010D01*
X121096903Y-71877000D01*
X121179000Y-71877000D01*
X121180732Y-71878000D01*
G37*
G36*
X122783293Y-71877010D02*
G01*
X122823796Y-71880999D01*
X122824181Y-71881075D01*
X122857233Y-71891101D01*
X122857595Y-71891251D01*
X122888046Y-71907528D01*
X122888372Y-71907746D01*
X122915068Y-71929655D01*
X122915345Y-71929932D01*
X122937254Y-71956628D01*
X122937472Y-71956954D01*
X122953749Y-71987405D01*
X122953899Y-71987767D01*
X122963925Y-72020819D01*
X122964001Y-72021204D01*
X122967990Y-72061707D01*
X122968000Y-72061903D01*
X122968000Y-72144000D01*
X122967000Y-72145732D01*
X122965000Y-72145732D01*
X122964010Y-72144196D01*
X122958938Y-72092696D01*
X122943971Y-72043358D01*
X122919668Y-71997890D01*
X122886962Y-71958038D01*
X122847110Y-71925332D01*
X122801642Y-71901029D01*
X122752304Y-71886062D01*
X122700804Y-71880990D01*
X122699178Y-71879825D01*
X122699374Y-71877835D01*
X122701000Y-71877000D01*
X122783097Y-71877000D01*
X122783293Y-71877010D01*
G37*
G36*
X122967165Y-62294374D02*
G01*
X122968000Y-62296000D01*
X122968000Y-62378097D01*
X122967990Y-62378293D01*
X122964001Y-62418796D01*
X122963925Y-62419181D01*
X122953899Y-62452233D01*
X122953749Y-62452595D01*
X122937472Y-62483046D01*
X122937254Y-62483372D01*
X122915345Y-62510068D01*
X122915068Y-62510345D01*
X122888372Y-62532254D01*
X122888046Y-62532472D01*
X122857595Y-62548749D01*
X122857233Y-62548899D01*
X122824181Y-62558925D01*
X122823796Y-62559001D01*
X122783293Y-62562990D01*
X122783097Y-62563000D01*
X122701000Y-62563000D01*
X122699268Y-62562000D01*
X122699268Y-62560000D01*
X122700804Y-62559010D01*
X122752304Y-62553938D01*
X122801642Y-62538971D01*
X122847110Y-62514668D01*
X122886962Y-62481962D01*
X122919668Y-62442110D01*
X122943971Y-62396642D01*
X122958938Y-62347304D01*
X122964010Y-62295804D01*
X122965175Y-62294178D01*
X122967165Y-62294374D01*
G37*
G36*
X120915990Y-62295804D02*
G01*
X120921062Y-62347304D01*
X120936029Y-62396642D01*
X120960332Y-62442110D01*
X120993038Y-62481962D01*
X121032890Y-62514668D01*
X121078358Y-62538971D01*
X121127696Y-62553938D01*
X121179196Y-62559010D01*
X121180822Y-62560175D01*
X121180626Y-62562165D01*
X121179000Y-62563000D01*
X121096903Y-62563000D01*
X121096707Y-62562990D01*
X121056204Y-62559001D01*
X121055819Y-62558925D01*
X121022767Y-62548899D01*
X121022405Y-62548749D01*
X120991954Y-62532472D01*
X120991628Y-62532254D01*
X120964932Y-62510345D01*
X120964655Y-62510068D01*
X120942746Y-62483372D01*
X120942528Y-62483046D01*
X120926251Y-62452595D01*
X120926101Y-62452233D01*
X120916075Y-62419181D01*
X120915999Y-62418796D01*
X120912010Y-62378293D01*
X120912000Y-62378097D01*
X120912000Y-62296000D01*
X120913000Y-62294268D01*
X120915000Y-62294268D01*
X120915990Y-62295804D01*
G37*
G36*
X121180732Y-60758000D02*
G01*
X121180732Y-60760000D01*
X121179196Y-60760990D01*
X121127696Y-60766062D01*
X121078358Y-60781029D01*
X121032890Y-60805332D01*
X120993038Y-60838038D01*
X120960332Y-60877890D01*
X120936029Y-60923358D01*
X120921062Y-60972696D01*
X120915990Y-61024196D01*
X120914825Y-61025822D01*
X120912835Y-61025626D01*
X120912000Y-61024000D01*
X120912000Y-60941903D01*
X120912010Y-60941707D01*
X120915999Y-60901204D01*
X120916075Y-60900819D01*
X120926101Y-60867767D01*
X120926251Y-60867405D01*
X120942528Y-60836954D01*
X120942746Y-60836628D01*
X120964655Y-60809932D01*
X120964932Y-60809655D01*
X120991628Y-60787746D01*
X120991954Y-60787528D01*
X121022405Y-60771251D01*
X121022767Y-60771101D01*
X121055819Y-60761075D01*
X121056204Y-60760999D01*
X121096707Y-60757010D01*
X121096903Y-60757000D01*
X121179000Y-60757000D01*
X121180732Y-60758000D01*
G37*
G36*
X122783293Y-60757010D02*
G01*
X122823796Y-60760999D01*
X122824181Y-60761075D01*
X122857233Y-60771101D01*
X122857595Y-60771251D01*
X122888046Y-60787528D01*
X122888372Y-60787746D01*
X122915068Y-60809655D01*
X122915345Y-60809932D01*
X122937254Y-60836628D01*
X122937472Y-60836954D01*
X122953749Y-60867405D01*
X122953899Y-60867767D01*
X122963925Y-60900819D01*
X122964001Y-60901204D01*
X122967990Y-60941707D01*
X122968000Y-60941903D01*
X122968000Y-61024000D01*
X122967000Y-61025732D01*
X122965000Y-61025732D01*
X122964010Y-61024196D01*
X122958938Y-60972696D01*
X122943971Y-60923358D01*
X122919668Y-60877890D01*
X122886962Y-60838038D01*
X122847110Y-60805332D01*
X122801642Y-60781029D01*
X122752304Y-60766062D01*
X122700804Y-60760990D01*
X122699178Y-60759825D01*
X122699374Y-60757835D01*
X122701000Y-60757000D01*
X122783097Y-60757000D01*
X122783293Y-60757010D01*
G37*
G36*
X120890990Y-53685804D02*
G01*
X120896062Y-53737304D01*
X120911029Y-53786642D01*
X120935332Y-53832110D01*
X120968038Y-53871962D01*
X121007890Y-53904668D01*
X121053358Y-53928971D01*
X121102696Y-53943938D01*
X121154196Y-53949010D01*
X121155822Y-53950175D01*
X121155626Y-53952165D01*
X121154000Y-53953000D01*
X121071903Y-53953000D01*
X121071707Y-53952990D01*
X121031204Y-53949001D01*
X121030819Y-53948925D01*
X120997767Y-53938899D01*
X120997405Y-53938749D01*
X120966954Y-53922472D01*
X120966628Y-53922254D01*
X120939932Y-53900345D01*
X120939655Y-53900068D01*
X120917746Y-53873372D01*
X120917528Y-53873046D01*
X120901251Y-53842595D01*
X120901101Y-53842233D01*
X120891075Y-53809181D01*
X120890999Y-53808796D01*
X120887010Y-53768293D01*
X120887000Y-53768097D01*
X120887000Y-53686000D01*
X120888000Y-53684268D01*
X120890000Y-53684268D01*
X120890990Y-53685804D01*
G37*
G36*
X122992165Y-53684374D02*
G01*
X122993000Y-53686000D01*
X122993000Y-53768097D01*
X122992990Y-53768293D01*
X122989001Y-53808796D01*
X122988925Y-53809181D01*
X122978899Y-53842233D01*
X122978749Y-53842595D01*
X122962472Y-53873046D01*
X122962254Y-53873372D01*
X122940345Y-53900068D01*
X122940068Y-53900345D01*
X122913372Y-53922254D01*
X122913046Y-53922472D01*
X122882595Y-53938749D01*
X122882233Y-53938899D01*
X122849181Y-53948925D01*
X122848796Y-53949001D01*
X122808293Y-53952990D01*
X122808097Y-53953000D01*
X122726000Y-53953000D01*
X122724268Y-53952000D01*
X122724268Y-53950000D01*
X122725804Y-53949010D01*
X122777304Y-53943938D01*
X122826642Y-53928971D01*
X122872110Y-53904668D01*
X122911962Y-53871962D01*
X122944668Y-53832110D01*
X122968971Y-53786642D01*
X122983938Y-53737304D01*
X122989010Y-53685804D01*
X122990175Y-53684178D01*
X122992165Y-53684374D01*
G37*
G36*
X70580990Y-52195804D02*
G01*
X70586062Y-52247304D01*
X70601029Y-52296642D01*
X70625332Y-52342110D01*
X70658038Y-52381962D01*
X70697890Y-52414668D01*
X70743358Y-52438971D01*
X70792696Y-52453938D01*
X70844196Y-52459010D01*
X70845822Y-52460175D01*
X70845626Y-52462165D01*
X70844000Y-52463000D01*
X70761903Y-52463000D01*
X70761707Y-52462990D01*
X70721204Y-52459001D01*
X70720819Y-52458925D01*
X70687767Y-52448899D01*
X70687405Y-52448749D01*
X70656954Y-52432472D01*
X70656628Y-52432254D01*
X70629932Y-52410345D01*
X70629655Y-52410068D01*
X70607746Y-52383372D01*
X70607528Y-52383046D01*
X70591251Y-52352595D01*
X70591101Y-52352233D01*
X70581075Y-52319181D01*
X70580999Y-52318796D01*
X70577010Y-52278293D01*
X70577000Y-52278097D01*
X70577000Y-52196000D01*
X70578000Y-52194268D01*
X70580000Y-52194268D01*
X70580990Y-52195804D01*
G37*
G36*
X72382165Y-52194374D02*
G01*
X72383000Y-52196000D01*
X72383000Y-52278097D01*
X72382990Y-52278293D01*
X72379001Y-52318796D01*
X72378925Y-52319181D01*
X72368899Y-52352233D01*
X72368749Y-52352595D01*
X72352472Y-52383046D01*
X72352254Y-52383372D01*
X72330345Y-52410068D01*
X72330068Y-52410345D01*
X72303372Y-52432254D01*
X72303046Y-52432472D01*
X72272595Y-52448749D01*
X72272233Y-52448899D01*
X72239181Y-52458925D01*
X72238796Y-52459001D01*
X72198293Y-52462990D01*
X72198097Y-52463000D01*
X72116000Y-52463000D01*
X72114268Y-52462000D01*
X72114268Y-52460000D01*
X72115804Y-52459010D01*
X72167304Y-52453938D01*
X72216642Y-52438971D01*
X72262110Y-52414668D01*
X72301962Y-52381962D01*
X72334668Y-52342110D01*
X72358971Y-52296642D01*
X72373938Y-52247304D01*
X72379010Y-52195804D01*
X72380175Y-52194178D01*
X72382165Y-52194374D01*
G37*
G36*
X121155732Y-52148000D02*
G01*
X121155732Y-52150000D01*
X121154196Y-52150990D01*
X121102696Y-52156062D01*
X121053358Y-52171029D01*
X121007890Y-52195332D01*
X120968038Y-52228038D01*
X120935332Y-52267890D01*
X120911029Y-52313358D01*
X120896062Y-52362696D01*
X120890990Y-52414196D01*
X120889825Y-52415822D01*
X120887835Y-52415626D01*
X120887000Y-52414000D01*
X120887000Y-52331903D01*
X120887010Y-52331707D01*
X120890999Y-52291204D01*
X120891075Y-52290819D01*
X120901101Y-52257767D01*
X120901251Y-52257405D01*
X120917528Y-52226954D01*
X120917746Y-52226628D01*
X120939655Y-52199932D01*
X120939932Y-52199655D01*
X120966628Y-52177746D01*
X120966954Y-52177528D01*
X120997405Y-52161251D01*
X120997767Y-52161101D01*
X121030819Y-52151075D01*
X121031204Y-52150999D01*
X121071707Y-52147010D01*
X121071903Y-52147000D01*
X121154000Y-52147000D01*
X121155732Y-52148000D01*
G37*
G36*
X122808293Y-52147010D02*
G01*
X122848796Y-52150999D01*
X122849181Y-52151075D01*
X122882233Y-52161101D01*
X122882595Y-52161251D01*
X122913046Y-52177528D01*
X122913372Y-52177746D01*
X122940068Y-52199655D01*
X122940345Y-52199932D01*
X122962254Y-52226628D01*
X122962472Y-52226954D01*
X122978749Y-52257405D01*
X122978899Y-52257767D01*
X122988925Y-52290819D01*
X122989001Y-52291204D01*
X122992990Y-52331707D01*
X122993000Y-52331903D01*
X122993000Y-52414000D01*
X122992000Y-52415732D01*
X122990000Y-52415732D01*
X122989010Y-52414196D01*
X122983938Y-52362696D01*
X122968971Y-52313358D01*
X122944668Y-52267890D01*
X122911962Y-52228038D01*
X122872110Y-52195332D01*
X122826642Y-52171029D01*
X122777304Y-52156062D01*
X122725804Y-52150990D01*
X122724178Y-52149825D01*
X122724374Y-52147835D01*
X122726000Y-52147000D01*
X122808097Y-52147000D01*
X122808293Y-52147010D01*
G37*
G36*
X70845732Y-50658000D02*
G01*
X70845732Y-50660000D01*
X70844196Y-50660990D01*
X70792696Y-50666062D01*
X70743358Y-50681029D01*
X70697890Y-50705332D01*
X70658038Y-50738038D01*
X70625332Y-50777890D01*
X70601029Y-50823358D01*
X70586062Y-50872696D01*
X70580990Y-50924196D01*
X70579825Y-50925822D01*
X70577835Y-50925626D01*
X70577000Y-50924000D01*
X70577000Y-50841903D01*
X70577010Y-50841707D01*
X70580999Y-50801204D01*
X70581075Y-50800819D01*
X70591101Y-50767767D01*
X70591251Y-50767405D01*
X70607528Y-50736954D01*
X70607746Y-50736628D01*
X70629655Y-50709932D01*
X70629932Y-50709655D01*
X70656628Y-50687746D01*
X70656954Y-50687528D01*
X70687405Y-50671251D01*
X70687767Y-50671101D01*
X70720819Y-50661075D01*
X70721204Y-50660999D01*
X70761707Y-50657010D01*
X70761903Y-50657000D01*
X70844000Y-50657000D01*
X70845732Y-50658000D01*
G37*
G36*
X72198293Y-50657010D02*
G01*
X72238796Y-50660999D01*
X72239181Y-50661075D01*
X72272233Y-50671101D01*
X72272595Y-50671251D01*
X72303046Y-50687528D01*
X72303372Y-50687746D01*
X72330068Y-50709655D01*
X72330345Y-50709932D01*
X72352254Y-50736628D01*
X72352472Y-50736954D01*
X72368749Y-50767405D01*
X72368899Y-50767767D01*
X72378925Y-50800819D01*
X72379001Y-50801204D01*
X72382990Y-50841707D01*
X72383000Y-50841903D01*
X72383000Y-50924000D01*
X72382000Y-50925732D01*
X72380000Y-50925732D01*
X72379010Y-50924196D01*
X72373938Y-50872696D01*
X72358971Y-50823358D01*
X72334668Y-50777890D01*
X72301962Y-50738038D01*
X72262110Y-50705332D01*
X72216642Y-50681029D01*
X72167304Y-50666062D01*
X72115804Y-50660990D01*
X72114178Y-50659825D01*
X72114374Y-50657835D01*
X72116000Y-50657000D01*
X72198097Y-50657000D01*
X72198293Y-50657010D01*
G37*
M02*
